<svg version="1.1" xmlns="http://www.w3.org/2000/svg" viewBox="0 0 733.6286615818358 1044.9971825043892" width="1467.2573231636716" height="2089.9943650087785">
  <!-- svg-source:excalidraw -->
  
  <defs>
    <style class="style-fonts">
      @font-face {
        font-family: "Virgil";
        src: url("https://excalidraw.com/Virgil.woff2");
      }
      @font-face {
        font-family: "Cascadia";
        src: url("https://excalidraw.com/Cascadia.woff2");
      }
    </style>
    
  </defs>
  <rect x="0" y="0" width="733.6286615818358" height="1044.9971825043892" fill="#ffffff"></rect><g stroke-opacity="0" fill-opacity="0" stroke-linecap="round" transform="translate(10 10) rotate(0 58.378661581835615 58.378661581835615)"><path d="M71.95 0.9 C80.71 1.96, 90.52 8.41, 97.17 14.27 C103.82 20.12, 108.61 27.65, 111.85 36.02 C115.1 44.4, 117.43 55.53, 116.65 64.51 C115.88 73.49, 112.34 82.56, 107.22 89.93 C102.09 97.3, 93.8 104.23, 85.91 108.75 C78.01 113.27, 68.93 116.76, 59.83 117.05 C50.72 117.34, 39.44 114.56, 31.29 110.48 C23.13 106.41, 16.16 100.1, 10.89 92.61 C5.61 85.12, 0.72 74.48, -0.36 65.53 C-1.44 56.58, 1.2 47.24, 4.4 38.91 C7.59 30.58, 12.2 21.72, 18.82 15.56 C25.43 9.41, 34.95 4.13, 44.08 1.98 C53.2 -0.17, 68.18 2.31, 73.56 2.68 C78.94 3.05, 76.54 3.3, 76.34 4.21 M54.04 -0.11 C62.46 -1.52, 73.42 1.49, 81.69 5.22 C89.95 8.94, 98.16 15.45, 103.61 22.22 C109.06 28.98, 112.8 37.34, 114.39 45.81 C115.97 54.27, 115.34 64.38, 113.1 73.01 C110.86 81.63, 107.03 91.02, 100.96 97.55 C94.89 104.08, 85.06 109.24, 76.69 112.17 C68.31 115.1, 59.42 116.18, 50.72 115.13 C42.02 114.08, 31.8 110.99, 24.49 105.86 C17.17 100.73, 11.05 92.42, 6.84 84.34 C2.62 76.25, -0.77 66.29, -0.83 57.34 C-0.88 48.38, 1.94 38.79, 6.48 30.6 C11.03 22.41, 18.73 13.39, 26.46 8.18 C34.19 2.97, 48.36 0.69, 52.87 -0.65 C57.38 -1.99, 53.41 -0.77, 53.53 0.15" stroke="#1e1e1e" stroke-width="1" fill="none"></path></g><g transform="translate(25.375597834918096 82.91274166891822) rotate(0 41.13995361328125 12.5)"><text x="41.13995361328125" y="0" font-family="Virgil, Segoe UI Emoji" font-size="20px" fill="#1e1e1e" text-anchor="middle" style="white-space: pre;" direction="ltr" dominant-baseline="text-before-edge">proyecto</text></g><g stroke-linecap="round"><g transform="translate(39.736770062116136 74.5119679966474) rotate(0 26.14592528068991 -12.643137345194575)"><path d="M0.42 0.42 C1.31 -2.87, 2.83 -15.99, 5.92 -20.33 C9.02 -24.66, 11.14 -24.99, 19.01 -25.59 C26.87 -26.19, 47.27 -24.24, 53.12 -23.94 M-0.82 -0.41 C0.41 -3.97, 5.06 -17.97, 8.24 -22.03 C11.43 -26.1, 10.88 -24.69, 18.3 -24.8 C25.72 -24.91, 47.07 -22.96, 52.77 -22.68" stroke="#1e1e1e" stroke-width="1" fill="none"></path></g></g><mask></mask><g stroke-linecap="round"><g transform="translate(92.97835970574755 49.69873600308506) rotate(0 -24.03771295622414 5.153759848085599)"><path d="M-0.75 0.79 C0.4 1.09, 7.04 -1.43, 7.28 2.24 C7.52 5.91, 3.03 18.67, 0.68 22.79 C-1.67 26.91, 1.11 26.4, -6.84 26.97 C-14.79 27.54, -39.01 27.13, -47.02 26.2 C-55.04 25.27, -53.76 27.59, -54.92 21.38 C-56.08 15.17, -54.68 -4.78, -53.97 -11.05 C-53.25 -17.33, -53.63 -15.17, -50.64 -16.26 C-47.65 -17.35, -39.04 -18.85, -36.01 -17.59 C-32.98 -16.33, -37.47 -9.91, -32.45 -8.68 C-27.44 -7.45, -11.33 -10.55, -5.92 -10.2 C-0.5 -9.85, -0.98 -8.21, 0.02 -6.59 C1.03 -4.97, 0.01 -1.65, 0.12 -0.47 M1.06 0.16 C2.02 0.54, 6.07 -0.76, 6.39 3.25 C6.71 7.27, 5.16 20.08, 2.98 24.26 C0.8 28.43, 1.39 27.94, -6.68 28.3 C-14.76 28.66, -37.54 27.67, -45.45 26.42 C-53.35 25.16, -52.83 26.7, -54.11 20.77 C-55.39 14.84, -53.55 -2.93, -53.14 -9.15 C-52.72 -15.36, -54.25 -15.41, -51.62 -16.53 C-49 -17.65, -40.66 -17.19, -37.41 -15.87 C-34.15 -14.54, -37.45 -9.66, -32.09 -8.58 C-26.74 -7.5, -10.43 -9.69, -5.27 -9.39 C-0.12 -9.08, -2.1 -8.06, -1.16 -6.75 C-0.21 -5.45, 0.16 -2.76, 0.41 -1.54" stroke="#1e1e1e" stroke-width="1" fill="none"></path></g></g><mask></mask><g stroke-linecap="round"><g transform="translate(82.37866158183567 105.37866158183564) rotate(0 48.1630069402413 57.68985696713182)"><path d="M0.44 1.2 C1.12 18.08, -13.6 83.13, 3.2 101.89 C19.99 120.65, 84.97 111.82, 101.21 113.76" stroke="#1e1e1e" stroke-width="1.5" fill="none" stroke-dasharray="8 9"></path></g></g><mask></mask><g stroke-linecap="round"><g transform="translate(60.378661581835786 113.37866158183562) rotate(0 55.9135837193609 320.71564914139356)"><path d="M0.46 1.15 C0.62 96.03, -19.9 461.72, 0.1 568.19 C20.11 674.66, 100.58 628.12, 120.49 639.98" stroke="#1e1e1e" stroke-width="1.5" fill="none" stroke-dasharray="8 9"></path></g></g><mask></mask><g stroke-opacity="0" fill-opacity="0" stroke-linecap="round" transform="translate(196.65812996827935 930.0975216692937) rotate(0 15.801907099150412 18.811412536202738)"><path d="M15.71 -0.23 C18.75 -0.53, 22.68 2.1, 25.17 4.59 C27.65 7.08, 29.79 10.89, 30.62 14.72 C31.46 18.55, 31.54 24.02, 30.17 27.56 C28.81 31.1, 25.66 34.38, 22.45 35.95 C19.23 37.53, 14.03 38.17, 10.88 37.01 C7.72 35.84, 5.46 32.24, 3.51 28.97 C1.56 25.7, -1.1 21.49, -0.83 17.4 C-0.56 13.3, 2.01 7.3, 5.1 4.42 C8.2 1.53, 15.21 0.51, 17.77 0.08 C20.32 -0.35, 20.59 1.44, 20.42 1.82 M17.07 1.2 C20.11 1.57, 24.24 3.52, 26.41 6.15 C28.58 8.78, 29.74 12.9, 30.09 16.99 C30.45 21.08, 30.27 27.3, 28.51 30.69 C26.75 34.07, 22.89 36.5, 19.52 37.3 C16.16 38.09, 11.18 37.12, 8.34 35.44 C5.51 33.76, 3.57 31.01, 2.51 27.24 C1.45 23.47, 1.32 16.93, 1.98 12.84 C2.64 8.76, 4.02 4.75, 6.46 2.72 C8.9 0.69, 14.93 0.84, 16.61 0.67 C18.3 0.49, 16.3 1.4, 16.59 1.66" stroke="#1e1e1e" stroke-width="1" fill="none"></path></g><g stroke-linecap="round"><g transform="translate(208.88942979465787 952.2268049548429) rotate(0 4.386708127512151 -1.8717524289417042)"><path d="M0.93 -0.13 C0.89 3.61, 0 8.67, -0.51 10.37 M-0.05 -0.22 C0.13 3.68, -0.06 6.02, 0.39 10.15 M0.09 10.41 C-1.59 10.24, -2.32 10.22, -5.8 9.99 M-0.23 10.01 C-2.05 10.26, -4.12 10.13, -5.58 9.98 M-6.24 9.8 C-5.98 5.26, -5.03 0.95, -4.5 -0.61 M-5.92 9.56 C-5.38 6.28, -6.01 2.62, -5.69 -1.94 M-5.38 -1.85 C-7.09 -1.27, -7.64 -1.69, -10.16 -1.84 M-5.66 -1.54 C-6.44 -1.48, -7.79 -1.41, -9.58 -1.57 M-8.06 -3.02 C-7.97 -3.65, -3.8 -8.46, 4.09 -13.1 M-9.55 -2.06 C-6.16 -5.63, -3.1 -8.45, 4.41 -14.05 M4.88 -14.9 C6.14 -11.84, 9.53 -9.47, 11.12 -8.78 M3.83 -14.85 C5.98 -13.54, 7.3 -11.84, 11.29 -8.65 M11.14 -8.24 C11.33 -9.63, 11.06 -10.51, 11.07 -11.85 M11.21 -8.59 C11.37 -9.6, 11.1 -10.63, 11.44 -12.33 M11.43 -12.28 C12.5 -12.25, 13.96 -11.96, 15.36 -11.95 M11.2 -12.28 C12.72 -11.87, 14.1 -11.91, 15.12 -11.85 M14.42 -11.58 C15.6 -10.88, 15 -8.85, 14.46 -5.33 M15.27 -11.65 C15.1 -10.03, 14.78 -7.93, 14.89 -5.87 M15.39 -5.77 C15.9 -5.12, 16.46 -4.02, 18.94 -1.27 M14.65 -5.79 C16.01 -4, 17.78 -2.48, 18.75 -0.79 M18.85 -1.1 C17.63 -1.21, 15.53 -0.7, 14.76 -1.14 M18.66 -0.89 C17.28 -0.86, 15.88 -0.78, 14.62 -0.88 M13.46 -2.02 C13.59 1.9, 13.51 4.66, 13.84 10.54 M14.92 -1.35 C13.97 2.17, 14.17 4.77, 14.96 10.42 M13.85 10.81 C11.28 10.26, 9.89 10, 7.66 10.52 M14.56 10.69 C13.27 10.23, 11.48 10.76, 8.2 10.5 M8.63 11.16 C7.58 8.04, 7.65 5.5, 8.32 0.07 M8.26 10.37 C8.18 6.93, 8.23 3.45, 7.68 0.85 M8.82 0.82 C5.27 -0.09, 3.19 -0.51, -0.68 -0.33 M8.02 0.62 C5.01 0.17, 2.14 -0.04, -0.34 -0.38" stroke="#1e1e1e" stroke-width="1" fill="none"></path></g></g><mask></mask><g stroke-opacity="0" fill-opacity="0" stroke-linecap="round" transform="translate(145.28309174949771 892.1778506030503) rotate(0 71.40966595066956 71.40966595066953)"><path d="M64.08 0.53 C73.82 -1.39, 86.41 1.53, 96.02 4.86 C105.64 8.2, 114.62 13.23, 121.76 20.54 C128.89 27.84, 135.31 38.77, 138.82 48.69 C142.32 58.61, 143.85 69.83, 142.79 80.04 C141.73 90.24, 138 101.17, 132.46 109.91 C126.91 118.65, 118.48 127.15, 109.52 132.47 C100.55 137.79, 88.88 140.91, 78.67 141.82 C68.46 142.73, 57.76 141.4, 48.25 137.9 C38.75 134.41, 29.1 127.86, 21.64 120.84 C14.18 113.82, 6.89 105.22, 3.49 95.78 C0.1 86.33, -0.17 74.51, 1.25 64.17 C2.67 53.83, 6.73 42.57, 12.01 33.72 C17.28 24.87, 23.71 16.81, 32.89 11.07 C42.08 5.34, 60.68 0.82, 67.13 -0.68 C73.58 -2.18, 71.55 0.62, 71.59 2.08 M64.6 0.48 C74.49 -1.65, 87.11 -0.35, 96.6 3.13 C106.1 6.6, 114.34 13.86, 121.58 21.35 C128.82 28.84, 136.55 37.97, 140.04 48.07 C143.53 58.18, 143.99 71.69, 142.51 82 C141.02 92.31, 136.67 101.46, 131.11 109.95 C125.56 118.43, 118.08 127.48, 109.18 132.89 C100.29 138.31, 87.93 141.68, 77.74 142.45 C67.56 143.23, 57.79 141.11, 48.09 137.54 C38.39 133.96, 26.95 128.21, 19.55 121.02 C12.15 113.84, 7.08 104.18, 3.7 94.43 C0.33 84.67, -1.93 72.74, -0.71 62.49 C0.51 52.23, 5.16 41.42, 11.01 32.91 C16.86 24.4, 25.62 16.68, 34.38 11.43 C43.15 6.18, 58.66 2.88, 63.59 1.42 C68.53 -0.04, 63.73 1.62, 63.99 2.68" stroke="#1e1e1e" stroke-width="1" fill="none"></path></g><g stroke-linecap="round"><g transform="translate(190.37562842514967 917.6105614679027) rotate(0 23.537902439196557 29.07248084181549)"><path d="M0.54 -0.96 C0.89 13.21, 1.63 27.6, -0.54 56.42 M0.46 0.67 C0.77 17.2, 0.91 33.3, -0.57 58.01 M-0.91 59.31 C11.64 59.71, 22.08 58.75, 45.53 57.86 M0.65 56.74 C12.38 57.32, 22.45 57.13, 46.88 57.52 M46.32 58.55 C46.06 44.14, 49.12 29.96, 46.27 17.46 M47.8 56.84 C46.65 44.01, 47.06 31.01, 46 16.57 M47.99 15.4 C44.03 15.66, 39.92 16.29, 32.16 15.82 M46.61 16.19 C41.43 15.99, 36.01 15.97, 32.18 16.2 M31.96 17.92 C31.34 11.8, 32.62 4.62, 31.92 1.9 M31.27 16.21 C32.58 12.45, 31.21 7.54, 32.12 1.04 M30.36 -1.26 C33.45 4.26, 38.26 5.29, 45.57 16.16 M32.53 0.78 C37.42 5.75, 42.59 10.81, 47.61 17.15 M44.9 15.22 C42.1 9.53, 33.49 5.78, 30.34 -0.15 M46.91 16.55 C42.7 11.91, 39.11 7.7, 30.45 0.82 M30.55 1.79 C21.27 0.93, 9.66 -1.3, 1.8 -0.41 M32.24 -0.44 C23.33 0.11, 13.7 -0.29, 0.54 -0.71" stroke="#1e1e1e" stroke-width="1" fill="none"></path></g></g><mask></mask><g transform="translate(160.55408832511216 980.326228390109) rotate(0 56.13866937505486 15.290189946065993)"><text x="56.138669375054846" y="0" font-family="Virgil, Segoe UI Emoji" font-size="24.464303913705518px" fill="#1e1e1e" text-anchor="middle" style="white-space: pre;" direction="ltr" dominant-baseline="text-before-edge">index.html</text></g><g stroke-linecap="round" transform="translate(373.8786615818358 681.3786615818356) rotate(0 174.875 82.125)"><path d="M33.44 -1.28 L319.38 0.79 L324.56 2 L337.51 4.42 L345.8 11.58 L349.33 17.89 L348.91 33.06 L348.32 133.3 L348.86 137.77 L344.93 151.51 L336.08 159.36 L330.58 160.67 L317.98 164.73 L33.42 163.7 L24.19 162.07 L10.81 159.07 L4.05 151.62 L0.32 138.27 L-0.87 23.38 L3.75 17.57 L6.2 6.15 L17.37 3.03 L32.02 -0.52" stroke="none" stroke-width="0" fill="#ffec99"></path><path d="M32 0 M32 0 C139.24 -0.27, 243.5 -0.52, 317.75 0 M317.75 0 C337.88 1.05, 349.61 12.17, 349.75 32 M349.75 32 C351.68 69.95, 350.41 105.89, 349.75 132.25 M349.75 132.25 C350.66 154.67, 337.59 165.55, 317.75 164.25 M317.75 164.25 C242.93 165.97, 168.65 166.4, 32 164.25 M32 164.25 C10.83 164.47, -0.63 155.44, 0 132.25 M0 132.25 C0.93 103.58, -2.12 76.79, 0 32 M0 32 C0.94 10.36, 10.87 -0.46, 32 0" stroke="#1e1e1e" stroke-width="1.5" fill="none" stroke-dasharray="8 9"></path></g><g stroke-opacity="0" fill-opacity="0" stroke-linecap="round" transform="translate(411.1488898821408 687.8629751005085) rotate(0 35.78466595066959 35.78466595066959)"><path d="M21.33 3.05 C27.17 -0.34, 34.99 -1.53, 41.81 -0.3 C48.63 0.92, 57.2 5.25, 62.25 10.38 C67.3 15.52, 71.33 23.44, 72.1 30.5 C72.87 37.56, 70.3 46.56, 66.86 52.74 C63.41 58.93, 57.83 64.55, 51.44 67.6 C45.05 70.64, 35.39 72.25, 28.51 71.01 C21.62 69.77, 14.95 65.26, 10.1 60.14 C5.26 55.01, 0.45 47.16, -0.58 40.28 C-1.61 33.39, -0.44 25.36, 3.93 18.84 C8.3 12.33, 21.29 4.24, 25.66 1.18 C30.02 -1.89, 30.03 -0.2, 30.12 0.44 M43.82 -0.42 C50.83 0.1, 58 4.96, 62.75 10.11 C67.49 15.26, 71.46 23.25, 72.3 30.49 C73.15 37.72, 71.24 47.01, 67.82 53.53 C64.4 60.06, 58.17 66.67, 51.79 69.64 C45.42 72.6, 36.41 72.69, 29.59 71.32 C22.76 69.96, 15.84 66.67, 10.83 61.45 C5.83 56.24, 0.67 47.34, -0.45 40.03 C-1.56 32.72, 0.68 23.47, 4.13 17.6 C7.57 11.73, 14.04 7.72, 20.23 4.8 C26.41 1.88, 37.37 0.88, 41.23 0.09 C45.09 -0.71, 43.12 -0.57, 43.4 0.03" stroke="#1e1e1e" stroke-width="1" fill="none"></path></g><g stroke-linecap="round"><g transform="translate(433.7455697618818 700.6077632241136) rotate(0 11.89970285348852 14.439265464425603)"><path d="M-1.63 -0.46 C1.6 7.16, -1.33 13.81, 0.72 26.92 M-0.31 0.44 C-0.82 10.41, -0.16 22.33, -0.12 27.92 M0.82 27.95 C6.9 27.27, 14.05 28.71, 24.26 26.81 M0.51 27.91 C8.29 28.3, 15.76 29.19, 24.1 29.71 M25.21 27.83 C23.32 21.21, 22.36 14.02, 25.43 6.33 M24.14 28.47 C24.01 22.52, 23.04 18.62, 23.46 8 M24.15 8.77 C20.86 7.9, 19.89 8.35, 15.85 8.16 M23.25 8.59 C20.93 8.55, 17.88 7.9, 15.63 8.33 M15.35 8.44 C15.15 4.94, 16.5 3.03, 16.56 -0.21 M15.92 8.28 C16.11 6.37, 15.89 4.22, 15.82 0.58 M16.43 0.88 C18.2 2.51, 19.06 4.95, 22.77 8.8 M16.09 0.14 C17.5 2.69, 19.23 3.71, 23.78 7.79 M24.19 7.63 C20.85 5.75, 18.12 2.85, 16.06 -0.83 M23.43 8.14 C20.57 5.62, 18.4 3.74, 15.91 0.48 M16.98 0.11 C13.44 0.18, 10.23 -1.25, -0.02 0.76 M16 -0.45 C10.05 0.43, 3.94 -0.4, -0.38 -0.09" stroke="#1e1e1e" stroke-width="1" fill="none"></path></g></g><mask></mask><g transform="translate(407.40896629423605 732.0357101386808) rotate(0 39.52458953857422 7.662188756354567)"><text x="39.52458953857422" y="0" font-family="Virgil, Segoe UI Emoji" font-size="12.25950201016732px" fill="#1e1e1e" text-anchor="middle" style="white-space: pre;" direction="ltr" dominant-baseline="text-before-edge">products.html</text></g><g stroke-opacity="0" fill-opacity="0" stroke-linecap="round" transform="translate(522.0106295126502 687.25) rotate(0 35.78466595066959 35.78466595066959)"><path d="M33.97 -0.54 C40.74 -1.02, 50.64 2.31, 56.44 6.51 C62.24 10.71, 66.49 18.2, 68.77 24.64 C71.05 31.07, 72.07 38.61, 70.12 45.12 C68.18 51.63, 62.66 59.16, 57.09 63.67 C51.52 68.18, 43.45 71.98, 36.69 72.19 C29.93 72.39, 22.2 68.93, 16.54 64.92 C10.89 60.91, 5.37 54.5, 2.77 48.12 C0.16 41.73, -1.11 33.33, 0.9 26.63 C2.92 19.92, 8.81 12.28, 14.86 7.87 C20.92 3.46, 33.1 1.28, 37.22 0.17 C41.34 -0.94, 39.52 0.7, 39.57 1.18 M33.88 1.36 C40.8 0.6, 50.02 2.8, 56.06 6.31 C62.09 9.81, 67.47 15.73, 70.08 22.37 C72.69 29.01, 73.48 39.33, 71.7 46.17 C69.93 53.01, 64.97 59.42, 59.46 63.41 C53.94 67.4, 45.9 69.9, 38.62 70.12 C31.34 70.35, 21.78 68.22, 15.78 64.77 C9.78 61.31, 5.23 55.64, 2.62 49.39 C0 43.13, -1.51 33.93, 0.08 27.22 C1.67 20.52, 6.68 13.71, 12.16 9.18 C17.63 4.64, 29.32 1.6, 32.96 0.03 C36.59 -1.55, 33.64 -0.8, 33.96 -0.28" stroke="#1e1e1e" stroke-width="1" fill="none"></path></g><g stroke-linecap="round"><g transform="translate(544.6073093923915 699.9947881236051) rotate(0 11.769675410317973 14.317469100728147)"><path d="M-0.71 -1.82 C-1.79 5.66, 0.73 14.04, -1.47 30.46 M-0.47 -0.08 C0.4 9.66, -0.61 18.05, 0.34 28.22 M0.09 29.06 C9.5 29.22, 19.61 27.65, 23.27 27.55 M0.58 29.17 C7.76 28.24, 15.17 29.38, 24.2 28.7 M22.04 29.05 C24.59 19.96, 24.48 12.73, 25.01 7.08 M24.06 28.49 C23.1 22.57, 24.35 15.84, 22.89 8.18 M22.94 8.54 C21.07 8.63, 19.5 8.02, 15.71 8.94 M23.37 8.33 C21.42 8.34, 19.41 8.42, 16.15 8.28 M16.05 8.27 C15.42 6, 16.13 1.84, 15.27 0.07 M16.32 8.41 C15.69 6.46, 15.96 4.05, 16.12 0.09 M16.31 0.52 C18.86 2.11, 19.16 5.48, 22.7 8.97 M15.78 0.74 C17.47 2.46, 19.08 3.56, 23.24 8.52 M23.25 7.51 C21.89 5.83, 20.07 3.3, 15.75 0.3 M23.35 7.72 C20.25 5.23, 17.72 2.02, 15.61 -0.26 M15.72 -0.22 C12.26 0.99, 9.07 1.44, 1.07 -0.39 M16.29 0.52 C10.72 -0.55, 3.99 -0.32, -0.22 -0.31" stroke="#1e1e1e" stroke-width="1" fill="none"></path></g></g><mask></mask><g transform="translate(501.7454755170306 731.4227350381723) rotate(0 56.04981994628906 7.662188756354567)"><text x="56.04981994628906" y="0" font-family="Virgil, Segoe UI Emoji" font-size="12.25950201016732px" fill="#1e1e1e" text-anchor="middle" style="white-space: pre;" direction="ltr" dominant-baseline="text-before-edge">product-detail.html</text></g><g stroke-opacity="0" fill-opacity="0" stroke-linecap="round" transform="translate(414.03309174949777 765.7108128650709) rotate(0 35.78466595066959 35.78466595066959)"><path d="M35.06 -0.85 C41.46 -1.32, 49.88 2.43, 55.68 6.46 C61.48 10.49, 67.56 16.81, 69.88 23.34 C72.2 29.87, 71.7 38.93, 69.6 45.63 C67.5 52.33, 62.81 59.34, 57.27 63.56 C51.74 67.77, 43.41 70.73, 36.41 70.91 C29.4 71.1, 20.93 68.49, 15.22 64.67 C9.52 60.86, 4.32 54.74, 2.18 48.01 C0.03 41.28, 0.37 31.21, 2.37 24.29 C4.36 17.37, 7.23 10.2, 14.16 6.48 C21.09 2.76, 37.53 2.2, 43.93 1.96 C50.34 1.72, 52.5 4.54, 52.6 5.03 M22.17 3.9 C27.86 0.43, 35.92 -1.54, 42.84 -0.36 C49.76 0.83, 58.75 5.62, 63.7 11.03 C68.65 16.44, 72.31 24.9, 72.52 32.13 C72.73 39.35, 68.91 48.25, 64.94 54.37 C60.98 60.49, 55.15 66.21, 48.72 68.85 C42.3 71.49, 33.22 72, 26.41 70.22 C19.6 68.43, 12.36 63.45, 7.87 58.13 C3.39 52.8, 0.08 45.12, -0.48 38.25 C-1.04 31.39, 0.6 22.98, 4.51 16.94 C8.41 10.9, 20.06 4.1, 22.94 2.01 C25.83 -0.09, 21.78 3.7, 21.83 4.37" stroke="#1e1e1e" stroke-width="1" fill="none"></path></g><g stroke-linecap="round"><g transform="translate(436.6297716292388 778.4556009886758) rotate(0 11.522507060536611 14.555050327702872)"><path d="M1.46 -1.4 C-0.29 9.66, -1.29 22.52, 0.43 26.92 M-0.89 0.13 C-0.87 7.65, -0.56 15.42, 0.7 29.54 M-1.26 30.51 C4.35 28.65, 11.6 29.71, 21.91 29.34 M-0.8 27.89 C9.83 27.64, 19.35 28.1, 22.55 28.76 M22.97 27.75 C22.18 22.98, 22.89 17.83, 23.18 9.49 M23.38 28.75 C24.25 24.21, 24.48 18.76, 24.19 7.45 M23.45 8.74 C20.73 8.3, 19.03 7.94, 15.33 8.52 M23.36 8.46 C21.81 7.8, 19.94 8.34, 15.9 8.26 M15.28 7.63 C15.8 5.97, 15.33 4.26, 15.6 0.69 M15.75 7.94 C15.8 5.54, 16.08 2.51, 15.93 0.53 M16.01 0.73 C18.12 1.86, 20.16 4.73, 23.23 9.01 M15.6 0.73 C18.08 2.43, 19.78 4.28, 23.75 8.43 M23.52 8.12 C20.64 5.33, 19.18 3.08, 15.03 0.93 M24.05 8.17 C21.44 5.86, 17.76 2.96, 15.18 -0.44 M14.98 -1.05 C11.32 -1.46, 6.85 0.1, 0.81 1.07 M15.78 -0.17 C9.47 -0.51, 5.16 0.13, -0.55 0.23" stroke="#1e1e1e" stroke-width="1" fill="none"></path></g></g><mask></mask><g transform="translate(386.41795453854604 809.883547903243) rotate(0 63.399803161621094 7.662188756354567)"><text x="63.399803161621094" y="0" font-family="Virgil, Segoe UI Emoji" font-size="12.25950201016732px" fill="#1e1e1e" text-anchor="middle" style="white-space: pre;" direction="ltr" dominant-baseline="text-before-edge">login-registration.html</text></g><g stroke-opacity="0" fill-opacity="0" stroke-linecap="round" transform="translate(524.1488898821408 766.3237879655792) rotate(0 35.78466595066959 35.78466595066959)"><path d="M42.96 1.3 C49.56 1.93, 56.18 5.83, 61.05 10.78 C65.91 15.74, 71.15 24.08, 72.13 31.02 C73.11 37.96, 70.57 46.34, 66.92 52.4 C63.27 58.47, 56.49 64.43, 50.21 67.4 C43.93 70.37, 36.05 71.36, 29.24 70.23 C22.44 69.11, 14.28 65.54, 9.36 60.64 C4.44 55.74, 0.54 47.7, -0.26 40.83 C-1.07 33.96, 1.08 25.71, 4.54 19.43 C8 13.15, 13.46 5.97, 20.51 3.16 C27.56 0.35, 41.51 2.27, 46.85 2.56 C52.19 2.84, 52.53 4.43, 52.54 4.88 M52.58 2.79 C59.07 5.29, 64.55 13.11, 67.88 19.48 C71.2 25.85, 73.35 34.25, 72.53 41.01 C71.71 47.77, 67.95 55.13, 62.94 60.06 C57.92 65, 49.47 69.33, 42.42 70.64 C35.38 71.95, 27.05 70.65, 20.67 67.93 C14.3 65.21, 7.65 60.65, 4.19 54.32 C0.72 47.98, -0.93 37.34, -0.12 29.93 C0.69 22.52, 3.93 14.85, 9.03 9.86 C14.13 4.86, 23.27 0.88, 30.48 -0.03 C37.69 -0.94, 48.88 3.82, 52.31 4.41 C55.74 5.01, 51.69 3.15, 51.06 3.52" stroke="#1e1e1e" stroke-width="1" fill="none"></path></g><g stroke-linecap="round"><g transform="translate(546.745569761882 779.068576089184) rotate(0 11.78935516529043 14.425676142166651)"><path d="M-1.09 0.67 C1.29 9.34, -1.37 15.09, 1.71 28.42 M-0.72 0.06 C-0.87 7.43, 0.13 15.13, 0.46 28.94 M-1.71 29.79 C9.17 28.79, 18.59 28.55, 25.26 27.62 M0.47 29.36 C8.42 29.32, 15.92 28.7, 23.49 28.57 M25.29 28.23 C21.78 21.4, 21.68 17.7, 22.62 9.85 M22.8 28.73 C23.9 20.55, 22.77 14.11, 23.19 7.24 M24.13 8.79 C21.24 7.91, 17.09 7.83, 15.82 7.8 M23.81 8.46 C20.97 7.87, 18.03 8.25, 16.18 8.01 M16.5 7.94 C16.64 6.05, 16.35 3.42, 16.5 0.4 M16.16 8.42 C16.01 5.31, 16.08 3, 15.76 0.48 M15.92 0.37 C18.17 4.12, 21.12 6.39, 23.82 8.69 M15.77 0.83 C18.7 2.81, 21.9 5.82, 23.98 8.52 M22.47 8.98 C20.93 7.31, 19.48 5.34, 15.75 1.03 M23.28 8.37 C22.23 6.55, 20.15 3.89, 15.9 -0.45 M14.91 -0.94 C10.85 -0.67, 5.81 -1, 0.01 0.95 M15.03 -0.44 C11.58 0.67, 6.76 -0.66, -0.43 0.22" stroke="#1e1e1e" stroke-width="1" fill="none"></path></g></g><mask></mask><g transform="translate(533.0264589700175 810.4965230037512) rotate(0 26.90709686279297 7.662188756354567)"><text x="26.90709686279297" y="0" font-family="Virgil, Segoe UI Emoji" font-size="12.25950201016732px" fill="#1e1e1e" text-anchor="middle" style="white-space: pre;" direction="ltr" dominant-baseline="text-before-edge">cart.html</text></g><g stroke-opacity="0" fill-opacity="0" stroke-linecap="round" transform="translate(636.8736046131587 687.5256883676127) rotate(0 35.78466595066959 35.78466595066959)"><path d="M31.96 1.09 C38.47 -0.2, 47.44 0.74, 53.45 3.95 C59.46 7.17, 64.99 13.88, 68.02 20.36 C71.06 26.84, 72.92 35.73, 71.66 42.85 C70.41 49.96, 65.84 58.38, 60.5 63.07 C55.17 67.76, 46.88 70.4, 39.66 71 C32.43 71.61, 23.18 70.28, 17.16 66.7 C11.13 63.13, 6.36 55.91, 3.51 49.57 C0.67 43.22, -1.23 35.54, 0.12 28.64 C1.46 21.74, 5.41 13.08, 11.58 8.17 C17.76 3.27, 32.33 0.26, 37.17 -0.79 C42.01 -1.84, 40.65 0.99, 40.62 1.87 M27.87 0.01 C34.54 -1.7, 44.32 0.2, 50.65 3.36 C56.98 6.51, 62.23 12.95, 65.85 18.95 C69.46 24.96, 73.11 32.86, 72.36 39.38 C71.61 45.9, 66.1 52.67, 61.33 58.06 C56.55 63.46, 50.52 69.88, 43.74 71.73 C36.96 73.58, 27.22 72.27, 20.63 69.16 C14.05 66.06, 7.48 59.33, 4.24 53.1 C1.01 46.87, 0.24 38.46, 1.25 31.77 C2.26 25.09, 5.71 17.99, 10.3 13.01 C14.9 8.04, 25.65 3.79, 28.82 1.92 C31.99 0.04, 29.25 1.4, 29.32 1.74" stroke="#1e1e1e" stroke-width="1" fill="none"></path></g><g stroke-linecap="round"><g transform="translate(659.4702844928997 700.2704764912176) rotate(0 11.91811424769719 14.345234550605142)"><path d="M0.25 -0.27 C-0.27 9.92, -0.55 14.5, -0.95 26.93 M0.65 0.19 C-0.5 10.5, -0.17 22.82, -0.72 28.1 M1.75 27.19 C8.34 30.71, 17.26 30.82, 22.62 27.35 M0.37 29.02 C5.26 29.76, 12.22 28.98, 22.67 27.8 M24.26 27.87 C22.28 23.69, 22.64 17.45, 24.79 9.19 M23.73 28.54 C22.6 21.7, 23.84 13.65, 22.62 8.56 M23.91 7.95 C21.99 8.25, 19.34 7.97, 16.67 8.11 M23.78 7.88 C20.97 8.14, 18.6 8.24, 15.61 8.45 M15.28 7.98 C16.18 5.76, 16.39 4.12, 16.52 -0.14 M15.64 8.09 C15.55 5.23, 16.03 2.88, 16.13 0.44 M16.27 0.87 C18.37 1.51, 18.5 3.97, 22.94 8.59 M15.93 0.5 C17.98 1.62, 19.08 4.32, 23.9 8.59 M23.04 7.92 C22.94 5.43, 21.32 4.85, 16.19 -0.3 M23.11 8.72 C20.89 4.74, 17.71 2.1, 15.66 -0.32 M16.65 1.29 C10.01 -0.52, 5.77 -0.74, -0.15 -1.2 M15.56 -0.04 C10.29 -0.64, 5.49 0.81, 0.05 0.64" stroke="#1e1e1e" stroke-width="1" fill="none"></path></g></g><mask></mask><g transform="translate(634.9829480512103 731.6984234057848) rotate(0 37.062347412109375 7.662188756354567)"><text x="37.062347412109375" y="0" font-family="Virgil, Segoe UI Emoji" font-size="12.25950201016732px" fill="#1e1e1e" text-anchor="middle" style="white-space: pre;" direction="ltr" dominant-baseline="text-before-edge">contact.html</text></g><g stroke-linecap="round" transform="translate(408.37866158183556 565.1286615818356) rotate(0 85.25 33.373062015503876)"><path d="M14.8 0.58 L160.25 2.41 L167.47 8.05 L169.86 11.79 L170.88 57.97 L164.46 63.43 L152.68 66.69 L8.3 64.73 L1.48 61.32 L0.42 55.04 L0.98 11.89 L3.68 5.85 L8.56 1.57 L16.93 1.86" stroke="none" stroke-width="0" fill="#ffc9c9"></path><path d="M16.69 0 M16.69 0 C66.14 2.18, 114.36 -0.53, 153.81 0 M153.81 0 C164.21 0.56, 170.78 3.89, 170.5 16.69 M170.5 16.69 C170.89 23.5, 171 34.18, 170.5 50.06 M170.5 50.06 C169.18 61.34, 165.05 64.84, 153.81 66.75 M153.81 66.75 C121.13 66.16, 87.95 64.41, 16.69 66.75 M16.69 66.75 C5.95 65.9, -1.4 61.62, 0 50.06 M0 50.06 C-1.02 38.94, 1.53 29.86, 0 16.69 M0 16.69 C1.46 7.01, 4.24 0.89, 16.69 0" stroke="#1e1e1e" stroke-width="1.5" fill="none" stroke-dasharray="8 9"></path></g><g stroke-opacity="0" fill-opacity="0" stroke-linecap="round" transform="translate(423.82367398608767 577.4346235984908) rotate(0 21.067099998848732 21.067099998848732)"><path d="M13.22 0.86 C17.19 -1.13, 22.89 0.14, 26.99 1.54 C31.09 2.94, 35.33 5.63, 37.81 9.27 C40.29 12.91, 42.21 18.88, 41.86 23.36 C41.51 27.83, 38.84 33.1, 35.7 36.14 C32.56 39.17, 27.6 41.16, 23.01 41.58 C18.42 41.99, 11.79 41.22, 8.16 38.62 C4.54 36.03, 2.27 30.46, 1.27 26 C0.27 21.53, -0.65 16, 2.16 11.84 C4.97 7.68, 14.42 2.97, 18.12 1.03 C21.82 -0.92, 24.18 0.11, 24.36 0.17 M25.71 0.4 C30.06 0.98, 34.95 3.36, 37.93 6.78 C40.91 10.19, 43.86 16.3, 43.57 20.9 C43.29 25.5, 39.27 31.1, 36.23 34.37 C33.18 37.63, 29.39 39.52, 25.32 40.49 C21.26 41.46, 16.09 42.43, 11.85 40.19 C7.61 37.94, 1.81 31.46, -0.11 27.02 C-2.03 22.59, -1.37 17.51, 0.34 13.6 C2.04 9.69, 6 5.77, 10.14 3.58 C14.27 1.4, 22.52 1.1, 25.14 0.49 C27.76 -0.11, 26.15 -0.21, 25.85 -0.05" stroke="#1e1e1e" stroke-width="1" fill="none"></path></g><g stroke-linecap="round"><g transform="translate(437.12676071392605 584.937717975123) rotate(0 6.415395751389951 8.560666103350286)"><path d="M-1.64 1.45 C1.12 4.07, 0.09 12.31, -1.38 16.68 M-0.17 0.54 C-0.45 4.52, 0.5 10.27, 0 16.9 M0.6 16.31 C5.38 15.57, 9.22 16.99, 12.59 17.79 M0.66 16.83 C3.78 16.88, 8.73 16.4, 14.46 17.36 M13.67 16.58 C14.56 14.68, 14.06 12.78, 13.19 3.96 M13.51 17.06 C14.46 14.02, 13.92 11.61, 14.29 4.41 M13.85 5.01 C12.89 4.89, 11.51 5.18, 9.49 4.69 M13.79 4.97 C12.55 4.78, 11.64 4.99, 9.2 4.94 M9.15 4.95 C9.28 3.29, 9.05 2.33, 9.66 0.31 M9.43 4.7 C9.34 3.38, 9.27 1.71, 9.31 0.05 M9.14 0.77 C10.67 1.94, 11.97 2.89, 14.47 5.34 M9.09 0.14 C10.62 1.92, 11.89 3.07, 13.53 5.13 M14.44 4.45 C12.72 2.82, 11.02 1.64, 9.47 -0.59 M13.91 4.88 C12.49 3.66, 11.12 2.33, 9.09 -0.13 M9.3 -0.67 C5.26 -0.54, 3.44 -0.06, 0.31 0.08 M8.93 0.09 C7.31 -0.21, 5.87 0.2, 0.22 0.42" stroke="#1e1e1e" stroke-width="1" fill="none"></path></g></g><mask></mask><g transform="translate(429.5731622906005 603.4399362526503) rotate(0 15.317611694335938 4.5108733713680635)"><text x="15.317611694335938" y="0" font-family="Virgil, Segoe UI Emoji" font-size="7.217397394188875px" fill="#1e1e1e" text-anchor="middle" style="white-space: pre;" direction="ltr" dominant-baseline="text-before-edge">style.css</text></g><g stroke-opacity="0" fill-opacity="0" stroke-linecap="round" transform="translate(472.5615615829869 577.4346235984908) rotate(0 21.067099998848732 21.067099998848732)"><path d="M26.27 0.18 C30.53 1.38, 36.68 6.24, 39.21 10.14 C41.75 14.04, 42.24 19.29, 41.48 23.6 C40.71 27.92, 37.76 32.93, 34.62 36.03 C31.48 39.14, 26.82 41.96, 22.62 42.23 C18.43 42.51, 13.2 40.51, 9.45 37.69 C5.7 34.88, 1.26 29.76, 0.11 25.36 C-1.03 20.96, 0.6 15.26, 2.6 11.28 C4.61 7.29, 7.27 2.71, 12.15 1.45 C17.03 0.2, 27.85 2.84, 31.89 3.75 C35.92 4.65, 36.55 6.63, 36.36 6.87 M29.55 3.93 C33.37 5.88, 38.86 9.61, 41.03 13.58 C43.19 17.55, 43.79 23.62, 42.56 27.74 C41.34 31.87, 37.8 35.9, 33.67 38.32 C29.54 40.74, 22.46 42.57, 17.79 42.26 C13.11 41.96, 8.44 39.95, 5.63 36.5 C2.82 33.04, 0.88 26.38, 0.92 21.53 C0.96 16.69, 3.05 10.72, 5.86 7.44 C8.68 4.15, 13.87 2.68, 17.82 1.83 C21.76 0.99, 27.2 2.23, 29.54 2.37 C31.88 2.51, 31.77 2.27, 31.87 2.65" stroke="#1e1e1e" stroke-width="1" fill="none"></path></g><g stroke-linecap="round"><g transform="translate(485.86464831082503 584.937717975123) rotate(0 6.659686658288365 8.293179035179037)"><path d="M0.09 -1.21 C-1.31 4.49, 1.07 12.45, -0.86 17.05 M0.11 0.84 C-0.28 3.2, -0.52 7.46, -0.26 16.43 M-0.33 16.12 C2.99 16.94, 8.94 17.73, 13.28 15.59 M0.68 16.99 C6.16 16.61, 10.81 17.07, 13.95 17.58 M13.34 17.8 C14.96 11.38, 13.74 9.07, 13.65 4.93 M14.07 16.85 C14.41 12.89, 13.92 9.28, 13.42 4.35 M13.61 4.84 C12.88 4.71, 11.72 4.9, 9.58 4.96 M13.69 4.73 C12.87 4.8, 11.61 4.81, 9.32 4.83 M9.83 5.02 C9.09 4.23, 9.47 2.56, 9.18 -0.26 M9.47 4.72 C9.47 3.52, 9.39 1.75, 9.55 0.33 M8.83 0 C10.63 1.82, 13.12 4.05, 14.14 4.66 M9.64 0.13 C10.55 1.51, 12.07 3.19, 13.97 4.77 M13.92 4.75 C12.48 3.04, 10.76 1.55, 9.03 -0.26 M13.55 4.6 C12.75 3.3, 11.22 2.12, 8.98 0.26 M10.11 -0.9 C7.23 -0.64, 5.64 -0.03, 0.22 -0.39 M9.44 -0.33 C6.81 0.12, 4.78 0.2, 0.18 -0.28" stroke="#1e1e1e" stroke-width="1" fill="none"></path></g></g><mask></mask><g transform="translate(475.18551582988243 603.4399362526503) rotate(0 18.443145751953125 4.5108733713680635)"><text x="18.443145751953125" y="0" font-family="Virgil, Segoe UI Emoji" font-size="7.217397394188876px" fill="#1e1e1e" text-anchor="middle" style="white-space: pre;" direction="ltr" dominant-baseline="text-before-edge">header.css</text></g><g stroke-opacity="0" fill-opacity="0" stroke-linecap="round" transform="translate(521.2994491798861 577.4346235984908) rotate(0 21.067099998848732 21.067099998848732)"><path d="M27.82 1.39 C31.92 2.47, 36.73 5.94, 39.04 9.64 C41.34 13.34, 42.13 19.05, 41.64 23.57 C41.16 28.1, 39.28 33.64, 36.12 36.76 C32.97 39.89, 27.42 42.24, 22.72 42.32 C18.02 42.41, 11.62 39.95, 7.94 37.25 C4.26 34.56, 1.48 30.4, 0.64 26.18 C-0.19 21.96, 0.8 16.06, 2.95 11.93 C5.1 7.81, 9.07 3.29, 13.56 1.42 C18.05 -0.46, 27.09 0.39, 29.88 0.67 C32.68 0.94, 30.59 2.56, 30.31 3.06 M30.55 1.37 C34.36 3.54, 38.87 10.36, 40.56 14.53 C42.25 18.7, 41.85 22.34, 40.7 26.39 C39.56 30.44, 37.33 36.1, 33.69 38.82 C30.05 41.54, 23.47 43.28, 18.89 42.73 C14.31 42.18, 9.31 38.77, 6.21 35.51 C3.12 32.25, 0.58 27.95, 0.32 23.16 C0.05 18.37, 1.94 10.79, 4.62 6.76 C7.3 2.73, 11.91 -0.4, 16.4 -1.01 C20.89 -1.62, 29.17 2.53, 31.57 3.09 C33.97 3.65, 30.96 2.23, 30.78 2.34" stroke="#1e1e1e" stroke-width="1" fill="none"></path></g><g stroke-linecap="round"><g transform="translate(534.6025359077241 584.937717975123) rotate(0 6.828405173710621 8.372891870255785)"><path d="M1.08 -0.67 C0.62 7.42, 0.24 13.25, -0.53 16.55 M0.18 -0.26 C-0.42 6.59, 0.49 13.42, 0.5 17.42 M-0.52 17.3 C3.71 17.22, 9.11 17.64, 12.92 16.6 M-0.19 16.41 C3.81 16.77, 6.64 17.18, 14.19 17.08 M12.72 16.74 C12.53 13.59, 14.24 9.24, 13.44 5.27 M13.85 17.28 C13.49 13.56, 13.72 10.98, 13.66 4.58 M13.44 5.09 C12.53 4.98, 11.77 5.02, 9.23 5.27 M13.7 4.66 C12.33 4.79, 10.69 5.01, 9.39 4.69 M9.49 4.67 C9.81 2.89, 9.49 1.9, 9.41 -0.28 M9.23 5.02 C9.22 3.95, 9.23 2.59, 9.51 0.11 M9.7 0.62 C11.26 1.3, 12.28 3.95, 13.59 5.14 M9.61 0.31 C10.39 1.4, 11.75 2.99, 14.13 5.12 M13.57 4.8 C11.77 2.87, 10.57 0.62, 9.33 0.66 M13.6 5.07 C11.96 3.39, 10.3 1.61, 9.16 -0.09 M9.41 -0.27 C5.24 0.02, 1.55 -0.57, 0.73 0.34 M9.26 0.39 C6.23 -0.4, 3.92 -0.11, 0.03 0.17" stroke="#1e1e1e" stroke-width="1" fill="none"></path></g></g><mask></mask><g transform="translate(524.3487879482659 603.4399362526503) rotate(0 18.01776123046875 4.5108733713680635)"><text x="18.01776123046875" y="0" font-family="Virgil, Segoe UI Emoji" font-size="7.217397394188875px" fill="#1e1e1e" text-anchor="middle" style="white-space: pre;" direction="ltr" dominant-baseline="text-before-edge">footer.css</text></g><g stroke-opacity="0" fill-opacity="0" stroke-linecap="round" transform="translate(159.61993670671717 175.70445923152846) rotate(0 58.14905576437903 58.14905576437906)"><path d="M73.76 2.73 C82.26 4.39, 91.46 10.8, 97.98 16.91 C104.5 23.03, 110.1 31.16, 112.9 39.43 C115.7 47.7, 116.1 57.72, 114.81 66.55 C113.52 75.37, 110.25 84.92, 105.15 92.4 C100.04 99.88, 92.21 107.54, 84.18 111.41 C76.14 115.27, 66.02 116.08, 56.92 115.58 C47.83 115.09, 37.64 112.83, 29.61 108.44 C21.58 104.06, 13.47 96.73, 8.74 89.28 C4 81.82, 2.03 72.48, 1.22 63.71 C0.4 54.94, 0.66 44.96, 3.85 36.67 C7.05 28.38, 13.31 19.95, 20.38 13.98 C27.44 8.02, 37.03 2.78, 46.24 0.89 C55.45 -1, 70.21 1.98, 75.63 2.65 C81.04 3.31, 78.73 3.91, 78.72 4.89 M65.74 1.47 C74.03 2.13, 82.56 6.71, 89.89 11.7 C97.22 16.69, 105.09 23.87, 109.7 31.42 C114.32 38.97, 117.43 48.13, 117.58 57 C117.74 65.88, 115.07 76.64, 110.62 84.67 C106.17 92.7, 98.73 100.12, 90.88 105.18 C83.03 110.24, 72.2 113.59, 63.5 115.04 C54.79 116.5, 46.96 116.94, 38.66 113.93 C30.37 110.92, 19.89 103.98, 13.71 96.97 C7.54 89.95, 3.7 80.71, 1.63 71.85 C-0.44 62.99, -0.9 52.52, 1.29 43.82 C3.48 35.12, 8.85 26.29, 14.75 19.65 C20.65 13.02, 28.47 7.22, 36.69 4.01 C44.92 0.81, 59.09 0.68, 64.09 0.43 C69.08 0.18, 66.53 1.6, 66.68 2.51" stroke="#1e1e1e" stroke-width="1" fill="none"></path></g><g transform="translate(181.96953785054814 248.3304319132812) rotate(0 33.94367218017578 12.45083695582531)"><text x="33.94367218017578" y="0" font-family="Virgil, Segoe UI Emoji" font-size="19.921339129320494px" fill="#1e1e1e" text-anchor="middle" style="white-space: pre;" direction="ltr" dominant-baseline="text-before-edge">assets</text></g><g stroke-linecap="round"><g transform="translate(189.2397507576187 239.96269884958264) rotate(0 26.464925099631273 -12.760246145037371)"><path d="M0.03 -0.26 C1.13 -3.72, 3.96 -17.16, 7.29 -21.26 C10.61 -25.35, 12.17 -24.2, 19.97 -24.84 C27.77 -25.48, 48.51 -25.26, 54.08 -25.08 M-1.42 -1.44 C-0.48 -4.68, 3.14 -16.12, 6.68 -19.83 C10.21 -23.55, 11.86 -22.93, 19.8 -23.71 C27.75 -24.48, 48.45 -24.56, 54.35 -24.47" stroke="#1e1e1e" stroke-width="1" fill="none"></path></g></g><mask></mask><g stroke-linecap="round"><g transform="translate(242.2719389113637 215.2470583776696) rotate(0 -23.48142496373285 5.607704995218398)"><path d="M0.64 -0.22 C2.02 0.3, 8.09 -0.73, 8.29 2.88 C8.49 6.49, 4.45 17.48, 1.85 21.47 C-0.75 25.45, 0.67 25.8, -7.33 26.78 C-15.32 27.77, -38.61 28.26, -46.13 27.35 C-53.66 26.45, -51.03 27.61, -52.5 21.38 C-53.97 15.16, -55.21 -3.6, -54.93 -9.98 C-54.65 -16.36, -53.85 -16, -50.81 -16.89 C-47.77 -17.77, -40.02 -16.34, -36.71 -15.27 C-33.4 -14.2, -36.17 -11.24, -30.94 -10.48 C-25.71 -9.71, -10.55 -11.26, -5.33 -10.68 C-0.12 -10.09, -0.46 -8.54, 0.36 -6.96 C1.17 -5.38, -0.3 -2.34, -0.44 -1.19 M-0.48 -1.38 C0.84 -0.66, 7.68 0.29, 7.94 4.24 C8.2 8.18, 3.67 18.31, 1.11 22.28 C-1.46 26.26, 0.11 27.08, -7.44 28.07 C-14.99 29.06, -36.4 29.44, -44.19 28.23 C-51.98 27.02, -52.44 27.39, -54.19 20.82 C-55.95 14.25, -55.08 -4.8, -54.72 -11.19 C-54.35 -17.58, -55.29 -16.71, -51.99 -17.52 C-48.68 -18.32, -38.58 -17.05, -34.89 -16.03 C-31.19 -15, -34.32 -12.33, -29.84 -11.35 C-25.37 -10.36, -12.93 -10.81, -8.06 -10.14 C-3.2 -9.47, -1.92 -9.19, -0.65 -7.33 C0.62 -5.47, -0.32 -0.15, -0.44 1.02" stroke="#1e1e1e" stroke-width="1" fill="none"></path></g></g><mask></mask><g stroke-linecap="round"><g transform="translate(336.3341367003095 551.091293626743) rotate(0 30.212734333606193 23.805013119445334)"><path d="M-0.55 -0.78 C-0.09 6.1, -7.63 34.07, 2.99 42.26 C13.61 50.46, 53.28 47.62, 63.14 48.39" stroke="#1e1e1e" stroke-width="1.5" fill="none" stroke-dasharray="8 9"></path></g></g><mask></mask><g stroke-linecap="round" transform="translate(460.0214624640482 431.06983239027596) rotate(0 76.80359955889378 32.81915928287532)"><path d="M17.98 -1.93 L146.27 2.45 L152.51 6.02 L155.15 12.52 L152.56 55.39 L147.29 62.83 L135.6 67.32 L10.31 64.69 L4.17 60.25 L-0.66 53.22 L1.81 13.09 L4.6 2.75 L7.74 0.06 L18.1 0.99" stroke="none" stroke-width="0" fill="#a5d8ff"></path><path d="M16.41 0 M16.41 0 C51.19 1.03, 85.09 -0.25, 137.2 0 M137.2 0 C147.28 1.94, 151.64 5.95, 153.61 16.41 M153.61 16.41 C153.01 25.73, 152.11 34.72, 153.61 49.23 M153.61 49.23 C154.28 60.47, 146.45 67.18, 137.2 65.64 M137.2 65.64 C106.81 65.78, 81.52 64.57, 16.41 65.64 M16.41 65.64 C5.21 67.48, 1.36 60.93, 0 49.23 M0 49.23 C0.97 36.86, -1.93 23.02, 0 16.41 M0 16.41 C0.73 4.42, 3.69 -0.42, 16.41 0" stroke="#1e1e1e" stroke-width="1.5" fill="none" stroke-dasharray="8 9"></path></g><g stroke-opacity="0" fill-opacity="0" stroke-linecap="round" transform="translate(491.90770393143 440.5636309752777) rotate(0 23.32536069787352 23.32536069787352)"><path d="M24.29 0.04 C28.98 0.12, 35.56 3.16, 39.1 6.49 C42.64 9.82, 44.82 15, 45.55 20.03 C46.28 25.06, 46.05 32.35, 43.49 36.67 C40.92 40.99, 35.07 44.67, 30.18 45.94 C25.28 47.22, 18.84 46.26, 14.1 44.32 C9.36 42.39, 3.99 38.66, 1.75 34.33 C-0.5 30, -0.45 23.19, 0.64 18.36 C1.73 13.53, 4.13 8.52, 8.27 5.35 C12.42 2.18, 22.38 0.27, 25.51 -0.65 C28.64 -1.57, 27.22 -0.63, 27.05 -0.16 M29.89 1.32 C34.38 2.81, 40.01 7.49, 42.94 11.68 C45.88 15.87, 47.84 21.83, 47.5 26.48 C47.15 31.13, 44.58 36.23, 40.87 39.56 C37.16 42.89, 30.28 45.99, 25.22 46.47 C20.15 46.94, 14.33 45.33, 10.48 42.42 C6.64 39.51, 3.5 33.74, 2.14 29.01 C0.77 24.28, 0.36 18.56, 2.27 14.05 C4.19 9.55, 9.11 4.29, 13.62 1.98 C18.14 -0.33, 26.88 0.36, 29.35 0.18 C31.83 0.01, 28.6 0.3, 28.48 0.93" stroke="#1e1e1e" stroke-width="1" fill="none"></path></g><g stroke-linecap="round"><g transform="translate(505.3948434487462 451.81220761289904) rotate(0 9.971439182893278 6.274065402576468)"><path d="M0.08 0.67 C-0.28 3.02, -1.51 10.64, -1.07 13.04 C-0.62 15.44, -0.47 14.93, 2.73 15.06 C5.93 15.19, 15.24 14.12, 18.16 13.81 C21.08 13.5, 19.72 15.51, 20.26 13.18 C20.81 10.85, 21.84 2.56, 21.43 -0.18 C21.03 -2.93, 20.96 -2.67, 17.83 -3.28 C14.69 -3.9, 5.59 -4.45, 2.63 -3.88 C-0.33 -3.3, 0.52 -0.35, 0.06 0.16 M-1.33 -0.02 C-1.42 2.63, 0.6 11.93, 1.15 14.68 C1.7 17.43, -0.95 16.54, 1.98 16.49 C4.91 16.44, 15.93 14.81, 18.72 14.36 C21.52 13.92, 18.59 16.44, 18.77 13.81 C18.95 11.17, 19.81 1.06, 19.81 -1.45 C19.8 -3.96, 21.23 -1.32, 18.74 -1.28 C16.25 -1.23, 8.26 -1.2, 4.87 -1.18 C1.48 -1.16, -0.86 -1.06, -1.58 -1.14" stroke="#1e1e1e" stroke-width="1" fill="none"></path></g></g><mask></mask><g stroke-linecap="round"><g transform="translate(505.20676203075766 463.4105617221798) rotate(0 10.340900111397957 -3.637067958314958)"><path d="M-0.94 0.19 C0.55 -0.83, 6.61 -4.9, 9 -5.44 C11.39 -5.98, 12.35 -3.26, 13.39 -3.05 C14.44 -2.85, 13.88 -4.49, 15.25 -4.19 C16.62 -3.88, 20.67 -1.71, 21.62 -1.25 M0.77 -0.76 C2.09 -2.22, 6.04 -7.2, 8.07 -7.45 C10.1 -7.71, 11.71 -3.06, 12.95 -2.29 C14.18 -1.52, 14.16 -3.04, 15.47 -2.84 C16.77 -2.64, 20.19 -1.71, 20.77 -1.09" stroke="#1e1e1e" stroke-width="1" fill="none"></path></g></g><mask></mask><g stroke-linecap="round" transform="translate(517.9336046479689 452.25106425487166) rotate(0 1.3792637319144774 1.3792637319144774)"><path d="M2.1 1.03 C2.46 1.16, 2.11 1.04, 2.14 1.01 C2.17 0.98, 2.39 0.63, 2.26 0.86 C2.14 1.09, 1.48 2.1, 1.38 2.39 C1.28 2.69, 1.89 2.54, 1.64 2.63 C1.4 2.72, 0.17 3.19, -0.09 2.92 C-0.35 2.65, 0 1.5, 0.09 1 C0.17 0.5, 0.45 0.11, 0.44 -0.07 C0.43 -0.26, -0.3 -0.3, 0.04 -0.13 C0.38 0.04, 2.3 0.87, 2.49 0.95 C2.67 1.03, 1.22 0.43, 1.17 0.35 M3.33 -0.37 C3.46 -0.41, 2.85 0.32, 2.89 0.72 C2.92 1.11, 3.43 1.69, 3.54 1.99 C3.66 2.3, 3.97 2.27, 3.56 2.55 C3.16 2.83, 1.7 3.72, 1.13 3.67 C0.57 3.63, 0.43 2.76, 0.18 2.27 C-0.07 1.78, -0.2 1.09, -0.37 0.73 C-0.54 0.38, -1 0.12, -0.84 0.13 C-0.67 0.15, 0.15 0.59, 0.61 0.83 C1.08 1.06, 1.85 1.78, 1.96 1.56 C2.07 1.34, 1.2 -0.31, 1.29 -0.52" stroke="#1e1e1e" stroke-width="1" fill="none"></path></g><g transform="translate(500.82313726113944 469.26945421926354) rotate(0 14.409927368164062 4.994410642914431)"><text x="14.409927368164062" y="0" font-family="Virgil, Segoe UI Emoji" font-size="7.991057028663076px" fill="#1e1e1e" text-anchor="middle" style="white-space: pre;" direction="ltr" dominant-baseline="text-before-edge">logo.png</text></g><g stroke-opacity="0" fill-opacity="0" stroke-linecap="round" transform="translate(535.0916987187071 440.5636309752777) rotate(0 23.32536069787352 23.32536069787352)"><path d="M31.01 0.51 C35.85 1.56, 40.59 6.93, 43.27 11.07 C45.96 15.2, 47.87 20.46, 47.1 25.3 C46.33 30.15, 42.41 36.73, 38.67 40.15 C34.92 43.57, 29.4 45.53, 24.65 45.83 C19.9 46.12, 14.27 44.78, 10.19 41.94 C6.11 39.09, 1.3 33.55, 0.19 28.77 C-0.92 24, 1.28 17.73, 3.51 13.27 C5.75 8.8, 8.61 3.9, 13.61 2 C18.6 0.1, 29.63 1.64, 33.48 1.88 C37.32 2.11, 36.95 3.08, 36.68 3.4 M26.71 1.4 C31.37 1.77, 36.6 4.34, 40.12 7.83 C43.64 11.32, 47.55 17.45, 47.83 22.34 C48.11 27.22, 45.27 32.98, 41.79 37.14 C38.31 41.3, 32.09 46.1, 26.96 47.31 C21.82 48.51, 15.03 47.11, 10.98 44.35 C6.93 41.58, 4.08 35.53, 2.67 30.73 C1.25 25.93, 1.14 20.07, 2.49 15.57 C3.84 11.06, 6.57 6.21, 10.78 3.7 C14.99 1.19, 24.83 1.22, 27.75 0.53 C30.66 -0.17, 28.39 -1.08, 28.29 -0.48" stroke="#1e1e1e" stroke-width="1" fill="none"></path></g><g stroke-linecap="round"><g transform="translate(548.5788382360234 451.81220761289904) rotate(0 10.147241396904406 6.003143890347985)"><path d="M0.72 -1.11 C0.7 1.25, 0.62 11.07, 0.84 13.79 C1.07 16.52, -0.81 14.96, 2.05 15.27 C4.91 15.57, 15.15 16.15, 18 15.62 C20.86 15.1, 18.86 14.65, 19.17 12.12 C19.49 9.6, 20.37 2.75, 19.9 0.48 C19.43 -1.8, 19.09 -0.92, 16.35 -1.53 C13.6 -2.14, 6.09 -3.6, 3.43 -3.16 C0.76 -2.72, 0.79 0.73, 0.34 1.12 M-0.36 0.92 C-0.53 2.99, 0.19 10.13, 0.41 12.17 C0.62 14.2, -2.06 12.92, 0.95 13.14 C3.97 13.35, 15.18 13.62, 18.48 13.47 C21.79 13.31, 20.32 14.51, 20.76 12.19 C21.2 9.88, 21.84 1.97, 21.12 -0.44 C20.41 -2.85, 19.6 -1.71, 16.49 -2.26 C13.37 -2.81, 5.36 -4.18, 2.42 -3.75 C-0.52 -3.31, -0.45 -0.02, -1.15 0.32" stroke="#1e1e1e" stroke-width="1" fill="none"></path></g></g><mask></mask><g stroke-linecap="round"><g transform="translate(548.390756818035 463.4105617221798) rotate(0 11.053522302335352 -3.129946190942917)"><path d="M0.97 0.94 C2.24 0.26, 6.28 -4.87, 8.32 -5.23 C10.37 -5.6, 12.27 -1.24, 13.24 -1.24 C14.21 -1.24, 13.02 -5.35, 14.16 -5.24 C15.3 -5.14, 19.2 -1.52, 20.08 -0.59 M0.02 0.39 C1.62 -0.57, 8.58 -6.55, 10.7 -7.14 C12.81 -7.74, 12.19 -3.63, 12.71 -3.18 C13.22 -2.74, 12.24 -4.98, 13.81 -4.46 C15.37 -3.94, 20.99 -0.81, 22.09 -0.08" stroke="#1e1e1e" stroke-width="1" fill="none"></path></g></g><mask></mask><g stroke-linecap="round" transform="translate(561.117599435246 452.25106425487166) rotate(0 1.3792637319144774 1.3792637319144774)"><path d="M1.13 -0.27 C1.33 -0.21, 2.2 -0.58, 2.63 -0.29 C3.07 -0.01, 3.83 0.95, 3.73 1.43 C3.63 1.91, 2.24 2.24, 2.04 2.56 C1.84 2.88, 2.87 3.32, 2.53 3.35 C2.19 3.38, 0.36 3.05, -0.01 2.74 C-0.37 2.44, 0.18 1.95, 0.35 1.52 C0.52 1.09, 1.03 0.46, 1.03 0.16 C1.03 -0.14, 0.14 -0.18, 0.34 -0.28 C0.53 -0.39, 1.84 -0.44, 2.18 -0.45 C2.52 -0.46, 2.31 -0.34, 2.36 -0.36 M1.79 -1.25 C1.81 -0.97, 1.69 0.65, 1.75 1.15 C1.8 1.66, 1.72 1.72, 2.09 1.76 C2.47 1.79, 3.82 1.18, 3.99 1.37 C4.17 1.56, 3.77 2.56, 3.14 2.9 C2.5 3.23, 0.61 3.46, 0.18 3.38 C-0.24 3.31, 0.47 2.99, 0.59 2.44 C0.7 1.89, 0.91 0.17, 0.87 0.1 C0.83 0.02, 0.07 2.18, 0.35 1.99 C0.63 1.81, 2.24 -0.54, 2.57 -1.02 C2.9 -1.49, 2.35 -1.25, 2.35 -0.87" stroke="#1e1e1e" stroke-width="1" fill="none"></path></g><g transform="translate(541.6940216968543 469.2694542192633) rotate(0 16.723037719726562 4.994410642914431)"><text x="16.723037719726562" y="0" font-family="Virgil, Segoe UI Emoji" font-size="7.991057028663076px" fill="#1e1e1e" text-anchor="middle" style="white-space: pre;" direction="ltr" dominant-baseline="text-before-edge">other.jpg</text></g><g stroke-linecap="round"><g transform="translate(360.64313507800887 460.8810463006453) rotate(0 46.31379054528668 -0.4021447550505286)"><path d="M0.55 -1.02 C15.93 -0.82, 76.87 -0.29, 92.08 0.22" stroke="#1e1e1e" stroke-width="1.5" fill="none" stroke-dasharray="8 9"></path></g></g><mask></mask><g stroke-opacity="0" fill-opacity="0" stroke-linecap="round" transform="translate(300.38753018145565 490.99999999999983) rotate(0 35.19684340001743 35.19684340001743)"><path d="M36.42 0.51 C42.83 0.06, 51.12 3.16, 56.45 7.11 C61.77 11.06, 66.32 17.53, 68.36 24.23 C70.4 30.93, 70.83 40.81, 68.71 47.31 C66.59 53.82, 61.2 59.54, 55.64 63.24 C50.08 66.95, 42.34 69.44, 35.34 69.53 C28.35 69.61, 19.29 67.92, 13.67 63.75 C8.05 59.59, 3.58 51.26, 1.61 44.51 C-0.36 37.76, -0.46 29.72, 1.85 23.26 C4.16 16.8, 9.44 9.65, 15.46 5.75 C21.48 1.85, 33.9 0.76, 37.97 -0.11 C42.04 -0.99, 39.92 -0.12, 39.87 0.48 M45.94 1.31 C52.34 2.93, 58.72 8.19, 62.62 13.82 C66.53 19.44, 69.09 28.29, 69.36 35.05 C69.64 41.8, 68.03 48.61, 64.29 54.34 C60.54 60.06, 53.26 67.18, 46.91 69.39 C40.55 71.61, 32.76 69.88, 26.15 67.62 C19.54 65.36, 11.52 61.16, 7.27 55.82 C3.02 50.49, 0.92 42.52, 0.64 35.59 C0.36 28.66, 1.64 19.98, 5.59 14.22 C9.53 8.47, 17.53 3.06, 24.32 1.07 C31.11 -0.92, 42.91 1.89, 46.32 2.27 C49.72 2.65, 44.92 2.85, 44.77 3.35" stroke="#1e1e1e" stroke-width="1" fill="none"></path></g><g transform="translate(316.8078722347741 534.9595270061027) rotate(0 17.653221130371094 7.536324584685417)"><text x="17.653221130371094" y="0" font-family="Virgil, Segoe UI Emoji" font-size="12.058119335496661px" fill="#1e1e1e" text-anchor="middle" style="white-space: pre;" direction="ltr" dominant-baseline="text-before-edge">styles</text></g><g stroke-linecap="round"><g transform="translate(318.31600628451633 529.8946504335656) rotate(0 15.698207403711876 -7.512893407039542)"><path d="M0.78 0.49 C1.54 -1.81, 2.88 -10.17, 4.62 -12.84 C6.37 -15.5, 6.77 -15.26, 11.28 -15.49 C15.78 -15.73, 28 -14.48, 31.67 -14.25 M-0.27 -0.29 C0.38 -2.48, 2.21 -8.98, 3.99 -11.36 C5.78 -13.73, 5.89 -14.26, 10.45 -14.52 C15.01 -14.79, 27.77 -13.13, 31.37 -12.95" stroke="#1e1e1e" stroke-width="1" fill="none"></path></g></g><mask></mask><g stroke-linecap="round"><g transform="translate(350.4156783612391 514.9346048096788) rotate(0 -14.679125094724668 3.161128743608458)"><path d="M0.6 -0.11 C1.18 0.03, 4.3 -1.05, 4.2 1.29 C4.11 3.63, 1.33 11.39, 0.06 13.93 C-1.22 16.46, 1.34 15.96, -3.45 16.5 C-8.25 17.04, -23.72 17.87, -28.72 17.15 C-33.72 16.43, -32.89 16.04, -33.45 12.17 C-34.01 8.31, -32.39 -2.34, -32.07 -6.04 C-31.75 -9.74, -33.14 -9.45, -31.52 -10.04 C-29.91 -10.64, -24.35 -10.23, -22.38 -9.62 C-20.41 -9.02, -22.72 -6.86, -19.7 -6.42 C-16.68 -5.98, -7.36 -7.25, -4.25 -6.99 C-1.14 -6.73, -1.74 -6.14, -1.06 -4.85 C-0.38 -3.57, -0.26 0.06, -0.17 0.71 M-0.54 -1.21 C-0.2 -0.97, 2.7 0.31, 3.2 2.48 C3.69 4.64, 3.42 9.82, 2.41 11.77 C1.39 13.72, 2.01 13.75, -2.91 14.2 C-7.83 14.66, -22.15 15.02, -27.09 14.48 C-32.04 13.95, -31.91 14.65, -32.58 11.02 C-33.24 7.39, -31.6 -3.72, -31.07 -7.3 C-30.54 -10.88, -31.14 -9.88, -29.39 -10.47 C-27.64 -11.06, -22.26 -11.37, -20.57 -10.82 C-18.88 -10.27, -22 -7.88, -19.25 -7.17 C-16.51 -6.45, -7.44 -6.82, -4.1 -6.55 C-0.76 -6.29, 0.09 -6.72, 0.77 -5.58 C1.45 -4.44, 0.35 -0.4, -0.03 0.26" stroke="#1e1e1e" stroke-width="1" fill="none"></path></g></g><mask></mask><g stroke-opacity="0" fill-opacity="0" stroke-linecap="round" transform="translate(297.4353178170941 425.0629391507899) rotate(0 38.149055764379 38.149055764379)"><path d="M50.15 1.64 C57.12 3.23, 64.23 9.21, 68.75 15.28 C73.27 21.35, 77.14 30.51, 77.28 38.09 C77.42 45.67, 73.96 54.85, 69.58 60.77 C65.2 66.7, 57.98 71.34, 50.98 73.63 C43.98 75.93, 34.78 76.53, 27.59 74.54 C20.4 72.55, 12.55 67.73, 7.86 61.7 C3.16 55.66, -0.38 46.04, -0.58 38.33 C-0.78 30.61, 2.25 21.62, 6.65 15.41 C11.05 9.2, 17.79 3.02, 25.83 1.07 C33.87 -0.88, 49.62 2.7, 54.9 3.71 C60.17 4.71, 57.96 6.62, 57.48 7.09 M49.78 1.35 C56.66 3.19, 63.53 10.1, 68.06 16.24 C72.58 22.38, 76.73 31, 76.94 38.17 C77.15 45.34, 74.04 53.02, 69.32 59.24 C64.6 65.46, 55.88 72.76, 48.6 75.48 C41.32 78.21, 32.4 77.93, 25.64 75.58 C18.88 73.23, 12.19 67.42, 8.03 61.37 C3.87 55.33, 0.84 46.89, 0.68 39.32 C0.51 31.75, 2.8 22.33, 7.04 15.96 C11.27 9.59, 19.19 3.42, 26.1 1.1 C33.01 -1.23, 44.51 1.72, 48.48 1.99 C52.44 2.26, 49.69 1.95, 49.89 2.71" stroke="#1e1e1e" stroke-width="1" fill="none"></path></g><g transform="translate(314.05860246021166 472.7096678097212) rotate(0 20.308273315429688 8.16845032300489)"><text x="20.308273315429688" y="0" font-family="Virgil, Segoe UI Emoji" font-size="13.069520516807808px" fill="#1e1e1e" text-anchor="middle" style="white-space: pre;" direction="ltr" dominant-baseline="text-before-edge">images</text></g><g stroke-linecap="round"><g transform="translate(316.8675841386148 467.2199636163812) rotate(0 17.57594141897937 -7.943842335223451)"><path d="M0.15 0.75 C0.74 -1.51, 2.23 -11.2, 4.24 -13.81 C6.26 -16.41, 6.96 -14.62, 12.23 -14.89 C17.51 -15.16, 31.92 -15.42, 35.9 -15.45 M-1.23 0.1 C-0.87 -1.93, 1.13 -9.49, 3.24 -12.27 C5.34 -15.06, 5.88 -16.3, 11.4 -16.61 C16.93 -16.92, 32.45 -14.53, 36.38 -14.14" stroke="#1e1e1e" stroke-width="1" fill="none"></path></g></g><mask></mask><g stroke-linecap="round"><g transform="translate(351.6596865483601 451.0051113849725) rotate(0 -16.26498629263881 2.8544624371451164)"><path d="M-0.11 -0.01 C0.62 0.42, 4.28 0.78, 4.57 3.3 C4.86 5.81, 3.01 12.62, 1.63 15.09 C0.25 17.55, 1.7 17.56, -3.7 18.1 C-9.09 18.64, -25.51 19.04, -30.76 18.32 C-36 17.61, -34.52 18.1, -35.16 13.81 C-35.8 9.52, -34.85 -3.25, -34.57 -7.41 C-34.28 -11.58, -35.09 -10.58, -33.44 -11.17 C-31.79 -11.76, -26.62 -11.95, -24.68 -10.95 C-22.74 -9.95, -25.28 -5.9, -21.82 -5.18 C-18.36 -4.47, -7.67 -6.71, -3.91 -6.69 C-0.16 -6.66, 0.13 -6.27, 0.71 -5.03 C1.28 -3.79, -0.25 -0.05, -0.46 0.75 M-1.63 -1.06 C-1.08 -1, 3.1 -0.54, 3.56 1.8 C4.01 4.13, 2.21 10.59, 1.1 12.94 C-0.01 15.3, 1.91 15.5, -3.1 15.94 C-8.11 16.38, -23.88 16.07, -28.99 15.57 C-34.1 15.08, -32.41 16.48, -33.76 12.97 C-35.11 9.47, -36.95 -1.34, -37.1 -5.47 C-37.24 -9.59, -36.96 -10.6, -34.63 -11.75 C-32.3 -12.91, -25.28 -13.53, -23.12 -12.41 C-20.95 -11.29, -24.92 -6.12, -21.64 -5.02 C-18.35 -3.93, -6.98 -5.72, -3.41 -5.83 C0.17 -5.94, -0.68 -6.7, -0.19 -5.67 C0.3 -4.64, -0.24 -0.53, -0.47 0.32" stroke="#1e1e1e" stroke-width="1" fill="none"></path></g></g><mask></mask><g stroke-opacity="0" fill-opacity="0" stroke-linecap="round" transform="translate(297.4353178170941 344.07809066594155) rotate(0 38.149055764379 38.14905576437903)"><path d="M51.71 3.2 C58.43 5.22, 65.42 10.47, 69.61 16.75 C73.81 23.02, 77.2 33.35, 76.88 40.88 C76.55 48.4, 72.37 56.19, 67.66 61.9 C62.95 67.6, 55.91 72.98, 48.62 75.11 C41.33 77.24, 30.9 77.49, 23.92 74.67 C16.94 71.86, 10.71 64.78, 6.72 58.21 C2.74 51.63, -0.25 42.64, 0.01 35.22 C0.27 27.79, 3.45 19.31, 8.26 13.64 C13.07 7.96, 20.58 2.46, 28.87 1.18 C37.17 -0.1, 52.22 4.38, 58.01 5.94 C63.8 7.5, 63.89 10.18, 63.62 10.55 M54.12 2.65 C60.49 5.09, 66.92 13.02, 70.78 19.84 C74.64 26.67, 78.35 36.27, 77.29 43.6 C76.22 50.92, 69.97 58.31, 64.39 63.79 C58.81 69.28, 51.07 75.04, 43.79 76.49 C36.5 77.94, 27.34 75.66, 20.66 72.48 C13.98 69.3, 7.19 63.86, 3.69 57.4 C0.19 50.93, -1.72 41.47, -0.33 33.71 C1.06 25.95, 6.61 16.58, 12.06 10.83 C17.51 5.08, 25.26 0.23, 32.38 -0.81 C39.5 -1.85, 51.23 3.55, 54.78 4.6 C58.32 5.65, 54.1 4.96, 53.66 5.5" stroke="#1e1e1e" stroke-width="1" fill="none"></path></g><g transform="translate(319.4458476384343 391.72481932487295) rotate(0 14.921028137207031 8.16845032300489)"><text x="14.921028137207031" y="0" font-family="Virgil, Segoe UI Emoji" font-size="13.069520516807808px" fill="#1e1e1e" text-anchor="middle" style="white-space: pre;" direction="ltr" dominant-baseline="text-before-edge">icons</text></g><g stroke-linecap="round"><g transform="translate(316.8675841386148 386.2351151315327) rotate(0 18.109931354277876 -8.821663894083798)"><path d="M-0.37 -0.4 C0.32 -2.79, 3.1 -12.11, 5.06 -14.59 C7.01 -17.08, 6.19 -15.09, 11.35 -15.3 C16.52 -15.5, 32.11 -15.88, 36.04 -15.8 M1.63 -1.66 C2.15 -3.9, 2.46 -10.88, 4.48 -13.47 C6.49 -16.07, 8.37 -17.03, 13.73 -17.23 C19.08 -17.43, 32.74 -14.63, 36.59 -14.69" stroke="#1e1e1e" stroke-width="1" fill="none"></path></g></g><mask></mask><g stroke-linecap="round"><g transform="translate(351.65968654836024 370.0202629001244) rotate(0 -15.154753348209624 3.130556888159589)"><path d="M0.7 -0.79 C1.38 -0.24, 3.51 0.3, 3.69 2.89 C3.87 5.48, 3.2 12.16, 1.77 14.73 C0.34 17.31, 0.39 17.96, -4.89 18.33 C-10.17 18.7, -25.06 17.62, -29.91 16.94 C-34.75 16.26, -32.9 18.23, -33.94 14.28 C-34.98 10.32, -36.12 -2.54, -36.12 -6.78 C-36.13 -11.03, -35.95 -10.59, -33.98 -11.19 C-32 -11.79, -26.46 -11.11, -24.26 -10.36 C-22.06 -9.61, -24.14 -7.4, -20.77 -6.69 C-17.4 -5.98, -7.46 -6.46, -4.03 -6.1 C-0.61 -5.75, -0.75 -5.73, -0.23 -4.53 C0.29 -3.33, -1.05 0.21, -0.94 1.08 M-0.39 1.41 C0.68 1.65, 5.6 -1.27, 5.88 1.18 C6.16 3.62, 3.11 13.54, 1.31 16.06 C-0.49 18.58, 0.52 16.12, -4.92 16.3 C-10.37 16.47, -26.24 17.56, -31.35 17.12 C-36.45 16.68, -34.82 17.89, -35.56 13.68 C-36.3 9.46, -36.44 -3.92, -35.81 -8.17 C-35.18 -12.41, -34 -11.22, -31.78 -11.78 C-29.56 -12.34, -24.43 -12.26, -22.47 -11.52 C-20.51 -10.77, -23.19 -8.41, -20.04 -7.31 C-16.89 -6.22, -6.66 -5.34, -3.59 -4.94 C-0.52 -4.54, -2.02 -5.86, -1.62 -4.9 C-1.22 -3.94, -1.46 -0.14, -1.2 0.82" stroke="#1e1e1e" stroke-width="1" fill="none"></path></g></g><mask></mask><g stroke-linecap="round"><g transform="translate(366.87866158183556 302.1286615818357) rotate(0 89.84137736447155 -0.2232395935803595)"><path d="M-0.8 -0.95 C29.1 -0.86, 150.27 0.24, 180.49 0.51" stroke="#1e1e1e" stroke-width="1.5" fill="none" stroke-dasharray="8 9"></path></g></g><mask></mask><g stroke-opacity="0" fill-opacity="0" stroke-linecap="round" transform="translate(297.4353178170941 272.09324218109293) rotate(0 38.149055764379 38.14905576437903)"><path d="M52.48 2.47 C59.56 4.56, 67.3 10.43, 71.17 16.84 C75.03 23.25, 76.12 33.25, 75.68 40.94 C75.23 48.63, 73.06 57.17, 68.48 62.99 C63.91 68.82, 55.79 74.28, 48.22 75.9 C40.66 77.51, 30.02 75.55, 23.1 72.7 C16.18 69.85, 10.68 64.92, 6.68 58.79 C2.69 52.67, -1.29 43.34, -0.86 35.96 C-0.42 28.58, 4.42 20.46, 9.3 14.51 C14.19 8.57, 20.79 2.2, 28.48 0.29 C36.17 -1.61, 50.48 1.99, 55.45 3.1 C60.42 4.22, 58.66 6.11, 58.3 6.99 M28.83 0.22 C35.36 -2.28, 43.08 0.74, 49.95 3.26 C56.82 5.77, 65.78 9.23, 70.03 15.31 C74.27 21.39, 75.9 32.27, 75.4 39.76 C74.9 47.24, 71.27 54.37, 67.03 60.24 C62.79 66.11, 56.7 72.67, 49.94 74.98 C43.18 77.28, 33.81 76.49, 26.49 74.06 C19.17 71.63, 10.62 66.8, 6 60.39 C1.38 53.97, -1.53 43.33, -1.2 35.59 C-0.88 27.85, 2.95 19.52, 7.96 13.94 C12.96 8.36, 25.6 3.95, 28.82 2.11 C32.04 0.26, 27.45 2.24, 27.27 2.87" stroke="#1e1e1e" stroke-width="1" fill="none"></path></g><g transform="translate(317.2909480412661 319.7399708400246) rotate(0 17.075927734375 8.16845032300489)"><text x="17.075927734375" y="0" font-family="Virgil, Segoe UI Emoji" font-size="13.069520516807808px" fill="#1e1e1e" text-anchor="middle" style="white-space: pre;" direction="ltr" dominant-baseline="text-before-edge">fonts</text></g><g stroke-linecap="round"><g transform="translate(316.8675841386148 314.2502666466846) rotate(0 17.812497799989842 -8.233913839592134)"><path d="M-0.69 0.28 C-0.17 -1.67, 2.09 -10.03, 4.08 -12.87 C6.07 -15.7, 5.96 -16.42, 11.25 -16.72 C16.55 -17.02, 31.73 -14.94, 35.86 -14.66 M1.14 -0.61 C1.41 -2.79, 0.91 -11.98, 2.99 -14.5 C5.06 -17.02, 8.02 -15.4, 13.57 -15.75 C19.13 -16.1, 32.77 -16.85, 36.32 -16.6" stroke="#1e1e1e" stroke-width="1" fill="none"></path></g></g><mask></mask><g stroke-linecap="round"><g transform="translate(351.65968654836 298.0354144152759) rotate(0 -15.419898730214015 2.701402600945272)"><path d="M-0.28 0.93 C0.44 1.13, 3.28 -1.03, 3.59 1.46 C3.9 3.95, 2.82 13.1, 1.59 15.88 C0.36 18.65, 1.33 18.05, -3.77 18.1 C-8.87 18.16, -23.61 16.82, -29.02 16.19 C-34.43 15.57, -35.18 18.37, -36.21 14.36 C-37.24 10.36, -35.77 -3.77, -35.2 -7.84 C-34.64 -11.92, -34.87 -9.55, -32.83 -10.09 C-30.8 -10.63, -24.86 -11.74, -23.01 -11.08 C-21.17 -10.42, -24.71 -7.02, -21.77 -6.13 C-18.84 -5.25, -9.13 -5.99, -5.41 -5.79 C-1.69 -5.59, -0.55 -5.8, 0.54 -4.94 C1.62 -4.09, 1.22 -1.66, 1.1 -0.67 M1.78 0.38 C2.91 0.7, 5.85 0.36, 5.73 2.66 C5.6 4.95, 2.53 11.93, 1.04 14.15 C-0.45 16.36, 1.96 15.64, -3.22 15.95 C-8.39 16.25, -24.64 16.34, -30 15.98 C-35.35 15.62, -34.63 17.49, -35.37 13.81 C-36.1 10.13, -34.68 -2.13, -34.41 -6.12 C-34.13 -10.1, -35.4 -9.03, -33.7 -10.11 C-32 -11.19, -26.25 -13.22, -24.23 -12.61 C-22.21 -12, -24.66 -7.22, -21.56 -6.47 C-18.47 -5.72, -9.2 -8.28, -5.69 -8.12 C-2.17 -7.97, -1.1 -7.19, -0.45 -5.53 C0.2 -3.88, -1.66 0.67, -1.76 1.81" stroke="#1e1e1e" stroke-width="1" fill="none"></path></g></g><mask></mask><g stroke-linecap="round"><g transform="translate(237.6667912104051 272.5735391613809) rotate(0 35.35952744648762 16.149776325435198)"><path d="M-0.72 0.97 C-0.02 5.7, -8.71 23.32, 3.7 28.3 C16.11 33.29, 62.27 30.54, 73.75 30.88" stroke="#1e1e1e" stroke-width="1.5" fill="none" stroke-dasharray="8 9"></path></g></g><mask></mask><g stroke-linecap="round"><g transform="translate(225.0555109820382 273.18880461470366) rotate(0 40.94888798576545 51.522123537836364)"><path d="M-0.12 0.44 C0.15 15.94, -11.7 75.88, 2.71 92.66 C17.12 109.44, 72.36 99.55, 86.34 101.11" stroke="#1e1e1e" stroke-width="1.5" fill="none" stroke-dasharray="8 9"></path></g></g><mask></mask><g stroke-linecap="round"><g transform="translate(210.29257771851735 273.1888046147038) rotate(0 47.741773989697435 93.31997027438902)"><path d="M0.56 -0.55 C0.94 27.66, -13.29 137.4, 3.33 168.29 C19.94 199.17, 83.91 182.32, 100.23 184.75" stroke="#1e1e1e" stroke-width="1.5" fill="none" stroke-dasharray="8 9"></path></g></g><mask></mask><g stroke-linecap="round"><g transform="translate(197.83761074547044 271.6503430762423) rotate(0 55.550640665299454 125.85285261525672)"><path d="M-0.05 -0.48 C0.89 37.4, -14.07 185.69, 5.24 227.19 C24.55 268.69, 97.54 245.21, 115.8 248.52" stroke="#1e1e1e" stroke-width="1.5" fill="none" stroke-dasharray="8 9"></path></g></g><mask></mask><g stroke-linecap="round" transform="translate(427.3250620229421 344.35757922203703) rotate(0 31.80359955889378 32.81915928287532)"><path d="M2.38 6.04 C2.38 6.04, 2.38 6.04, 2.38 6.04 M2.38 6.04 C2.38 6.04, 2.38 6.04, 2.38 6.04 M1.46 13.2 C5.06 10, 7.21 7.83, 8.68 4.9 M1.46 13.2 C3.14 11.01, 5.5 8.2, 8.68 4.9 M1.2 19.6 C6.59 16.14, 11.05 10.82, 16.95 1.48 M1.2 19.6 C5.8 15.69, 10.17 9.03, 16.95 1.48 M1.6 25.24 C8.21 16.18, 16.67 8.97, 22.59 1.09 M1.6 25.24 C7.8 19.26, 12.72 14, 22.59 1.09 M1.34 31.64 C10.72 19.78, 22.58 8.21, 27.58 1.45 M1.34 31.64 C10.4 21.59, 20.58 10.97, 27.58 1.45 M1.07 38.03 C10.34 26.12, 18.96 17.51, 33.22 1.05 M1.07 38.03 C13.99 23.81, 27.18 8.36, 33.22 1.05 M1.47 43.68 C10.6 33.16, 19.12 21.78, 38.21 1.41 M1.47 43.68 C12.66 29.71, 26.16 15.84, 38.21 1.41 M0.55 50.83 C18.12 33.31, 34.98 14.37, 43.85 1.02 M0.55 50.83 C11.54 40.47, 21.61 29, 43.85 1.02 M2.26 54.96 C12.71 42.16, 24.7 28.94, 48.84 1.38 M2.26 54.96 C18.77 35.63, 36.35 16.04, 48.84 1.38 M3.31 59.85 C16.44 45, 30.49 26.85, 53.82 1.74 M3.31 59.85 C20.83 39.39, 37.29 18.8, 53.82 1.74 M5.67 63.23 C20.25 45.02, 35.6 25.47, 58.16 2.85 M5.67 63.23 C15.66 50.35, 27.77 37.43, 58.16 2.85 M8.69 65.85 C19.53 50.05, 30.85 37.33, 61.17 5.48 M8.69 65.85 C19.97 53.79, 30.3 41.29, 61.17 5.48 M13.68 66.21 C28.57 49.16, 44.91 28.47, 64.19 8.1 M13.68 66.21 C26.24 53.08, 38.86 37.94, 64.19 8.1 M18.66 66.57 C30.25 52.75, 42.28 41.46, 65.24 12.99 M18.66 66.57 C28.06 56.04, 38.09 42.49, 65.24 12.99 M23.65 66.93 C38.89 48.37, 54.98 32.62, 66.29 17.88 M23.65 66.93 C39.57 47.98, 54.9 30.81, 66.29 17.88 M29.29 66.54 C40.94 54.44, 53.29 38.75, 66.03 24.28 M29.29 66.54 C37.46 57.74, 43.88 48.91, 66.03 24.28 M34.28 66.9 C42.01 56.57, 50.78 45.01, 65.77 30.67 M34.28 66.9 C44.89 54.21, 55.71 43.2, 65.77 30.67 M39.92 66.51 C49.71 56.86, 58.75 45.28, 66.17 36.32 M39.92 66.51 C48.57 56.45, 57.15 47.03, 66.17 36.32 M44.91 66.87 C51.91 59.1, 58.01 52.33, 65.91 42.72 M44.91 66.87 C50.84 61.51, 54.54 55.66, 65.91 42.72 M49.9 67.23 C56.15 61.6, 58 57.27, 65.64 49.11 M49.9 67.23 C54.63 61.05, 60.04 54.54, 65.64 49.11 M6 63.22 C6 63.22, 6 63.22, 6 63.22 M6 63.22 C6 63.22, 6 63.22, 6 63.22 M13.15 64.13 C10.24 61.04, 8.42 59.26, 4.85 56.92 M13.15 64.13 C10.91 61.97, 8.5 60.32, 4.85 56.92 M19.55 64.4 C16.89 61.13, 11.93 56.3, 1.43 48.65 M19.55 64.4 C14.27 59.57, 7.78 53.21, 1.43 48.65 M25.19 64 C17.61 60.04, 11.68 55.16, 1.04 43.01 M25.19 64 C15.92 55.75, 7.38 48.25, 1.04 43.01 M31.59 64.26 C24.34 58.3, 15.79 51.94, 1.4 38.02 M31.59 64.26 C22.48 56.74, 14.22 47.8, 1.4 38.02 M37.99 64.52 C27.95 55.75, 12.93 44.46, 1.01 32.38 M37.99 64.52 C23.6 51.36, 8.04 39.06, 1.01 32.38 M43.63 64.13 C35.63 57.65, 27.38 47.12, 1.37 27.39 M43.63 64.13 C34.86 56.55, 23.61 46.88, 1.37 27.39 M49.27 63.73 C31.43 47.55, 11.76 32.15, 0.97 21.75 M49.27 63.73 C34.4 50.98, 21.33 39.17, 0.97 21.75 M54.16 62.68 C38.12 47.49, 25.09 37.04, 1.33 16.76 M54.16 62.68 C33.95 44.38, 14.06 28.01, 1.33 16.76 M59.05 61.63 C37.93 42.63, 18.07 29.21, 0.94 11.12 M59.05 61.63 C42.78 47.68, 26.02 33.42, 0.94 11.12 M61.67 58.61 C44.67 43.46, 25.28 26.27, 2.81 7.44 M61.67 58.61 C41.29 40.96, 20.08 23.55, 2.81 7.44 M63.54 54.94 C46.36 38.37, 25.39 20.87, 4.68 3.77 M63.54 54.94 C44.79 38.23, 25.61 21.64, 4.68 3.77 M65.41 51.26 C52.95 38.77, 37.97 26.47, 7.3 0.75 M65.41 51.26 C45.37 34.28, 24.88 16.41, 7.3 0.75 M65.02 45.62 C47.97 27.53, 27.77 11.67, 12.19 -0.3 M65.02 45.62 C44.95 27.4, 22.28 8.5, 12.19 -0.3 M65.38 40.63 C48.73 25.52, 29.33 11.12, 17.08 -1.35 M65.38 40.63 C49.87 26.84, 33.54 13.46, 17.08 -1.35 M65.74 35.65 C50.6 22.42, 37.57 10.36, 23.47 -1.09 M65.74 35.65 C57.07 27.52, 47.22 20.02, 23.47 -1.09 M65.34 30 C57.18 22.91, 48.14 18.63, 29.12 -1.49 M65.34 30 C54.97 21.29, 45.69 12.12, 29.12 -1.49 M65.7 25.02 C55.41 15.02, 45.07 7.79, 35.52 -1.23 M65.7 25.02 C54.22 15.19, 44.25 7.33, 35.52 -1.23 M65.31 19.37 C60.72 14.44, 56.83 10.03, 41.91 -0.96 M65.31 19.37 C58.59 13.02, 51.42 5.84, 41.91 -0.96 M64.91 13.73 C58.76 10.87, 55.44 6.2, 47.56 -1.36 M64.91 13.73 C60.46 9.59, 55.64 5.22, 47.56 -1.36" stroke="#a5d8ff" stroke-width="0.5" fill="none"></path><path d="M15.9 0 M15.9 0 C21.62 -0.2, 30.28 0.42, 47.71 0 M47.71 0 C60.01 -0.93, 65.6 6.41, 63.61 15.9 M63.61 15.9 C61.73 24.59, 62.04 31.07, 63.61 49.74 M63.61 49.74 C62.94 62.22, 59.51 66.27, 47.71 65.64 M47.71 65.64 C38.69 63.53, 29.51 66.95, 15.9 65.64 M15.9 65.64 C6.84 65.46, -0.62 61.87, 0 49.74 M0 49.74 C-0.82 42.79, -1.71 34.09, 0 15.9 M0 15.9 C-1.89 6.69, 3.87 0.42, 15.9 0" stroke="#1e1e1e" stroke-width="1.5" fill="none" stroke-dasharray="8 9"></path></g><g stroke-opacity="0" fill-opacity="0" stroke-linecap="round" transform="translate(434.8952982776009 353.8513778070388) rotate(0 23.32536069787352 23.32536069787352)"><path d="M21.4 1.07 C25.93 0.24, 32.27 0.91, 36.36 3.5 C40.44 6.1, 44.53 11.69, 45.91 16.65 C47.28 21.62, 46.86 28.73, 44.59 33.29 C42.32 37.85, 36.67 42, 32.28 44.02 C27.89 46.05, 22.81 46.56, 18.26 45.44 C13.71 44.33, 7.87 41.3, 4.99 37.33 C2.12 33.35, 0.79 26.64, 1.03 21.6 C1.26 16.55, 1.84 10.49, 6.4 7.04 C10.97 3.59, 23.75 1.49, 28.42 0.92 C33.08 0.35, 34.76 3.24, 34.39 3.61 M33 3.22 C37.51 4.98, 42.81 8.92, 44.73 13.27 C46.64 17.61, 45.73 24.39, 44.5 29.3 C43.27 34.21, 41.2 39.68, 37.34 42.74 C33.48 45.8, 26.29 48.44, 21.32 47.67 C16.36 46.89, 11.14 42, 7.54 38.09 C3.93 34.19, 0.28 28.84, -0.29 24.24 C-0.86 19.63, 1.2 14.24, 4.11 10.45 C7.03 6.66, 12.29 2.8, 17.21 1.49 C22.14 0.18, 31.02 2.19, 33.67 2.6 C36.32 3, 33.12 3.41, 33.09 3.94" stroke="#1e1e1e" stroke-width="1" fill="none"></path></g><g stroke-linecap="round"><g transform="translate(448.3824377949172 365.0999544446602) rotate(0 10.170383898936791 6.90441507492892)"><path d="M-0.22 0.92 C-0.41 2.97, -0.79 10.79, -0.1 13.05 C0.58 15.31, 1.07 14.18, 3.87 14.49 C6.68 14.81, 14.11 15.21, 16.73 14.94 C19.36 14.66, 18.99 15.48, 19.61 12.84 C20.23 10.21, 20.91 1.52, 20.44 -0.89 C19.97 -3.3, 19.73 -1.44, 16.8 -1.6 C13.87 -1.75, 5.56 -2.26, 2.87 -1.8 C0.19 -1.35, 1.12 0.91, 0.69 1.13 M-1.79 0.35 C-2.23 1.96, -1.96 8.49, -1.04 11.03 C-0.12 13.58, 0.79 14.78, 3.72 15.62 C6.66 16.46, 13.6 16.47, 16.55 16.08 C19.5 15.69, 20.53 15.79, 21.43 13.3 C22.33 10.81, 22.66 3.74, 21.95 1.13 C21.24 -1.48, 20.57 -1.9, 17.18 -2.36 C13.78 -2.83, 4.55 -2.13, 1.58 -1.67 C-1.38 -1.22, -0.56 0.26, -0.62 0.35" stroke="#1e1e1e" stroke-width="1" fill="none"></path></g></g><mask></mask><g stroke-linecap="round"><g transform="translate(448.1943563769289 376.69830855394076) rotate(0 9.600171330318972 -2.9155010118120686)"><path d="M0.02 0.2 C1.75 -0.96, 8.15 -5.65, 10.14 -6.01 C12.13 -6.36, 11.23 -2.18, 11.97 -1.93 C12.71 -1.68, 13.15 -4.52, 14.6 -4.52 C16.04 -4.53, 19.74 -2.76, 20.63 -1.95 M-1.43 -0.74 C0.26 -1.8, 7.17 -4.69, 9.81 -4.66 C12.45 -4.63, 13.65 -0.79, 14.43 -0.57 C15.21 -0.35, 13.67 -3.09, 14.48 -3.36 C15.28 -3.62, 18.16 -2.69, 19.26 -2.16" stroke="#1e1e1e" stroke-width="1" fill="none"></path></g></g><mask></mask><g stroke-linecap="round" transform="translate(460.9211989941398 365.53881108663273) rotate(0 1.3792637319144774 1.3792637319144774)"><path d="M1.01 0.24 C1.1 0.15, 0.5 -0.34, 0.91 -0.33 C1.32 -0.33, 3.07 -0.15, 3.5 0.27 C3.92 0.7, 3.53 1.8, 3.48 2.2 C3.43 2.61, 3.62 2.57, 3.2 2.69 C2.79 2.81, 1.3 2.89, 0.98 2.93 C0.66 2.97, 1.3 3.04, 1.3 2.95 C1.3 2.86, 1.32 2.7, 0.97 2.39 C0.62 2.08, -0.97 1.56, -0.8 1.08 C-0.62 0.6, 1.7 -0.23, 2.03 -0.49 C2.36 -0.74, 1.22 -0.56, 1.16 -0.45 M2.17 0.01 C2.74 0.23, 2.34 1.39, 2.6 1.3 C2.87 1.22, 3.8 -0.47, 3.76 -0.49 C3.72 -0.5, 2.71 0.56, 2.37 1.23 C2.03 1.89, 2 3.12, 1.7 3.51 C1.41 3.9, 0.82 3.76, 0.59 3.59 C0.36 3.42, 0.51 2.66, 0.34 2.49 C0.17 2.32, -0.54 2.67, -0.41 2.56 C-0.29 2.45, 0.9 2.21, 1.11 1.84 C1.31 1.47, 1.01 0.6, 0.79 0.33 C0.57 0.07, -0.05 0.3, -0.22 0.24" stroke="#1e1e1e" stroke-width="1" fill="none"></path></g><g transform="translate(438.3775422152207 382.5572010510244) rotate(0 19.843116760253906 4.994410642914431)"><text x="19.843116760253906" y="0" font-family="Virgil, Segoe UI Emoji" font-size="7.991057028663076px" fill="#1e1e1e" text-anchor="middle" style="white-space: pre;" direction="ltr" dominant-baseline="text-before-edge">favicon.ico</text></g><g stroke-linecap="round"><g transform="translate(355.3786615818358 379.6767385049124) rotate(0 37.39665523692969 0.8199418313801345)"><path d="M1.13 0.35 C13.45 0.68, 61.69 1.25, 73.67 1.29" stroke="#1e1e1e" stroke-width="1.5" fill="none" stroke-dasharray="8 9"></path></g></g><mask></mask><g stroke-opacity="0" fill-opacity="0" stroke-linecap="round" transform="translate(533.2500000000002 275.0480769230768) rotate(0 36.503661581835615 36.503661581835615)"><path d="M20.65 3.08 C26.53 -0.16, 36.66 0.29, 43.73 1.53 C50.79 2.77, 58.19 5.66, 63.01 10.52 C67.84 15.37, 71.56 23.49, 72.66 30.68 C73.75 37.86, 72.82 47.14, 69.57 53.63 C66.32 60.12, 59.91 66.31, 53.18 69.61 C46.44 72.91, 36.45 74.79, 29.15 73.4 C21.85 72.02, 14.07 66.5, 9.37 61.32 C4.67 56.14, 1.9 49.34, 0.94 42.32 C-0.01 35.29, -0.6 25.89, 3.64 19.16 C7.87 12.44, 21.76 5.01, 26.35 1.97 C30.95 -1.06, 31.19 0.49, 31.22 0.94 M40.12 0.05 C46.95 0.07, 54.5 5, 60.02 9.58 C65.54 14.16, 71.57 20.75, 73.24 27.55 C74.92 34.36, 73.05 43.88, 70.07 50.41 C67.09 56.93, 61.31 62.95, 55.37 66.68 C49.43 70.41, 41.68 73.23, 34.43 72.77 C27.19 72.31, 17.37 68.64, 11.9 63.94 C6.42 59.24, 2.99 51.16, 1.59 44.59 C0.19 38.02, 0.75 31.18, 3.49 24.51 C6.22 17.85, 12.22 8.52, 18.01 4.6 C23.81 0.68, 34.91 1.86, 38.26 1 C41.61 0.15, 37.94 -0.75, 38.11 -0.54" stroke="#1e1e1e" stroke-width="1" fill="none"></path></g><g stroke-linecap="round"><g transform="translate(556.3006987641091 288.0489369349494) rotate(0 12.043752784477363 14.753325461434372)"><path d="M1.76 -0.14 C0.29 7.86, 1.75 20.03, 0.42 28.01 M-0.06 0.72 C0.03 7.84, 0.73 16.76, -0.5 29.95 M0.39 30.3 C7.27 29.28, 16.93 28.81, 24.22 29.48 M0.14 30.13 C9.29 29.41, 16.52 29.63, 23.53 28.9 M23.08 29.96 C22.72 23.89, 25.98 17.38, 22.56 7.6 M24.41 28.38 C24.81 20.84, 24.12 14.86, 23.8 8.71 M24.58 8.95 C22.13 8.41, 18.72 9.12, 15.62 8.77 M23.77 8.39 C21.62 8.4, 20.33 8.31, 16.29 8.36 M15.98 8.59 C16.32 5.71, 16.75 3.51, 15.5 -0.11 M16.09 8.39 C16.45 6.44, 16.33 4.02, 16.6 -0.04 M16.47 -0.65 C18.91 3.82, 21.18 4.46, 24.59 8.65 M15.8 0.05 C17.67 1.43, 19.32 3.6, 23.9 8.88 M23.09 8.41 C21.29 6.46, 19.47 4.17, 15.86 -0.35 M23.71 8.28 C21.55 6.37, 19.49 4.02, 16.4 0.33 M17.33 0.54 C9.52 -0.9, 5.42 0.05, 0.86 1.33 M15.36 -0.78 C11.7 -0.84, 8.86 -0.81, -0.5 0.59" stroke="#1e1e1e" stroke-width="1" fill="none"></path></g></g><mask></mask><g transform="translate(542.2471329892151 320.108343049366) rotate(0 27.50652859262084 7.816139620352658)"><text x="27.50652859262086" y="0" font-family="Virgil, Segoe UI Emoji" font-size="12.50582339256426px" fill="#1e1e1e" text-anchor="middle" style="white-space: pre;" direction="ltr" dominant-baseline="text-before-edge">jost.woff</text></g><g transform="translate(561.9375219614831 298.26430115031286) rotate(0 4.10190854617133 7.816139620352658)"><text x="0" y="0" font-family="Virgil, Segoe UI Emoji" font-size="12.50582339256426px" fill="#1e1e1e" text-anchor="start" style="white-space: pre;" direction="ltr" dominant-baseline="text-before-edge">A</text></g><g stroke-opacity="0" fill-opacity="0" stroke-linecap="round" transform="translate(155.97960581745673 702.7776827405335) rotate(0 58.14905576437903 58.14905576437906)"><path d="M34.34 3.88 C41.97 -0.21, 53.61 0.13, 62.72 1.02 C71.82 1.91, 81.49 4.5, 88.97 9.24 C96.45 13.98, 103.05 21.93, 107.59 29.45 C112.13 36.97, 115.58 45.64, 116.21 54.36 C116.83 63.08, 115.13 73.45, 111.33 81.78 C107.53 90.12, 100.75 98.78, 93.41 104.39 C86.07 110, 76.2 113.8, 67.28 115.44 C58.37 117.07, 48.51 116.96, 39.93 114.22 C31.35 111.47, 22.11 105.49, 15.81 98.97 C9.51 92.44, 4.72 83.8, 2.12 75.06 C-0.48 66.33, -1.69 55.53, 0.21 46.56 C2.12 37.59, 7.3 28.32, 13.57 21.26 C19.83 14.2, 32.93 7.29, 37.78 4.19 C42.64 1.1, 42.19 1.74, 42.69 2.7 M42.26 2.92 C50.27 -0.47, 60.51 -1.17, 69.43 0.63 C78.35 2.42, 88.7 7.85, 95.79 13.69 C102.87 19.53, 108.58 27.84, 111.93 35.66 C115.27 43.48, 116.46 51.85, 115.87 60.61 C115.28 69.37, 113.08 80.26, 108.41 88.22 C103.73 96.19, 95.57 103.83, 87.83 108.37 C80.08 112.91, 71.16 115.1, 61.94 115.47 C52.73 115.83, 40.79 114.17, 32.53 110.54 C24.27 106.91, 17.74 100.81, 12.38 93.71 C7.01 86.61, 2.13 77.03, 0.34 67.92 C-1.45 58.82, -0.92 47.78, 1.66 39.09 C4.24 30.4, 9.41 21.83, 15.83 15.78 C22.26 9.73, 36.05 4.83, 40.19 2.79 C44.33 0.75, 40.31 2.55, 40.67 3.55" stroke="#1e1e1e" stroke-width="1" fill="none"></path></g><g transform="translate(183.1996445833579 775.4036554222864) rotate(0 29.07323455810547 12.45083695582531)"><text x="29.07323455810547" y="0" font-family="Virgil, Segoe UI Emoji" font-size="19.921339129320494px" fill="#1e1e1e" text-anchor="middle" style="white-space: pre;" direction="ltr" dominant-baseline="text-before-edge">Pages</text></g><g stroke-linecap="round"><g transform="translate(185.59941986835804 767.0359223585879) rotate(0 27.012581525641906 -11.7247923693252)"><path d="M0.22 -0.71 C1.3 -4.08, 2.23 -16.69, 5.5 -20.63 C8.77 -24.56, 11.67 -23.62, 19.86 -24.34 C28.04 -25.07, 48.75 -24.99, 54.6 -24.95 M-1.12 1.52 C0.4 -2.17, 4.15 -18.45, 7.61 -22.53 C11.07 -26.61, 11.71 -22.65, 19.64 -22.95 C27.56 -23.24, 49.43 -24.15, 55.15 -24.29" stroke="#1e1e1e" stroke-width="1" fill="none"></path></g></g><mask></mask><g stroke-linecap="round"><g transform="translate(238.63160802210302 742.3202818866748) rotate(0 -23.462779863651548 5.2800514211809855)"><path d="M-1.14 0.41 C0.18 1.09, 7.59 -0.15, 8.18 3.38 C8.76 6.91, 4.69 17.75, 2.37 21.59 C0.05 25.43, 2.49 25.51, -5.72 26.4 C-13.92 27.3, -38.71 27.97, -46.86 26.97 C-55.01 25.98, -53.41 26.77, -54.61 20.44 C-55.82 14.11, -54.75 -4.84, -54.08 -11.01 C-53.4 -17.19, -53.65 -15.56, -50.55 -16.62 C-47.45 -17.67, -38.68 -18.42, -35.47 -17.33 C-32.27 -16.23, -36.19 -11.13, -31.3 -10.05 C-26.41 -8.98, -11.21 -11.52, -6.15 -10.87 C-1.08 -10.22, -1.83 -7.86, -0.9 -6.16 C0.03 -4.46, -0.85 -1.8, -0.56 -0.66 M0.46 -0.42 C1.7 0.54, 7.53 1.18, 7.77 4.99 C8.01 8.81, 4.03 18.72, 1.9 22.47 C-0.22 26.22, 2.88 26.63, -4.98 27.49 C-12.85 28.35, -37.17 29, -45.29 27.65 C-53.42 26.29, -52.4 25.5, -53.76 19.38 C-55.11 13.25, -53.77 -3.02, -53.41 -9.1 C-53.05 -15.18, -54.39 -16.04, -51.6 -17.11 C-48.81 -18.17, -40.2 -16.57, -36.66 -15.5 C-33.13 -14.44, -35.57 -11.54, -30.4 -10.7 C-25.23 -9.85, -10.89 -11.2, -5.64 -10.44 C-0.39 -9.67, 0.26 -8.16, 1.09 -6.12 C1.93 -4.07, -0.54 0.67, -0.63 1.83" stroke="#1e1e1e" stroke-width="1" fill="none"></path></g></g><mask></mask><g stroke-linecap="round"><g transform="translate(246.6286615818358 754.6767385049125) rotate(0 66.97502000406382 0.6906161658466203)"><path d="M0.28 -0.08 C22.64 0.15, 111.7 1.2, 133.67 1.46" stroke="#1e1e1e" stroke-width="1.5" fill="none" stroke-dasharray="8 9"></path></g></g><mask></mask><g stroke-linecap="round"><g transform="translate(39.135800224572336 106.46108936351871) rotate(0 61.66228726433263 420.33843297139924)"><path d="M0.78 0.4 C0.91 124.54, -21.06 605.35, 0.84 745.3 C22.75 885.24, 110.23 824.4, 132.21 840.07" stroke="#1e1e1e" stroke-width="1.5" fill="none" stroke-dasharray="8 9"></path></g></g><mask></mask></svg>