<svg version="1.1" xmlns="http://www.w3.org/2000/svg" viewBox="0 0 607.3786615818358 859.3786615818356" width="1214.7573231636716" height="1718.7573231636711">
  <!-- svg-source:excalidraw -->
  
  <defs>
    <style class="style-fonts">
      @font-face {
        font-family: "Virgil";
        src: url("https://excalidraw.com/Virgil.woff2");
      }
      @font-face {
        font-family: "Cascadia";
        src: url("https://excalidraw.com/Cascadia.woff2");
      }
    </style>
    
  </defs>
  <rect x="0" y="0" width="607.3786615818358" height="859.3786615818356" fill="#ffffff"></rect><g stroke-opacity="0" fill-opacity="0" stroke-linecap="round" transform="translate(10 10) rotate(0 58.378661581835615 58.378661581835615)"><path d="M71.95 0.9 C80.71 1.96, 90.52 8.41, 97.17 14.27 C103.82 20.12, 108.61 27.65, 111.85 36.02 C115.1 44.4, 117.43 55.53, 116.65 64.51 C115.88 73.49, 112.34 82.56, 107.22 89.93 C102.09 97.3, 93.8 104.23, 85.91 108.75 C78.01 113.27, 68.93 116.76, 59.83 117.05 C50.72 117.34, 39.44 114.56, 31.29 110.48 C23.13 106.41, 16.16 100.1, 10.89 92.61 C5.61 85.12, 0.72 74.48, -0.36 65.53 C-1.44 56.58, 1.2 47.24, 4.4 38.91 C7.59 30.58, 12.2 21.72, 18.82 15.56 C25.43 9.41, 34.95 4.13, 44.08 1.98 C53.2 -0.17, 68.18 2.31, 73.56 2.68 C78.94 3.05, 76.54 3.3, 76.34 4.21 M54.04 -0.11 C62.46 -1.52, 73.42 1.49, 81.69 5.22 C89.95 8.94, 98.16 15.45, 103.61 22.22 C109.06 28.98, 112.8 37.34, 114.39 45.81 C115.97 54.27, 115.34 64.38, 113.1 73.01 C110.86 81.63, 107.03 91.02, 100.96 97.55 C94.89 104.08, 85.06 109.24, 76.69 112.17 C68.31 115.1, 59.42 116.18, 50.72 115.13 C42.02 114.08, 31.8 110.99, 24.49 105.86 C17.17 100.73, 11.05 92.42, 6.84 84.34 C2.62 76.25, -0.77 66.29, -0.83 57.34 C-0.88 48.38, 1.94 38.79, 6.48 30.6 C11.03 22.41, 18.73 13.39, 26.46 8.18 C34.19 2.97, 48.36 0.69, 52.87 -0.65 C57.38 -1.99, 53.41 -0.77, 53.53 0.15" stroke="#1e1e1e" stroke-width="1" fill="none"></path></g><g transform="translate(25.375597834918096 82.91274166891822) rotate(0 41.13995361328125 12.5)"><text x="41.13995361328125" y="0" font-family="Virgil, Segoe UI Emoji" font-size="20px" fill="#1e1e1e" text-anchor="middle" style="white-space: pre;" direction="ltr" dominant-baseline="text-before-edge">proyecto</text></g><g stroke-linecap="round"><g transform="translate(39.736770062116136 74.5119679966474) rotate(0 26.14592528068991 -12.643137345194575)"><path d="M0.42 0.42 C1.31 -2.87, 2.83 -15.99, 5.92 -20.33 C9.02 -24.66, 11.14 -24.99, 19.01 -25.59 C26.87 -26.19, 47.27 -24.24, 53.12 -23.94 M-0.82 -0.41 C0.41 -3.97, 5.06 -17.97, 8.24 -22.03 C11.43 -26.1, 10.88 -24.69, 18.3 -24.8 C25.72 -24.91, 47.07 -22.96, 52.77 -22.68" stroke="#1e1e1e" stroke-width="1" fill="none"></path></g></g><mask></mask><g stroke-linecap="round"><g transform="translate(92.97835970574755 49.69873600308506) rotate(0 -24.03771295622414 5.153759848085599)"><path d="M-0.75 0.79 C0.4 1.09, 7.04 -1.43, 7.28 2.24 C7.52 5.91, 3.03 18.67, 0.68 22.79 C-1.67 26.91, 1.11 26.4, -6.84 26.97 C-14.79 27.54, -39.01 27.13, -47.02 26.2 C-55.04 25.27, -53.76 27.59, -54.92 21.38 C-56.08 15.17, -54.68 -4.78, -53.97 -11.05 C-53.25 -17.33, -53.63 -15.17, -50.64 -16.26 C-47.65 -17.35, -39.04 -18.85, -36.01 -17.59 C-32.98 -16.33, -37.47 -9.91, -32.45 -8.68 C-27.44 -7.45, -11.33 -10.55, -5.92 -10.2 C-0.5 -9.85, -0.98 -8.21, 0.02 -6.59 C1.03 -4.97, 0.01 -1.65, 0.12 -0.47 M1.06 0.16 C2.02 0.54, 6.07 -0.76, 6.39 3.25 C6.71 7.27, 5.16 20.08, 2.98 24.26 C0.8 28.43, 1.39 27.94, -6.68 28.3 C-14.76 28.66, -37.54 27.67, -45.45 26.42 C-53.35 25.16, -52.83 26.7, -54.11 20.77 C-55.39 14.84, -53.55 -2.93, -53.14 -9.15 C-52.72 -15.36, -54.25 -15.41, -51.62 -16.53 C-49 -17.65, -40.66 -17.19, -37.41 -15.87 C-34.15 -14.54, -37.45 -9.66, -32.09 -8.58 C-26.74 -7.5, -10.43 -9.69, -5.27 -9.39 C-0.12 -9.08, -2.1 -8.06, -1.16 -6.75 C-0.21 -5.45, 0.16 -2.76, 0.41 -1.54" stroke="#1e1e1e" stroke-width="1" fill="none"></path></g></g><mask></mask><g stroke-opacity="0" fill-opacity="0" stroke-linecap="round" transform="translate(171.00000000000028 179) rotate(0 58.378661581835644 58.378661581835615)"><path d="M60.14 0.52 C68.6 -0.27, 78.86 3.07, 86.6 7.23 C94.35 11.39, 101.59 17.82, 106.62 25.47 C111.65 33.12, 115.73 44.16, 116.77 53.15 C117.82 62.15, 116.18 71.28, 112.89 79.44 C109.6 87.59, 104.04 96.01, 97.03 102.1 C90.03 108.18, 79.82 113.96, 70.85 115.94 C61.89 117.91, 51.96 116.44, 43.24 113.93 C34.52 111.43, 25.14 106.99, 18.54 100.88 C11.93 94.78, 6.69 85.84, 3.62 77.31 C0.55 68.79, -0.96 58.72, 0.14 49.75 C1.24 40.77, 4.94 30.75, 10.24 23.45 C15.55 16.14, 23.1 9.89, 31.96 5.93 C40.83 1.98, 57.91 0.39, 63.42 -0.27 C68.92 -0.94, 65.2 0.98, 65 1.95 M54.8 -0.92 C63.53 -2.27, 73.87 2.3, 82.3 5.93 C90.73 9.57, 99.78 14.05, 105.38 20.89 C110.99 27.74, 114.35 37.94, 115.93 46.99 C117.51 56.05, 117.65 66.62, 114.84 75.23 C112.04 83.84, 105.47 92.33, 99.1 98.65 C92.73 104.97, 84.98 110.18, 76.63 113.17 C68.28 116.16, 58.08 117.84, 48.99 116.59 C39.91 115.34, 29.24 111.26, 22.11 105.67 C14.99 100.07, 10 91.32, 6.26 83 C2.51 74.69, -0.48 64.71, -0.36 55.77 C-0.24 46.82, 2.39 37.26, 6.97 29.32 C11.55 21.37, 19.11 12.81, 27.13 8.07 C35.14 3.34, 50.36 2.14, 55.06 0.9 C59.77 -0.33, 55.19 -0.02, 55.34 0.66" stroke="#1e1e1e" stroke-width="1" fill="none"></path></g><g transform="translate(198.21558654341447 251.91274166891833) rotate(0 29.299964904785156 12.5)"><text x="29.299964904785156" y="0" font-family="Virgil, Segoe UI Emoji" font-size="20px" fill="#1e1e1e" text-anchor="middle" style="white-space: pre;" direction="ltr" dominant-baseline="text-before-edge">styles</text></g><g stroke-linecap="round"><g transform="translate(200.73677006211597 243.5119679966475) rotate(0 26.46801317670912 -12.41941535698146)"><path d="M0.78 0.49 C1.98 -3.2, 4.27 -16.93, 7.27 -21.22 C10.27 -25.52, 11.12 -24.82, 18.78 -25.26 C26.43 -25.7, 47.2 -24.12, 53.21 -23.86 M-0.27 -0.29 C0.82 -3.88, 3.6 -15.74, 6.64 -19.74 C9.68 -23.74, 10.24 -23.82, 17.95 -24.29 C25.66 -24.76, 46.97 -22.78, 52.91 -22.57" stroke="#1e1e1e" stroke-width="1" fill="none"></path></g></g><mask></mask><g stroke-linecap="round"><g transform="translate(253.97835970574738 218.69873600308506) rotate(0 -24.05776546303389 5.116326298112256)"><path d="M0.6 -0.11 C1.65 0.24, 7.02 -1.25, 7.05 2.57 C7.08 6.4, 2.96 18.79, 0.77 22.86 C-1.42 26.94, 1.85 26.23, -6.1 27.04 C-14.05 27.84, -38.81 28.8, -46.92 27.69 C-55.04 26.57, -53.68 26.64, -54.8 20.34 C-55.92 14.04, -54.17 -3.97, -53.64 -10.12 C-53.12 -16.27, -54.45 -15.54, -51.66 -16.55 C-48.87 -17.57, -40.12 -17.23, -36.89 -16.19 C-33.66 -15.14, -37.29 -11.16, -32.28 -10.28 C-27.28 -9.4, -12.02 -11.34, -6.85 -10.91 C-1.67 -10.47, -2.33 -9.6, -1.22 -7.67 C-0.11 -5.73, -0.29 -0.41, -0.17 0.71 M-0.54 -1.21 C0.27 -0.76, 5.43 0.11, 6.04 3.76 C6.65 7.41, 5.06 17.21, 3.12 20.71 C1.19 24.2, 2.51 24.02, -5.56 24.74 C-13.63 25.46, -37.24 25.95, -45.3 25.02 C-53.36 24.1, -52.7 25.25, -53.93 19.18 C-55.15 13.11, -53.38 -5.36, -52.64 -11.38 C-51.91 -17.41, -52.45 -15.98, -49.52 -16.98 C-46.6 -17.98, -38.03 -18.38, -35.08 -17.39 C-32.13 -16.4, -36.56 -12.18, -31.83 -11.03 C-27.1 -9.87, -12.1 -10.91, -6.69 -10.47 C-1.29 -10.03, -0.51 -10.18, 0.6 -8.39 C1.71 -6.61, 0.32 -0.87, -0.03 0.26" stroke="#1e1e1e" stroke-width="1" fill="none"></path></g></g><mask></mask><g stroke-linecap="round"><g transform="translate(90.37866158183579 111.37866158183562) rotate(0 48.1630069402413 57.6898569671318)"><path d="M0.44 1.2 C1.12 18.08, -13.6 83.13, 3.2 101.89 C19.99 120.65, 84.97 111.82, 101.21 113.76" stroke="#1e1e1e" stroke-width="1.5" fill="none" stroke-dasharray="8 9"></path></g></g><mask></mask><g stroke-linecap="round"><g transform="translate(60.378661581835786 113.37866158183562) rotate(0 55.9135837193609 320.71564914139356)"><path d="M0.46 1.15 C0.62 96.03, -19.9 461.72, 0.1 568.19 C20.11 674.66, 100.58 628.12, 120.49 639.98" stroke="#1e1e1e" stroke-width="1.5" fill="none" stroke-dasharray="8 9"></path></g></g><mask></mask><g stroke-linecap="round" transform="translate(186.3786615818358 661.3786615818356) rotate(0 205.5 94)"><path d="M33.44 -1.28 L380.63 0.79 L385.81 2 L398.76 4.42 L407.05 11.58 L410.58 17.89 L410.16 33.06 L409.57 157.05 L410.11 161.52 L406.18 175.26 L397.33 183.11 L391.83 184.42 L379.23 188.48 L33.42 187.45 L24.19 185.82 L10.81 182.82 L4.05 175.37 L0.32 162.02 L-0.87 23.38 L3.75 17.57 L6.2 6.15 L17.37 3.03 L32.02 -0.52" stroke="none" stroke-width="0" fill="#ffec99"></path><path d="M32 0 M32 0 C161.76 -0.3, 288.96 -0.52, 379 0 M379 0 C399.13 1.05, 410.86 12.17, 411 32 M411 32 C413.1 78.93, 411.83 123.87, 411 156 M411 156 C411.91 178.42, 398.84 189.3, 379 188 M379 188 C288.21 189.64, 197.89 190.01, 32 188 M32 188 C10.83 188.22, -0.63 179.19, 0 156 M0 156 C0.89 120.95, -2.16 87.78, 0 32 M0 32 C0.94 10.36, 10.87 -0.46, 32 0" stroke="#1e1e1e" stroke-width="1.5" fill="none" stroke-dasharray="8 9"></path></g><g stroke-opacity="0" fill-opacity="0" stroke-linecap="round" transform="translate(272.2780459708489 703.6800787188097) rotate(0 7.918619410952601 9.426736628809806)"><path d="M8.31 -0.25 C9.75 -0.31, 11.47 1.45, 12.6 2.75 C13.73 4.05, 14.64 5.66, 15.08 7.53 C15.52 9.41, 15.84 12.25, 15.23 13.99 C14.62 15.73, 13.08 17.19, 11.42 17.96 C9.75 18.74, 6.77 19.22, 5.23 18.62 C3.69 18.03, 3.21 15.99, 2.2 14.4 C1.18 12.81, -0.96 11.16, -0.88 9.07 C-0.8 6.97, 1.01 3.34, 2.65 1.84 C4.29 0.33, 7.69 0.12, 8.96 0.02 C10.23 -0.09, 10.44 1.01, 10.28 1.23 M8.47 1.16 C9.9 1.47, 11.95 2.17, 12.93 3.37 C13.91 4.57, 14.15 6.29, 14.36 8.38 C14.57 10.47, 14.97 14.15, 14.19 15.89 C13.4 17.63, 11.36 18.56, 9.63 18.84 C7.9 19.12, 5.13 18.38, 3.82 17.57 C2.51 16.75, 2.13 15.86, 1.78 13.92 C1.43 11.98, 1.49 8.07, 1.71 5.93 C1.92 3.78, 2.02 1.93, 3.07 1.05 C4.13 0.17, 7.19 0.56, 8.01 0.63 C8.83 0.69, 7.7 1.33, 8 1.44" stroke="#1e1e1e" stroke-width="1" fill="none"></path></g><g stroke-linecap="round"><g transform="translate(278.4073699580498 714.7694599609536) rotate(0 2.1982582172356047 -0.9379687542341912)"><path d="M0.46 -0.07 C0.45 1.81, 0 4.34, -0.26 5.2 M-0.03 -0.11 C0.06 1.85, -0.03 3.02, 0.19 5.09 M0.04 5.21 C-0.8 5.13, -1.16 5.12, -2.91 5.01 M-0.12 5.01 C-1.03 5.14, -2.07 5.08, -2.79 5 M-3.13 4.91 C-3 2.63, -2.52 0.48, -2.26 -0.31 M-2.97 4.79 C-2.7 3.15, -3.01 1.31, -2.85 -0.97 M-2.7 -0.93 C-3.55 -0.64, -3.83 -0.85, -5.09 -0.92 M-2.83 -0.77 C-3.23 -0.74, -3.9 -0.7, -4.8 -0.79 M-4.04 -1.51 C-4 -1.83, -1.9 -4.24, 2.05 -6.56 M-4.79 -1.03 C-3.09 -2.82, -1.55 -4.24, 2.21 -7.04 M2.44 -7.47 C3.08 -5.93, 4.78 -4.74, 5.57 -4.4 M1.92 -7.44 C2.99 -6.79, 3.66 -5.93, 5.66 -4.33 M5.58 -4.13 C5.68 -4.83, 5.54 -5.26, 5.55 -5.94 M5.62 -4.3 C5.7 -4.81, 5.56 -5.33, 5.73 -6.18 M5.73 -6.15 C6.26 -6.14, 6.99 -5.99, 7.7 -5.99 M5.61 -6.15 C6.37 -5.95, 7.06 -5.97, 7.57 -5.94 M7.22 -5.81 C7.82 -5.45, 7.52 -4.43, 7.25 -2.67 M7.65 -5.84 C7.57 -5.02, 7.41 -3.97, 7.46 -2.94 M7.71 -2.89 C7.97 -2.56, 8.25 -2.01, 9.49 -0.64 M7.34 -2.9 C8.02 -2, 8.91 -1.24, 9.4 -0.4 M9.44 -0.55 C8.84 -0.61, 7.78 -0.35, 7.4 -0.57 M9.35 -0.45 C8.66 -0.43, 7.96 -0.39, 7.33 -0.44 M6.75 -1.01 C6.81 0.95, 6.77 2.33, 6.93 5.28 M7.48 -0.68 C7 1.09, 7.1 2.39, 7.5 5.22 M6.94 5.42 C5.65 5.14, 4.96 5.01, 3.84 5.27 M7.29 5.36 C6.65 5.13, 5.75 5.39, 4.11 5.26 M4.32 5.59 C3.8 4.03, 3.83 2.76, 4.17 0.04 M4.14 5.2 C4.1 3.47, 4.12 1.73, 3.85 0.43 M4.42 0.41 C2.64 -0.04, 1.6 -0.26, -0.34 -0.17 M4.02 0.31 C2.51 0.09, 1.07 -0.02, -0.17 -0.19" stroke="#1e1e1e" stroke-width="1" fill="none"></path></g></g><mask></mask><g stroke-opacity="0" fill-opacity="0" stroke-linecap="round" transform="translate(246.53309174949754 684.6778506030503) rotate(0 35.78466595066959 35.78466595066959)"><path d="M32.36 0.32 C39.03 -0.68, 48.43 2.13, 54.39 5.5 C60.35 8.88, 65.4 14.19, 68.13 20.56 C70.86 26.94, 72.08 36.72, 70.77 43.75 C69.47 50.77, 65.36 58.06, 60.3 62.72 C55.23 67.38, 47.38 70.94, 40.38 71.72 C33.38 72.49, 24.61 71, 18.31 67.37 C12.01 63.74, 5.43 56.55, 2.6 49.94 C-0.23 43.32, -0.32 34.6, 1.34 27.67 C3 20.74, 7.06 12.82, 12.55 8.37 C18.04 3.92, 29.98 2.07, 34.28 0.96 C38.58 -0.16, 38.1 1.17, 38.36 1.69 M22.86 1.71 C29.1 -0.96, 39.99 -1.52, 47.11 0.51 C54.24 2.53, 61.68 8.21, 65.61 13.87 C69.55 19.53, 70.8 27.39, 70.72 34.47 C70.65 41.56, 68.95 50.73, 65.17 56.36 C61.39 62, 54.85 66.09, 48.04 68.3 C41.22 70.51, 30.93 71.59, 24.28 69.63 C17.63 67.67, 12.12 61.82, 8.12 56.54 C4.12 51.26, 0.59 44.88, 0.29 37.94 C-0.02 31, 2.2 20.83, 6.28 14.9 C10.37 8.97, 21.9 4.43, 24.82 2.38 C27.73 0.34, 23.48 2.27, 23.78 2.63" stroke="#1e1e1e" stroke-width="1" fill="none"></path></g><g stroke-linecap="round"><g transform="translate(269.1297716292386 697.4226387266554) rotate(0 11.749360461218998 14.864397286982921)"><path d="M0.54 -0.96 C0.94 6.72, 1.68 14.62, -0.54 27.77 M0.46 0.67 C0.57 8.75, 0.7 16.41, -0.57 29.37 M-0.91 30.66 C6.61 30.85, 12.03 29.88, 22.15 29.22 M0.65 28.09 C6.64 28.63, 10.97 28.44, 23.5 28.87 M22.94 29.9 C22.5 22.31, 25.56 14.93, 22.88 9.28 M24.41 28.19 C23.2 22.04, 23.61 15.73, 22.62 8.39 M24.05 7.72 C22.06 7.85, 20 8.16, 16.12 7.93 M23.36 8.11 C20.76 8.01, 18.05 8, 16.13 8.12 M16.02 8.98 C15.71 5.91, 16.35 2.31, 16 0.95 M15.67 8.13 C16.33 6.24, 15.64 3.78, 16.1 0.52 M15.15 -0.72 C16.68 2.15, 19.17 2.56, 22.78 8.08 M16.34 0.4 C18.77 2.87, 21.36 5.39, 23.89 8.63 M22.37 7.55 C21.16 4.71, 16.65 2.98, 15.14 -0.08 M23.51 8.3 C21.37 5.93, 19.59 3.81, 15.21 0.46 M15.11 1.4 C10.91 0.65, 4.86 -1.1, 1.41 -0.32 M16.43 -0.35 C11.95 0.03, 6.91 -0.28, 0.42 -0.56" stroke="#1e1e1e" stroke-width="1" fill="none"></path></g></g><mask></mask><g transform="translate(254.16383920652584 728.8505856412226) rotate(0 28.15391849364113 7.662188756354567)"><text x="28.15391849364113" y="0" font-family="Virgil, Segoe UI Emoji" font-size="12.25950201016732px" fill="#1e1e1e" text-anchor="middle" style="white-space: pre;" direction="ltr" dominant-baseline="text-before-edge">index.html</text></g><g stroke-opacity="0" fill-opacity="0" stroke-linecap="round" transform="translate(356.6488898821407 681.6129751005085) rotate(0 35.78466595066959 35.78466595066959)"><path d="M21.33 3.05 C27.17 -0.34, 34.99 -1.53, 41.81 -0.3 C48.63 0.92, 57.2 5.25, 62.25 10.38 C67.3 15.52, 71.33 23.44, 72.1 30.5 C72.87 37.56, 70.3 46.56, 66.86 52.74 C63.41 58.93, 57.83 64.55, 51.44 67.6 C45.05 70.64, 35.39 72.25, 28.51 71.01 C21.62 69.77, 14.95 65.26, 10.1 60.14 C5.26 55.01, 0.45 47.16, -0.58 40.28 C-1.61 33.39, -0.44 25.36, 3.93 18.84 C8.3 12.33, 21.29 4.24, 25.66 1.18 C30.02 -1.89, 30.03 -0.2, 30.12 0.44 M43.82 -0.42 C50.83 0.1, 58 4.96, 62.75 10.11 C67.49 15.26, 71.46 23.25, 72.3 30.49 C73.15 37.72, 71.24 47.01, 67.82 53.53 C64.4 60.06, 58.17 66.67, 51.79 69.64 C45.42 72.6, 36.41 72.69, 29.59 71.32 C22.76 69.96, 15.84 66.67, 10.83 61.45 C5.83 56.24, 0.67 47.34, -0.45 40.03 C-1.56 32.72, 0.68 23.47, 4.13 17.6 C7.57 11.73, 14.04 7.72, 20.23 4.8 C26.41 1.88, 37.37 0.88, 41.23 0.09 C45.09 -0.71, 43.12 -0.57, 43.4 0.03" stroke="#1e1e1e" stroke-width="1" fill="none"></path></g><g stroke-linecap="round"><g transform="translate(379.2455697618818 694.3577632241136) rotate(0 11.89970285348852 14.439265464425603)"><path d="M-1.63 -0.46 C1.6 7.16, -1.33 13.81, 0.72 26.92 M-0.31 0.44 C-0.82 10.41, -0.16 22.33, -0.12 27.92 M0.82 27.95 C6.9 27.27, 14.05 28.71, 24.26 26.81 M0.51 27.91 C8.29 28.3, 15.76 29.19, 24.1 29.71 M25.21 27.83 C23.32 21.21, 22.36 14.02, 25.43 6.33 M24.14 28.47 C24.01 22.52, 23.04 18.62, 23.46 8 M24.15 8.77 C20.86 7.9, 19.89 8.35, 15.85 8.16 M23.25 8.59 C20.93 8.55, 17.88 7.9, 15.63 8.33 M15.35 8.44 C15.15 4.94, 16.5 3.03, 16.56 -0.21 M15.92 8.28 C16.11 6.37, 15.89 4.22, 15.82 0.58 M16.43 0.88 C18.2 2.51, 19.06 4.95, 22.77 8.8 M16.09 0.14 C17.5 2.69, 19.23 3.71, 23.78 7.79 M24.19 7.63 C20.85 5.75, 18.12 2.85, 16.06 -0.83 M23.43 8.14 C20.57 5.62, 18.4 3.74, 15.91 0.48 M16.98 0.11 C13.44 0.18, 10.23 -1.25, -0.02 0.76 M16 -0.45 C10.05 0.43, 3.94 -0.4, -0.38 -0.09" stroke="#1e1e1e" stroke-width="1" fill="none"></path></g></g><mask></mask><g transform="translate(352.878315434926 725.7857101386805) rotate(0 39.55524039788429 7.662188756354567)"><text x="39.55524039788432" y="0" font-family="Virgil, Segoe UI Emoji" font-size="12.25950201016732px" fill="#1e1e1e" text-anchor="middle" style="white-space: pre;" direction="ltr" dominant-baseline="text-before-edge">products.html</text></g><g stroke-opacity="0" fill-opacity="0" stroke-linecap="round" transform="translate(467.5106295126502 681) rotate(0 35.78466595066959 35.78466595066959)"><path d="M33.97 -0.54 C40.74 -1.02, 50.64 2.31, 56.44 6.51 C62.24 10.71, 66.49 18.2, 68.77 24.64 C71.05 31.07, 72.07 38.61, 70.12 45.12 C68.18 51.63, 62.66 59.16, 57.09 63.67 C51.52 68.18, 43.45 71.98, 36.69 72.19 C29.93 72.39, 22.2 68.93, 16.54 64.92 C10.89 60.91, 5.37 54.5, 2.77 48.12 C0.16 41.73, -1.11 33.33, 0.9 26.63 C2.92 19.92, 8.81 12.28, 14.86 7.87 C20.92 3.46, 33.1 1.28, 37.22 0.17 C41.34 -0.94, 39.52 0.7, 39.57 1.18 M33.88 1.36 C40.8 0.6, 50.02 2.8, 56.06 6.31 C62.09 9.81, 67.47 15.73, 70.08 22.37 C72.69 29.01, 73.48 39.33, 71.7 46.17 C69.93 53.01, 64.97 59.42, 59.46 63.41 C53.94 67.4, 45.9 69.9, 38.62 70.12 C31.34 70.35, 21.78 68.22, 15.78 64.77 C9.78 61.31, 5.23 55.64, 2.62 49.39 C0 43.13, -1.51 33.93, 0.08 27.22 C1.67 20.52, 6.68 13.71, 12.16 9.18 C17.63 4.64, 29.32 1.6, 32.96 0.03 C36.59 -1.55, 33.64 -0.8, 33.96 -0.28" stroke="#1e1e1e" stroke-width="1" fill="none"></path></g><g stroke-linecap="round"><g transform="translate(490.10730939239136 693.7447881236051) rotate(0 11.76967541031803 14.317469100728147)"><path d="M-0.71 -1.82 C-1.79 5.66, 0.73 14.04, -1.47 30.46 M-0.47 -0.08 C0.4 9.66, -0.61 18.05, 0.34 28.22 M0.09 29.06 C9.5 29.22, 19.61 27.65, 23.27 27.55 M0.58 29.17 C7.76 28.24, 15.17 29.38, 24.2 28.7 M22.04 29.05 C24.59 19.96, 24.48 12.73, 25.01 7.08 M24.06 28.49 C23.1 22.57, 24.35 15.84, 22.89 8.18 M22.94 8.54 C21.07 8.63, 19.5 8.02, 15.71 8.94 M23.37 8.33 C21.42 8.34, 19.41 8.42, 16.15 8.28 M16.05 8.27 C15.42 6, 16.13 1.84, 15.27 0.07 M16.32 8.41 C15.69 6.46, 15.96 4.05, 16.12 0.09 M16.31 0.52 C18.86 2.11, 19.16 5.48, 22.7 8.97 M15.78 0.74 C17.47 2.46, 19.08 3.56, 23.24 8.52 M23.25 7.51 C21.89 5.83, 20.07 3.3, 15.75 0.3 M23.35 7.72 C20.25 5.23, 17.72 2.02, 15.61 -0.26 M15.72 -0.22 C12.26 0.99, 9.07 1.44, 1.07 -0.39 M16.29 0.52 C10.72 -0.55, 3.99 -0.32, -0.22 -0.31" stroke="#1e1e1e" stroke-width="1" fill="none"></path></g></g><mask></mask><g transform="translate(447.20200350251844 725.1727350381723) rotate(0 56.09329196080125 7.662188756354567)"><text x="56.093291960801224" y="0" font-family="Virgil, Segoe UI Emoji" font-size="12.25950201016732px" fill="#1e1e1e" text-anchor="middle" style="white-space: pre;" direction="ltr" dominant-baseline="text-before-edge">product-detail.html</text></g><g stroke-opacity="0" fill-opacity="0" stroke-linecap="round" transform="translate(246.53309174949777 759.4608128650709) rotate(0 35.78466595066959 35.78466595066959)"><path d="M35.06 -0.85 C41.46 -1.32, 49.88 2.43, 55.68 6.46 C61.48 10.49, 67.56 16.81, 69.88 23.34 C72.2 29.87, 71.7 38.93, 69.6 45.63 C67.5 52.33, 62.81 59.34, 57.27 63.56 C51.74 67.77, 43.41 70.73, 36.41 70.91 C29.4 71.1, 20.93 68.49, 15.22 64.67 C9.52 60.86, 4.32 54.74, 2.18 48.01 C0.03 41.28, 0.37 31.21, 2.37 24.29 C4.36 17.37, 7.23 10.2, 14.16 6.48 C21.09 2.76, 37.53 2.2, 43.93 1.96 C50.34 1.72, 52.5 4.54, 52.6 5.03 M22.17 3.9 C27.86 0.43, 35.92 -1.54, 42.84 -0.36 C49.76 0.83, 58.75 5.62, 63.7 11.03 C68.65 16.44, 72.31 24.9, 72.52 32.13 C72.73 39.35, 68.91 48.25, 64.94 54.37 C60.98 60.49, 55.15 66.21, 48.72 68.85 C42.3 71.49, 33.22 72, 26.41 70.22 C19.6 68.43, 12.36 63.45, 7.87 58.13 C3.39 52.8, 0.08 45.12, -0.48 38.25 C-1.04 31.39, 0.6 22.98, 4.51 16.94 C8.41 10.9, 20.06 4.1, 22.94 2.01 C25.83 -0.09, 21.78 3.7, 21.83 4.37" stroke="#1e1e1e" stroke-width="1" fill="none"></path></g><g stroke-linecap="round"><g transform="translate(269.1297716292388 772.205600988676) rotate(0 11.522507060536611 14.555050327702872)"><path d="M1.46 -1.4 C-0.29 9.66, -1.29 22.52, 0.43 26.92 M-0.89 0.13 C-0.87 7.65, -0.56 15.42, 0.7 29.54 M-1.26 30.51 C4.35 28.65, 11.6 29.71, 21.91 29.34 M-0.8 27.89 C9.83 27.64, 19.35 28.1, 22.55 28.76 M22.97 27.75 C22.18 22.98, 22.89 17.83, 23.18 9.49 M23.38 28.75 C24.25 24.21, 24.48 18.76, 24.19 7.45 M23.45 8.74 C20.73 8.3, 19.03 7.94, 15.33 8.52 M23.36 8.46 C21.81 7.8, 19.94 8.34, 15.9 8.26 M15.28 7.63 C15.8 5.97, 15.33 4.26, 15.6 0.69 M15.75 7.94 C15.8 5.54, 16.08 2.51, 15.93 0.53 M16.01 0.73 C18.12 1.86, 20.16 4.73, 23.23 9.01 M15.6 0.73 C18.08 2.43, 19.78 4.28, 23.75 8.43 M23.52 8.12 C20.64 5.33, 19.18 3.08, 15.03 0.93 M24.05 8.17 C21.44 5.86, 17.76 2.96, 15.18 -0.44 M14.98 -1.05 C11.32 -1.46, 6.85 0.1, 0.81 1.07 M15.78 -0.17 C9.47 -0.51, 5.16 0.13, -0.55 0.23" stroke="#1e1e1e" stroke-width="1" fill="none"></path></g></g><mask></mask><g transform="translate(218.8687738865233 803.6335479032432) rotate(0 63.44898381364385 7.662188756354567)"><text x="63.448983813643856" y="0" font-family="Virgil, Segoe UI Emoji" font-size="12.25950201016732px" fill="#1e1e1e" text-anchor="middle" style="white-space: pre;" direction="ltr" dominant-baseline="text-before-edge">login-registration.html</text></g><g stroke-opacity="0" fill-opacity="0" stroke-linecap="round" transform="translate(356.6488898821408 760.0737879655792) rotate(0 35.78466595066959 35.78466595066959)"><path d="M42.96 1.3 C49.56 1.93, 56.18 5.83, 61.05 10.78 C65.91 15.74, 71.15 24.08, 72.13 31.02 C73.11 37.96, 70.57 46.34, 66.92 52.4 C63.27 58.47, 56.49 64.43, 50.21 67.4 C43.93 70.37, 36.05 71.36, 29.24 70.23 C22.44 69.11, 14.28 65.54, 9.36 60.64 C4.44 55.74, 0.54 47.7, -0.26 40.83 C-1.07 33.96, 1.08 25.71, 4.54 19.43 C8 13.15, 13.46 5.97, 20.51 3.16 C27.56 0.35, 41.51 2.27, 46.85 2.56 C52.19 2.84, 52.53 4.43, 52.54 4.88 M52.58 2.79 C59.07 5.29, 64.55 13.11, 67.88 19.48 C71.2 25.85, 73.35 34.25, 72.53 41.01 C71.71 47.77, 67.95 55.13, 62.94 60.06 C57.92 65, 49.47 69.33, 42.42 70.64 C35.38 71.95, 27.05 70.65, 20.67 67.93 C14.3 65.21, 7.65 60.65, 4.19 54.32 C0.72 47.98, -0.93 37.34, -0.12 29.93 C0.69 22.52, 3.93 14.85, 9.03 9.86 C14.13 4.86, 23.27 0.88, 30.48 -0.03 C37.69 -0.94, 48.88 3.82, 52.31 4.41 C55.74 5.01, 51.69 3.15, 51.06 3.52" stroke="#1e1e1e" stroke-width="1" fill="none"></path></g><g stroke-linecap="round"><g transform="translate(379.24556976188205 772.8185760891843) rotate(0 11.78935516529043 14.425676142166651)"><path d="M-1.09 0.67 C1.29 9.34, -1.37 15.09, 1.71 28.42 M-0.72 0.06 C-0.87 7.43, 0.13 15.13, 0.46 28.94 M-1.71 29.79 C9.17 28.79, 18.59 28.55, 25.26 27.62 M0.47 29.36 C8.42 29.32, 15.92 28.7, 23.49 28.57 M25.29 28.23 C21.78 21.4, 21.68 17.7, 22.62 9.85 M22.8 28.73 C23.9 20.55, 22.77 14.11, 23.19 7.24 M24.13 8.79 C21.24 7.91, 17.09 7.83, 15.82 7.8 M23.81 8.46 C20.97 7.87, 18.03 8.25, 16.18 8.01 M16.5 7.94 C16.64 6.05, 16.35 3.42, 16.5 0.4 M16.16 8.42 C16.01 5.31, 16.08 3, 15.76 0.48 M15.92 0.37 C18.17 4.12, 21.12 6.39, 23.82 8.69 M15.77 0.83 C18.7 2.81, 21.9 5.82, 23.98 8.52 M22.47 8.98 C20.93 7.31, 19.48 5.34, 15.75 1.03 M23.28 8.37 C22.23 6.55, 20.15 3.89, 15.9 -0.45 M14.91 -0.94 C10.85 -0.67, 5.81 -1, 0.01 0.95 M15.03 -0.44 C11.58 0.67, 6.76 -0.66, -0.43 0.22" stroke="#1e1e1e" stroke-width="1" fill="none"></path></g></g><mask></mask><g transform="translate(365.50558286355727 804.2465230037515) rotate(0 26.92797296925329 7.662188756354567)"><text x="26.927972969253275" y="0" font-family="Virgil, Segoe UI Emoji" font-size="12.25950201016732px" fill="#1e1e1e" text-anchor="middle" style="white-space: pre;" direction="ltr" dominant-baseline="text-before-edge">cart.html</text></g><g stroke-opacity="0" fill-opacity="0" stroke-linecap="round" transform="translate(468.1236046131587 762.5256883676127) rotate(0 35.78466595066959 35.78466595066959)"><path d="M31.96 1.09 C38.47 -0.2, 47.44 0.74, 53.45 3.95 C59.46 7.17, 64.99 13.88, 68.02 20.36 C71.06 26.84, 72.92 35.73, 71.66 42.85 C70.41 49.96, 65.84 58.38, 60.5 63.07 C55.17 67.76, 46.88 70.4, 39.66 71 C32.43 71.61, 23.18 70.28, 17.16 66.7 C11.13 63.13, 6.36 55.91, 3.51 49.57 C0.67 43.22, -1.23 35.54, 0.12 28.64 C1.46 21.74, 5.41 13.08, 11.58 8.17 C17.76 3.27, 32.33 0.26, 37.17 -0.79 C42.01 -1.84, 40.65 0.99, 40.62 1.87 M27.87 0.01 C34.54 -1.7, 44.32 0.2, 50.65 3.36 C56.98 6.51, 62.23 12.95, 65.85 18.95 C69.46 24.96, 73.11 32.86, 72.36 39.38 C71.61 45.9, 66.1 52.67, 61.33 58.06 C56.55 63.46, 50.52 69.88, 43.74 71.73 C36.96 73.58, 27.22 72.27, 20.63 69.16 C14.05 66.06, 7.48 59.33, 4.24 53.1 C1.01 46.87, 0.24 38.46, 1.25 31.77 C2.26 25.09, 5.71 17.99, 10.3 13.01 C14.9 8.04, 25.65 3.79, 28.82 1.92 C31.99 0.04, 29.25 1.4, 29.32 1.74" stroke="#1e1e1e" stroke-width="1" fill="none"></path></g><g stroke-linecap="round"><g transform="translate(490.72028449289974 775.2704764912178) rotate(0 11.91811424769719 14.345234550605142)"><path d="M0.25 -0.27 C-0.27 9.92, -0.55 14.5, -0.95 26.93 M0.65 0.19 C-0.5 10.5, -0.17 22.82, -0.72 28.1 M1.75 27.19 C8.34 30.71, 17.26 30.82, 22.62 27.35 M0.37 29.02 C5.26 29.76, 12.22 28.98, 22.67 27.8 M24.26 27.87 C22.28 23.69, 22.64 17.45, 24.79 9.19 M23.73 28.54 C22.6 21.7, 23.84 13.65, 22.62 8.56 M23.91 7.95 C21.99 8.25, 19.34 7.97, 16.67 8.11 M23.78 7.88 C20.97 8.14, 18.6 8.24, 15.61 8.45 M15.28 7.98 C16.18 5.76, 16.39 4.12, 16.52 -0.14 M15.64 8.09 C15.55 5.23, 16.03 2.88, 16.13 0.44 M16.27 0.87 C18.37 1.51, 18.5 3.97, 22.94 8.59 M15.93 0.5 C17.98 1.62, 19.08 4.32, 23.9 8.59 M23.04 7.92 C22.94 5.43, 21.32 4.85, 16.19 -0.3 M23.11 8.72 C20.89 4.74, 17.71 2.1, 15.66 -0.32 M16.65 1.29 C10.01 -0.52, 5.77 -0.74, -0.15 -1.2 M15.56 -0.04 C10.29 -0.64, 5.49 0.81, 0.05 0.64" stroke="#1e1e1e" stroke-width="1" fill="none"></path></g></g><mask></mask><g transform="translate(466.20420355850456 806.698423405785) rotate(0 37.09109190481513 7.662188756354567)"><text x="37.09109190481516" y="0" font-family="Virgil, Segoe UI Emoji" font-size="12.25950201016732px" fill="#1e1e1e" text-anchor="middle" style="white-space: pre;" direction="ltr" dominant-baseline="text-before-edge">contact.html</text></g><g stroke-linecap="round" transform="translate(339.3786615818358 181.37866158183562) rotate(0 129 50.5)"><path d="M23.36 0.58 L231.88 1.37 L243.12 3.11 L251.31 5.32 L255.87 10.47 L258.09 18.36 L256.87 75.69 L255.34 85.83 L253.58 92.23 L248.3 98.52 L233.47 100.12 L24.75 102.68 L13.37 99.95 L10.1 99.31 L4.61 92.45 L0.1 82.75 L2.37 20.26 L0.85 13.48 L6.87 6.59 L12.53 0.44 L25.73 -0.22" stroke="none" stroke-width="0" fill="#ffc9c9"></path><path d="M25.25 0 M25.25 0 C91.84 -1.56, 156.31 -0.29, 232.75 0 M232.75 0 C247.68 -1.08, 259.02 6.74, 258 25.25 M258 25.25 C256.96 43.43, 257.3 59.44, 258 75.75 M258 75.75 C258.44 92.44, 249.87 100.29, 232.75 101 M232.75 101 C180.03 103.75, 129.78 101.28, 25.25 101 M25.25 101 C9.31 100.66, 0.39 91.83, 0 75.75 M0 75.75 C0.87 65.69, 0.02 53.2, 0 25.25 M0 25.25 C1.72 7.66, 9.87 1.51, 25.25 0" stroke="#1e1e1e" stroke-width="1.5" fill="none" stroke-dasharray="8 9"></path></g><g stroke-opacity="0" fill-opacity="0" stroke-linecap="round" transform="translate(362.75000000000034 200) rotate(0 31.878661581835615 31.878661581835615)"><path d="M19.71 1.76 C25.13 -1.03, 32.84 -0.04, 38.71 1.43 C44.58 2.9, 50.8 6.03, 54.93 10.58 C59.05 15.13, 62.71 22.51, 63.47 28.72 C64.23 34.93, 62.51 42.53, 59.48 47.84 C56.44 53.15, 51.06 57.96, 45.25 60.59 C39.44 63.22, 30.71 64.88, 24.62 63.62 C18.53 62.36, 12.79 57.77, 8.71 53.02 C4.62 48.27, 0.84 41.19, 0.1 35.11 C-0.63 29.04, -0.19 22.41, 4.31 16.55 C8.81 10.7, 21.97 2.75, 27.13 -0.03 C32.28 -2.82, 35.17 -0.78, 35.24 -0.16 M18.75 2.35 C23.99 -0.65, 33.15 -0.92, 39.02 0.28 C44.9 1.49, 49.81 5.24, 53.99 9.57 C58.18 13.9, 62.91 19.89, 64.13 26.28 C65.35 32.67, 64.62 42.38, 61.32 47.9 C58.02 53.43, 50.36 56.9, 44.34 59.42 C38.33 61.94, 31.21 63.83, 25.22 63.04 C19.22 62.25, 12.47 59.14, 8.38 54.69 C4.28 50.23, 1.21 42.76, 0.64 36.31 C0.06 29.85, 2.23 21.65, 4.95 15.96 C7.67 10.28, 14.86 4.38, 16.97 2.21 C19.08 0.03, 17.33 2.22, 17.61 2.9" stroke="#1e1e1e" stroke-width="1" fill="none"></path></g><g stroke-linecap="round"><g transform="translate(382.8801840221837 211.35365600686856) rotate(0 9.979923327289725 12.925646784785158)"><path d="M-1.93 1.72 C1.38 6.66, 0.16 18.25, -1.62 25.32 M-0.2 0.64 C-0.54 6.95, 0.59 15.35, 0 25.59 M0.87 24.72 C8.08 23.65, 13.92 25.7, 19.13 26.86 M0.96 25.48 C5.75 25.55, 13.19 24.85, 21.84 26.24 M20.68 25.08 C22.04 22.22, 21.27 19.34, 19.95 6 M20.44 25.82 C21.88 21.21, 21.06 17.56, 21.62 6.67 M20.97 7.57 C19.5 7.4, 17.42 7.84, 14.36 7.09 M20.86 7.52 C18.99 7.24, 17.61 7.56, 13.92 7.47 M13.84 7.49 C14.04 4.98, 13.69 3.53, 14.62 0.46 M14.27 7.12 C14.13 5.12, 14.03 2.58, 14.09 0.07 M13.82 1.17 C16.14 2.93, 18.11 4.37, 21.89 8.08 M13.75 0.21 C16.08 2.9, 17.99 4.64, 20.48 7.76 M21.85 6.73 C19.25 4.27, 16.67 2.48, 14.32 -0.89 M21.06 7.39 C18.9 5.54, 16.83 3.53, 13.75 -0.19 M14.08 -1.01 C7.96 -0.82, 5.2 -0.09, 0.47 0.13 M13.51 0.13 C11.06 -0.32, 8.88 0.31, 0.34 0.64" stroke="#1e1e1e" stroke-width="1" fill="none"></path></g></g><mask></mask><g transform="translate(371.4263001963503 239.35114759397766) rotate(0 23.202361385485517 6.825837711512946)"><text x="23.20236138548551" y="0" font-family="Virgil, Segoe UI Emoji" font-size="10.921340338420704px" fill="#1e1e1e" text-anchor="middle" style="white-space: pre;" direction="ltr" dominant-baseline="text-before-edge">style.css</text></g><g stroke-opacity="0" fill-opacity="0" stroke-linecap="round" transform="translate(436.5000000000001 200) rotate(0 31.878661581835615 31.878661581835615)"><path d="M40.19 0.64 C46.08 2.16, 53.94 8.11, 57.78 13.21 C61.62 18.31, 63.34 25.16, 63.24 31.24 C63.14 37.32, 60.6 44.53, 57.19 49.67 C53.78 54.81, 48.34 60.03, 42.75 62.11 C37.17 64.19, 29.8 64.06, 23.69 62.15 C17.57 60.24, 9.95 55.62, 6.06 50.64 C2.17 45.66, 0.52 38.47, 0.36 32.27 C0.2 26.07, 1.68 18.47, 5.09 13.45 C8.49 8.44, 13.61 3.75, 20.78 2.18 C27.96 0.6, 42.66 2.69, 48.13 4 C53.61 5.32, 53.68 9.4, 53.61 10.05 M25.97 0.97 C32.2 -0.85, 40.76 0.56, 46.63 2.99 C52.49 5.43, 58.38 10.1, 61.15 15.58 C63.92 21.06, 64.19 29.34, 63.27 35.88 C62.34 42.42, 59.64 50.33, 55.61 54.84 C51.58 59.34, 45.03 62.03, 39.09 62.93 C33.15 63.83, 25.62 62.6, 19.97 60.26 C14.31 57.93, 8.71 54.28, 5.17 48.92 C1.63 43.56, -1.98 34.56, -1.27 28.09 C-0.55 21.62, 4.97 14.61, 9.46 10.09 C13.96 5.56, 23.13 2.27, 25.69 0.95 C28.25 -0.36, 24.61 1.77, 24.8 2.2" stroke="#1e1e1e" stroke-width="1" fill="none"></path></g><g stroke-linecap="round"><g transform="translate(456.63018402218347 211.3536560068685) rotate(0 10.221145751160236 12.750590526964231)"><path d="M0.11 -1.43 C-1.49 7.19, 1.31 18.48, -1.02 25.76 M0.13 0.99 C-0.35 4.97, -0.63 11.19, -0.31 25.04 M-0.48 24.44 C4.58 25.63, 13.44 26.78, 20.13 23.68 M0.99 25.7 C9.27 25.15, 16.36 25.82, 21.1 26.56 M20.19 26.93 C22.64 17.23, 20.79 13.72, 20.66 7.47 M21.29 25.5 C21.81 19.51, 21.06 14.04, 20.3 6.59 M20.59 7.32 C19.5 7.12, 17.74 7.41, 14.5 7.5 M20.71 7.16 C19.48 7.26, 17.57 7.28, 14.11 7.31 M14.87 7.6 C13.76 6.39, 14.33 3.88, 13.89 -0.4 M14.33 7.15 C14.34 5.33, 14.2 2.64, 14.45 0.5 M13.36 0 C16.08 2.75, 19.85 6.13, 21.39 7.05 M14.59 0.19 C15.96 2.28, 18.27 4.82, 21.14 7.22 M21.06 7.19 C18.88 4.59, 16.28 2.35, 13.66 -0.4 M20.5 6.96 C19.29 5, 16.98 3.21, 13.59 0.39 M15.29 -1.35 C10.94 -0.97, 8.53 -0.05, 0.33 -0.6 M14.28 -0.5 C10.3 0.18, 7.23 0.3, 0.27 -0.42" stroke="#1e1e1e" stroke-width="1" fill="none"></path></g></g><mask></mask><g transform="translate(440.44535011943333 239.35114759397766) rotate(0 27.933311462402344 6.825837711512946)"><text x="27.933311462402344" y="0" font-family="Virgil, Segoe UI Emoji" font-size="10.921340338420704px" fill="#1e1e1e" text-anchor="middle" style="white-space: pre;" direction="ltr" dominant-baseline="text-before-edge">header.css</text></g><g stroke-opacity="0" fill-opacity="0" stroke-linecap="round" transform="translate(510.2500000000001 200) rotate(0 31.878661581835615 31.878661581835615)"><path d="M41.88 1.89 C47.6 3.31, 54.11 7.9, 57.7 12.81 C61.3 17.72, 63.28 25.06, 63.44 31.35 C63.6 37.64, 62.11 45.39, 58.66 50.55 C55.2 55.71, 48.84 60.45, 42.73 62.32 C36.62 64.18, 28.05 63.57, 22 61.75 C15.95 59.94, 9.97 56.23, 6.4 51.4 C2.83 46.56, 0.56 39.12, 0.58 32.76 C0.59 26.39, 2.83 18.53, 6.48 13.19 C10.13 7.84, 16.29 2.46, 22.46 0.7 C28.63 -1.07, 39.61 2.04, 43.5 2.61 C47.39 3.17, 45.79 3.57, 45.81 4.09 M21.6 3.09 C27.07 0.76, 34.71 -1.32, 40.91 0.28 C47.12 1.89, 54.92 7.38, 58.84 12.71 C62.77 18.04, 64.49 25.93, 64.47 32.25 C64.44 38.56, 62.36 45.4, 58.69 50.59 C55.02 55.77, 48.45 61.65, 42.44 63.38 C36.42 65.11, 28.67 63.27, 22.61 60.95 C16.55 58.64, 9.75 54.14, 6.09 49.48 C2.43 44.81, 0.68 39.03, 0.65 32.95 C0.62 26.87, 2.31 18.31, 5.9 13 C9.48 7.7, 19.45 2.76, 22.16 1.13 C24.87 -0.49, 22.05 2.52, 22.14 3.26" stroke="#1e1e1e" stroke-width="1" fill="none"></path></g><g stroke-linecap="round"><g transform="translate(530.3801840221835 211.3536560068685) rotate(0 10.34349370934649 12.702157996357585)"><path d="M1.27 -0.79 C0.69 11, 0.24 20.11, -0.62 25.17 M0.21 -0.31 C-0.49 9.93, 0.59 20.15, 0.59 26.2 M-0.75 26.16 C5.62 26.04, 13.7 26.65, 19.62 25.14 M-0.27 24.87 C5.73 25.38, 10.03 25.97, 21.44 25.84 M19.25 25.33 C18.96 20.56, 21.55 13.98, 20.34 7.98 M20.96 26.15 C20.41 20.53, 20.76 16.62, 20.67 6.92 M20.34 7.7 C18.97 7.53, 17.81 7.6, 13.96 7.97 M20.74 7.04 C18.66 7.25, 16.18 7.58, 14.21 7.09 M14.37 7.07 C14.84 4.38, 14.37 2.88, 14.24 -0.43 M13.96 7.6 C13.96 5.98, 13.97 3.92, 14.39 0.16 M14.67 0.93 C17.04 1.96, 18.58 5.98, 20.56 7.78 M14.54 0.46 C15.73 2.12, 17.78 4.52, 21.39 7.75 M20.53 7.27 C17.81 4.35, 16 0.94, 14.12 0.99 M20.58 7.67 C18.1 5.13, 15.58 2.43, 13.86 -0.13 M14.25 -0.41 C7.93 0.03, 2.35 -0.86, 1.11 0.52 M14.02 0.59 C9.42 -0.6, 5.93 -0.16, 0.04 0.26" stroke="#1e1e1e" stroke-width="1" fill="none"></path></g></g><mask></mask><g transform="translate(514.8396295994138 239.35114759397766) rotate(0 27.289031982421875 6.825837711512946)"><text x="27.289031982421875" y="0" font-family="Virgil, Segoe UI Emoji" font-size="10.921340338420704px" fill="#1e1e1e" text-anchor="middle" style="white-space: pre;" direction="ltr" dominant-baseline="text-before-edge">footer.css</text></g><g stroke-linecap="round"><g transform="translate(264.3786615818358 228.37866158183562) rotate(0 36.091377364471555 -0.2232395935803595)"><path d="M-0.8 -0.95 C11.19 -0.86, 60.68 0.24, 72.99 0.51" stroke="#1e1e1e" stroke-width="1.5" fill="none" stroke-dasharray="8 9"></path></g></g><mask></mask><g stroke-opacity="0" fill-opacity="0" stroke-linecap="round" transform="translate(169.61993670671717 443.7044592315286) rotate(0 58.14905576437903 58.14905576437906)"><path d="M73.76 2.73 C82.26 4.39, 91.46 10.8, 97.98 16.91 C104.5 23.03, 110.1 31.16, 112.9 39.43 C115.7 47.7, 116.1 57.72, 114.81 66.55 C113.52 75.37, 110.25 84.92, 105.15 92.4 C100.04 99.88, 92.21 107.54, 84.18 111.41 C76.14 115.27, 66.02 116.08, 56.92 115.58 C47.83 115.09, 37.64 112.83, 29.61 108.44 C21.58 104.06, 13.47 96.73, 8.74 89.28 C4 81.82, 2.03 72.48, 1.22 63.71 C0.4 54.94, 0.66 44.96, 3.85 36.67 C7.05 28.38, 13.31 19.95, 20.38 13.98 C27.44 8.02, 37.03 2.78, 46.24 0.89 C55.45 -1, 70.21 1.98, 75.63 2.65 C81.04 3.31, 78.73 3.91, 78.72 4.89 M65.74 1.47 C74.03 2.13, 82.56 6.71, 89.89 11.7 C97.22 16.69, 105.09 23.87, 109.7 31.42 C114.32 38.97, 117.43 48.13, 117.58 57 C117.74 65.88, 115.07 76.64, 110.62 84.67 C106.17 92.7, 98.73 100.12, 90.88 105.18 C83.03 110.24, 72.2 113.59, 63.5 115.04 C54.79 116.5, 46.96 116.94, 38.66 113.93 C30.37 110.92, 19.89 103.98, 13.71 96.97 C7.54 89.95, 3.7 80.71, 1.63 71.85 C-0.44 62.99, -0.9 52.52, 1.29 43.82 C3.48 35.12, 8.85 26.29, 14.75 19.65 C20.65 13.02, 28.47 7.22, 36.69 4.01 C44.92 0.81, 59.09 0.68, 64.09 0.43 C69.08 0.18, 66.53 1.6, 66.68 2.51" stroke="#1e1e1e" stroke-width="1" fill="none"></path></g><g transform="translate(191.96728432744789 516.3304319132812) rotate(0 33.94592570327623 12.45083695582531)"><text x="33.94592570327624" y="0" font-family="Virgil, Segoe UI Emoji" font-size="19.921339129320494px" fill="#1e1e1e" text-anchor="middle" style="white-space: pre;" direction="ltr" dominant-baseline="text-before-edge">assets</text></g><g stroke-linecap="round"><g transform="translate(199.2397507576187 507.96269884958275) rotate(0 26.464925099631273 -12.7602461450374)"><path d="M0.03 -0.26 C1.13 -3.72, 3.96 -17.16, 7.29 -21.26 C10.61 -25.35, 12.17 -24.2, 19.97 -24.84 C27.77 -25.48, 48.51 -25.26, 54.08 -25.08 M-1.42 -1.44 C-0.48 -4.68, 3.14 -16.12, 6.68 -19.83 C10.21 -23.55, 11.86 -22.93, 19.8 -23.71 C27.75 -24.48, 48.45 -24.56, 54.35 -24.47" stroke="#1e1e1e" stroke-width="1" fill="none"></path></g></g><mask></mask><g stroke-linecap="round"><g transform="translate(252.2719389113637 483.2470583776697) rotate(0 -23.48142496373285 5.607704995218398)"><path d="M0.64 -0.22 C2.02 0.3, 8.09 -0.73, 8.29 2.88 C8.49 6.49, 4.45 17.48, 1.85 21.47 C-0.75 25.45, 0.67 25.8, -7.33 26.78 C-15.32 27.77, -38.61 28.26, -46.13 27.35 C-53.66 26.45, -51.03 27.61, -52.5 21.38 C-53.97 15.16, -55.21 -3.6, -54.93 -9.98 C-54.65 -16.36, -53.85 -16, -50.81 -16.89 C-47.77 -17.77, -40.02 -16.34, -36.71 -15.27 C-33.4 -14.2, -36.17 -11.24, -30.94 -10.48 C-25.71 -9.71, -10.55 -11.26, -5.33 -10.68 C-0.12 -10.09, -0.46 -8.54, 0.36 -6.96 C1.17 -5.38, -0.3 -2.34, -0.44 -1.19 M-0.48 -1.38 C0.84 -0.66, 7.68 0.29, 7.94 4.24 C8.2 8.18, 3.67 18.31, 1.11 22.28 C-1.46 26.26, 0.11 27.08, -7.44 28.07 C-14.99 29.06, -36.4 29.44, -44.19 28.23 C-51.98 27.02, -52.44 27.39, -54.19 20.82 C-55.95 14.25, -55.08 -4.8, -54.72 -11.19 C-54.35 -17.58, -55.29 -16.71, -51.99 -17.52 C-48.68 -18.32, -38.58 -17.05, -34.89 -16.03 C-31.19 -15, -34.32 -12.33, -29.84 -11.35 C-25.37 -10.36, -12.93 -10.81, -8.06 -10.14 C-3.2 -9.47, -1.92 -9.19, -0.65 -7.33 C0.62 -5.47, -0.32 -0.15, -0.44 1.02" stroke="#1e1e1e" stroke-width="1" fill="none"></path></g></g><mask></mask><g stroke-linecap="round"><g transform="translate(78.3589490011924 116.3756028435561) rotate(0 56.0628586135976 186.9361012694293)"><path d="M-0.55 -0.78 C0.29 54.79, -14.31 272.22, 5.3 334.44 C24.91 396.66, 98.65 366.45, 117.12 372.55" stroke="#1e1e1e" stroke-width="1.5" fill="none" stroke-dasharray="8 9"></path></g></g><mask></mask><g stroke-linecap="round" transform="translate(353.7714624640482 447.0698323902762) rotate(0 113.05359955889378 48.309247388602216)"><path d="M25.72 -1.93 L203.84 1.43 L213.73 1.12 L221.87 5.99 L225.71 17.47 L226.2 71.97 L223 84.72 L221.14 90.66 L216.74 91.94 L201.04 96.77 L25.71 97.14 L14.08 93.76 L4.55 89.61 L2.07 79.11 L-0.04 20.13 L5.15 7.08 L14.08 2.7 L23.36 -0.85" stroke="none" stroke-width="0" fill="#a5d8ff"></path><path d="M24.15 0 M24.15 0 C94.88 -0.73, 167.3 -0.98, 201.95 0 M201.95 0 C217.32 -1.45, 224.31 8.72, 226.11 24.15 M226.11 24.15 C224.43 40.83, 225.55 52.74, 226.11 72.46 M226.11 72.46 C226.34 89.99, 217.08 96.36, 201.95 96.62 M201.95 96.62 C133.64 97.53, 61.39 98.3, 24.15 96.62 M24.15 96.62 C7.84 94.73, -1.89 89.3, 0 72.46 M0 72.46 C0.38 60.95, 1.76 46.86, 0 24.15 M0 24.15 C-0.31 9.34, 8.31 1.85, 24.15 0" stroke="#1e1e1e" stroke-width="1.5" fill="none" stroke-dasharray="8 9"></path></g><g stroke-opacity="0" fill-opacity="0" stroke-linecap="round" transform="translate(400.7074706068348 461.0445433372359) rotate(0 34.334536441642456 34.334536441642456)"><path d="M35.68 0.05 C42.02 0.02, 50.51 3.65, 55.64 7.78 C60.77 11.91, 64.57 18.28, 66.46 24.82 C68.35 31.37, 69.19 40.66, 66.98 47.06 C64.76 53.46, 58.9 59.74, 53.18 63.23 C47.46 66.72, 39.48 68.32, 32.65 68.02 C25.83 67.72, 17.41 65.5, 12.22 61.44 C7.02 57.39, 3.27 50.09, 1.46 43.68 C-0.34 37.28, -0.9 29.43, 1.38 23 C3.67 16.57, 9.13 9.08, 15.17 5.12 C21.2 1.16, 33.77 -0.02, 37.62 -0.75 C41.46 -1.48, 38.23 -0.11, 38.22 0.74 M19.09 5.14 C24.71 1.89, 33.91 0.44, 40.73 1.17 C47.54 1.91, 55.34 4.95, 59.97 9.56 C64.59 14.18, 67.53 22.12, 68.49 28.89 C69.46 35.66, 68.61 44.16, 65.75 50.17 C62.89 56.19, 57.47 61.8, 51.31 64.96 C45.16 68.13, 35.75 70.24, 28.84 69.16 C21.93 68.09, 14.63 63.57, 9.83 58.53 C5.03 53.49, 1.24 45.65, 0.04 38.94 C-1.16 32.23, -0.4 24.03, 2.65 18.29 C5.7 12.55, 15.6 6.6, 18.33 4.51 C21.07 2.42, 18.83 5.48, 19.05 5.74" stroke="#1e1e1e" stroke-width="1" fill="none"></path></g><g stroke-linecap="round"><g transform="translate(420.5603118661354 477.60225789880434) rotate(0 14.80534241791662 9.041505447858526)"><path d="M0.08 0.67 C-0.29 4.03, -1.78 15.54, -1.13 19.11 C-0.47 22.67, -0.59 21.79, 4 22.08 C8.6 22.36, 22.14 21.3, 26.44 20.82 C30.75 20.34, 29.09 22.67, 29.85 19.19 C30.61 15.71, 31.63 3.89, 30.99 -0.06 C30.35 -4.02, 30.45 -3.71, 25.99 -4.56 C21.53 -5.4, 8.55 -5.93, 4.23 -5.15 C-0.09 -4.36, 0.79 -0.56, 0.06 0.16 M-1.33 -0.02 C-1.43 3.64, 0.33 16.82, 1.09 20.74 C1.86 24.66, -1.07 23.4, 3.25 23.5 C7.57 23.61, 22.83 21.99, 27.01 21.38 C31.19 20.76, 27.96 23.6, 28.35 19.82 C28.75 16.03, 29.61 2.4, 29.37 -1.33 C29.13 -5.06, 30.73 -2.36, 26.91 -2.55 C23.09 -2.74, 11.22 -2.68, 6.47 -2.45 C1.72 -2.22, -0.6 -1.27, -1.58 -1.14" stroke="#1e1e1e" stroke-width="1" fill="none"></path></g></g><mask></mask><g stroke-linecap="round"><g transform="translate(420.28345919990807 494.6748389828121) rotate(0 15.164137932373706 -4.973080907654662)"><path d="M-0.94 0.19 C1.25 -1.27, 9.83 -7.4, 13.23 -8.1 C16.63 -8.8, 17.89 -4.29, 19.43 -4 C20.97 -3.71, 20.49 -6.77, 22.47 -6.38 C24.44 -5.98, 29.91 -2.4, 31.27 -1.63 M0.77 -0.76 C2.8 -2.67, 9.26 -9.7, 12.3 -10.12 C15.34 -10.53, 17.25 -4.08, 18.98 -3.23 C20.71 -2.39, 20.78 -5.33, 22.69 -5.03 C24.59 -4.74, 29.43 -2.4, 30.42 -1.47" stroke="#1e1e1e" stroke-width="1" fill="none"></path></g></g><mask></mask><g stroke-linecap="round" transform="translate(439.0171562812793 478.24824745333416) rotate(0 2.0302528856657887 2.0302528856657887)"><path d="M2.91 1.05 C3.41 1.21, 3.21 1.2, 3.32 1.28 C3.43 1.37, 3.7 1.19, 3.56 1.56 C3.43 1.93, 2.7 3.1, 2.5 3.5 C2.29 3.9, 2.74 3.83, 2.36 3.93 C1.97 4.03, 0.57 4.46, 0.19 4.11 C-0.18 3.76, 0.06 2.46, 0.11 1.82 C0.16 1.19, 0.45 0.62, 0.5 0.31 C0.55 -0.01, -0.07 -0.18, 0.41 -0.07 C0.89 0.05, 3.11 0.91, 3.4 1 C3.69 1.09, 2.22 0.54, 2.17 0.46 M4.28 -0.3 C4.53 -0.28, 4.05 0.59, 4.14 1.12 C4.23 1.64, 4.75 2.4, 4.82 2.84 C4.89 3.27, 5.09 3.39, 4.57 3.75 C4.05 4.11, 2.41 5.03, 1.7 4.97 C1 4.91, 0.7 3.96, 0.35 3.36 C0.01 2.77, -0.2 1.91, -0.37 1.42 C-0.55 0.92, -0.95 0.49, -0.7 0.39 C-0.46 0.29, 0.52 0.64, 1.12 0.84 C1.72 1.05, 2.72 1.84, 2.91 1.63 C3.09 1.42, 2.15 -0.23, 2.24 -0.43" stroke="#1e1e1e" stroke-width="1" fill="none"></path></g><g transform="translate(413.82799878490505 503.29902964611557) rotate(0 21.214008263572282 7.351687995088753)"><text x="21.2140082635723" y="0" font-family="Virgil, Segoe UI Emoji" font-size="11.762700792142027px" fill="#1e1e1e" text-anchor="middle" style="white-space: pre;" direction="ltr" dominant-baseline="text-before-edge">logo.png</text></g><g stroke-opacity="0" fill-opacity="0" stroke-linecap="round" transform="translate(464.2735805557643 461.0445433372359) rotate(0 34.334536441642456 34.334536441642456)"><path d="M45.28 1 C51.73 2.38, 58.17 8.83, 62.17 14.14 C66.17 19.46, 69.35 26.3, 69.3 32.91 C69.25 39.53, 65.84 48.31, 61.88 53.84 C57.93 59.36, 51.71 63.82, 45.58 66.04 C39.46 68.26, 31.67 68.98, 25.15 67.17 C18.63 65.36, 10.49 60.47, 6.45 55.18 C2.42 49.89, 1.08 42.16, 0.93 35.41 C0.79 28.67, 1.83 20.37, 5.6 14.72 C9.37 9.07, 16.25 3.58, 23.55 1.51 C30.85 -0.56, 44.73 1.7, 49.39 2.31 C54.04 2.91, 51.79 4.57, 51.46 5.13 M39.55 0 C46.24 0.37, 55.58 4.89, 60.5 9.67 C65.42 14.46, 68.46 21.67, 69.07 28.7 C69.68 35.72, 67.6 45.55, 64.16 51.81 C60.72 58.07, 54.25 63.62, 48.44 66.26 C42.62 68.89, 35.61 68.96, 29.27 67.62 C22.92 66.28, 15.38 62.93, 10.38 58.22 C5.39 53.51, 0.27 46.04, -0.71 39.34 C-1.7 32.63, 0.92 24.22, 4.46 18 C8 11.77, 14.48 4.63, 20.53 1.98 C26.58 -0.68, 37.17 2.36, 40.76 2.07 C44.35 1.78, 41.95 0.07, 42.05 0.23" stroke="#1e1e1e" stroke-width="1" fill="none"></path></g><g stroke-linecap="round"><g transform="translate(484.126421815065 477.60225789880434) rotate(0 15.00783819346509 8.883267981911217)"><path d="M0.72 -1.11 C0.69 2.26, 0.35 15.96, 0.79 19.86 C1.22 23.76, -0.92 21.82, 3.33 22.28 C7.58 22.74, 22.05 23.33, 26.29 22.64 C30.53 21.94, 28.23 21.8, 28.76 18.13 C29.29 14.45, 30.16 4.08, 29.45 0.6 C28.75 -2.89, 28.59 -1.97, 24.51 -2.8 C20.44 -3.64, 9.05 -5.09, 5.02 -4.43 C1 -3.78, 1.06 0.51, 0.34 1.12 M-0.36 0.92 C-0.54 4, -0.08 15.03, 0.35 18.23 C0.78 21.44, -2.18 19.78, 2.22 20.15 C6.63 20.53, 22.08 20.8, 26.77 20.48 C31.46 20.16, 29.7 21.67, 30.35 18.2 C31 14.73, 31.63 3.3, 30.68 -0.33 C29.73 -3.95, 29.1 -2.76, 24.65 -3.54 C20.21 -4.32, 8.32 -5.66, 4.02 -5.02 C-0.28 -4.37, -0.18 -0.23, -1.15 0.32" stroke="#1e1e1e" stroke-width="1" fill="none"></path></g></g><mask></mask><g stroke-linecap="round"><g transform="translate(483.84956914883765 494.6748389828121) rotate(0 15.8767601233111 -4.465229017914737)"><path d="M0.97 0.94 C2.94 -0.19, 9.5 -7.38, 12.56 -7.9 C15.61 -8.42, 17.8 -2.27, 19.27 -2.19 C20.74 -2.11, 19.63 -7.64, 21.38 -7.43 C23.12 -7.23, 28.44 -2.21, 29.73 -0.97 M0.02 0.39 C2.32 -1.01, 11.81 -9.05, 14.93 -9.81 C18.05 -10.56, 17.73 -4.66, 18.74 -4.13 C19.76 -3.6, 18.86 -7.26, 21.03 -6.65 C23.19 -6.04, 30.23 -1.5, 31.73 -0.46" stroke="#1e1e1e" stroke-width="1" fill="none"></path></g></g><mask></mask><g stroke-linecap="round" transform="translate(502.58326623020866 478.24824745333416) rotate(0 2.0302528856657887 2.0302528856657887)"><path d="M1.9 -0.26 C2.24 -0.18, 3.27 -0.44, 3.79 -0.05 C4.31 0.34, 5.13 1.47, 5.03 2.09 C4.93 2.7, 3.47 3.21, 3.18 3.64 C2.89 4.06, 3.77 4.59, 3.29 4.64 C2.81 4.69, 0.79 4.33, 0.31 3.95 C-0.17 3.58, 0.26 2.94, 0.39 2.38 C0.51 1.82, 1.02 1.02, 1.07 0.58 C1.12 0.15, 0.34 -0.03, 0.67 -0.2 C1 -0.37, 2.6 -0.4, 3.04 -0.41 C3.47 -0.43, 3.25 -0.27, 3.29 -0.28 M2.31 -1.24 C2.46 -0.99, 2.53 0.67, 2.71 1.23 C2.88 1.8, 2.92 2.01, 3.35 2.17 C3.77 2.34, 5.13 1.9, 5.26 2.22 C5.39 2.55, 4.88 3.69, 4.13 4.1 C3.37 4.51, 1.3 4.77, 0.74 4.68 C0.17 4.58, 0.73 4.18, 0.75 3.52 C0.77 2.87, 0.91 0.98, 0.87 0.77 C0.82 0.55, 0.12 2.53, 0.49 2.24 C0.86 1.94, 2.7 -0.49, 3.09 -1 C3.49 -1.52, 2.88 -1.23, 2.87 -0.84" stroke="#1e1e1e" stroke-width="1" fill="none"></path></g><g transform="translate(469.39547757971513 503.29902964611534) rotate(0 29.212639417691776 7.351687995088753)"><text x="29.212639417691772" y="0" font-family="Virgil, Segoe UI Emoji" font-size="11.762700792142027px" fill="#1e1e1e" text-anchor="middle" style="white-space: pre;" direction="ltr" dominant-baseline="text-before-edge">favicon.ico</text></g><g stroke-linecap="round"><g transform="translate(259.64313507800887 494.88104630064544) rotate(0 46.31379054528668 -1.093758115970786)"><path d="M0.55 -1.02 C15.93 -1.03, 76.87 -1.33, 92.08 -1.03" stroke="#1e1e1e" stroke-width="1.5" fill="none" stroke-dasharray="8 9"></path></g></g><mask></mask></svg>