<svg version="1.1" xmlns="http://www.w3.org/2000/svg" viewBox="0 0 292.50777930919025 787" width="585.0155586183805" height="1574">
  <!-- svg-source:excalidraw -->
  
  <defs>
    <style class="style-fonts">
      @font-face {
        font-family: "Virgil";
        src: url("https://file%2B.vscode-resource.vscode-cdn.net/c%3A/Users/Agust%C3%ADn/.vscode/extensions/pomdtr.excalidraw-editor-3.5.1/public//dist/excalidraw-assets/Virgil.woff2");
      }
      @font-face {
        font-family: "Cascadia";
        src: url("https://file%2B.vscode-resource.vscode-cdn.net/c%3A/Users/Agust%C3%ADn/.vscode/extensions/pomdtr.excalidraw-editor-3.5.1/public//dist/excalidraw-assets/Cascadia.woff2");
      }
    </style>
  </defs>
  <rect x="0" y="0" width="292.50777930919025" height="787" fill="#ffffff"></rect><g stroke-linecap="round" transform="translate(10 10) rotate(0 136.25388965459513 383.5)"><path d="M7.86 8.16 C7.86 8.16, 7.86 8.16, 7.86 8.16 M7.86 8.16 C7.86 8.16, 7.86 8.16, 7.86 8.16 M3.66 19.09 C7.61 14.02, 13.52 9.49, 18.1 2.48 M3.66 19.09 C8.34 14.52, 12.87 8.51, 18.1 2.48 M2.75 26.24 C9.89 17.17, 16.53 8.31, 24.4 1.33 M2.75 26.24 C9.31 17.65, 16.95 10.13, 24.4 1.33 M1.83 33.39 C7.7 25.46, 15.03 16.43, 30.7 0.18 M1.83 33.39 C9.48 24.29, 16.59 16.06, 30.7 0.18 M1.57 39.79 C15.14 26.64, 26.03 10.75, 34.37 2.05 M1.57 39.79 C10.31 30.25, 17.16 21.26, 34.37 2.05 M1.96 45.43 C12.11 31.28, 24.71 21.31, 39.36 2.41 M1.96 45.43 C10.66 35.5, 19.45 25.34, 39.36 2.41 M1.7 51.83 C14.58 38.89, 23.76 26.71, 45 2.02 M1.7 51.83 C12.7 39.35, 23.92 26.59, 45 2.02 M1.44 58.23 C16.02 43.32, 28.49 29.78, 49.99 2.38 M1.44 58.23 C17.12 40.62, 31.74 22.82, 49.99 2.38 M1.83 63.87 C14.45 49.28, 24.83 37.09, 55.63 1.98 M1.83 63.87 C18.26 44.34, 35.28 27.29, 55.63 1.98 M1.57 70.27 C24.14 45.72, 47.94 19.57, 60.62 2.34 M1.57 70.27 C19.56 50.68, 35.48 31.64, 60.62 2.34 M1.97 75.91 C19.22 56.42, 36.96 37.17, 66.26 1.95 M1.97 75.91 C17.68 57.36, 33.72 40.76, 66.26 1.95 M1.71 82.31 C26.06 54.76, 50.27 27.87, 71.25 2.31 M1.71 82.31 C23.34 57.54, 46.39 32.17, 71.25 2.31 M1.44 88.71 C27.69 57.83, 56.45 26.51, 76.89 1.91 M1.44 88.71 C25.46 60.27, 50.77 31.68, 76.89 1.91 M1.84 94.35 C23.5 69.5, 41.41 44.66, 81.88 2.27 M1.84 94.35 C26.72 68.58, 49.24 40.17, 81.88 2.27 M1.58 100.75 C20.61 80.92, 39.32 57.34, 87.52 1.88 M1.58 100.75 C29.06 68.74, 55.45 36.45, 87.52 1.88 M1.97 106.39 C35.45 69.74, 66.77 32.97, 92.51 2.24 M1.97 106.39 C27.99 77.08, 54.41 48.38, 92.51 2.24 M1.71 112.79 C30.34 78.53, 57.43 48.82, 98.15 1.85 M1.71 112.79 C36.44 72.56, 70.1 33.01, 98.15 1.85 M1.45 119.19 C24.45 95.18, 47.66 66.46, 103.14 2.21 M1.45 119.19 C29.69 86.23, 57.78 52.53, 103.14 2.21 M1.84 124.83 C40 79.94, 82.23 32.67, 108.12 2.57 M1.84 124.83 C33.87 86.47, 65.68 51.26, 108.12 2.57 M1.58 131.23 C43.4 83.13, 86.88 33.42, 113.77 2.17 M1.58 131.23 C28.8 99.92, 55.66 70.01, 113.77 2.17 M1.98 136.87 C33.49 96.09, 70.52 58.16, 118.76 2.53 M1.98 136.87 C46.53 83.93, 92.49 31.84, 118.76 2.53 M1.72 143.27 C45.79 94.74, 88.41 43.73, 124.4 2.14 M1.72 143.27 C34.34 104.93, 65.33 69.59, 124.4 2.14 M1.45 149.67 C33.48 109.04, 70.74 69.47, 129.39 2.5 M1.45 149.67 C27.39 119.54, 52.89 89.42, 129.39 2.5 M1.85 155.31 C45.59 106.97, 91.22 54.57, 135.03 2.1 M1.85 155.31 C54.21 94.74, 106.46 35.55, 135.03 2.1 M1.59 161.71 C35.99 125.02, 70.84 86.31, 140.02 2.46 M1.59 161.71 C38.34 120.04, 75.16 76.86, 140.02 2.46 M1.98 167.35 C47.58 114.22, 96.23 59.23, 145.66 2.07 M1.98 167.35 C37.92 125.33, 73.69 84.97, 145.66 2.07 M1.72 173.75 C56.05 113.54, 108.51 52.56, 150.65 2.43 M1.72 173.75 C39.17 130.91, 75.98 86.74, 150.65 2.43 M1.46 180.14 C42.19 136.12, 79.96 90.53, 156.29 2.03 M1.46 180.14 C60.35 112.63, 119.12 45.09, 156.29 2.03 M1.85 185.79 C35.1 142.5, 69.62 103.43, 161.28 2.39 M1.85 185.79 C65.06 115.12, 128.56 42.34, 161.28 2.39 M1.59 192.19 C39.53 147.76, 77.31 105.97, 166.92 2 M1.59 192.19 C46.21 140.38, 90.78 87.55, 166.92 2 M1.99 197.83 C51.8 140.3, 105.22 80.81, 171.91 2.36 M1.99 197.83 C48.52 146.03, 92.34 93.48, 171.91 2.36 M1.72 204.23 C46.53 154.83, 89.72 106.83, 176.89 2.72 M1.72 204.23 C71.55 124.8, 139.34 44.68, 176.89 2.72 M1.46 210.62 C59.22 146.34, 115.44 80.79, 182.54 2.32 M1.46 210.62 C71.35 128.92, 141.6 48.05, 182.54 2.32 M1.86 216.27 C63.7 143.09, 127.73 71, 187.52 2.68 M1.86 216.27 C66.43 142.16, 130.51 68.55, 187.52 2.68 M1.6 222.66 C40.58 174.88, 81.39 130.64, 193.17 2.29 M1.6 222.66 C49.03 166.7, 96.89 111.33, 193.17 2.29 M1.99 228.31 C78.86 140.06, 154.68 50.62, 198.15 2.65 M1.99 228.31 C54.1 165.06, 109.18 103.27, 198.15 2.65 M1.73 234.71 C42.56 188.99, 81.61 140.66, 203.8 2.26 M1.73 234.71 C58.91 171.35, 114.35 107.92, 203.8 2.26 M1.47 241.1 C72.82 161.18, 141.86 81.68, 208.78 2.62 M1.47 241.1 C59.91 173.95, 120.53 104.99, 208.78 2.62 M1.86 246.75 C77.07 162.66, 151.5 76.62, 214.43 2.22 M1.86 246.75 C51.61 187.31, 102.89 130.19, 214.43 2.22 M1.6 253.14 C78.87 164.06, 157.84 72.26, 219.41 2.58 M1.6 253.14 C51.64 192.64, 101.74 134.2, 219.41 2.58 M2 258.79 C82.37 165.74, 162.79 72.28, 225.06 2.19 M2 258.79 C62.21 190.45, 121.83 121.68, 225.06 2.19 M1.73 265.19 C69.96 187.78, 139.63 108.15, 230.04 2.55 M1.73 265.19 C74.79 181.02, 147.25 97.88, 230.04 2.55 M1.47 271.58 C50.51 215.61, 98.62 161.4, 235.69 2.15 M1.47 271.58 C57.47 206.78, 114.8 141.01, 235.69 2.15 M1.87 277.23 C61.94 210.13, 119.88 142.43, 240.67 2.51 M1.87 277.23 C70.99 196.72, 140.24 116.32, 240.67 2.51 M1.61 283.62 C71.56 203.15, 139.73 124.83, 245.66 2.87 M1.61 283.62 C95.93 173.37, 190.19 63.48, 245.66 2.87 M2 289.27 C81.69 197.06, 163.02 105.98, 250.65 3.23 M2 289.27 C65.23 216.9, 129.34 144.82, 250.65 3.23 M1.74 295.66 C65.89 220.91, 129.17 147.01, 254.98 4.35 M1.74 295.66 C75.49 211.88, 148 128.88, 254.98 4.35 M1.48 302.06 C85.38 205.56, 168.09 108.56, 259.97 4.71 M1.48 302.06 C67.73 222.96, 136.24 143.93, 259.97 4.71 M1.87 307.71 C63.58 237.62, 124.36 165.46, 262.98 7.33 M1.87 307.71 C67.42 230.15, 135.08 152.76, 262.98 7.33 M1.61 314.1 C74.67 229.62, 146.71 145.25, 266 9.96 M1.61 314.1 C85 217.61, 169.79 119.94, 266 9.96 M2.01 319.75 C104.63 202.8, 209.16 83.83, 268.37 13.33 M2.01 319.75 C104.97 201.09, 207.28 84.48, 268.37 13.33 M1.74 326.14 C75.9 242.95, 147.44 159.25, 270.73 16.71 M1.74 326.14 C100.84 210.81, 200.43 95.58, 270.73 16.71 M1.48 332.54 C87.96 235.78, 172.41 138.01, 273.09 20.09 M1.48 332.54 C78.34 243.47, 157.2 152.92, 273.09 20.09 M1.88 338.19 C66.91 261.7, 132.24 185.21, 273.49 25.74 M1.88 338.19 C90.58 238.16, 179.07 136.02, 273.49 25.74 M1.62 344.58 C76.67 258.96, 150.17 171.85, 273.22 32.13 M1.62 344.58 C99.07 235.18, 194.85 124.82, 273.22 32.13 M2.01 350.23 C105.27 232.82, 207.75 115.71, 272.96 38.53 M2.01 350.23 C64.75 278.86, 126.83 206.76, 272.96 38.53 M1.75 356.62 C106.87 235.32, 211.54 114.89, 272.7 44.93 M1.75 356.62 C85.58 260.28, 167.91 165.84, 272.7 44.93 M1.49 363.02 C86.13 266.03, 170.67 169.23, 273.1 50.57 M1.49 363.02 C81.48 269.38, 160.79 176.83, 273.1 50.57 M1.88 368.66 C57.06 305.2, 113.2 240.64, 272.83 56.97 M1.88 368.66 C59.04 300.66, 118.34 232.74, 272.83 56.97 M1.62 375.06 C87.79 274.1, 173.03 175.48, 273.23 62.61 M1.62 375.06 C74.94 292.75, 146.71 208.95, 273.23 62.61 M2.02 380.71 C95.85 273.21, 188.09 164.55, 272.97 69.01 M2.02 380.71 C90.16 279.85, 177.51 179.17, 272.97 69.01 M1.75 387.1 C96.24 280.99, 191.1 172.94, 272.71 75.41 M1.75 387.1 C68.86 311.21, 136.54 234.04, 272.71 75.41 M1.49 393.5 C72.26 313.75, 142.67 232.1, 273.1 81.05 M1.49 393.5 C107.79 272.24, 214.62 149.3, 273.1 81.05 M1.89 399.14 C105.38 281.15, 207.85 163.18, 272.84 87.45 M1.89 399.14 C80.58 308.93, 159.26 218.11, 272.84 87.45 M1.63 405.54 C71.74 323.21, 143.09 242.01, 273.23 93.09 M1.63 405.54 C100.11 291.71, 196.95 179.85, 273.23 93.09 M2.02 411.18 C65.96 333.27, 132.69 257.35, 272.97 99.49 M2.02 411.18 C109.54 285.66, 218.45 161.05, 272.97 99.49 M1.76 417.58 C86 321.36, 171.62 222.96, 272.71 105.89 M1.76 417.58 C81.62 325.43, 162.61 232.32, 272.71 105.89 M1.5 423.98 C66.42 349.24, 130.66 276.9, 273.11 111.53 M1.5 423.98 C89.86 322.02, 178.47 221.1, 273.11 111.53 M1.89 429.62 C62.82 357.97, 124.12 288.66, 272.84 117.93 M1.89 429.62 C67.21 355.54, 131.47 281.58, 272.84 117.93 M1.63 436.02 C76.28 348.87, 152.62 260.82, 273.24 123.57 M1.63 436.02 C104.37 319.1, 205.2 203, 273.24 123.57 M2.02 441.66 C70.47 362.72, 140.55 282.17, 272.98 129.97 M2.02 441.66 C97.66 331.58, 193.65 221.75, 272.98 129.97 M1.76 448.06 C101.82 331.69, 202.1 216.36, 272.72 136.37 M1.76 448.06 C106.19 326.54, 210.94 205.35, 272.72 136.37 M1.5 454.46 C87.02 355.5, 174.02 256.33, 273.11 142.01 M1.5 454.46 C101.3 338.11, 203.16 221.68, 273.11 142.01 M1.9 460.1 C95.65 354.15, 186.62 249.53, 272.85 148.41 M1.9 460.1 C104.39 341.41, 207.46 222.42, 272.85 148.41 M1.64 466.5 C99.94 353.48, 197.85 239.8, 273.24 154.05 M1.64 466.5 C103.01 349.64, 205.74 231.95, 273.24 154.05 M2.03 472.14 C73.17 387.92, 148.01 302.14, 272.98 160.45 M2.03 472.14 C83.03 377.72, 163.85 284.03, 272.98 160.45 M1.77 478.54 C58.35 412.83, 115.31 346.68, 272.72 166.85 M1.77 478.54 C104.2 356.58, 209.54 236.2, 272.72 166.85 M1.51 484.94 C83.49 390.79, 164.85 296.96, 273.12 172.49 M1.51 484.94 C69.33 406.43, 136.74 329.73, 273.12 172.49 M1.9 490.58 C87.57 392.77, 173.94 293, 272.85 178.89 M1.9 490.58 C106.88 369.98, 211.33 250.48, 272.85 178.89 M1.64 496.98 C59 432.26, 114.42 365.28, 273.25 184.53 M1.64 496.98 C75.73 410.95, 150.68 324.38, 273.25 184.53 M2.03 502.62 C108.3 381.86, 214.83 258.73, 272.99 190.93 M2.03 502.62 C81.22 411.85, 160.67 319.33, 272.99 190.93 M1.77 509.02 C66.58 431.91, 130.99 358.34, 272.73 197.33 M1.77 509.02 C107.79 385.75, 213.3 264.64, 272.73 197.33 M1.51 515.42 C110.08 392.22, 218.37 266.77, 273.12 202.97 M1.51 515.42 C108.61 392.83, 216.94 268.41, 273.12 202.97 M1.91 521.06 C75.6 434.33, 150.07 348.38, 272.86 209.37 M1.91 521.06 C94.9 416.39, 187.66 311.34, 272.86 209.37 M1.64 527.46 C94.33 420.33, 189.52 311.88, 273.25 215.01 M1.64 527.46 C86.73 429.36, 173.41 329.46, 273.25 215.01 M2.04 533.1 C71.38 456.31, 138.44 379.91, 272.99 221.41 M2.04 533.1 C62.28 463.52, 123.71 393.01, 272.99 221.41 M1.78 539.5 C80.31 449.14, 160.96 358.95, 272.73 227.81 M1.78 539.5 C65.23 464.27, 129.44 391.65, 272.73 227.81 M1.52 545.9 C95.57 438.27, 189.53 331.84, 273.12 233.45 M1.52 545.9 C84.21 450.99, 166.86 355.33, 273.12 233.45 M1.91 551.54 C96.56 441.74, 190.66 334.91, 272.86 239.85 M1.91 551.54 C75.86 464.63, 150.98 378.25, 272.86 239.85 M1.65 557.94 C58.07 496.38, 112.99 433.34, 273.26 245.49 M1.65 557.94 C103.55 441.45, 205.38 324.69, 273.26 245.49 M2.04 563.58 C75.45 477.56, 149.33 392.85, 273 251.89 M2.04 563.58 C88.3 464.46, 173.57 365.7, 273 251.89 M1.78 569.98 C83.72 476.47, 166.77 381.68, 272.74 258.29 M1.78 569.98 C107.16 448.76, 213.49 326.32, 272.74 258.29 M1.52 576.38 C77.9 489.18, 154.2 400.43, 273.13 263.93 M1.52 576.38 C106.51 455.73, 211.42 335.65, 273.13 263.93 M1.92 582.02 C107.08 461.68, 208.67 343.17, 272.87 270.33 M1.92 582.02 C71.44 502.84, 141 422.81, 272.87 270.33 M1.65 588.42 C64.88 515.86, 127.12 443.96, 273.26 275.97 M1.65 588.42 C72.83 507.81, 143.11 427.15, 273.26 275.97 M2.05 594.06 C61.98 524.84, 124.25 454.21, 273 282.37 M2.05 594.06 C62.84 524.36, 122.89 454.95, 273 282.37 M1.79 600.46 C65.14 529.12, 126 456.97, 272.74 288.76 M1.79 600.46 C73.69 519.03, 145.49 436.89, 272.74 288.76 M1.53 606.86 C74.8 524.71, 148.43 440.73, 273.13 294.41 M1.53 606.86 C79.3 517.42, 158.32 426.61, 273.13 294.41 M1.92 612.5 C66.73 540.35, 131.87 465.97, 272.87 300.81 M1.92 612.5 C76.88 525.03, 152.71 438.03, 272.87 300.81 M1.66 618.9 C109.21 493.92, 217.06 370.1, 273.27 306.45 M1.66 618.9 C58.57 551.97, 115.76 486.05, 273.27 306.45 M2.05 624.54 C74.51 541.92, 147.02 458.96, 273.01 312.85 M2.05 624.54 C93.42 521.55, 183.42 417.59, 273.01 312.85 M1.79 630.94 C96.52 521.96, 188.6 415.46, 272.74 319.24 M1.79 630.94 C78.68 538.78, 156.79 449.27, 272.74 319.24 M1.53 637.34 C103.53 518.78, 208.78 400.51, 273.14 324.89 M1.53 637.34 C56.52 574.3, 111.06 511.2, 273.14 324.89 M1.93 642.98 C81.87 548.83, 162.51 457.06, 272.88 331.29 M1.93 642.98 C103.88 524.53, 206.29 406.09, 272.88 331.29 M1.66 649.38 C79.84 559.13, 156.75 470.61, 273.27 336.93 M1.66 649.38 C59.62 585.02, 116.8 518.46, 273.27 336.93 M1.4 655.78 C80.82 563.41, 158.64 473.68, 273.01 343.33 M1.4 655.78 C75.46 567.76, 151.38 480.57, 273.01 343.33 M1.8 661.42 C91.38 557.04, 184.53 449.49, 272.75 349.72 M1.8 661.42 C67.43 585.31, 132.53 510.99, 272.75 349.72 M1.54 667.82 C60.28 603.61, 118.04 538.21, 273.14 355.37 M1.54 667.82 C96.16 560.4, 189.24 452.62, 273.14 355.37 M1.93 673.46 C97.01 560.15, 192.52 450.98, 272.88 361.76 M1.93 673.46 C89.09 575.53, 174.4 476.61, 272.88 361.76 M1.67 679.86 C108 557.95, 214.55 435.03, 273.28 367.41 M1.67 679.86 C77.94 595.28, 152.73 509.52, 273.28 367.41 M1.41 686.26 C109.46 560.95, 215.52 438.63, 273.02 373.81 M1.41 686.26 C61.09 619.33, 120.06 551.26, 273.02 373.81 M1.8 691.9 C62.36 625.97, 120.74 556.74, 272.75 380.2 M1.8 691.9 C90.86 590.64, 178.48 489.44, 272.75 380.2 M1.54 698.3 C103.4 585.23, 202.52 469.87, 273.15 385.85 M1.54 698.3 C72.4 616.6, 145.15 532.66, 273.15 385.85 M1.94 703.94 C89.52 604.21, 176.87 504.22, 272.89 392.24 M1.94 703.94 C81.73 613.13, 161.55 520.95, 272.89 392.24 M1.67 710.34 C63.98 639.31, 127.24 566.2, 273.28 397.89 M1.67 710.34 C96.83 601.72, 190.8 493.95, 273.28 397.89 M1.41 716.73 C110.59 594.72, 217.94 469.72, 273.02 404.28 M1.41 716.73 C92.91 610.79, 184.94 504.15, 273.02 404.28 M1.81 722.38 C108.95 598.77, 215.61 476.14, 272.76 410.68 M1.81 722.38 C79.79 635.1, 155.74 547.12, 272.76 410.68 M1.55 728.78 C101.62 613.25, 201.06 499.34, 273.15 416.33 M1.55 728.78 C101.11 615.35, 198.88 502.37, 273.15 416.33 M0.63 735.93 C88.36 635.9, 177.72 533.81, 272.89 422.72 M0.63 735.93 C70.81 655.51, 138.79 576.48, 272.89 422.72 M1.68 740.82 C64.85 670.63, 128.21 598.28, 273.29 428.37 M1.68 740.82 C57.32 675.45, 114.84 608.69, 273.29 428.37 M2.07 746.46 C90.4 644.7, 179.25 545.52, 273.03 434.76 M2.07 746.46 C106.32 626.24, 210.08 507.68, 273.03 434.76 M3.78 750.59 C58.75 684.88, 115.98 619.02, 272.76 441.16 M3.78 750.59 C79.95 660.22, 158.01 570.24, 272.76 441.16 M5.49 754.73 C102.28 644.04, 198.05 534.57, 273.16 446.81 M5.49 754.73 C97.79 648.35, 191.74 541.06, 273.16 446.81 M7.85 758.11 C115.02 637.35, 219.58 516.11, 272.9 453.2 M7.85 758.11 C102.32 648.88, 195.88 542.2, 272.9 453.2 M10.87 760.73 C72.53 690.2, 133.63 618.06, 273.29 458.85 M10.87 760.73 C111.53 645.28, 211.92 530.04, 273.29 458.85 M13.89 763.35 C98.88 663.5, 183.68 566.46, 273.03 465.24 M13.89 763.35 C92.02 672.45, 169.76 582.36, 273.03 465.24 M17.56 765.22 C72.62 700.4, 128.58 638.59, 272.77 471.64 M17.56 765.22 C85.19 690.22, 150.62 615.33, 272.77 471.64 M21.89 766.34 C119.91 655.15, 216.56 543.33, 273.16 477.28 M21.89 766.34 C118.83 653.97, 215.57 542.22, 273.16 477.28 M26.22 767.45 C77.39 707.06, 130.54 647.97, 272.9 483.68 M26.22 767.45 C101.16 680.94, 176.71 594.25, 272.9 483.68 M31.21 767.81 C82.8 708.58, 133.12 651.21, 273.3 489.33 M31.21 767.81 C83.6 707.17, 135.03 648.59, 273.3 489.33 M34.89 769.68 C125.02 667.16, 214.74 562.4, 273.04 495.72 M34.89 769.68 C131.05 660.27, 225.66 550.75, 273.04 495.72 M40.53 769.29 C104.09 696.38, 168.83 623.4, 272.77 502.12 M40.53 769.29 C118.14 680.25, 195.2 591.48, 272.77 502.12 M45.52 769.65 C118.3 685.98, 193.4 599.44, 273.17 507.76 M45.52 769.65 C128.62 673.7, 211.24 577.79, 273.17 507.76 M51.16 769.25 C123.5 689.12, 193.59 604.9, 272.91 514.16 M51.16 769.25 C104.67 706.9, 158.21 645.05, 272.91 514.16 M56.15 769.61 C124.89 690.09, 194.35 608.32, 273.3 519.81 M56.15 769.61 C140.59 672.53, 223.74 576.69, 273.3 519.81 M61.79 769.22 C134.18 686.24, 204.94 604.34, 273.04 526.2 M61.79 769.22 C103.56 719.3, 146.17 670.85, 273.04 526.2 M66.78 769.58 C123.01 706.89, 177.31 643.31, 272.78 532.6 M66.78 769.58 C144.36 678.03, 224.25 586.28, 272.78 532.6 M71.76 769.94 C141.84 688.55, 216.22 603.04, 273.17 538.24 M71.76 769.94 C114.47 720.48, 155.6 670.91, 273.17 538.24 M77.41 769.55 C144.55 693.32, 209.19 621.62, 272.91 544.64 M77.41 769.55 C125.16 716.09, 171.47 662.34, 272.91 544.64 M82.39 769.91 C133.57 712.94, 182.23 653.22, 273.31 550.28 M82.39 769.91 C125.53 721.85, 168.62 674.42, 273.31 550.28 M88.04 769.51 C146.47 701.27, 204.03 631.98, 273.04 556.68 M88.04 769.51 C159.57 687.72, 230.13 606.66, 273.04 556.68 M93.02 769.87 C165.73 687.6, 236.79 604.93, 272.78 563.08 M93.02 769.87 C154.24 700.97, 214.27 631.38, 272.78 563.08 M98.67 769.48 C149.79 710.88, 200.66 652.79, 273.18 568.72 M98.67 769.48 C165.83 693.86, 231.88 617.7, 273.18 568.72 M103.65 769.84 C162.83 705.14, 220.53 637.2, 272.92 575.12 M103.65 769.84 C138.98 729.96, 174.17 690.54, 272.92 575.12 M109.3 769.44 C165.38 702.35, 224.05 638.49, 272.66 581.52 M109.3 769.44 C172.6 700.74, 232.46 630.82, 272.66 581.52 M114.28 769.8 C163.89 710.89, 214.34 653.3, 273.05 587.16 M114.28 769.8 C152.26 725.37, 189.7 682.59, 273.05 587.16 M119.93 769.41 C159.08 722.41, 202.74 672.24, 272.79 593.56 M119.93 769.41 C155.72 726.89, 192.2 687.75, 272.79 593.56 M124.91 769.77 C159 730.39, 191.84 691.46, 273.18 599.2 M124.91 769.77 C180.96 705.33, 237.97 642.18, 273.18 599.2 M130.56 769.37 C166.95 725.72, 205.84 683.77, 272.92 605.6 M130.56 769.37 C184.68 707.62, 239.31 645.25, 272.92 605.6 M135.54 769.73 C163.94 737.82, 191.75 702.94, 272.66 612 M135.54 769.73 C179.62 717.1, 226.04 663.95, 272.66 612 M141.19 769.34 C191.42 710.79, 240.24 656.06, 273.05 617.64 M141.19 769.34 C167.38 739.09, 194.33 709.06, 273.05 617.64 M146.17 769.7 C174.44 737.9, 205.15 705.17, 272.79 624.04 M146.17 769.7 C188.98 719.19, 233.66 668.59, 272.79 624.04 M151.82 769.3 C191.38 726.63, 227.7 680.51, 273.19 629.68 M151.82 769.3 C176.89 738.46, 205.57 708.52, 273.19 629.68 M156.8 769.66 C194.6 723.38, 236.92 678.68, 272.93 636.08 M156.8 769.66 C184.15 738.85, 211.2 706.21, 272.93 636.08 M162.45 769.27 C190.76 737.13, 217.7 703.87, 272.66 642.48 M162.45 769.27 C198.42 728.28, 232.92 688.25, 272.66 642.48 M167.43 769.63 C188.28 743.37, 209.49 719.07, 273.06 648.12 M167.43 769.63 C203.09 728.1, 240.89 686.41, 273.06 648.12 M173.08 769.23 C191.43 744.35, 212.16 724.12, 272.8 654.52 M173.08 769.23 C204.41 732.29, 234.31 697.51, 272.8 654.52 M178.06 769.59 C214.18 726.44, 254.23 681.46, 273.19 660.16 M178.06 769.59 C213.22 728.76, 249.61 686.78, 273.19 660.16 M183.05 769.95 C202.92 746.36, 220.22 726.91, 272.93 666.56 M183.05 769.95 C216.65 728.44, 253.26 687.67, 272.93 666.56 M188.69 769.56 C209.29 745.69, 232.84 719.54, 272.67 672.96 M188.69 769.56 C221.94 732.48, 254.15 694.64, 272.67 672.96 M193.68 769.92 C209.02 749.63, 226.74 731.09, 273.06 678.6 M193.68 769.92 C216.4 744.46, 237.21 719.99, 273.06 678.6 M199.32 769.53 C216.9 749.14, 237.48 726.08, 272.8 685 M199.32 769.53 C227.34 737.14, 254.81 705.43, 272.8 685 M204.31 769.89 C226.61 742.91, 247.04 717.18, 273.2 690.64 M204.31 769.89 C221.03 749.78, 237.64 729.93, 273.2 690.64 M209.95 769.49 C225.83 751.22, 244.09 730.15, 272.94 697.04 M209.95 769.49 C227.74 748.13, 246.11 728.68, 272.94 697.04 M214.94 769.85 C236.54 741.6, 260.84 716.06, 272.67 703.44 M214.94 769.85 C234.38 748.7, 251.86 726.55, 272.67 703.44 M220.58 769.46 C233.67 755.13, 245.02 744.7, 273.07 709.08 M220.58 769.46 C231.71 756.4, 244.96 741.92, 273.07 709.08 M225.57 769.82 C238.19 753.95, 249.6 738.52, 272.81 715.48 M225.57 769.82 C240.77 752.66, 253.18 736.35, 272.81 715.48 M231.21 769.42 C244.16 756.01, 256.01 739.44, 273.2 721.12 M231.21 769.42 C242.81 757.81, 252.86 744.85, 273.2 721.12 M236.2 769.78 C245.13 759.9, 254.7 746.14, 272.94 727.52 M236.2 769.78 C247.7 756.92, 257.86 744.64, 272.94 727.52 M242.5 768.63 C252.42 754.85, 264.96 744.08, 272.68 733.92 M242.5 768.63 C254.06 755.3, 264.49 743.23, 272.68 733.92 M248.8 767.48 C257.51 756.08, 266.05 746.47, 275.04 737.3 M248.8 767.48 C258.71 755.93, 267.67 745.41, 275.04 737.3 M255.75 765.58 C261.16 761.22, 264.49 754.36, 274.12 744.45 M255.75 765.58 C260.83 758.87, 268.65 750.72, 274.12 744.45" stroke="#ced4da" stroke-width="0.5" fill="none"></path><path d="M32 0 M32 0 C91.61 -0.45, 153.69 1.38, 240.51 0 M32 0 C111.54 -0.3, 190.76 -0.61, 240.51 0 M240.51 0 C262.25 0.61, 273 12.25, 272.51 32 M240.51 0 C263.66 1.92, 272.55 9.08, 272.51 32 M272.51 32 C274.6 294.32, 274.99 558.61, 272.51 735 M272.51 32 C272.49 290.02, 272.39 547.31, 272.51 735 M272.51 735 C273.96 757.74, 261.5 768.77, 240.51 767 M272.51 735 C273.35 757.95, 263.52 767.74, 240.51 767 M240.51 767 C159.4 765.6, 75.83 764.97, 32 767 M240.51 767 C166.51 766.39, 93.88 767.8, 32 767 M32 767 C11.03 766.56, -0.79 756.45, 0 735 M32 767 C12.53 765.04, -1.4 755.18, 0 735 M0 735 C1.68 550.5, 1.85 366.78, 0 32 M0 735 C2.67 533.57, 2.79 332.66, 0 32 M0 32 C1.71 8.92, 11.36 1.86, 32 0 M0 32 C0.82 12.56, 12.3 1.21, 32 0" stroke="#1e1e1e" stroke-width="1" fill="none"></path></g><g transform="translate(92.72539008837305 103.30555555555569) rotate(0 48.00996398925781 12.5)"><text x="0" y="0" font-family="Virgil, Segoe UI Emoji" font-size="20px" fill="#1e1e1e" text-anchor="start" style="white-space: pre;" direction="ltr" dominant-baseline="text-before-edge">Mi cuenta</text></g><g transform="translate(223.94761231059533 79.29830902465983) rotate(0 17.261268615722656 36.0869565987813)"><text x="0" y="0" font-family="Virgil, Segoe UI Emoji" font-size="57.73913055805008px" fill="#e03131" text-anchor="start" style="white-space: pre;" direction="ltr" dominant-baseline="text-before-edge">X</text></g><g transform="translate(49.331930731255284 215.8055555555557) rotate(0 69.24397277832031 17.5)"><text x="0" y="0" font-family="Virgil, Segoe UI Emoji" font-size="28px" fill="#1e1e1e" text-anchor="start" style="white-space: pre;" direction="ltr" dominant-baseline="text-before-edge">Productos</text></g><g transform="translate(49.331930731255284 285.02106318126107) rotate(0 96.92195892333984 17.5)"><text x="0" y="0" font-family="Virgil, Segoe UI Emoji" font-size="28px" fill="#1e1e1e" text-anchor="start" style="white-space: pre;" direction="ltr" dominant-baseline="text-before-edge">Quienes somos</text></g><g transform="translate(49.331930731255284 354.2365708069665) rotate(0 49.1259765625 17.5)"><text x="0" y="0" font-family="Virgil, Segoe UI Emoji" font-size="28px" fill="#1e1e1e" text-anchor="start" style="white-space: pre;" direction="ltr" dominant-baseline="text-before-edge">Carrito</text></g><g stroke-opacity="0" fill-opacity="0" stroke-linecap="round" transform="translate(42.355002629592946 100.32405698566444) rotate(0 16.418998569891244 16.418998569891244)"><path d="M19.39 0.78 C22.72 1.09, 26.58 2.95, 28.96 5.61 C31.35 8.27, 33.79 13.35, 33.72 16.73 C33.65 20.12, 31.05 23.26, 28.53 25.9 C26.02 28.53, 22.02 31.57, 18.64 32.53 C15.27 33.49, 11.06 33.29, 8.29 31.65 C5.53 30.01, 3.47 26.18, 2.07 22.67 C0.67 19.17, -1.23 14.1, -0.1 10.63 C1.04 7.16, 5.26 3.31, 8.9 1.86 C12.54 0.4, 19.17 1.83, 21.75 1.89 C24.33 1.95, 24.43 2.1, 24.39 2.22 M16.65 -0.94 C20.35 -0.79, 26.12 1.25, 28.78 4.07 C31.44 6.89, 32.23 12.56, 32.61 15.98 C32.98 19.39, 32.86 21.79, 31.03 24.55 C29.2 27.31, 25.07 31.59, 21.64 32.54 C18.21 33.48, 14.01 31.81, 10.44 30.22 C6.88 28.63, 2.06 25.97, 0.23 22.98 C-1.6 19.99, -1.81 15.77, -0.55 12.3 C0.71 8.83, 4.65 4.41, 7.79 2.16 C10.93 -0.1, 16.78 -0.93, 18.29 -1.22 C19.8 -1.51, 17.07 0, 16.83 0.42" stroke="#1e1e1e" stroke-width="1" fill="none"></path></g><g stroke-linecap="round"><g transform="translate(50.704230609124465 122.7791553430649) rotate(0 7.910869698929048 -6.26804549849011)"><path d="M0.37 0.32 C0.46 -1.09, 0.38 -6.17, 1.66 -8.45 C2.94 -10.74, 6.16 -13.29, 8.05 -13.38 C9.93 -13.46, 11.64 -10.88, 12.98 -8.94 C14.32 -7.01, 18.41 -3.06, 16.09 -1.76 C13.76 -0.46, 1.71 -1.41, -0.96 -1.17 M-0.9 -0.56 C-1.06 -2.33, -0.74 -8.38, 0.68 -10.28 C2.11 -12.17, 5.56 -11.82, 7.65 -11.94 C9.74 -12.05, 12 -12.63, 13.23 -10.94 C14.46 -9.25, 17.25 -3.77, 15.03 -1.8 C12.82 0.16, 2.34 0.83, -0.06 0.84" stroke="#1e1e1e" stroke-width="1" fill="none"></path></g></g><mask></mask><g stroke-linecap="round" transform="translate(54.57022672659849 102.0696905388011) rotate(0 3.913043478260846 3.423913043478265)"><path d="M5.94 0.81 C6.56 0.84, 6.36 0.25, 6.5 0.75 C6.65 1.26, 6.85 2.84, 6.83 3.85 C6.8 4.85, 6.66 6.21, 6.36 6.76 C6.07 7.32, 6.04 7.34, 5.08 7.15 C4.12 6.97, 1.26 6.23, 0.59 5.66 C-0.07 5.08, 1.16 4.15, 1.1 3.68 C1.04 3.2, 0.04 3.43, 0.22 2.8 C0.39 2.18, 1.21 0.3, 2.14 -0.08 C3.07 -0.46, 5.08 0.52, 5.79 0.52 C6.51 0.53, 6.62 0.03, 6.44 -0.05 M2.49 1.35 C3.26 0.99, 5.44 -1.03, 6.38 -0.91 C7.32 -0.79, 7.77 1.43, 8.14 2.07 C8.5 2.71, 9.08 2.34, 8.56 2.92 C8.03 3.5, 5.96 4.9, 4.99 5.55 C4.03 6.2, 3.23 6.88, 2.78 6.8 C2.32 6.73, 2.62 5.78, 2.27 5.09 C1.92 4.4, 1.08 3.25, 0.66 2.69 C0.24 2.12, -0.48 2.18, -0.26 1.7 C-0.04 1.22, 1.72 -0.06, 1.98 -0.19 C2.25 -0.33, 1.04 0.77, 1.33 0.88" stroke="#1e1e1e" stroke-width="1" fill="none"></path></g><g transform="translate(52.20574334939073 124.3851705723103) rotate(0 6.277526855468722 3.515625)"><text x="6.27752685546875" y="0" font-family="Virgil, Segoe UI Emoji" font-size="5.624999999999991px" fill="#1e1e1e" text-anchor="middle" style="white-space: pre;" direction="ltr" dominant-baseline="text-before-edge">User</text></g><g stroke-linecap="round" transform="translate(37.8365011994843 95.80555555555571) rotate(0 20.62499999999997 19.99999999999997)"><path d="M13.69 0.95 C17.83 -0.34, 24.44 0.84, 28.63 2.2 C32.83 3.57, 36.89 5.4, 38.86 9.13 C40.82 12.86, 41.34 20.24, 40.41 24.58 C39.48 28.93, 36.43 32.66, 33.27 35.19 C30.11 37.72, 25.83 39.74, 21.43 39.76 C17.04 39.79, 10.42 38.03, 6.92 35.32 C3.42 32.61, 1.25 27.89, 0.43 23.51 C-0.4 19.13, -1.08 13.07, 1.98 9.05 C5.04 5.02, 14.8 0.79, 18.77 -0.63 C22.74 -2.05, 25.7 -0.07, 25.82 0.5 M28.09 2.05 C32.11 2.86, 35.34 5.3, 37.39 8.71 C39.43 12.12, 40.99 17.91, 40.38 22.51 C39.78 27.11, 37.22 33.3, 33.76 36.32 C30.29 39.33, 24.22 40.93, 19.6 40.62 C14.98 40.3, 9.22 37.42, 6.01 34.44 C2.8 31.45, 0.93 27.02, 0.34 22.71 C-0.26 18.4, 0.11 12.01, 2.44 8.57 C4.76 5.13, 10.08 3.24, 14.31 2.1 C18.53 0.95, 25.64 1.87, 27.79 1.71 C29.94 1.55, 27.46 1.15, 27.21 1.14" stroke="#1e1e1e" stroke-width="1" fill="none"></path></g></svg>