<svg version="1.1" xmlns="http://www.w3.org/2000/svg" viewBox="0 0 292.5647784416353 787" width="585.1295568832707" height="1574">
  <!-- svg-source:excalidraw -->
  
  <defs>
    <style class="style-fonts">
      @font-face {
        font-family: "Virgil";
        src: url("https://file%2B.vscode-resource.vscode-cdn.net/c%3A/Users/Agust%C3%ADn/.vscode/extensions/pomdtr.excalidraw-editor-3.5.1/public//dist/excalidraw-assets/Virgil.woff2");
      }
      @font-face {
        font-family: "Cascadia";
        src: url("https://file%2B.vscode-resource.vscode-cdn.net/c%3A/Users/Agust%C3%ADn/.vscode/extensions/pomdtr.excalidraw-editor-3.5.1/public//dist/excalidraw-assets/Cascadia.woff2");
      }
    </style>
  </defs>
  <rect x="0" y="0" width="292.5647784416353" height="787" fill="#ffffff"></rect><g stroke-linecap="round" transform="translate(10.056999132445071 10) rotate(0 136.25388965459513 383.5)"><path d="M7.86 8.16 C7.86 8.16, 7.86 8.16, 7.86 8.16 M7.86 8.16 C7.86 8.16, 7.86 8.16, 7.86 8.16 M3.66 19.09 C7.61 14.02, 13.52 9.49, 18.1 2.48 M3.66 19.09 C8.34 14.52, 12.87 8.51, 18.1 2.48 M2.75 26.24 C9.89 17.17, 16.53 8.31, 24.4 1.33 M2.75 26.24 C9.31 17.65, 16.95 10.13, 24.4 1.33 M1.83 33.39 C7.7 25.46, 15.03 16.43, 30.7 0.18 M1.83 33.39 C9.48 24.29, 16.59 16.06, 30.7 0.18 M1.57 39.79 C15.14 26.64, 26.03 10.75, 34.37 2.05 M1.57 39.79 C10.31 30.25, 17.16 21.26, 34.37 2.05 M1.96 45.43 C12.11 31.28, 24.71 21.31, 39.36 2.41 M1.96 45.43 C10.66 35.5, 19.45 25.34, 39.36 2.41 M1.7 51.83 C14.58 38.89, 23.76 26.71, 45 2.02 M1.7 51.83 C12.7 39.35, 23.92 26.59, 45 2.02 M1.44 58.23 C16.02 43.32, 28.49 29.78, 49.99 2.38 M1.44 58.23 C17.12 40.62, 31.74 22.82, 49.99 2.38 M1.83 63.87 C14.45 49.28, 24.83 37.09, 55.63 1.98 M1.83 63.87 C18.26 44.34, 35.28 27.29, 55.63 1.98 M1.57 70.27 C24.14 45.72, 47.94 19.57, 60.62 2.34 M1.57 70.27 C19.56 50.68, 35.48 31.64, 60.62 2.34 M1.97 75.91 C19.22 56.42, 36.96 37.17, 66.26 1.95 M1.97 75.91 C17.68 57.36, 33.72 40.76, 66.26 1.95 M1.71 82.31 C26.06 54.76, 50.27 27.87, 71.25 2.31 M1.71 82.31 C23.34 57.54, 46.39 32.17, 71.25 2.31 M1.44 88.71 C27.69 57.83, 56.45 26.51, 76.89 1.91 M1.44 88.71 C25.46 60.27, 50.77 31.68, 76.89 1.91 M1.84 94.35 C23.5 69.5, 41.41 44.66, 81.88 2.27 M1.84 94.35 C26.72 68.58, 49.24 40.17, 81.88 2.27 M1.58 100.75 C20.61 80.92, 39.32 57.34, 87.52 1.88 M1.58 100.75 C29.06 68.74, 55.45 36.45, 87.52 1.88 M1.97 106.39 C35.45 69.74, 66.77 32.97, 92.51 2.24 M1.97 106.39 C27.99 77.08, 54.41 48.38, 92.51 2.24 M1.71 112.79 C30.34 78.53, 57.43 48.82, 98.15 1.85 M1.71 112.79 C36.44 72.56, 70.1 33.01, 98.15 1.85 M1.45 119.19 C24.45 95.18, 47.66 66.46, 103.14 2.21 M1.45 119.19 C29.69 86.23, 57.78 52.53, 103.14 2.21 M1.84 124.83 C40 79.94, 82.23 32.67, 108.12 2.57 M1.84 124.83 C33.87 86.47, 65.68 51.26, 108.12 2.57 M1.58 131.23 C43.4 83.13, 86.88 33.42, 113.77 2.17 M1.58 131.23 C28.8 99.92, 55.66 70.01, 113.77 2.17 M1.98 136.87 C33.49 96.09, 70.52 58.16, 118.76 2.53 M1.98 136.87 C46.53 83.93, 92.49 31.84, 118.76 2.53 M1.72 143.27 C45.79 94.74, 88.41 43.73, 124.4 2.14 M1.72 143.27 C34.34 104.93, 65.33 69.59, 124.4 2.14 M1.45 149.67 C33.48 109.04, 70.74 69.47, 129.39 2.5 M1.45 149.67 C27.39 119.54, 52.89 89.42, 129.39 2.5 M1.85 155.31 C45.59 106.97, 91.22 54.57, 135.03 2.1 M1.85 155.31 C54.21 94.74, 106.46 35.55, 135.03 2.1 M1.59 161.71 C35.99 125.02, 70.84 86.31, 140.02 2.46 M1.59 161.71 C38.34 120.04, 75.16 76.86, 140.02 2.46 M1.98 167.35 C47.58 114.22, 96.23 59.23, 145.66 2.07 M1.98 167.35 C37.92 125.33, 73.69 84.97, 145.66 2.07 M1.72 173.75 C56.05 113.54, 108.51 52.56, 150.65 2.43 M1.72 173.75 C39.17 130.91, 75.98 86.74, 150.65 2.43 M1.46 180.14 C42.19 136.12, 79.96 90.53, 156.29 2.03 M1.46 180.14 C60.35 112.63, 119.12 45.09, 156.29 2.03 M1.85 185.79 C35.1 142.5, 69.62 103.43, 161.28 2.39 M1.85 185.79 C65.06 115.12, 128.56 42.34, 161.28 2.39 M1.59 192.19 C39.53 147.76, 77.31 105.97, 166.92 2 M1.59 192.19 C46.21 140.38, 90.78 87.55, 166.92 2 M1.99 197.83 C51.8 140.3, 105.22 80.81, 171.91 2.36 M1.99 197.83 C48.52 146.03, 92.34 93.48, 171.91 2.36 M1.72 204.23 C46.53 154.83, 89.72 106.83, 176.89 2.72 M1.72 204.23 C71.55 124.8, 139.34 44.68, 176.89 2.72 M1.46 210.62 C59.22 146.34, 115.44 80.79, 182.54 2.32 M1.46 210.62 C71.35 128.92, 141.6 48.05, 182.54 2.32 M1.86 216.27 C63.7 143.09, 127.73 71, 187.52 2.68 M1.86 216.27 C66.43 142.16, 130.51 68.55, 187.52 2.68 M1.6 222.66 C40.58 174.88, 81.39 130.64, 193.17 2.29 M1.6 222.66 C49.03 166.7, 96.89 111.33, 193.17 2.29 M1.99 228.31 C78.86 140.06, 154.68 50.62, 198.15 2.65 M1.99 228.31 C54.1 165.06, 109.18 103.27, 198.15 2.65 M1.73 234.71 C42.56 188.99, 81.61 140.66, 203.8 2.26 M1.73 234.71 C58.91 171.35, 114.35 107.92, 203.8 2.26 M1.47 241.1 C72.82 161.18, 141.86 81.68, 208.78 2.62 M1.47 241.1 C59.91 173.95, 120.53 104.99, 208.78 2.62 M1.86 246.75 C77.07 162.66, 151.5 76.62, 214.43 2.22 M1.86 246.75 C51.61 187.31, 102.89 130.19, 214.43 2.22 M1.6 253.14 C78.87 164.06, 157.84 72.26, 219.41 2.58 M1.6 253.14 C51.64 192.64, 101.74 134.2, 219.41 2.58 M2 258.79 C82.37 165.74, 162.79 72.28, 225.06 2.19 M2 258.79 C62.21 190.45, 121.83 121.68, 225.06 2.19 M1.73 265.19 C69.96 187.78, 139.63 108.15, 230.04 2.55 M1.73 265.19 C74.79 181.02, 147.25 97.88, 230.04 2.55 M1.47 271.58 C50.51 215.61, 98.62 161.4, 235.69 2.15 M1.47 271.58 C57.47 206.78, 114.8 141.01, 235.69 2.15 M1.87 277.23 C61.94 210.13, 119.88 142.43, 240.67 2.51 M1.87 277.23 C70.99 196.72, 140.24 116.32, 240.67 2.51 M1.61 283.62 C71.56 203.15, 139.73 124.83, 245.66 2.87 M1.61 283.62 C95.93 173.37, 190.19 63.48, 245.66 2.87 M2 289.27 C81.69 197.06, 163.02 105.98, 250.65 3.23 M2 289.27 C65.23 216.9, 129.34 144.82, 250.65 3.23 M1.74 295.66 C65.89 220.91, 129.17 147.01, 254.98 4.35 M1.74 295.66 C75.49 211.88, 148 128.88, 254.98 4.35 M1.48 302.06 C85.38 205.56, 168.09 108.56, 259.97 4.71 M1.48 302.06 C67.73 222.96, 136.24 143.93, 259.97 4.71 M1.87 307.71 C63.58 237.62, 124.36 165.46, 262.98 7.33 M1.87 307.71 C67.42 230.15, 135.08 152.76, 262.98 7.33 M1.61 314.1 C74.67 229.62, 146.71 145.25, 266 9.96 M1.61 314.1 C85 217.61, 169.79 119.94, 266 9.96 M2.01 319.75 C104.63 202.8, 209.16 83.83, 268.37 13.33 M2.01 319.75 C104.97 201.09, 207.28 84.48, 268.37 13.33 M1.74 326.14 C75.9 242.95, 147.44 159.25, 270.73 16.71 M1.74 326.14 C100.84 210.81, 200.43 95.58, 270.73 16.71 M1.48 332.54 C87.96 235.78, 172.41 138.01, 273.09 20.09 M1.48 332.54 C78.34 243.47, 157.2 152.92, 273.09 20.09 M1.88 338.19 C66.91 261.7, 132.24 185.21, 273.49 25.74 M1.88 338.19 C90.58 238.16, 179.07 136.02, 273.49 25.74 M1.62 344.58 C76.67 258.96, 150.17 171.85, 273.22 32.13 M1.62 344.58 C99.07 235.18, 194.85 124.82, 273.22 32.13 M2.01 350.23 C105.27 232.82, 207.75 115.71, 272.96 38.53 M2.01 350.23 C64.75 278.86, 126.83 206.76, 272.96 38.53 M1.75 356.62 C106.87 235.32, 211.54 114.89, 272.7 44.93 M1.75 356.62 C85.58 260.28, 167.91 165.84, 272.7 44.93 M1.49 363.02 C86.13 266.03, 170.67 169.23, 273.1 50.57 M1.49 363.02 C81.48 269.38, 160.79 176.83, 273.1 50.57 M1.88 368.66 C57.06 305.2, 113.2 240.64, 272.83 56.97 M1.88 368.66 C59.04 300.66, 118.34 232.74, 272.83 56.97 M1.62 375.06 C87.79 274.1, 173.03 175.48, 273.23 62.61 M1.62 375.06 C74.94 292.75, 146.71 208.95, 273.23 62.61 M2.02 380.71 C95.85 273.21, 188.09 164.55, 272.97 69.01 M2.02 380.71 C90.16 279.85, 177.51 179.17, 272.97 69.01 M1.75 387.1 C96.24 280.99, 191.1 172.94, 272.71 75.41 M1.75 387.1 C68.86 311.21, 136.54 234.04, 272.71 75.41 M1.49 393.5 C72.26 313.75, 142.67 232.1, 273.1 81.05 M1.49 393.5 C107.79 272.24, 214.62 149.3, 273.1 81.05 M1.89 399.14 C105.38 281.15, 207.85 163.18, 272.84 87.45 M1.89 399.14 C80.58 308.93, 159.26 218.11, 272.84 87.45 M1.63 405.54 C71.74 323.21, 143.09 242.01, 273.23 93.09 M1.63 405.54 C100.11 291.71, 196.95 179.85, 273.23 93.09 M2.02 411.18 C65.96 333.27, 132.69 257.35, 272.97 99.49 M2.02 411.18 C109.54 285.66, 218.45 161.05, 272.97 99.49 M1.76 417.58 C86 321.36, 171.62 222.96, 272.71 105.89 M1.76 417.58 C81.62 325.43, 162.61 232.32, 272.71 105.89 M1.5 423.98 C66.42 349.24, 130.66 276.9, 273.11 111.53 M1.5 423.98 C89.86 322.02, 178.47 221.1, 273.11 111.53 M1.89 429.62 C62.82 357.97, 124.12 288.66, 272.84 117.93 M1.89 429.62 C67.21 355.54, 131.47 281.58, 272.84 117.93 M1.63 436.02 C76.28 348.87, 152.62 260.82, 273.24 123.57 M1.63 436.02 C104.37 319.1, 205.2 203, 273.24 123.57 M2.02 441.66 C70.47 362.72, 140.55 282.17, 272.98 129.97 M2.02 441.66 C97.66 331.58, 193.65 221.75, 272.98 129.97 M1.76 448.06 C101.82 331.69, 202.1 216.36, 272.72 136.37 M1.76 448.06 C106.19 326.54, 210.94 205.35, 272.72 136.37 M1.5 454.46 C87.02 355.5, 174.02 256.33, 273.11 142.01 M1.5 454.46 C101.3 338.11, 203.16 221.68, 273.11 142.01 M1.9 460.1 C95.65 354.15, 186.62 249.53, 272.85 148.41 M1.9 460.1 C104.39 341.41, 207.46 222.42, 272.85 148.41 M1.64 466.5 C99.94 353.48, 197.85 239.8, 273.24 154.05 M1.64 466.5 C103.01 349.64, 205.74 231.95, 273.24 154.05 M2.03 472.14 C73.17 387.92, 148.01 302.14, 272.98 160.45 M2.03 472.14 C83.03 377.72, 163.85 284.03, 272.98 160.45 M1.77 478.54 C58.35 412.83, 115.31 346.68, 272.72 166.85 M1.77 478.54 C104.2 356.58, 209.54 236.2, 272.72 166.85 M1.51 484.94 C83.49 390.79, 164.85 296.96, 273.12 172.49 M1.51 484.94 C69.33 406.43, 136.74 329.73, 273.12 172.49 M1.9 490.58 C87.57 392.77, 173.94 293, 272.85 178.89 M1.9 490.58 C106.88 369.98, 211.33 250.48, 272.85 178.89 M1.64 496.98 C59 432.26, 114.42 365.28, 273.25 184.53 M1.64 496.98 C75.73 410.95, 150.68 324.38, 273.25 184.53 M2.03 502.62 C108.3 381.86, 214.83 258.73, 272.99 190.93 M2.03 502.62 C81.22 411.85, 160.67 319.33, 272.99 190.93 M1.77 509.02 C66.58 431.91, 130.99 358.34, 272.73 197.33 M1.77 509.02 C107.79 385.75, 213.3 264.64, 272.73 197.33 M1.51 515.42 C110.08 392.22, 218.37 266.77, 273.12 202.97 M1.51 515.42 C108.61 392.83, 216.94 268.41, 273.12 202.97 M1.91 521.06 C75.6 434.33, 150.07 348.38, 272.86 209.37 M1.91 521.06 C94.9 416.39, 187.66 311.34, 272.86 209.37 M1.64 527.46 C94.33 420.33, 189.52 311.88, 273.25 215.01 M1.64 527.46 C86.73 429.36, 173.41 329.46, 273.25 215.01 M2.04 533.1 C71.38 456.31, 138.44 379.91, 272.99 221.41 M2.04 533.1 C62.28 463.52, 123.71 393.01, 272.99 221.41 M1.78 539.5 C80.31 449.14, 160.96 358.95, 272.73 227.81 M1.78 539.5 C65.23 464.27, 129.44 391.65, 272.73 227.81 M1.52 545.9 C95.57 438.27, 189.53 331.84, 273.12 233.45 M1.52 545.9 C84.21 450.99, 166.86 355.33, 273.12 233.45 M1.91 551.54 C96.56 441.74, 190.66 334.91, 272.86 239.85 M1.91 551.54 C75.86 464.63, 150.98 378.25, 272.86 239.85 M1.65 557.94 C58.07 496.38, 112.99 433.34, 273.26 245.49 M1.65 557.94 C103.55 441.45, 205.38 324.69, 273.26 245.49 M2.04 563.58 C75.45 477.56, 149.33 392.85, 273 251.89 M2.04 563.58 C88.3 464.46, 173.57 365.7, 273 251.89 M1.78 569.98 C83.72 476.47, 166.77 381.68, 272.74 258.29 M1.78 569.98 C107.16 448.76, 213.49 326.32, 272.74 258.29 M1.52 576.38 C77.9 489.18, 154.2 400.43, 273.13 263.93 M1.52 576.38 C106.51 455.73, 211.42 335.65, 273.13 263.93 M1.92 582.02 C107.08 461.68, 208.67 343.17, 272.87 270.33 M1.92 582.02 C71.44 502.84, 141 422.81, 272.87 270.33 M1.65 588.42 C64.88 515.86, 127.12 443.96, 273.26 275.97 M1.65 588.42 C72.83 507.81, 143.11 427.15, 273.26 275.97 M2.05 594.06 C61.98 524.84, 124.25 454.21, 273 282.37 M2.05 594.06 C62.84 524.36, 122.89 454.95, 273 282.37 M1.79 600.46 C65.14 529.12, 126 456.97, 272.74 288.76 M1.79 600.46 C73.69 519.03, 145.49 436.89, 272.74 288.76 M1.53 606.86 C74.8 524.71, 148.43 440.73, 273.13 294.41 M1.53 606.86 C79.3 517.42, 158.32 426.61, 273.13 294.41 M1.92 612.5 C66.73 540.35, 131.87 465.97, 272.87 300.81 M1.92 612.5 C76.88 525.03, 152.71 438.03, 272.87 300.81 M1.66 618.9 C109.21 493.92, 217.06 370.1, 273.27 306.45 M1.66 618.9 C58.57 551.97, 115.76 486.05, 273.27 306.45 M2.05 624.54 C74.51 541.92, 147.02 458.96, 273.01 312.85 M2.05 624.54 C93.42 521.55, 183.42 417.59, 273.01 312.85 M1.79 630.94 C96.52 521.96, 188.6 415.46, 272.74 319.24 M1.79 630.94 C78.68 538.78, 156.79 449.27, 272.74 319.24 M1.53 637.34 C103.53 518.78, 208.78 400.51, 273.14 324.89 M1.53 637.34 C56.52 574.3, 111.06 511.2, 273.14 324.89 M1.93 642.98 C81.87 548.83, 162.51 457.06, 272.88 331.29 M1.93 642.98 C103.88 524.53, 206.29 406.09, 272.88 331.29 M1.66 649.38 C79.84 559.13, 156.75 470.61, 273.27 336.93 M1.66 649.38 C59.62 585.02, 116.8 518.46, 273.27 336.93 M1.4 655.78 C80.82 563.41, 158.64 473.68, 273.01 343.33 M1.4 655.78 C75.46 567.76, 151.38 480.57, 273.01 343.33 M1.8 661.42 C91.38 557.04, 184.53 449.49, 272.75 349.72 M1.8 661.42 C67.43 585.31, 132.53 510.99, 272.75 349.72 M1.54 667.82 C60.28 603.61, 118.04 538.21, 273.14 355.37 M1.54 667.82 C96.16 560.4, 189.24 452.62, 273.14 355.37 M1.93 673.46 C97.01 560.15, 192.52 450.98, 272.88 361.76 M1.93 673.46 C89.09 575.53, 174.4 476.61, 272.88 361.76 M1.67 679.86 C108 557.95, 214.55 435.03, 273.28 367.41 M1.67 679.86 C77.94 595.28, 152.73 509.52, 273.28 367.41 M1.41 686.26 C109.46 560.95, 215.52 438.63, 273.02 373.81 M1.41 686.26 C61.09 619.33, 120.06 551.26, 273.02 373.81 M1.8 691.9 C62.36 625.97, 120.74 556.74, 272.75 380.2 M1.8 691.9 C90.86 590.64, 178.48 489.44, 272.75 380.2 M1.54 698.3 C103.4 585.23, 202.52 469.87, 273.15 385.85 M1.54 698.3 C72.4 616.6, 145.15 532.66, 273.15 385.85 M1.94 703.94 C89.52 604.21, 176.87 504.22, 272.89 392.24 M1.94 703.94 C81.73 613.13, 161.55 520.95, 272.89 392.24 M1.67 710.34 C63.98 639.31, 127.24 566.2, 273.28 397.89 M1.67 710.34 C96.83 601.72, 190.8 493.95, 273.28 397.89 M1.41 716.73 C110.59 594.72, 217.94 469.72, 273.02 404.28 M1.41 716.73 C92.91 610.79, 184.94 504.15, 273.02 404.28 M1.81 722.38 C108.95 598.77, 215.61 476.14, 272.76 410.68 M1.81 722.38 C79.79 635.1, 155.74 547.12, 272.76 410.68 M1.55 728.78 C101.62 613.25, 201.06 499.34, 273.15 416.33 M1.55 728.78 C101.11 615.35, 198.88 502.37, 273.15 416.33 M0.63 735.93 C88.36 635.9, 177.72 533.81, 272.89 422.72 M0.63 735.93 C70.81 655.51, 138.79 576.48, 272.89 422.72 M1.68 740.82 C64.85 670.63, 128.21 598.28, 273.29 428.37 M1.68 740.82 C57.32 675.45, 114.84 608.69, 273.29 428.37 M2.07 746.46 C90.4 644.7, 179.25 545.52, 273.03 434.76 M2.07 746.46 C106.32 626.24, 210.08 507.68, 273.03 434.76 M3.78 750.59 C58.75 684.88, 115.98 619.02, 272.76 441.16 M3.78 750.59 C79.95 660.22, 158.01 570.24, 272.76 441.16 M5.49 754.73 C102.28 644.04, 198.05 534.57, 273.16 446.81 M5.49 754.73 C97.79 648.35, 191.74 541.06, 273.16 446.81 M7.85 758.11 C115.02 637.35, 219.58 516.11, 272.9 453.2 M7.85 758.11 C102.32 648.88, 195.88 542.2, 272.9 453.2 M10.87 760.73 C72.53 690.2, 133.63 618.06, 273.29 458.85 M10.87 760.73 C111.53 645.28, 211.92 530.04, 273.29 458.85 M13.89 763.35 C98.88 663.5, 183.68 566.46, 273.03 465.24 M13.89 763.35 C92.02 672.45, 169.76 582.36, 273.03 465.24 M17.56 765.22 C72.62 700.4, 128.58 638.59, 272.77 471.64 M17.56 765.22 C85.19 690.22, 150.62 615.33, 272.77 471.64 M21.89 766.34 C119.91 655.15, 216.56 543.33, 273.16 477.28 M21.89 766.34 C118.83 653.97, 215.57 542.22, 273.16 477.28 M26.22 767.45 C77.39 707.06, 130.54 647.97, 272.9 483.68 M26.22 767.45 C101.16 680.94, 176.71 594.25, 272.9 483.68 M31.21 767.81 C82.8 708.58, 133.12 651.21, 273.3 489.33 M31.21 767.81 C83.6 707.17, 135.03 648.59, 273.3 489.33 M34.89 769.68 C125.02 667.16, 214.74 562.4, 273.04 495.72 M34.89 769.68 C131.05 660.27, 225.66 550.75, 273.04 495.72 M40.53 769.29 C104.09 696.38, 168.83 623.4, 272.77 502.12 M40.53 769.29 C118.14 680.25, 195.2 591.48, 272.77 502.12 M45.52 769.65 C118.3 685.98, 193.4 599.44, 273.17 507.76 M45.52 769.65 C128.62 673.7, 211.24 577.79, 273.17 507.76 M51.16 769.25 C123.5 689.12, 193.59 604.9, 272.91 514.16 M51.16 769.25 C104.67 706.9, 158.21 645.05, 272.91 514.16 M56.15 769.61 C124.89 690.09, 194.35 608.32, 273.3 519.81 M56.15 769.61 C140.59 672.53, 223.74 576.69, 273.3 519.81 M61.79 769.22 C134.18 686.24, 204.94 604.34, 273.04 526.2 M61.79 769.22 C103.56 719.3, 146.17 670.85, 273.04 526.2 M66.78 769.58 C123.01 706.89, 177.31 643.31, 272.78 532.6 M66.78 769.58 C144.36 678.03, 224.25 586.28, 272.78 532.6 M71.76 769.94 C141.84 688.55, 216.22 603.04, 273.17 538.24 M71.76 769.94 C114.47 720.48, 155.6 670.91, 273.17 538.24 M77.41 769.55 C144.55 693.32, 209.19 621.62, 272.91 544.64 M77.41 769.55 C125.16 716.09, 171.47 662.34, 272.91 544.64 M82.39 769.91 C133.57 712.94, 182.23 653.22, 273.31 550.28 M82.39 769.91 C125.53 721.85, 168.62 674.42, 273.31 550.28 M88.04 769.51 C146.47 701.27, 204.03 631.98, 273.04 556.68 M88.04 769.51 C159.57 687.72, 230.13 606.66, 273.04 556.68 M93.02 769.87 C165.73 687.6, 236.79 604.93, 272.78 563.08 M93.02 769.87 C154.24 700.97, 214.27 631.38, 272.78 563.08 M98.67 769.48 C149.79 710.88, 200.66 652.79, 273.18 568.72 M98.67 769.48 C165.83 693.86, 231.88 617.7, 273.18 568.72 M103.65 769.84 C162.83 705.14, 220.53 637.2, 272.92 575.12 M103.65 769.84 C138.98 729.96, 174.17 690.54, 272.92 575.12 M109.3 769.44 C165.38 702.35, 224.05 638.49, 272.66 581.52 M109.3 769.44 C172.6 700.74, 232.46 630.82, 272.66 581.52 M114.28 769.8 C163.89 710.89, 214.34 653.3, 273.05 587.16 M114.28 769.8 C152.26 725.37, 189.7 682.59, 273.05 587.16 M119.93 769.41 C159.08 722.41, 202.74 672.24, 272.79 593.56 M119.93 769.41 C155.72 726.89, 192.2 687.75, 272.79 593.56 M124.91 769.77 C159 730.39, 191.84 691.46, 273.18 599.2 M124.91 769.77 C180.96 705.33, 237.97 642.18, 273.18 599.2 M130.56 769.37 C166.95 725.72, 205.84 683.77, 272.92 605.6 M130.56 769.37 C184.68 707.62, 239.31 645.25, 272.92 605.6 M135.54 769.73 C163.94 737.82, 191.75 702.94, 272.66 612 M135.54 769.73 C179.62 717.1, 226.04 663.95, 272.66 612 M141.19 769.34 C191.42 710.79, 240.24 656.06, 273.05 617.64 M141.19 769.34 C167.38 739.09, 194.33 709.06, 273.05 617.64 M146.17 769.7 C174.44 737.9, 205.15 705.17, 272.79 624.04 M146.17 769.7 C188.98 719.19, 233.66 668.59, 272.79 624.04 M151.82 769.3 C191.38 726.63, 227.7 680.51, 273.19 629.68 M151.82 769.3 C176.89 738.46, 205.57 708.52, 273.19 629.68 M156.8 769.66 C194.6 723.38, 236.92 678.68, 272.93 636.08 M156.8 769.66 C184.15 738.85, 211.2 706.21, 272.93 636.08 M162.45 769.27 C190.76 737.13, 217.7 703.87, 272.66 642.48 M162.45 769.27 C198.42 728.28, 232.92 688.25, 272.66 642.48 M167.43 769.63 C188.28 743.37, 209.49 719.07, 273.06 648.12 M167.43 769.63 C203.09 728.1, 240.89 686.41, 273.06 648.12 M173.08 769.23 C191.43 744.35, 212.16 724.12, 272.8 654.52 M173.08 769.23 C204.41 732.29, 234.31 697.51, 272.8 654.52 M178.06 769.59 C214.18 726.44, 254.23 681.46, 273.19 660.16 M178.06 769.59 C213.22 728.76, 249.61 686.78, 273.19 660.16 M183.05 769.95 C202.92 746.36, 220.22 726.91, 272.93 666.56 M183.05 769.95 C216.65 728.44, 253.26 687.67, 272.93 666.56 M188.69 769.56 C209.29 745.69, 232.84 719.54, 272.67 672.96 M188.69 769.56 C221.94 732.48, 254.15 694.64, 272.67 672.96 M193.68 769.92 C209.02 749.63, 226.74 731.09, 273.06 678.6 M193.68 769.92 C216.4 744.46, 237.21 719.99, 273.06 678.6 M199.32 769.53 C216.9 749.14, 237.48 726.08, 272.8 685 M199.32 769.53 C227.34 737.14, 254.81 705.43, 272.8 685 M204.31 769.89 C226.61 742.91, 247.04 717.18, 273.2 690.64 M204.31 769.89 C221.03 749.78, 237.64 729.93, 273.2 690.64 M209.95 769.49 C225.83 751.22, 244.09 730.15, 272.94 697.04 M209.95 769.49 C227.74 748.13, 246.11 728.68, 272.94 697.04 M214.94 769.85 C236.54 741.6, 260.84 716.06, 272.67 703.44 M214.94 769.85 C234.38 748.7, 251.86 726.55, 272.67 703.44 M220.58 769.46 C233.67 755.13, 245.02 744.7, 273.07 709.08 M220.58 769.46 C231.71 756.4, 244.96 741.92, 273.07 709.08 M225.57 769.82 C238.19 753.95, 249.6 738.52, 272.81 715.48 M225.57 769.82 C240.77 752.66, 253.18 736.35, 272.81 715.48 M231.21 769.42 C244.16 756.01, 256.01 739.44, 273.2 721.12 M231.21 769.42 C242.81 757.81, 252.86 744.85, 273.2 721.12 M236.2 769.78 C245.13 759.9, 254.7 746.14, 272.94 727.52 M236.2 769.78 C247.7 756.92, 257.86 744.64, 272.94 727.52 M242.5 768.63 C252.42 754.85, 264.96 744.08, 272.68 733.92 M242.5 768.63 C254.06 755.3, 264.49 743.23, 272.68 733.92 M248.8 767.48 C257.51 756.08, 266.05 746.47, 275.04 737.3 M248.8 767.48 C258.71 755.93, 267.67 745.41, 275.04 737.3 M255.75 765.58 C261.16 761.22, 264.49 754.36, 274.12 744.45 M255.75 765.58 C260.83 758.87, 268.65 750.72, 274.12 744.45" stroke="#ced4da" stroke-width="0.5" fill="none"></path><path d="M32 0 M32 0 C91.61 -0.45, 153.69 1.38, 240.51 0 M32 0 C111.54 -0.3, 190.76 -0.61, 240.51 0 M240.51 0 C262.25 0.61, 273 12.25, 272.51 32 M240.51 0 C263.66 1.92, 272.55 9.08, 272.51 32 M272.51 32 C274.6 294.32, 274.99 558.61, 272.51 735 M272.51 32 C272.49 290.02, 272.39 547.31, 272.51 735 M272.51 735 C273.96 757.74, 261.5 768.77, 240.51 767 M272.51 735 C273.35 757.95, 263.52 767.74, 240.51 767 M240.51 767 C159.4 765.6, 75.83 764.97, 32 767 M240.51 767 C166.51 766.39, 93.88 767.8, 32 767 M32 767 C11.03 766.56, -0.79 756.45, 0 735 M32 767 C12.53 765.04, -1.4 755.18, 0 735 M0 735 C1.68 550.5, 1.85 366.78, 0 32 M0 735 C2.67 533.57, 2.79 332.66, 0 32 M0 32 C1.71 8.92, 11.36 1.86, 32 0 M0 32 C0.82 12.56, 12.3 1.21, 32 0" stroke="#1e1e1e" stroke-width="1" fill="none"></path></g><g transform="translate(45.83334209514567 758.7341267203692) rotate(0 100.47754669189453 5.872992738890787)"><text x="0" y="0" font-family="Virgil, Segoe UI Emoji" font-size="9.396788382225226px" fill="#2f9e44" text-anchor="start" style="white-space: pre;" direction="ltr" dominant-baseline="text-before-edge">@copyright- todos los derechos reservados.</text></g><g stroke-linecap="round"><g transform="translate(266.8795291447758 748) rotate(0 -120.56864035773555 0.570113958674483)"><path d="M0.68 1.05 C-39.41 0.88, -200.85 0.17, -241.26 0.05 M-0.42 0.56 C-40.54 1.03, -201.49 0.97, -241.82 1.09" stroke="#2f9e44" stroke-width="1" fill="none"></path></g></g><mask></mask><g stroke-linecap="round" transform="translate(100.93395836977572 712.5425887601334) rotate(0 12 10.5)"><path d="M0.34 2.94 C0.34 2.94, 0.34 2.94, 0.34 2.94 M0.34 2.94 C0.34 2.94, 0.34 2.94, 0.34 2.94 M0.08 9.34 C2.7 7.03, 4.63 3.8, 6.64 1.79 M0.08 9.34 C2.42 6.83, 3.82 4.74, 6.64 1.79 M-0.19 15.74 C1.89 10.68, 7.3 8.64, 12.28 1.4 M-0.19 15.74 C3.37 9.73, 8.69 5.62, 12.28 1.4 M1.52 19.87 C6.89 16.42, 10.32 10.21, 18.58 0.25 M1.52 19.87 C8.05 12.02, 14.92 4.32, 18.58 0.25 M5.85 20.99 C12.35 12.39, 18.72 7.01, 22.91 1.36 M5.85 20.99 C12.13 12.62, 18.08 6.08, 22.91 1.36 M10.84 21.35 C13.62 15.83, 19.81 12.77, 24.62 5.5 M10.84 21.35 C14.2 16.1, 17.91 12.81, 24.62 5.5 M16.48 20.95 C18.97 20.06, 20.39 17.43, 23.7 12.65 M16.48 20.95 C18.77 18.25, 20.97 16.06, 23.7 12.65" stroke="#1971c2" stroke-width="0.5" fill="none"></path><path d="M5.25 0 M5.25 0 C10.85 0.17, 15.16 1.41, 18.75 0 M5.25 0 C10.17 0.41, 16.56 0.46, 18.75 0 M18.75 0 C23.01 -1.86, 25.99 1.68, 24 5.25 M18.75 0 C21.56 -0.5, 24.7 0.4, 24 5.25 M24 5.25 C24.91 8.25, 24.84 12.18, 24 15.75 M24 5.25 C24.06 8.86, 23.9 12.87, 24 15.75 M24 15.75 C24.4 20.11, 22.12 19.97, 18.75 21 M24 15.75 C24.35 17.63, 22.15 20.94, 18.75 21 M18.75 21 C16.51 21.65, 12.7 20.29, 5.25 21 M18.75 21 C15.4 21.49, 12.52 20.67, 5.25 21 M5.25 21 C0.93 20.26, 0.57 17.4, 0 15.75 M5.25 21 C3.94 19.9, 2.25 17.63, 0 15.75 M0 15.75 C-0.67 13.7, 0.65 10.07, 0 5.25 M0 15.75 C-0.53 13.86, 0.01 11.26, 0 5.25 M0 5.25 C-0.1 2.98, 2.71 0.32, 5.25 0 M0 5.25 C1.3 2.57, 3.76 1.72, 5.25 0" stroke="#1971c2" stroke-width="1" fill="none"></path></g><g stroke-linecap="round" transform="translate(169.68781920430456 712.4574112398665) rotate(0 11 11)"><path d="M0.42 3.01 C0.42 3.01, 0.42 3.01, 0.42 3.01 M0.42 3.01 C0.42 3.01, 0.42 3.01, 0.42 3.01 M0.15 9.41 C2.64 6.01, 4.84 2.98, 7.37 1.11 M0.15 9.41 C2.26 8.08, 3.84 6, 7.37 1.11 M-0.11 15.81 C4.3 11.49, 6.46 9.18, 11.7 2.22 M-0.11 15.81 C4.57 9.81, 9.6 4.08, 11.7 2.22 M2.91 18.43 C5.68 13.05, 13.39 8.81, 16.69 2.58 M2.91 18.43 C5.81 14.8, 8.98 9.56, 16.69 2.58 M3.96 23.32 C11.96 16.66, 14.94 10.22, 21.68 2.94 M3.96 23.32 C7.45 18.21, 11.91 14.46, 21.68 2.94 M8.95 23.68 C14.32 19.15, 16.17 16.06, 23.38 7.08 M8.95 23.68 C14.84 17.97, 19.76 11.43, 23.38 7.08 M13.94 24.04 C16.26 21.9, 17.2 18.42, 23.12 13.47 M13.94 24.04 C16.84 20.87, 19.87 17.72, 23.12 13.47" stroke="#e03131" stroke-width="0.5" fill="none"></path><path d="M5.5 0 M5.5 0 C8.52 0.71, 11.13 -1.08, 16.5 0 M5.5 0 C9.61 -0.4, 12.87 -0.24, 16.5 0 M16.5 0 C18.73 -1.12, 20.77 1.34, 22 5.5 M16.5 0 C22.47 -0.61, 22.8 2.68, 22 5.5 M22 5.5 C21.68 9, 21.71 13.28, 22 16.5 M22 5.5 C21.83 9.5, 22.17 13.71, 22 16.5 M22 16.5 C23.66 22.04, 18.31 21.56, 16.5 22 M22 16.5 C23.57 20.54, 20.58 20.34, 16.5 22 M16.5 22 C13.08 22.63, 9.97 22.57, 5.5 22 M16.5 22 C12.73 21.57, 10.3 22.09, 5.5 22 M5.5 22 C3.66 20.21, 0.57 20.28, 0 16.5 M5.5 22 C4.11 21.59, 1.88 22.05, 0 16.5 M0 16.5 C0.48 12.28, -0.89 8.6, 0 5.5 M0 16.5 C-0.2 14.21, 0.12 10.68, 0 5.5 M0 5.5 C1.3 1.18, 2.2 1.57, 5.5 0 M0 5.5 C0.24 2.73, 2.94 -2.01, 5.5 0" stroke="#c2255c" stroke-width="1" fill="none"></path></g><g stroke-linecap="round" transform="translate(136.18949093057643 712.0851775202669) rotate(0 11 11)"><path d="M0.42 3.01 C0.42 3.01, 0.42 3.01, 0.42 3.01 M0.42 3.01 C0.42 3.01, 0.42 3.01, 0.42 3.01 M0.15 9.41 C2.1 7, 4.9 5.14, 7.37 1.11 M0.15 9.41 C1.54 7.79, 3.5 5.7, 7.37 1.11 M-0.11 15.81 C0.69 12.36, 4.86 11.85, 11.7 2.22 M-0.11 15.81 C3.74 10.89, 7.86 7.77, 11.7 2.22 M2.91 18.43 C7.27 11.92, 13.29 6.83, 16.69 2.58 M2.91 18.43 C6.62 13.61, 12.01 8.06, 16.69 2.58 M3.96 23.32 C10.15 15.52, 14.92 12.52, 21.68 2.94 M3.96 23.32 C8.21 17.91, 11.8 13.81, 21.68 2.94 M8.95 23.68 C14.7 18.26, 19.63 13.09, 23.38 7.08 M8.95 23.68 C12.31 19.23, 15.29 15.77, 23.38 7.08 M13.94 24.04 C17.78 21.03, 19.79 18.75, 23.12 13.47 M13.94 24.04 C16.39 21.42, 20.37 16.79, 23.12 13.47" stroke="#343a40" stroke-width="0.5" fill="none"></path><path d="M5.5 0 M5.5 0 C8.26 0.97, 10.98 0.37, 16.5 0 M5.5 0 C9.98 0.26, 14.3 -0.43, 16.5 0 M16.5 0 C20.69 -1.74, 22.81 0.01, 22 5.5 M16.5 0 C18.27 0.45, 23.87 2.45, 22 5.5 M22 5.5 C22.99 7.93, 22.23 13.09, 22 16.5 M22 5.5 C22.12 8.4, 21.68 12.14, 22 16.5 M22 16.5 C23.97 20.46, 22.12 23.82, 16.5 22 M22 16.5 C20.2 18.38, 20.53 22.41, 16.5 22 M16.5 22 C12.91 22.45, 10.73 22.82, 5.5 22 M16.5 22 C12.29 21.62, 7.67 22.23, 5.5 22 M5.5 22 C0.13 20.59, -0.36 21.58, 0 16.5 M5.5 22 C1.3 20.06, 1.51 20.22, 0 16.5 M0 16.5 C0.76 11.74, 0.58 9.14, 0 5.5 M0 16.5 C-0.06 12.09, -0.46 8.64, 0 5.5 M0 5.5 C0.47 1.8, 3.61 1.83, 5.5 0 M0 5.5 C0.57 2.91, 2.29 -1.6, 5.5 0" stroke="#1e1e1e" stroke-width="1" fill="none"></path></g><g transform="translate(105.3913696096422 715.2984469047593) rotate(0 8.88092041015625 7.993365307753834)"><text x="0" y="0" font-family="Helvetica, Segoe UI Emoji" font-size="13.901504883050114px" fill="#1e1e1e" text-anchor="start" style="white-space: pre;" direction="ltr" dominant-baseline="text-before-edge">FB</text></g><g transform="translate(173.4859405252388 713.4482959346194) rotate(0 7.986091613769531 8.699999999999989)"><text x="0" y="0" font-family="Helvetica, Segoe UI Emoji" font-size="15.130434782608685px" fill="#1e1e1e" text-anchor="start" style="white-space: pre;" direction="ltr" dominant-baseline="text-before-edge">IG</text></g><g transform="translate(141.10431341030937 712.0000000000001) rotate(0 5.912879943847656 10.200000000000045)"><text x="0" y="0" font-family="Helvetica, Segoe UI Emoji" font-size="17.739130434782655px" fill="#1e1e1e" text-anchor="start" style="white-space: pre;" direction="ltr" dominant-baseline="text-before-edge">X</text></g><g transform="translate(32.37866158183556 122) rotate(0 48.51995849609375 12.5)"><text x="0" y="0" font-family="Virgil, Segoe UI Emoji" font-size="20px" fill="#1e1e1e" text-anchor="start" style="white-space: pre;" direction="ltr" dominant-baseline="text-before-edge">Mi carrito</text></g><g stroke-opacity="0" fill-opacity="0" stroke-linecap="round" transform="translate(10 169.62133841816444) rotate(0 36.12740216282714 36.12740216282711)"><path d="M44.73 0.8 C51.19 1.96, 59.48 7.35, 63.92 12.83 C68.36 18.31, 71 26.53, 71.36 33.67 C71.73 40.81, 69.96 49.49, 66.12 55.67 C62.28 61.85, 54.82 68.23, 48.3 70.73 C41.79 73.23, 33.64 72.7, 27.01 70.68 C20.38 68.66, 13.05 64.01, 8.51 58.61 C3.97 53.21, 0.12 45.45, -0.22 38.29 C-0.55 31.13, 2.69 21.53, 6.5 15.65 C10.3 9.77, 15.72 5.34, 22.6 3.01 C29.48 0.69, 43.54 1.83, 47.79 1.71 C52.03 1.6, 48.2 1.71, 48.06 2.33 M20.47 3.63 C26.36 0.62, 35.92 -0.51, 43.09 0.89 C50.27 2.3, 58.87 6.78, 63.52 12.05 C68.17 17.32, 70.47 25.73, 70.98 32.49 C71.49 39.25, 69.82 46.7, 66.59 52.6 C63.36 58.49, 57.93 64.76, 51.58 67.86 C45.24 70.96, 35.49 72.63, 28.52 71.19 C21.56 69.75, 14.35 64.45, 9.79 59.22 C5.24 53.99, 2.16 46.42, 1.21 39.8 C0.25 33.19, 0.65 25.86, 4.06 19.54 C7.47 13.23, 18.68 4.61, 21.67 1.92 C24.66 -0.77, 21.74 2.49, 22.01 3.4" stroke="#1e1e1e" stroke-width="1" fill="none"></path></g><g stroke-linecap="round"><g transform="translate(30.889508191513812 187.04365643547033) rotate(0 16.185256481907032 9.220309946361539)"><path d="M0.62 0.91 C0.46 4.27, -0.64 15.49, -0.12 19.13 C0.39 22.78, -0.76 22.28, 3.7 22.76 C8.15 23.24, 22.08 22.59, 26.62 22.01 C31.15 21.43, 30.13 23.05, 30.91 19.27 C31.7 15.49, 31.82 3.22, 31.32 -0.66 C30.81 -4.54, 32.32 -3.52, 27.9 -4.02 C23.48 -4.53, 9.51 -4.32, 4.8 -3.71 C0.08 -3.09, 0.36 -1.09, -0.41 -0.33 M-0.51 0.35 C-0.89 3.92, -1.57 16.33, -1.03 20.27 C-0.5 24.2, -1.92 23.56, 2.68 23.94 C7.28 24.33, 21.54 23.34, 26.56 22.59 C31.59 21.84, 31.79 22.96, 32.81 19.43 C33.84 15.9, 33.93 5.53, 32.7 1.41 C31.48 -2.71, 30.32 -4.42, 25.46 -5.29 C20.59 -6.16, 7.55 -4.98, 3.54 -3.8 C-0.48 -2.62, 1.78 1, 1.37 1.78" stroke="#1e1e1e" stroke-width="1" fill="none"></path></g></g><mask></mask><g stroke-linecap="round"><g transform="translate(30.598198954540692 205.00772604881035) rotate(0 15.128169699679432 -3.7984929875451314)"><path d="M0.07 -0.77 C2.2 -2.42, 10.21 -8.44, 13.41 -8.99 C16.6 -9.55, 17.61 -4.34, 19.24 -4.11 C20.86 -3.88, 21.08 -7.93, 23.14 -7.63 C25.21 -7.33, 30.01 -3.39, 31.61 -2.31 M-1.35 1.44 C0.53 -0.11, 8.95 -6.8, 12.21 -7.59 C15.46 -8.38, 16.36 -3.46, 18.17 -3.32 C19.99 -3.18, 21.11 -6.9, 23.1 -6.75 C25.09 -6.61, 28.78 -3.25, 30.11 -2.47" stroke="#1e1e1e" stroke-width="1" fill="none"></path></g></g><mask></mask><g stroke-linecap="round" transform="translate(50.3101239897195 187.72337798840744) rotate(0 2.1362677378026262 2.1362677378026262)"><path d="M1.26 0.02 C1.67 0.12, 1.72 0.99, 2.21 1.14 C2.7 1.28, 3.82 0.7, 4.22 0.91 C4.61 1.12, 4.77 1.87, 4.58 2.4 C4.38 2.93, 3.37 3.92, 3.05 4.08 C2.72 4.24, 3.12 3.35, 2.63 3.37 C2.14 3.39, 0.46 4.37, 0.11 4.18 C-0.24 3.99, 0.62 2.91, 0.54 2.23 C0.46 1.55, -0.72 0.44, -0.37 0.12 C-0.01 -0.21, 2.41 0.31, 2.67 0.29 C2.93 0.27, 1.47 0.08, 1.21 -0.02 M3.13 0.29 C3.45 0.36, 2.64 1.01, 2.67 1.07 C2.71 1.13, 3.05 0.46, 3.33 0.66 C3.61 0.86, 4.55 1.73, 4.37 2.27 C4.19 2.81, 2.74 3.82, 2.26 3.9 C1.79 3.98, 1.68 2.98, 1.5 2.77 C1.31 2.55, 1.48 2.61, 1.14 2.61 C0.8 2.61, -0.61 3.35, -0.56 2.76 C-0.51 2.16, 0.87 -0.43, 1.45 -0.97 C2.03 -1.5, 2.66 -0.77, 2.92 -0.46 C3.19 -0.15, 3.16 0.88, 3.06 0.91" stroke="#1e1e1e" stroke-width="1" fill="none"></path></g><g transform="translate(28.234221315659 214.08225090664928) rotate(0 17.893180847167997 7.735575205030926)"><text x="17.89318084716797" y="0" font-family="Virgil, Segoe UI Emoji" font-size="12.37692032804948px" fill="#1e1e1e" text-anchor="middle" style="white-space: pre;" direction="ltr" dominant-baseline="text-before-edge">Image</text></g><g transform="translate(77.65341321200265 181.57879877662378) rotate(0 37.007179260253906 10.50867034972515)"><text x="0" y="0" font-family="Virgil, Segoe UI Emoji" font-size="16.813872559560245px" fill="#1e1e1e" text-anchor="start" style="white-space: pre;" direction="ltr" dominant-baseline="text-before-edge">Producto</text></g><g transform="translate(78.70428024697503 204.69787354601903) rotate(0 20.82703399658203 6.083067706504039)"><text x="0" y="0" font-family="Virgil, Segoe UI Emoji" font-size="9.73290833040646px" fill="#1e1e1e" text-anchor="start" style="white-space: pre;" direction="ltr" dominant-baseline="text-before-edge">$ 4.000</text></g><g stroke-linecap="round" transform="translate(80.3776266470669 243.79338689323697) rotate(0 27.906981048915156 14.256827274989263)"><path d="M7.13 0 M7.13 0 C24.62 1.74, 38.52 -1.01, 48.69 0 M7.13 0 C22.12 -1.01, 37.59 0.22, 48.69 0 M48.69 0 C52.55 -0.89, 57.15 1.06, 55.81 7.13 M48.69 0 C53.67 -1.5, 55.98 3.16, 55.81 7.13 M55.81 7.13 C54.67 10.2, 55.64 13.03, 55.81 21.39 M55.81 7.13 C55.47 11.69, 55.29 17.56, 55.81 21.39 M55.81 21.39 C56.93 27.95, 52.26 26.75, 48.69 28.51 M55.81 21.39 C55.28 25.81, 54.12 27.52, 48.69 28.51 M48.69 28.51 C36.97 29.48, 25.37 30.28, 7.13 28.51 M48.69 28.51 C33.49 28.79, 16.51 28.52, 7.13 28.51 M7.13 28.51 C0.5 27.46, -0.06 24.37, 0 21.39 M7.13 28.51 C4.05 28.11, -0.71 27.22, 0 21.39 M0 21.39 C0.66 19.19, -1 14.69, 0 7.13 M0 21.39 C-0.77 16.64, -0.52 11.97, 0 7.13 M0 7.13 C0.06 3.5, 3.8 0.79, 7.13 0 M0 7.13 C1.08 3.06, 3.8 0.75, 7.13 0" stroke="#1e1e1e" stroke-width="1" fill="none"></path></g><g transform="translate(119.20473071512288 244.98716378242625) rotate(0 7.884368896484375 15.773511027647686)"><text x="0" y="0" font-family="Virgil, Segoe UI Emoji" font-size="25.23761764423631px" fill="#1e1e1e" text-anchor="start" style="white-space: pre;" direction="ltr" dominant-baseline="text-before-edge">+</text></g><g transform="translate(84.6243411545106 246.8071842856163) rotate(0 4.4881134033203125 13.650153773925894)"><text x="0" y="0" font-family="Virgil, Segoe UI Emoji" font-size="21.84024603828141px" fill="#1e1e1e" text-anchor="start" style="white-space: pre;" direction="ltr" dominant-baseline="text-before-edge">-</text></g><g transform="translate(105.9828892105445 251.9443389317173) rotate(0 2.3007888793945312 10.616786268609019)"><text x="0" y="0" font-family="Virgil, Segoe UI Emoji" font-size="16.98685802977444px" fill="#1e1e1e" text-anchor="start" style="white-space: pre;" direction="ltr" dominant-baseline="text-before-edge">1</text></g><g transform="translate(195.3476324759655 253.8436341677703) rotate(0 32.51416015625 9.496250728612296)"><text x="0" y="0" font-family="Virgil, Segoe UI Emoji" font-size="15.194001165779659px" fill="#1e1e1e" text-anchor="start" style="white-space: pre;" direction="ltr" dominant-baseline="text-before-edge">$ 4.000</text></g><g transform="translate(244.7186596707851 183.92210344768068) rotate(0 6.6138763427734375 13.82663713331084)"><text x="0" y="0" font-family="Virgil, Segoe UI Emoji" font-size="22.122619413297347px" fill="#e03131" text-anchor="start" style="white-space: pre;" direction="ltr" dominant-baseline="text-before-edge">X</text></g><g stroke-linecap="round"><g transform="translate(23.163013187395677 156.59157058187284) rotate(0 123.14787559964446 0.2409740523199133)"><path d="M-1 -0.88 C40.1 -1.12, 206.16 -0.52, 247.3 -0.41 M0.67 1.27 C41.65 1.73, 206.25 0.96, 246.96 0.92" stroke="#1e1e1e" stroke-width="1" fill="none"></path></g></g><mask></mask><g transform="translate(33.37866158183556 352.2311723845969) rotate(0 40.678367614746094 11.202953205101068)"><text x="0" y="0" font-family="Virgil, Segoe UI Emoji" font-size="17.924725128161707px" fill="#1e1e1e" text-anchor="start" style="white-space: pre;" direction="ltr" dominant-baseline="text-before-edge">Subtotal:</text></g><g transform="translate(196.15123888689618 354.29498623679444) rotate(0 31.294082641601562 9.13913935290347)"><text x="0" y="0" font-family="Virgil, Segoe UI Emoji" font-size="14.622622964645561px" fill="#1e1e1e" text-anchor="start" style="white-space: pre;" direction="ltr" dominant-baseline="text-before-edge">$ 4.000</text></g><g transform="translate(33.37866158183556 467.5) rotate(0 30.949974060058594 12.5)"><text x="0" y="0" font-family="Virgil, Segoe UI Emoji" font-size="20px" fill="#1e1e1e" text-anchor="start" style="white-space: pre;" direction="ltr" dominant-baseline="text-before-edge">Total:</text></g><g transform="translate(173.13068337138623 467.5) rotate(0 42.80998229980469 12.5)"><text x="0" y="0" font-family="Virgil, Segoe UI Emoji" font-size="20px" fill="#1e1e1e" text-anchor="start" style="white-space: pre;" direction="ltr" dominant-baseline="text-before-edge">$ 4.000</text></g><g stroke-linecap="round" transform="translate(33.37866158183556 533) rotate(0 115.5 24.092024539877286)"><path d="M13.06 1.9 L223.34 -1.51 L228.12 3.14 L229.6 5.44 L230.09 39.96 L229.11 45.13 L227.98 44.96 L220.76 48.71 L7.8 46.5 L6.24 45.79 L1.51 41.89 L0.41 12.81 L3.27 1.56 L13.15 -1.58" stroke="none" stroke-width="0" fill="#a5d8ff"></path><path d="M12.05 0 M12.05 0 C57.75 1.89, 103.66 1.19, 218.95 0 M12.05 0 C54.79 0.43, 98.01 -0.5, 218.95 0 M218.95 0 C226.12 1.66, 229.62 5.89, 231 12.05 M218.95 0 C227.76 -0.74, 232.12 3.5, 231 12.05 M231 12.05 C232.34 16.59, 231.71 23.95, 231 36.14 M231 12.05 C231.67 18.77, 231.07 24.06, 231 36.14 M231 36.14 C230.3 42.67, 227.54 46.6, 218.95 48.18 M231 36.14 C232.96 46.06, 225.6 49.38, 218.95 48.18 M218.95 48.18 C163.09 49.26, 105.13 48.69, 12.05 48.18 M218.95 48.18 C173.21 46.89, 129.71 46.84, 12.05 48.18 M12.05 48.18 C4.51 47.49, 0.44 45.63, 0 36.14 M12.05 48.18 C5.25 46.78, 0.33 41.87, 0 36.14 M0 36.14 C-0.64 27.48, 0.98 20.83, 0 12.05 M0 36.14 C-0.25 29.34, 0.84 21.15, 0 12.05 M0 12.05 C-1.7 3.33, 2.36 -0.48, 12.05 0 M0 12.05 C-0.21 4.05, 3.97 -0.03, 12.05 0" stroke="#1e1e1e" stroke-width="1" fill="none"></path></g><g transform="translate(59.80058750687391 542.920245398773) rotate(0 89.05902862548831 14.17177914110431)"><text x="0" y="0" font-family="Virgil, Segoe UI Emoji" font-size="22.67484662576687px" fill="#1e1e1e" text-anchor="start" style="white-space: pre;" direction="ltr" dominant-baseline="text-before-edge">Finalizar compra</text></g><g stroke-linecap="round"><g transform="translate(232.7476833458967 51.17821262672544) rotate(0 15.852660949155734 1.045842611640694)"><path d="M-0.57 0.69 C4.9 0.65, 26.7 0.83, 32.28 0.71 M1.33 0 C6.71 0.06, 26.27 1.98, 31.48 2.09" stroke="#1e1e1e" stroke-width="1" fill="none"></path></g></g><mask></mask><g stroke-linecap="round"><g transform="translate(232.9167597232364 62.66052070967851) rotate(0 15.683584571816027 0.28681920655071735)"><path d="M0.88 -1.08 C6.08 -0.75, 26.36 1.36, 31.48 1.65 M-0.11 0.97 C4.86 0.97, 25.13 -0.27, 30.26 -0.13" stroke="#1e1e1e" stroke-width="1" fill="none"></path></g></g><mask></mask><g stroke-linecap="round"><g transform="translate(232.51011329851826 74.17821262672544) rotate(0 16.090230996534217 0.0450720511376943)"><path d="M-0.38 -0.33 C5.13 -0.37, 27.03 0.08, 32.56 0.41 M1.62 -1.55 C7.07 -1.5, 26.77 1.44, 31.9 1.64" stroke="#1e1e1e" stroke-width="1" fill="none"></path></g></g><mask></mask><g stroke-linecap="round"><g transform="translate(23.390387739213452 321.2814182490319) rotate(0 122.92050104782669 0.4889228160492962)"><path d="M-1.16 0.17 C39.94 0, 205.89 0.13, 247 0.15 M0.44 -0.78 C41.42 -0.23, 205.84 1.34, 246.5 1.76" stroke="#1e1e1e" stroke-width="1" fill="none"></path></g></g><mask></mask><g stroke-linecap="round"><g transform="translate(22.94901384729002 444.0334694853025) rotate(0 123.36187493975024 -0.045535781166847755)"><path d="M0.75 0.89 C41.63 1.01, 204.16 0.85, 244.95 0.74 M-0.31 0.31 C40.94 0.08, 206.25 -1.22, 247.03 -1" stroke="#1e1e1e" stroke-width="1" fill="none"></path></g></g><mask></mask><g stroke-linecap="round" transform="translate(27.552433815708014 41) rotate(0 94 22.5)"><path d="M2.99 2.6 C2.99 2.6, 2.99 2.6, 2.99 2.6 M2.99 2.6 C2.99 2.6, 2.99 2.6, 2.99 2.6 M0.76 11.27 C3.69 8.61, 7.42 5.04, 9.95 0.7 M0.76 11.27 C3.57 8.31, 4.88 5.33, 9.95 0.7 M0.5 17.66 C5.13 15.03, 6.45 8.51, 13.62 2.57 M0.5 17.66 C3.54 15.21, 6.67 10.58, 13.62 2.57 M0.9 23.31 C8.15 15.76, 11.48 8.02, 19.27 2.17 M0.9 23.31 C8.11 15.99, 14.4 8.39, 19.27 2.17 M0.64 29.7 C8.04 21.16, 16 15.38, 24.25 2.53 M0.64 29.7 C7.69 20.92, 13.97 14.43, 24.25 2.53 M1.03 35.35 C10.81 23.31, 20.06 11, 29.9 2.14 M1.03 35.35 C7.57 28.91, 14.19 20.29, 29.9 2.14 M2.08 40.24 C10.97 30.41, 19.2 18.16, 34.88 2.5 M2.08 40.24 C13.51 26.68, 26.76 12.1, 34.88 2.5 M5.1 42.86 C15.69 28.57, 25.76 19.74, 40.53 2.11 M5.1 42.86 C18.19 27.74, 31.99 12.02, 40.53 2.11 M8.12 45.48 C16.27 34.84, 25.43 26.26, 45.51 2.47 M8.12 45.48 C17.85 32.08, 30.21 20.21, 45.51 2.47 M13.11 45.84 C26.9 28.05, 41.79 12.49, 51.16 2.07 M13.11 45.84 C26.84 31.16, 39.88 15.17, 51.16 2.07 M18.75 45.45 C29.01 32.4, 37.15 23.65, 56.14 2.43 M18.75 45.45 C27.73 33.64, 39.06 22.26, 56.14 2.43 M23.74 45.81 C32.75 36.99, 38.61 28.67, 61.13 2.79 M23.74 45.81 C35.83 32.53, 49.3 17.09, 61.13 2.79 M29.38 45.41 C43.55 27.48, 57.46 13.51, 66.78 2.4 M29.38 45.41 C38.76 35.9, 48.58 25.38, 66.78 2.4 M34.37 45.77 C45.34 34.27, 54.94 21.36, 71.76 2.76 M34.37 45.77 C45.82 32.4, 58.94 17.87, 71.76 2.76 M39.35 46.13 C49 33.58, 58.25 24.73, 77.41 2.36 M39.35 46.13 C53.47 30.68, 66.8 14.98, 77.41 2.36 M45 45.74 C54.81 35.83, 62.06 23.22, 82.39 2.72 M45 45.74 C55.15 35.22, 63.85 23.94, 82.39 2.72 M49.98 46.1 C64.36 30.22, 80.45 11.87, 88.04 2.33 M49.98 46.1 C57.59 35.14, 65.54 26.38, 88.04 2.33 M55.63 45.71 C69.74 30.39, 86.57 11.65, 93.02 2.69 M55.63 45.71 C63.97 35.25, 72.49 26.48, 93.02 2.69 M60.61 46.07 C71.46 35.33, 80.7 20.84, 98.67 2.29 M60.61 46.07 C71.14 33.59, 83.75 20.31, 98.67 2.29 M66.26 45.67 C78.34 35.52, 86.38 20.93, 103.65 2.65 M66.26 45.67 C76.28 34.99, 85.55 25.4, 103.65 2.65 M71.24 46.03 C87.84 30.8, 99.01 12.52, 108.64 3.01 M71.24 46.03 C82.99 33.32, 94.31 19.73, 108.64 3.01 M76.89 45.64 C90 29.4, 104.08 13.04, 114.28 2.62 M76.89 45.64 C88.8 30.38, 102.33 15.85, 114.28 2.62 M81.87 46 C94.53 30.71, 107.31 16.28, 119.27 2.98 M81.87 46 C89.06 36.02, 97.37 28.27, 119.27 2.98 M86.86 46.36 C95.97 36.86, 105.07 25.6, 124.91 2.58 M86.86 46.36 C101.96 29.32, 116.45 11.14, 124.91 2.58 M92.5 45.96 C101.45 32.47, 114.55 21.67, 129.9 2.94 M92.5 45.96 C100.3 38.15, 106.77 28.34, 129.9 2.94 M97.49 46.32 C109.35 32.86, 119.58 22.07, 135.54 2.55 M97.49 46.32 C110.94 31.28, 123.39 16.91, 135.54 2.55 M103.13 45.93 C112.21 35.37, 125.66 22.08, 140.53 2.91 M103.13 45.93 C116.21 31.47, 129.52 15.86, 140.53 2.91 M108.12 46.29 C116.38 34.24, 127.16 27.23, 146.17 2.51 M108.12 46.29 C121.16 31.02, 135.07 14.32, 146.17 2.51 M113.76 45.89 C123.26 34.41, 129.07 25.36, 151.16 2.87 M113.76 45.89 C127.22 30.36, 140.46 14.42, 151.16 2.87 M118.75 46.25 C129.14 33.26, 138.05 22.45, 156.15 3.23 M118.75 46.25 C129.31 34.19, 140.96 21.18, 156.15 3.23 M124.39 45.86 C135.5 31.69, 146.76 19.4, 161.79 2.84 M124.39 45.86 C132.25 36.24, 140.26 27.91, 161.79 2.84 M129.38 46.22 C136.91 35.89, 146.73 25.17, 166.78 3.2 M129.38 46.22 C139.3 36.3, 147.91 25.56, 166.78 3.2 M134.37 46.58 C146.77 33.4, 156.97 19.34, 172.42 2.81 M134.37 46.58 C145.99 33.31, 156.4 21.42, 172.42 2.81 M140.01 46.18 C156.11 30.25, 167.48 12.41, 177.41 3.17 M140.01 46.18 C151.93 32.12, 164.77 19.42, 177.41 3.17 M145 46.54 C153.73 33.63, 165.48 25.63, 183.71 2.02 M145 46.54 C154.94 35.26, 163.69 24.26, 183.71 2.02 M150.64 46.15 C160.11 32.83, 170.78 21.98, 186.07 5.4 M150.64 46.15 C161.93 33.29, 172.87 19.11, 186.07 5.4 M155.63 46.51 C162.22 37.18, 172.1 25.01, 189.09 8.02 M155.63 46.51 C164.22 38.37, 171.24 28.32, 189.09 8.02 M161.27 46.12 C167.69 36.95, 176.49 28.38, 189.48 13.66 M161.27 46.12 C169.77 36.61, 176.59 27.43, 189.48 13.66 M166.26 46.48 C172.97 39.5, 182.49 28.1, 189.22 20.06 M166.26 46.48 C174.35 36.88, 184.86 25.94, 189.22 20.06 M171.9 46.08 C176.69 36.65, 184.47 31.59, 188.96 26.46 M171.9 46.08 C177.43 41.28, 180.53 36.44, 188.96 26.46 M177.54 45.69 C182.13 40.09, 185.46 34.09, 189.35 32.1 M177.54 45.69 C181.8 41.77, 185.3 37.23, 189.35 32.1" stroke="#b2f2bb" stroke-width="0.5" fill="none"></path><path d="M11.25 0 M11.25 0 C57.7 2.04, 106.71 1.32, 176.75 0 M11.25 0 C51.74 -0.37, 91.25 -0.56, 176.75 0 M176.75 0 C184.76 -0.79, 186.49 2.43, 188 11.25 M176.75 0 C186.51 -1.05, 188.29 3.19, 188 11.25 M188 11.25 C189.33 16.96, 187.42 26.65, 188 33.75 M188 11.25 C187.71 17.04, 188.1 23.17, 188 33.75 M188 33.75 C187.49 39.86, 185.32 43.51, 176.75 45 M188 33.75 C189.72 40.61, 182.7 46.09, 176.75 45 M176.75 45 C140.92 45.02, 110.26 43.72, 11.25 45 M176.75 45 C118.77 45.22, 61.58 44.38, 11.25 45 M11.25 45 C5.24 45.97, -1.48 41.82, 0 33.75 M11.25 45 C3.7 45.16, -2.03 43.14, 0 33.75 M0 33.75 C-1.23 27.49, 0.92 23.18, 0 11.25 M0 33.75 C-0.37 23.82, 0.86 14.86, 0 11.25 M0 11.25 C1.36 2.87, 5.54 -1.34, 11.25 0 M0 11.25 C-1.89 5.94, 3.81 -0.87, 11.25 0" stroke="#12b886" stroke-width="1" fill="none"></path></g><g transform="translate(86.55243381570801 44.70225581213106) rotate(0 40.66120910644531 15.648872093934472)"><text x="0" y="0" font-family="Virgil, Segoe UI Emoji" font-size="25.038195350295148px" fill="#1e1e1e" text-anchor="start" style="white-space: pre;" direction="ltr" dominant-baseline="text-before-edge">Shibumi</text></g><g transform="translate(86.27123970683556 64) rotate(0 49.655975341796875 10)"><text x="0" y="0" font-family="Virgil, Segoe UI Emoji" font-size="16px" fill="#000000" text-anchor="start" style="white-space: pre;" direction="ltr" dominant-baseline="text-before-edge">Manga store</text></g><g stroke-linecap="round" transform="translate(36.27123970683556 48) rotate(0 15.5 15.5)"><path d="M4.36 5.12 C4.36 5.12, 4.36 5.12, 4.36 5.12 M4.36 5.12 C4.36 5.12, 4.36 5.12, 4.36 5.12 M1.98 14.04 C5.44 10.47, 11.17 5.46, 14.69 -1.79 M0.22 15.75 C2.82 12.89, 5.52 8.68, 14.5 -0.28 M1.43 18.32 C8.61 15.01, 10.05 7.95, 18.67 -0.18 M3.27 19.96 C7.83 15.29, 10.67 10.04, 18.27 1.53 M2.57 24.68 C9.75 16.63, 12.59 13.7, 21.27 1.47 M3.44 24.02 C8.89 19.25, 11.63 13.55, 21.66 3.45 M5.47 25.04 C10.49 19.45, 17.96 16.02, 24.06 5.24 M6.15 27.68 C11.85 22.49, 15.97 16.96, 26.38 5.31 M11.2 30.18 C15.07 23.77, 16.55 18.35, 27.53 6.73 M10.06 30.31 C16.06 22.74, 22.19 15.06, 28.83 8.09 M12.5 31.07 C20.89 22.84, 26.45 17.32, 31.03 11.68 M13.07 31.47 C19.95 24.09, 26.41 15.84, 30.58 10.69 M17.11 32.31 C24.74 27.42, 28.82 19.84, 32.9 12.94 M18.07 30.33 C23.18 24.24, 28.83 18.04, 33.8 13.99 M3.59 24.83 C3.59 24.83, 3.59 24.83, 3.59 24.83 M3.59 24.83 C3.59 24.83, 3.59 24.83, 3.59 24.83 M14.45 26.73 C9.24 24.16, 4.79 19.85, 0.35 18.19 M12.79 27.7 C9.59 24.1, 6.32 20.91, 1.82 18.46 M20.24 27.29 C13.01 22.88, 11.23 20.66, 3.65 12.87 M18.4 26.37 C11.66 22.31, 6.73 16.44, 1.9 12.74 M24.19 28.73 C14.67 20.73, 8.49 14.38, 2.77 9.37 M25.05 26.35 C17.2 20.24, 11.58 14.84, 3.39 8.81 M28.63 26.25 C20.2 17.89, 15.18 13.75, 5.39 4.7 M26.76 24.29 C19.32 17.34, 12.74 12.52, 4.66 5.55 M30.09 20.36 C24.63 18.18, 19.71 12.45, 6.62 1.21 M31.69 21.39 C23.87 16.17, 15.4 9.01, 8.06 3.5 M29.23 16.32 C27.9 11.62, 21.11 9.97, 11.76 -0.29 M30.97 16.24 C25.55 13.38, 21.69 9.41, 11.66 0.21 M31.26 11.48 C27.63 6.19, 20.59 3.08, 15.18 -1.64 M31.54 12.35 C26.21 8.08, 19.83 3.33, 15.49 -1.85" stroke="#fd7e14" stroke-width="0.5" fill="none"></path><path d="M13.3 -0.69 C16.53 -1.13, 21.04 0.82, 23.93 2.98 C26.82 5.15, 29.54 9.03, 30.65 12.29 C31.76 15.55, 31.93 19.84, 30.6 22.54 C29.27 25.24, 25.94 27.17, 22.67 28.49 C19.41 29.81, 14.14 31.05, 11 30.48 C7.86 29.91, 5.53 27.62, 3.85 25.06 C2.17 22.5, 0.89 18.38, 0.94 15.11 C0.98 11.83, 1.79 7.87, 4.12 5.4 C6.46 2.92, 12.94 1.13, 14.95 0.25 C16.95 -0.62, 16.16 -0.21, 16.15 0.15 M16.35 -1.46 C19.69 -1.44, 25.05 1.09, 27.45 3.74 C29.85 6.4, 30.77 11.16, 30.74 14.47 C30.71 17.78, 29.05 21.11, 27.28 23.59 C25.52 26.08, 23.16 28.13, 20.16 29.39 C17.16 30.65, 12.41 32.3, 9.27 31.14 C6.12 29.99, 2.88 25.74, 1.29 22.45 C-0.29 19.15, -1.06 14.82, -0.24 11.38 C0.58 7.95, 3.62 3.81, 6.22 1.82 C8.83 -0.16, 13.83 -0.35, 15.39 -0.5 C16.95 -0.64, 15.24 0.36, 15.58 0.95" stroke="#e67700" stroke-width="1" fill="none"></path></g><g stroke-linecap="round"><g transform="translate(75.27123970683556 47.5) rotate(0 -0.762587934067767 16.367411957103755)"><path d="M0.15 -0.57 C-0.1 4.78, -0.09 26.58, -0.27 31.85 M-1.24 1.75 C-1.77 7.3, -1.82 28.29, -1.36 33.3" stroke="#000000" stroke-width="1" fill="none"></path></g></g><mask></mask></svg>