<svg version="1.1" xmlns="http://www.w3.org/2000/svg" viewBox="0 0 526.5077793091903 787" width="1053.0155586183805" height="1574">
  <!-- svg-source:excalidraw -->
  
  <defs>
    <style class="style-fonts">
      @font-face {
        font-family: "Virgil";
        src: url("https://file%2B.vscode-resource.vscode-cdn.net/c%3A/Users/Agust%C3%ADn/.vscode/extensions/pomdtr.excalidraw-editor-3.5.1/public//dist/excalidraw-assets/Virgil.woff2");
      }
      @font-face {
        font-family: "Cascadia";
        src: url("https://file%2B.vscode-resource.vscode-cdn.net/c%3A/Users/Agust%C3%ADn/.vscode/extensions/pomdtr.excalidraw-editor-3.5.1/public//dist/excalidraw-assets/Cascadia.woff2");
      }
    </style>
  </defs>
  <rect x="0" y="0" width="526.5077793091903" height="787" fill="#ffffff"></rect><g stroke-linecap="round" transform="translate(10 10) rotate(0 253.25388965459513 383.5)"><path d="M7.86 8.16 C7.86 8.16, 7.86 8.16, 7.86 8.16 M7.86 8.16 C7.86 8.16, 7.86 8.16, 7.86 8.16 M3.66 19.09 C7.61 14.02, 13.52 9.49, 18.1 2.48 M3.66 19.09 C8.34 14.52, 12.87 8.51, 18.1 2.48 M2.75 26.24 C9.89 17.17, 16.53 8.31, 24.4 1.33 M2.75 26.24 C9.31 17.65, 16.95 10.13, 24.4 1.33 M1.83 33.39 C7.7 25.46, 15.03 16.43, 30.7 0.18 M1.83 33.39 C9.48 24.29, 16.59 16.06, 30.7 0.18 M1.57 39.79 C15.14 26.64, 26.03 10.75, 34.37 2.05 M1.57 39.79 C10.31 30.25, 17.16 21.26, 34.37 2.05 M1.96 45.43 C12.11 31.28, 24.71 21.31, 39.36 2.41 M1.96 45.43 C10.66 35.5, 19.45 25.34, 39.36 2.41 M1.7 51.83 C14.58 38.89, 23.76 26.71, 45 2.02 M1.7 51.83 C12.7 39.35, 23.92 26.59, 45 2.02 M1.44 58.23 C16.02 43.32, 28.49 29.78, 49.99 2.38 M1.44 58.23 C17.12 40.62, 31.74 22.82, 49.99 2.38 M1.83 63.87 C14.45 49.28, 24.83 37.09, 55.63 1.98 M1.83 63.87 C18.26 44.34, 35.28 27.29, 55.63 1.98 M1.57 70.27 C24.14 45.72, 47.94 19.57, 60.62 2.34 M1.57 70.27 C19.56 50.68, 35.48 31.64, 60.62 2.34 M1.97 75.91 C19.22 56.42, 36.96 37.17, 66.26 1.95 M1.97 75.91 C17.68 57.36, 33.72 40.76, 66.26 1.95 M1.71 82.31 C26.06 54.76, 50.27 27.87, 71.25 2.31 M1.71 82.31 C23.34 57.54, 46.39 32.17, 71.25 2.31 M1.44 88.71 C27.69 57.83, 56.45 26.51, 76.89 1.91 M1.44 88.71 C25.46 60.27, 50.77 31.68, 76.89 1.91 M1.84 94.35 C23.5 69.5, 41.41 44.66, 81.88 2.27 M1.84 94.35 C26.72 68.58, 49.24 40.17, 81.88 2.27 M1.58 100.75 C20.61 80.92, 39.32 57.34, 87.52 1.88 M1.58 100.75 C29.06 68.74, 55.45 36.45, 87.52 1.88 M1.97 106.39 C35.45 69.74, 66.77 32.97, 92.51 2.24 M1.97 106.39 C27.99 77.08, 54.41 48.38, 92.51 2.24 M1.71 112.79 C30.34 78.53, 57.43 48.82, 98.15 1.85 M1.71 112.79 C36.44 72.56, 70.1 33.01, 98.15 1.85 M1.45 119.19 C24.45 95.18, 47.66 66.46, 103.14 2.21 M1.45 119.19 C29.69 86.23, 57.78 52.53, 103.14 2.21 M1.84 124.83 C40.24 79.65, 82.73 32.09, 108.78 1.81 M1.84 124.83 C34.07 86.24, 66.07 50.8, 108.78 1.81 M1.58 131.23 C43.4 83.13, 86.88 33.42, 113.77 2.17 M1.58 131.23 C28.8 99.92, 55.66 70.01, 113.77 2.17 M1.98 136.87 C33.68 95.87, 70.9 57.72, 119.41 1.78 M1.98 136.87 C46.79 83.63, 93 31.25, 119.41 1.78 M1.72 143.27 C45.79 94.74, 88.41 43.73, 124.4 2.14 M1.72 143.27 C34.34 104.93, 65.33 69.59, 124.4 2.14 M1.45 149.67 C33.65 108.83, 71.1 69.05, 130.04 1.74 M1.45 149.67 C27.52 119.39, 53.15 89.11, 130.04 1.74 M1.85 155.31 C45.59 106.97, 91.22 54.57, 135.03 2.1 M1.85 155.31 C54.21 94.74, 106.46 35.55, 135.03 2.1 M1.59 161.71 C36.15 124.83, 71.15 85.95, 140.67 1.71 M1.59 161.71 C38.51 119.84, 75.51 76.46, 140.67 1.71 M1.98 167.35 C47.58 114.22, 96.23 59.23, 145.66 2.07 M1.98 167.35 C37.92 125.33, 73.69 84.97, 145.66 2.07 M1.72 173.75 C56.05 113.54, 108.51 52.56, 150.65 2.43 M1.72 173.75 C39.17 130.91, 75.98 86.74, 150.65 2.43 M1.46 180.14 C42.19 136.12, 79.96 90.53, 156.29 2.03 M1.46 180.14 C60.35 112.63, 119.12 45.09, 156.29 2.03 M1.85 185.79 C35.1 142.5, 69.62 103.43, 161.28 2.39 M1.85 185.79 C65.06 115.12, 128.56 42.34, 161.28 2.39 M1.59 192.19 C39.53 147.76, 77.31 105.97, 166.92 2 M1.59 192.19 C46.21 140.38, 90.78 87.55, 166.92 2 M1.99 197.83 C51.8 140.3, 105.22 80.81, 171.91 2.36 M1.99 197.83 C48.52 146.03, 92.34 93.48, 171.91 2.36 M1.72 204.23 C46.69 154.64, 90.04 106.46, 177.55 1.96 M1.72 204.23 C71.81 124.5, 139.86 44.08, 177.55 1.96 M1.46 210.62 C59.22 146.34, 115.44 80.79, 182.54 2.32 M1.46 210.62 C71.35 128.92, 141.6 48.05, 182.54 2.32 M1.86 216.27 C63.93 142.84, 128.18 70.49, 188.18 1.93 M1.86 216.27 C66.65 141.9, 130.96 68.03, 188.18 1.93 M1.6 222.66 C40.58 174.88, 81.39 130.64, 193.17 2.29 M1.6 222.66 C49.03 166.7, 96.89 111.33, 193.17 2.29 M1.99 228.31 C79.12 139.76, 155.19 50.04, 198.81 1.9 M1.99 228.31 C54.28 164.85, 109.53 102.85, 198.81 1.9 M1.73 234.71 C42.56 188.99, 81.61 140.66, 203.8 2.26 M1.73 234.71 C58.91 171.35, 114.35 107.92, 203.8 2.26 M1.47 241.1 C73.04 160.93, 142.3 81.18, 209.44 1.86 M1.47 241.1 C60.1 173.74, 120.9 104.55, 209.44 1.86 M1.86 246.75 C77.07 162.66, 151.5 76.62, 214.43 2.22 M1.86 246.75 C51.61 187.31, 102.89 130.19, 214.43 2.22 M1.6 253.14 C79.11 163.79, 158.31 71.71, 220.07 1.83 M1.6 253.14 C51.8 192.46, 102.05 133.84, 220.07 1.83 M2 258.79 C82.37 165.74, 162.79 72.28, 225.06 2.19 M2 258.79 C62.21 190.45, 121.83 121.68, 225.06 2.19 M1.73 265.19 C70.16 187.55, 140.03 107.69, 230.7 1.79 M1.73 265.19 C75 180.78, 147.67 97.4, 230.7 1.79 M1.47 271.58 C50.51 215.61, 98.62 161.4, 235.69 2.15 M1.47 271.58 C57.47 206.78, 114.8 141.01, 235.69 2.15 M1.87 277.23 C62.1 209.95, 120.2 142.05, 241.33 1.76 M1.87 277.23 C71.18 196.5, 140.62 115.88, 241.33 1.76 M1.61 283.62 C71.74 202.94, 140.09 124.41, 246.32 2.12 M1.61 283.62 C96.18 173.08, 190.7 62.89, 246.32 2.12 M2 289.27 C82.11 196.58, 163.87 105, 251.96 1.72 M2 289.27 C65.57 216.52, 130.01 144.04, 251.96 1.72 M1.74 295.66 C66.39 220.33, 130.19 145.85, 256.95 2.08 M1.74 295.66 C76.05 211.24, 149.12 127.59, 256.95 2.08 M1.48 302.06 C86.23 204.58, 169.8 106.63, 262.59 1.69 M1.48 302.06 C68.44 222.16, 137.63 142.34, 262.59 1.69 M1.87 307.71 C64.65 236.35, 126.54 162.95, 267.58 2.05 M1.87 307.71 C68.61 228.8, 137.44 150.05, 267.58 2.05 M1.61 314.1 C76.46 227.55, 150.35 141.1, 272.56 2.41 M1.61 314.1 C87.1 215.19, 173.95 115.15, 272.56 2.41 M2.01 319.75 C108.46 198.4, 216.7 75.11, 278.21 2.01 M2.01 319.75 C108.75 196.79, 214.81 75.81, 278.21 2.01 M1.74 326.14 C79.24 239.01, 154.27 151.37, 283.19 2.37 M1.74 326.14 C105.48 205.49, 209.71 84.96, 283.19 2.37 M1.48 332.54 C92.8 230.1, 182.17 126.71, 288.84 1.98 M1.48 332.54 C82.95 238.2, 166.34 142.42, 288.84 1.98 M1.88 338.19 C71.9 255.95, 142.29 173.77, 293.82 2.34 M1.88 338.19 C97.21 230.46, 192.31 120.75, 293.82 2.34 M1.62 344.58 C83.85 250.57, 164.73 155.27, 299.47 1.94 M1.62 344.58 C108.27 224.46, 213.38 103.39, 299.47 1.94 M2.01 350.23 C117.05 219.22, 231.38 88.36, 304.45 2.3 M2.01 350.23 C72.04 270.4, 141.59 189.81, 304.45 2.3 M1.75 356.62 C121.35 218.71, 240.52 81.6, 310.1 1.91 M1.75 356.62 C96.84 247.33, 190.57 139.73, 310.1 1.91 M1.49 363.02 C98.97 251.24, 196.19 139.78, 315.08 2.27 M1.49 363.02 C93.85 255.2, 185.75 148.42, 315.08 2.27 M1.88 368.66 C66.9 293.83, 132.87 217.95, 320.73 1.88 M1.88 368.66 C69.65 288.7, 139.3 208.8, 320.73 1.88 M1.62 375.06 C104.43 255.05, 206.71 136.96, 325.71 2.24 M1.62 375.06 C88.81 276.56, 174.7 176.81, 325.71 2.24 M2.02 380.71 C115.68 250.02, 228.23 118.67, 331.36 1.84 M2.02 380.71 C108.81 258.3, 214.86 136.16, 331.36 1.84 M1.75 387.1 C118.27 255.25, 234.98 121.77, 336.34 2.2 M1.75 387.1 C84.65 292.97, 167.9 197.7, 336.34 2.2 M1.49 393.5 C90.13 293.09, 178.41 191.06, 341.99 1.81 M1.49 393.5 C134.87 240.89, 268.74 86.84, 341.99 1.81 M1.89 399.14 C133.34 248.83, 263.71 98.79, 346.97 2.17 M1.89 399.14 C102.11 284.05, 202.42 168.41, 346.97 2.17 M1.63 405.54 C92.68 299.25, 184.96 193.74, 352.62 1.77 M1.63 405.54 C128.5 259, 254.09 114.18, 352.62 1.77 M2.02 411.18 C86.96 309.65, 174.31 209.79, 357.6 2.13 M2.02 411.18 C143.44 246.86, 286.04 83.31, 357.6 2.13 M1.76 417.58 C114.58 288.2, 228.75 156.93, 363.25 1.74 M1.76 417.58 C108.73 294.39, 216.7 170.21, 363.25 1.74 M1.5 423.98 C88.84 323.83, 175.28 225.55, 368.23 2.1 M1.5 423.98 C120.96 286.47, 240.55 149.64, 368.23 2.1 M1.89 429.62 C85.86 331.83, 170.1 235.81, 373.88 1.7 M1.89 429.62 C91.2 328.04, 179.42 226.53, 373.88 1.7 M1.63 436.02 C106.2 314.42, 212.4 192.08, 378.86 2.06 M1.63 436.02 C143.59 273.97, 283.69 112.71, 378.86 2.06 M2.02 441.66 C98.97 329.72, 197.36 216.59, 383.85 2.42 M2.02 441.66 C136.75 286.59, 271.78 131.69, 383.85 2.42 M1.76 448.06 C145 281.86, 288.85 116.39, 389.49 2.03 M1.76 448.06 C151.45 274.27, 301.86 100.74, 389.49 2.03 M1.5 454.46 C125.51 311.26, 250.45 168.21, 394.48 2.39 M1.5 454.46 C146.56 285.98, 293.57 117.42, 394.48 2.39 M1.9 460.1 C138.71 304.58, 273.21 149.88, 400.12 1.99 M1.9 460.1 C152.77 285.62, 304.44 110.83, 400.12 1.99 M1.64 466.5 C147.49 298.02, 293.53 129.25, 405.11 2.35 M1.64 466.5 C152.58 292.77, 304.56 118.3, 405.11 2.35 M2.03 472.14 C110.6 344.67, 222.29 216.41, 410.75 1.96 M2.03 472.14 C124.32 330.07, 246.62 188.86, 410.75 1.96 M1.77 478.54 C88.48 378.13, 175.6 277.45, 415.74 2.32 M1.77 478.54 C159.38 292.88, 319.77 108.95, 415.74 2.32 M1.51 484.94 C128.09 339.34, 253.82 194.54, 421.38 1.93 M1.51 484.94 C106 364.08, 210.15 244.9, 421.38 1.93 M1.9 490.58 C136.38 336.96, 271.36 181.37, 426.37 2.29 M1.9 490.58 C166.1 302.03, 329.36 114.72, 426.37 2.29 M1.64 496.98 C92.14 393.81, 181.64 288.46, 432.01 1.89 M1.64 496.98 C119.55 360.46, 238.57 223.29, 432.01 1.89 M2.03 502.62 C173.21 307.49, 344.34 110.21, 437 2.25 M2.03 502.62 C129.26 356.25, 257.27 208.17, 437 2.25 M1.77 509.02 C107.48 384.74, 213.29 263.4, 442.64 1.86 M1.77 509.02 C174.18 309.36, 345.99 111.9, 442.64 1.86 M1.51 515.42 C179.6 312.16, 357.71 106.63, 447.63 2.22 M1.51 515.42 C178.01 313.24, 355.66 109.02, 447.63 2.22 M1.91 521.06 C124.91 376.93, 249.26 233.68, 453.27 1.82 M1.91 521.06 C156.57 346.29, 310.24 170.73, 453.27 1.82 M1.64 527.46 C158.31 347.11, 317.09 165.23, 458.26 2.18 M1.64 527.46 C145.3 361.73, 290.92 194.08, 458.26 2.18 M2.04 533.1 C119.16 402.15, 233.82 270.81, 463.9 1.79 M2.04 533.1 C105.04 414.3, 209.65 294.07, 463.9 1.79 M1.78 539.5 C137.81 383.89, 275.22 227.72, 468.89 2.15 M1.78 539.5 C111.35 410.87, 221.67 284.88, 468.89 2.15 M1.52 545.9 C165.52 358.58, 329.26 171.44, 475.19 1 M1.52 545.9 C145.65 380.26, 289.84 213.95, 475.19 1 M1.91 551.54 C168.28 358.7, 334.52 168.5, 480.18 1.36 M1.91 551.54 C132.94 398.6, 265.08 246.61, 480.18 1.36 M1.65 557.94 C100.79 447.47, 198.16 335.56, 484.51 2.47 M1.65 557.94 C182.86 350.67, 364.13 142.42, 484.51 2.47 M2.04 563.58 C134.33 409.41, 267.74 256.14, 489.5 2.83 M2.04 563.58 C156.89 385.39, 310.72 207.93, 489.5 2.83 M1.78 569.98 C150.63 399.91, 299.7 228.97, 493.17 4.7 M1.78 569.98 C193.17 349.41, 386.02 127.47, 493.17 4.7 M1.52 576.38 C141.1 416.44, 280.42 255.45, 496.85 6.57 M1.52 576.38 C192.8 356.84, 383.64 137.76, 496.85 6.57 M1.92 582.02 C193.32 362.38, 381.44 144.76, 499.21 9.95 M1.92 582.02 C129.27 436.33, 257.01 289.38, 499.21 9.95 M1.65 588.42 C117.77 455.33, 232.53 323.1, 502.23 12.58 M1.65 588.42 C132.1 439.63, 261.48 290.94, 502.23 12.58 M2.05 594.06 C114.06 464.9, 227.75 334.85, 503.93 16.71 M2.05 594.06 C114.07 465.36, 225.29 337.18, 503.93 16.71 M1.79 600.46 C118.98 467.3, 233.31 334.2, 506.3 20.09 M1.79 600.46 C135.62 448.26, 269.15 294.99, 506.3 20.09 M1.53 606.86 C137.99 452.68, 274.13 296.6, 507.35 24.98 M1.53 606.86 C146.72 439.59, 293.2 271.15, 507.35 24.98 M1.92 612.5 C122.31 476.63, 242.73 338.5, 506.43 32.13 M1.92 612.5 C141.9 449.78, 283.3 287.29, 506.43 32.13 M1.66 618.9 C202.16 387.66, 402.49 157.4, 506.82 37.77 M1.66 618.9 C107.91 495.11, 214.29 372.63, 506.82 37.77 M2.05 624.54 C137.04 470.32, 272.29 315.07, 506.56 44.17 M2.05 624.54 C171.63 432.47, 339.74 238.77, 506.56 44.17 M1.79 630.94 C176.89 429.45, 349.77 230.16, 506.3 50.57 M1.79 630.94 C145.8 460.59, 291.67 293.03, 506.3 50.57 M1.53 637.34 C192.49 416.91, 386.1 196.25, 506.7 56.21 M1.53 637.34 C103.73 520.16, 205.48 402.84, 506.7 56.21 M1.93 642.98 C151.04 468.35, 301.3 296.23, 506.43 62.61 M1.93 642.98 C192.27 422.56, 383.07 202.61, 506.43 62.61 M1.66 649.38 C146.5 482.93, 289.83 318.02, 506.83 68.25 M1.66 649.38 C109.15 528.57, 215.86 405.25, 506.83 68.25 M1.4 655.78 C148.44 484.88, 294.76 316.41, 506.57 74.65 M1.4 655.78 C140.07 492.46, 281.04 330.4, 506.57 74.65 M1.8 661.42 C170.31 465.71, 342.38 267.49, 506.31 81.05 M1.8 661.42 C123.69 520.47, 245.08 381.25, 506.31 81.05 M1.54 667.82 C110.19 547.38, 217.08 425.19, 506.7 86.69 M1.54 667.82 C177.01 467.97, 350.35 268.04, 506.7 86.69 M1.93 673.46 C179.53 464.19, 358.52 258.81, 506.44 93.09 M1.93 673.46 C163.44 490.6, 322.81 306.69, 506.44 93.09 M1.67 679.86 C199.53 452.41, 397.21 224.74, 506.83 98.73 M1.67 679.86 C142.66 521.78, 281.54 362.23, 506.83 98.73 M1.41 686.26 C201.7 454.36, 400.39 225.57, 506.57 105.13 M1.41 686.26 C111.84 561.34, 221.26 435.29, 506.57 105.13 M1.8 691.9 C113.25 567.81, 222.19 440.96, 506.31 111.53 M1.8 691.9 C166.78 503.51, 330.33 315.08, 506.31 111.53 M1.54 698.3 C189.35 486.66, 374.08 273.17, 506.71 117.17 M1.54 698.3 C134.4 545.18, 269.55 389.53, 506.71 117.17 M1.94 703.94 C165.16 517.85, 327.92 330.98, 506.44 123.57 M1.94 703.94 C150.72 534.05, 299.78 362.32, 506.44 123.57 M1.67 710.34 C118.17 577.65, 234.76 443.27, 506.84 129.21 M1.67 710.34 C177.96 508.73, 353.05 307.56, 506.84 129.21 M1.41 716.73 C203.35 488.7, 403.03 257.88, 506.58 135.61 M1.41 716.73 C172.11 519.28, 343.9 321.09, 506.58 135.61 M1.81 722.38 C201.53 492.88, 400.57 263.96, 506.32 142.01 M1.81 722.38 C146.24 559.46, 288.37 395.51, 506.32 142.01 M1.55 728.78 C187.1 514.37, 372.97 300.92, 506.71 147.65 M1.55 728.78 C186.03 518.17, 368.39 308.01, 506.71 147.65 M0.63 735.93 C164.19 549.44, 328.72 360.7, 506.45 154.05 M0.63 735.93 C130.11 587.39, 257.01 440.8, 506.45 154.05 M1.68 740.82 C119.03 609.5, 235.65 475.73, 506.84 159.69 M1.68 740.82 C105.99 618.72, 212.66 495.58, 506.84 159.69 M2.07 746.46 C166.85 557.95, 331.17 371.15, 506.58 166.09 M2.07 746.46 C195.82 523.23, 388.54 302.13, 506.58 166.09 M3.78 750.59 C107.6 627.84, 213.99 505.43, 506.32 172.49 M3.78 750.59 C147.31 581.77, 293.2 413.81, 506.32 172.49 M5.49 754.73 C186.68 548.01, 366.09 342.12, 506.72 178.13 M5.49 754.73 C178.96 554.8, 354.29 353.68, 506.72 178.13 M7.85 758.11 C208.5 530.13, 406.74 301.4, 506.45 184.53 M7.85 758.11 C185.38 553.78, 361.38 351.99, 506.45 184.53 M10.87 760.73 C127.63 626.52, 243.76 491.62, 506.85 190.17 M10.87 760.73 C200.69 542.77, 390.3 324.82, 506.85 190.17 M13.89 763.35 C175.67 574.98, 337.69 388.95, 506.59 196.57 M13.89 763.35 C162.2 591.28, 310.28 420.48, 506.59 196.57 M17.56 765.22 C123.35 642.45, 229.17 522.48, 506.33 202.97 M17.56 765.22 C145.89 621.34, 271.68 476.89, 506.33 202.97 M20.58 767.85 C209.04 552.17, 396.8 335.76, 506.72 208.61 M20.58 767.85 C207.96 551.02, 395.57 334.9, 506.72 208.61 M25.57 768.21 C126.07 651.44, 227.41 536.23, 506.46 215.01 M25.57 768.21 C171.75 599.68, 318.24 431.32, 506.46 215.01 M30.55 768.57 C130.67 653.95, 229.25 540.88, 506.85 220.65 M30.55 768.57 C132.81 650.75, 233.82 534.92, 506.85 220.65 M34.89 769.68 C213.26 565.69, 390.48 360.84, 506.59 227.05 M34.89 769.68 C224.07 553.07, 411.38 337.15, 506.59 227.05 M40.53 769.29 C168.41 622.75, 296.52 476.32, 506.33 233.44 M40.53 769.29 C195.66 591.32, 349.55 414.22, 506.33 233.44 M45.52 769.65 C194.09 598.47, 344.88 424.9, 506.73 239.09 M45.52 769.65 C213.9 575.36, 381.95 381.51, 506.73 239.09 M51.16 769.25 C198.48 602.39, 344.51 432.26, 506.46 245.49 M51.16 769.25 C161.44 641.41, 271.62 514.5, 506.46 245.49 M56.15 769.61 C199.33 603.98, 343.34 437.21, 506.2 251.88 M56.15 769.61 C230.09 569.58, 403.12 370.42, 506.2 251.88 M61.79 769.22 C213.57 595.33, 364.05 421.94, 506.6 257.53 M61.79 769.22 C150.52 665.2, 240.25 562.3, 506.6 257.53 M66.78 769.58 C185.74 635.24, 303.15 499.55, 506.34 263.92 M66.78 769.58 C233.87 574.41, 403.29 379.6, 506.34 263.92 M71.76 769.94 C226.08 591.66, 383.47 410.64, 506.73 269.57 M71.76 769.94 C163.25 663.37, 254.13 557.58, 506.73 269.57 M77.41 769.55 C221.42 604.95, 363.33 443.14, 506.47 275.96 M77.41 769.55 C181.25 651.52, 284.17 532.86, 506.47 275.96 M82.39 769.91 C194.81 641, 306.71 510.27, 506.21 282.36 M82.39 769.91 C177.59 663.14, 271.77 555.93, 506.21 282.36 M88.04 769.51 C220.61 615.49, 352.88 461.72, 506.6 288.01 M88.04 769.51 C248.45 584.97, 408.05 401.43, 506.6 288.01 M93.02 769.87 C258.76 580.45, 422.91 391.13, 506.34 294.4 M93.02 769.87 C232.96 611.01, 371.55 451.31, 506.34 294.4 M98.67 769.48 C216.72 633.73, 334.75 498.16, 506.74 300.05 M98.67 769.48 C255.1 591.19, 411.04 411.71, 506.74 300.05 M103.65 769.84 C241.39 614.01, 377.39 456.78, 506.47 306.44 M103.65 769.84 C187.29 674.67, 270.65 579.31, 506.47 306.44 M109.3 769.44 C248.31 607.94, 389.35 447.48, 506.21 312.84 M109.3 769.44 C259.8 600.35, 407.59 429.82, 506.21 312.84 M114.28 769.8 C238.7 625.06, 363.83 481.34, 506.61 318.49 M114.28 769.8 C207.35 661.9, 300.05 555.41, 506.61 318.49 M119.93 769.41 C223.74 648.15, 330.72 525.11, 506.35 324.88 M119.93 769.41 C210.15 665.09, 299.85 563.23, 506.35 324.88 M124.91 769.77 C212.02 668.14, 299.34 567.15, 506.74 330.53 M124.91 769.77 C269.58 604.45, 414.09 439.34, 506.74 330.53 M130.56 769.37 C228.71 656.75, 327.38 544.52, 506.48 336.92 M130.56 769.37 C274.01 604.9, 417.4 440.17, 506.48 336.92 M135.54 769.73 C212 681.99, 287.87 593.41, 506.22 343.32 M135.54 769.73 C256.88 627.72, 380.15 486.03, 506.22 343.32 M141.19 769.34 C277.15 612.04, 412.58 456.89, 506.61 348.96 M141.19 769.34 C214.67 685.11, 288.66 600.43, 506.61 348.96 M146.17 769.7 C228.33 676.29, 311.4 581.76, 506.35 355.36 M146.17 769.7 C271.14 624.9, 397.75 479.57, 506.35 355.36 M151.82 769.3 C264.04 640.57, 375.49 510.62, 506.74 361.01 M151.82 769.3 C229.04 679.29, 308.36 589.27, 506.74 361.01 M156.8 769.66 C274.2 634.21, 393.14 498.98, 506.48 367.4 M156.8 769.66 C239.39 674.32, 322.79 577.77, 506.48 367.4 M162.45 769.27 C251.29 668.53, 339.19 566.5, 506.22 373.8 M162.45 769.27 C271.96 643.23, 380.56 518.17, 506.22 373.8 M167.43 769.63 C238.15 687, 309.98 604.41, 506.62 379.44 M167.43 769.63 C284.16 634.74, 402.57 499.24, 506.62 379.44 M173.08 769.23 C240.16 690.43, 308.28 613.5, 506.35 385.84 M173.08 769.23 C277.21 648.43, 381.3 528.54, 506.35 385.84 M178.06 769.59 C306.5 620.16, 437.2 470.24, 506.75 391.49 M178.06 769.59 C301.37 626.93, 426.12 483.37, 506.75 391.49 M183.05 769.95 C253.34 688.67, 322.39 609.42, 506.49 397.88 M183.05 769.95 C308.46 622.92, 435.81 476.99, 506.49 397.88 M188.69 769.56 C272.5 674.06, 357.3 576.91, 506.23 404.28 M188.69 769.56 C311.42 629.17, 433.78 488.08, 506.23 404.28 M193.68 769.92 C256.74 695.75, 321.33 622.26, 506.62 409.92 M193.68 769.92 C280.59 670.49, 366.88 570.98, 506.62 409.92 M199.32 769.53 C278 678.71, 358.73 586.13, 506.36 416.32 M199.32 769.53 C313.57 637.53, 427.15 506.81, 506.36 416.32 M204.31 769.89 C302.42 656.21, 400.72 542.09, 506.75 421.96 M204.31 769.89 C279.37 683.3, 354.12 596.97, 506.75 421.96 M209.95 769.49 C287.45 678.82, 367.07 587.19, 506.49 428.36 M209.95 769.49 C294.51 672.21, 378.75 576.12, 506.49 428.36 M214.94 769.85 C330.82 634.65, 447.57 501.52, 506.23 434.76 M214.94 769.85 C310.7 659.27, 406.18 548.43, 506.23 434.76 M220.58 769.46 C283.78 697.62, 345.66 627.76, 506.63 440.4 M220.58 769.46 C285.62 694.67, 351.77 618.96, 506.63 440.4 M225.57 769.82 C301.44 680.4, 377.89 591.26, 506.36 446.8 M225.57 769.82 C311.06 670.75, 395.08 573.04, 506.36 446.8 M231.21 769.42 C313.15 677, 394.59 581.74, 506.76 452.44 M231.21 769.42 C303.11 688.33, 374.15 605.85, 506.76 452.44 M236.2 769.78 C308.2 688.36, 380.55 603.63, 506.5 458.84 M236.2 769.78 C315.09 678.35, 393.68 587.63, 506.5 458.84 M241.84 769.39 C331.85 663.31, 423.63 559.78, 506.24 465.24 M241.84 769.39 C340.38 654.09, 439.46 540.07, 506.24 465.24 M246.83 769.75 C334.41 667.94, 422.01 567.3, 506.63 470.88 M246.83 769.75 C344.33 656.27, 441.33 544.57, 506.63 470.88 M252.47 769.35 C313.89 699.59, 373.85 628.83, 506.37 477.28 M252.47 769.35 C336.07 672.92, 421.66 574.95, 506.37 477.28 M257.46 769.71 C330.29 685.01, 404.15 601.84, 506.76 482.92 M257.46 769.71 C351.91 660.43, 446.68 551.13, 506.76 482.92 M263.1 769.32 C341.53 680.23, 419.56 589.57, 506.5 489.32 M263.1 769.32 C317.76 702.75, 373.91 638.32, 506.5 489.32 M268.09 769.68 C361.7 660.13, 457.41 550.87, 506.24 495.72 M268.09 769.68 C334.45 691.27, 402.51 613.25, 506.24 495.72 M273.73 769.28 C360.98 667.63, 447.92 567.36, 506.64 501.36 M273.73 769.28 C350.08 682, 425.43 594.83, 506.64 501.36 M278.72 769.64 C358.73 675.07, 440.62 582.85, 506.37 507.76 M278.72 769.64 C328.39 713.77, 377.12 657.92, 506.37 507.76 M284.36 769.25 C335.32 709.49, 387.85 652.06, 506.77 513.4 M284.36 769.25 C330.67 715.34, 377.29 662.52, 506.77 513.4 M289.35 769.61 C361.6 685.86, 434.65 599.42, 506.51 519.8 M289.35 769.61 C342.49 707.21, 395.38 644.51, 506.51 519.8 M294.99 769.22 C374.9 675.96, 457.44 584.47, 506.25 526.2 M294.99 769.22 C348.74 708.22, 400.08 648.01, 506.25 526.2 M299.98 769.58 C371.38 686.41, 441.1 607.18, 506.64 531.84 M299.98 769.58 C343.37 718.02, 388.29 666.4, 506.64 531.84 M304.97 769.94 C375.64 689.36, 449.49 605.04, 506.38 538.24 M304.97 769.94 C372.97 691.33, 440.59 614.3, 506.38 538.24 M310.61 769.54 C354.65 715.72, 400.04 662.16, 506.77 543.88 M310.61 769.54 C368.21 705.24, 424.97 639.62, 506.77 543.88 M315.6 769.9 C381.16 694.5, 446.43 619.36, 506.51 550.28 M315.6 769.9 C377.54 697.44, 440.47 625.66, 506.51 550.28 M321.24 769.51 C381.01 702.12, 440.97 632.09, 506.25 556.68 M321.24 769.51 C394.12 684.73, 467.23 600.77, 506.25 556.68 M326.23 769.87 C392.85 688.92, 463.78 613.3, 506.65 562.32 M326.23 769.87 C366.65 724.64, 406.52 678.35, 506.65 562.32 M331.87 769.47 C395.05 695.75, 459.45 620.46, 506.38 568.72 M331.87 769.47 C369.03 725.86, 406.53 681.16, 506.38 568.72 M336.86 769.83 C394.66 703.57, 454.27 636.76, 506.78 574.36 M336.86 769.83 C402.28 696.45, 465.63 623.1, 506.78 574.36 M342.5 769.44 C404.75 694.69, 468.26 623.39, 506.52 580.76 M342.5 769.44 C405.94 697, 468.29 624.68, 506.52 580.76 M347.49 769.8 C405.8 701.34, 465.48 633.01, 506.26 587.16 M347.49 769.8 C392.37 717.72, 438.74 663.36, 506.26 587.16 M353.13 769.4 C388.5 728.93, 424.14 689.11, 506.65 592.8 M353.13 769.4 C393.33 722.01, 432 676.97, 506.65 592.8 M358.12 769.76 C394.72 726.97, 434.48 683.49, 506.39 599.2 M358.12 769.76 C388.64 732.4, 422.19 694.96, 506.39 599.2 M363.76 769.37 C394.58 734.6, 427.28 697.5, 506.78 604.84 M363.76 769.37 C417.26 707.21, 473.73 643.37, 506.78 604.84 M368.75 769.73 C403.29 731.15, 431.82 694.36, 506.52 611.24 M368.75 769.73 C419.13 712.14, 470.17 654.28, 506.52 611.24 M374.39 769.33 C412.78 722.77, 452.89 679.24, 506.26 617.64 M374.39 769.33 C404.17 733.94, 434.89 698.37, 506.26 617.64 M379.38 769.69 C429.18 714.22, 475.86 657.73, 506.66 623.28 M379.38 769.69 C415.27 731.87, 449.08 692.4, 506.66 623.28 M385.02 769.3 C418.12 730.83, 452.1 688.47, 506.39 629.68 M385.02 769.3 C414.69 737.49, 441.17 704.42, 506.39 629.68 M390.01 769.66 C413.95 738.96, 440.45 710.78, 506.79 635.32 M390.01 769.66 C421.13 734.69, 450.07 702.86, 506.79 635.32 M395.65 769.26 C422.33 740.44, 452.49 708.78, 506.53 641.72 M395.65 769.26 C434.72 723.96, 473.98 679.46, 506.53 641.72 M400.64 769.63 C441.51 724.57, 478.72 680.31, 506.27 648.12 M400.64 769.63 C436.6 727.3, 475.06 683.91, 506.27 648.12 M406.28 769.23 C434.4 735.39, 461.69 703.77, 506.66 653.76 M406.28 769.23 C441 730.32, 473.42 691.79, 506.66 653.76 M411.27 769.59 C436.88 744.58, 459.44 717.55, 506.4 660.16 M411.27 769.59 C446.74 728.19, 481.54 686.99, 506.4 660.16 M416.26 769.95 C450.38 731.23, 480.42 693.2, 506.79 665.8 M416.26 769.95 C438.67 743.35, 461.08 717.97, 506.79 665.8 M421.9 769.56 C449.89 736.81, 476.44 704.89, 506.53 672.2 M421.9 769.56 C445.97 742.73, 468.87 716.79, 506.53 672.2 M426.89 769.92 C448.98 742.02, 472.88 716.22, 506.27 678.6 M426.89 769.92 C453.64 741.82, 477.33 713.36, 506.27 678.6 M432.53 769.52 C458.28 739.63, 483.6 708.5, 506.66 684.24 M432.53 769.52 C459.21 738.13, 487.01 707.53, 506.66 684.24 M437.52 769.88 C461.72 744.41, 480.49 720.06, 506.4 690.64 M437.52 769.88 C460.22 743.2, 481.37 719.51, 506.4 690.64 M443.16 769.49 C461.91 745.68, 483.99 721.73, 506.8 696.28 M443.16 769.49 C461.72 749.73, 478.21 729.75, 506.8 696.28 M448.15 769.85 C469.51 744.73, 493.69 718.84, 506.54 702.68 M448.15 769.85 C470.46 743.22, 493.26 716.77, 506.54 702.68 M453.79 769.45 C468.65 752.17, 479.77 738.91, 506.27 709.08 M453.79 769.45 C464.46 755.36, 476.11 742.19, 506.27 709.08 M458.78 769.81 C467.98 756.43, 478.54 745.43, 506.67 714.72 M458.78 769.81 C467.85 757.81, 477.81 748.36, 506.67 714.72 M464.42 769.42 C475.05 756.42, 486.96 745.14, 506.41 721.12 M464.42 769.42 C479.02 752.68, 494.67 735.3, 506.41 721.12 M469.41 769.78 C478.89 757.54, 485.56 749.73, 506.8 726.76 M469.41 769.78 C483.29 753.69, 498.24 737.93, 506.8 726.76 M475.71 768.63 C484.43 761.25, 491.29 753.46, 506.54 733.16 M475.71 768.63 C486.91 754.57, 498.5 743.2, 506.54 733.16 M482.01 767.48 C489.97 756.47, 499.23 748.87, 508.9 736.54 M482.01 767.48 C490.13 757.78, 498.32 748.23, 508.9 736.54 M488.96 765.58 C497.39 757.75, 503.57 748.18, 507.33 744.44 M488.96 765.58 C494.49 757.73, 501.17 750.73, 507.33 744.44" stroke="#ced4da" stroke-width="0.5" fill="none"></path><path d="M32 0 M32 0 C186.1 -0.11, 339.87 -1.51, 474.51 0 M32 0 C166.46 0.48, 301.72 -0.11, 474.51 0 M474.51 0 C496.52 -0.87, 506.84 9.11, 506.51 32 M474.51 0 C496.12 0.58, 507.65 9.3, 506.51 32 M506.51 32 C503.94 260.82, 505.13 488.19, 506.51 735 M506.51 32 C509.19 234.46, 508.64 437.13, 506.51 735 M506.51 735 C507.08 756.55, 495.6 768.13, 474.51 767 M506.51 735 C506.29 754.26, 497.86 766.42, 474.51 767 M474.51 767 C299.82 768.59, 123.04 768.58, 32 767 M474.51 767 C308.32 765.12, 142.7 764.8, 32 767 M32 767 C11.8 766.73, 0.63 757.13, 0 735 M32 767 C11.16 768.86, -0.02 755.01, 0 735 M0 735 C-0.53 522.03, -1.68 309.85, 0 32 M0 735 C1.29 541.11, 1.48 347.38, 0 32 M0 32 C-0.31 10.77, 11.9 1.93, 32 0 M0 32 C-0.79 9.89, 12.75 -0.61, 32 0" stroke="#1e1e1e" stroke-width="1" fill="none"></path></g><g transform="translate(168.79922860316287 89.5) rotate(0 55.38397216796875 10)"><text x="0" y="0" font-family="Virgil, Segoe UI Emoji" font-size="16px" fill="#1e1e1e" text-anchor="start" style="white-space: pre;" direction="ltr" dominant-baseline="text-before-edge">Quienes somos</text></g><g transform="translate(65.34590015264212 88.97760769864823) rotate(0 39.567970275878906 10)"><text x="0" y="0" font-family="Virgil, Segoe UI Emoji" font-size="16px" fill="#1e1e1e" text-anchor="start" style="white-space: pre;" direction="ltr" dominant-baseline="text-before-edge">Productos</text></g><g transform="translate(384.3459001526419 89.5) rotate(0 38.407989501953125 10)"><text x="0" y="0" font-family="Virgil, Segoe UI Emoji" font-size="16px" fill="#1e1e1e" text-anchor="start" style="white-space: pre;" direction="ltr" dominant-baseline="text-before-edge">Mi cuenta</text></g><g transform="translate(303.8845608378633 89.5) rotate(0 28.071975708007812 10)"><text x="0" y="0" font-family="Virgil, Segoe UI Emoji" font-size="16px" fill="#1e1e1e" text-anchor="start" style="white-space: pre;" direction="ltr" dominant-baseline="text-before-edge">Carrito</text></g><g transform="translate(157.21632541347344 754.7341267203692) rotate(0 100.47754669189453 5.872992738890787)"><text x="0" y="0" font-family="Virgil, Segoe UI Emoji" font-size="9.396788382225226px" fill="#2f9e44" text-anchor="start" style="white-space: pre;" direction="ltr" dominant-baseline="text-before-edge">@copyright- todos los derechos reservados.</text></g><g stroke-linecap="round" transform="translate(209.6183728850708 712.5425887601334) rotate(0 12 10.5)"><path d="M0.34 2.94 C0.34 2.94, 0.34 2.94, 0.34 2.94 M0.34 2.94 C0.34 2.94, 0.34 2.94, 0.34 2.94 M0.08 9.34 C2.7 7.03, 4.63 3.8, 6.64 1.79 M0.08 9.34 C2.42 6.83, 3.82 4.74, 6.64 1.79 M-0.19 15.74 C1.89 10.68, 7.3 8.64, 12.28 1.4 M-0.19 15.74 C3.37 9.73, 8.69 5.62, 12.28 1.4 M1.52 19.87 C6.89 16.42, 10.32 10.21, 18.58 0.25 M1.52 19.87 C8.05 12.02, 14.92 4.32, 18.58 0.25 M5.85 20.99 C12.35 12.39, 18.72 7.01, 22.91 1.36 M5.85 20.99 C12.13 12.62, 18.08 6.08, 22.91 1.36 M10.84 21.35 C13.62 15.83, 19.81 12.77, 24.62 5.5 M10.84 21.35 C14.2 16.1, 17.91 12.81, 24.62 5.5 M16.48 20.95 C18.97 20.06, 20.39 17.43, 23.7 12.65 M16.48 20.95 C18.77 18.25, 20.97 16.06, 23.7 12.65" stroke="#1971c2" stroke-width="0.5" fill="none"></path><path d="M5.25 0 M5.25 0 C10.85 0.17, 15.16 1.41, 18.75 0 M5.25 0 C10.17 0.41, 16.56 0.46, 18.75 0 M18.75 0 C23.01 -1.86, 25.99 1.68, 24 5.25 M18.75 0 C21.56 -0.5, 24.7 0.4, 24 5.25 M24 5.25 C24.91 8.25, 24.84 12.18, 24 15.75 M24 5.25 C24.06 8.86, 23.9 12.87, 24 15.75 M24 15.75 C24.4 20.11, 22.12 19.97, 18.75 21 M24 15.75 C24.35 17.63, 22.15 20.94, 18.75 21 M18.75 21 C16.51 21.65, 12.7 20.29, 5.25 21 M18.75 21 C15.4 21.49, 12.52 20.67, 5.25 21 M5.25 21 C0.93 20.26, 0.57 17.4, 0 15.75 M5.25 21 C3.94 19.9, 2.25 17.63, 0 15.75 M0 15.75 C-0.67 13.7, 0.65 10.07, 0 5.25 M0 15.75 C-0.53 13.86, 0.01 11.26, 0 5.25 M0 5.25 C-0.1 2.98, 2.71 0.32, 5.25 0 M0 5.25 C1.3 2.57, 3.76 1.72, 5.25 0" stroke="#1971c2" stroke-width="1" fill="none"></path></g><g stroke-linecap="round"><g transform="translate(461.7711080052836 746) rotate(0 -204.06864035773555 1.8248945281561646)"><path d="M0.68 1.05 C-67.24 1.22, -340.02 1.84, -408.26 2.05 M-0.42 0.56 C-68.37 1.36, -340.66 2.64, -408.82 3.09" stroke="#2f9e44" stroke-width="1" fill="none"></path></g></g><mask></mask><g transform="translate(214.0757841249373 715.2984469047593) rotate(0 8.88092041015625 7.993365307753834)"><text x="0" y="0" font-family="Helvetica, Segoe UI Emoji" font-size="13.901504883050114px" fill="#1e1e1e" text-anchor="start" style="white-space: pre;" direction="ltr" dominant-baseline="text-before-edge">FB</text></g><g stroke-linecap="round" transform="translate(278.37223371959965 712.4574112398665) rotate(0 11 11)"><path d="M0.42 3.01 C0.42 3.01, 0.42 3.01, 0.42 3.01 M0.42 3.01 C0.42 3.01, 0.42 3.01, 0.42 3.01 M0.15 9.41 C2.64 6.01, 4.84 2.98, 7.37 1.11 M0.15 9.41 C2.26 8.08, 3.84 6, 7.37 1.11 M-0.11 15.81 C4.3 11.49, 6.46 9.18, 11.7 2.22 M-0.11 15.81 C4.57 9.81, 9.6 4.08, 11.7 2.22 M2.91 18.43 C5.68 13.05, 13.39 8.81, 16.69 2.58 M2.91 18.43 C5.81 14.8, 8.98 9.56, 16.69 2.58 M3.96 23.32 C11.96 16.66, 14.94 10.22, 21.68 2.94 M3.96 23.32 C7.45 18.21, 11.91 14.46, 21.68 2.94 M8.95 23.68 C14.32 19.15, 16.17 16.06, 23.38 7.08 M8.95 23.68 C14.84 17.97, 19.76 11.43, 23.38 7.08 M13.94 24.04 C16.26 21.9, 17.2 18.42, 23.12 13.47 M13.94 24.04 C16.84 20.87, 19.87 17.72, 23.12 13.47" stroke="#e03131" stroke-width="0.5" fill="none"></path><path d="M5.5 0 M5.5 0 C8.52 0.71, 11.13 -1.08, 16.5 0 M5.5 0 C9.61 -0.4, 12.87 -0.24, 16.5 0 M16.5 0 C18.73 -1.12, 20.77 1.34, 22 5.5 M16.5 0 C22.47 -0.61, 22.8 2.68, 22 5.5 M22 5.5 C21.68 9, 21.71 13.28, 22 16.5 M22 5.5 C21.83 9.5, 22.17 13.71, 22 16.5 M22 16.5 C23.66 22.04, 18.31 21.56, 16.5 22 M22 16.5 C23.57 20.54, 20.58 20.34, 16.5 22 M16.5 22 C13.08 22.63, 9.97 22.57, 5.5 22 M16.5 22 C12.73 21.57, 10.3 22.09, 5.5 22 M5.5 22 C3.66 20.21, 0.57 20.28, 0 16.5 M5.5 22 C4.11 21.59, 1.88 22.05, 0 16.5 M0 16.5 C0.48 12.28, -0.89 8.6, 0 5.5 M0 16.5 C-0.2 14.21, 0.12 10.68, 0 5.5 M0 5.5 C1.3 1.18, 2.2 1.57, 5.5 0 M0 5.5 C0.24 2.73, 2.94 -2.01, 5.5 0" stroke="#c2255c" stroke-width="1" fill="none"></path></g><g transform="translate(282.1703550405339 713.4482959346194) rotate(0 7.986091613769531 8.699999999999989)"><text x="0" y="0" font-family="Helvetica, Segoe UI Emoji" font-size="15.130434782608685px" fill="#1e1e1e" text-anchor="start" style="white-space: pre;" direction="ltr" dominant-baseline="text-before-edge">IG</text></g><g stroke-linecap="round" transform="translate(244.87390544587151 712.0851775202669) rotate(0 11 11)"><path d="M0.42 3.01 C0.42 3.01, 0.42 3.01, 0.42 3.01 M0.42 3.01 C0.42 3.01, 0.42 3.01, 0.42 3.01 M0.15 9.41 C2.1 7, 4.9 5.14, 7.37 1.11 M0.15 9.41 C1.54 7.79, 3.5 5.7, 7.37 1.11 M-0.11 15.81 C0.69 12.36, 4.86 11.85, 11.7 2.22 M-0.11 15.81 C3.74 10.89, 7.86 7.77, 11.7 2.22 M2.91 18.43 C7.27 11.92, 13.29 6.83, 16.69 2.58 M2.91 18.43 C6.62 13.61, 12.01 8.06, 16.69 2.58 M3.96 23.32 C10.15 15.52, 14.92 12.52, 21.68 2.94 M3.96 23.32 C8.21 17.91, 11.8 13.81, 21.68 2.94 M8.95 23.68 C14.7 18.26, 19.63 13.09, 23.38 7.08 M8.95 23.68 C12.31 19.23, 15.29 15.77, 23.38 7.08 M13.94 24.04 C17.78 21.03, 19.79 18.75, 23.12 13.47 M13.94 24.04 C16.39 21.42, 20.37 16.79, 23.12 13.47" stroke="#343a40" stroke-width="0.5" fill="none"></path><path d="M5.5 0 M5.5 0 C8.26 0.97, 10.98 0.37, 16.5 0 M5.5 0 C9.98 0.26, 14.3 -0.43, 16.5 0 M16.5 0 C20.69 -1.74, 22.81 0.01, 22 5.5 M16.5 0 C18.27 0.45, 23.87 2.45, 22 5.5 M22 5.5 C22.99 7.93, 22.23 13.09, 22 16.5 M22 5.5 C22.12 8.4, 21.68 12.14, 22 16.5 M22 16.5 C23.97 20.46, 22.12 23.82, 16.5 22 M22 16.5 C20.2 18.38, 20.53 22.41, 16.5 22 M16.5 22 C12.91 22.45, 10.73 22.82, 5.5 22 M16.5 22 C12.29 21.62, 7.67 22.23, 5.5 22 M5.5 22 C0.13 20.59, -0.36 21.58, 0 16.5 M5.5 22 C1.3 20.06, 1.51 20.22, 0 16.5 M0 16.5 C0.76 11.74, 0.58 9.14, 0 5.5 M0 16.5 C-0.06 12.09, -0.46 8.64, 0 5.5 M0 5.5 C0.47 1.8, 3.61 1.83, 5.5 0 M0 5.5 C0.57 2.91, 2.29 -1.6, 5.5 0" stroke="#1e1e1e" stroke-width="1" fill="none"></path></g><g transform="translate(249.78872792560446 712.0000000000001) rotate(0 5.912879943847656 10.200000000000045)"><text x="0" y="0" font-family="Helvetica, Segoe UI Emoji" font-size="17.739130434782655px" fill="#1e1e1e" text-anchor="start" style="white-space: pre;" direction="ltr" dominant-baseline="text-before-edge">X</text></g><g transform="translate(40.25388965459513 180.5) rotate(0 38.81597900390625 10)"><text x="0" y="0" font-family="Virgil, Segoe UI Emoji" font-size="16px" fill="#1e1e1e" text-anchor="start" style="white-space: pre;" direction="ltr" dominant-baseline="text-before-edge">Mi carrito</text></g><g transform="translate(334.2538896545951 185.5) rotate(0 74.50395202636719 10)"><text x="0" y="0" font-family="Virgil, Segoe UI Emoji" font-size="16px" fill="#1e1e1e" text-anchor="start" style="white-space: pre;" direction="ltr" dominant-baseline="text-before-edge">Resumen del pedido</text></g><g stroke-linecap="round"><g transform="translate(39.25388965459513 209) rotate(0 129.20836503178347 -0.5601412994461157)"><path d="M0.44 0.02 C43.71 -0.28, 216.11 -0.95, 259.21 -1.26 M-0.8 -1.02 C42.37 -1.19, 215.19 0.13, 258.38 0.14" stroke="#1e1e1e" stroke-width="1" fill="none"></path></g></g><mask></mask><g stroke-linecap="round"><g transform="translate(323.2538896545951 210) rotate(0 87.53302152909805 0.20945272429844408)"><path d="M-0.31 0.15 C28.52 0.2, 144.11 0.06, 173.12 0.14 M1.73 -0.81 C30.92 -0.62, 146.85 0.8, 175.37 1.23" stroke="#1e1e1e" stroke-width="1" fill="none"></path></g></g><mask></mask><g stroke-opacity="0" fill-opacity="0" stroke-linecap="round" transform="translate(47.87522807275957 221.62133841816438) rotate(0 28.62740216282714 28.62740216282711)"><path d="M35.31 0.55 C40.87 1.6, 48.31 6.66, 51.82 11.66 C55.32 16.66, 56.86 24.39, 56.32 30.58 C55.78 36.76, 52.89 44.19, 48.56 48.77 C44.23 53.35, 36.36 57.55, 30.34 58.05 C24.31 58.55, 17.23 55.47, 12.4 51.76 C7.58 48.04, 3.06 41.61, 1.39 35.78 C-0.28 29.95, -0.26 22.43, 2.37 16.77 C5 11.11, 11.38 4.29, 17.18 1.83 C22.97 -0.63, 33.4 1.9, 37.13 2.02 C40.86 2.13, 39.75 2.29, 39.55 2.52 M40.05 1.31 C45.34 3.6, 50.86 10.65, 53.54 16.36 C56.22 22.07, 57.33 29.63, 56.12 35.56 C54.91 41.5, 51.34 48.3, 46.27 51.97 C41.21 55.64, 32.12 58.24, 25.73 57.56 C19.33 56.89, 12.07 52.42, 7.91 47.93 C3.74 43.43, 1.29 36.51, 0.72 30.59 C0.15 24.67, 1.12 17.53, 4.49 12.42 C7.87 7.3, 14.85 1.61, 20.96 -0.11 C27.06 -1.83, 38.07 1.36, 41.12 2.08 C44.17 2.8, 39.53 3.94, 39.24 4.22" stroke="#1e1e1e" stroke-width="1" fill="none"></path></g><g stroke-linecap="round"><g transform="translate(64.42810251656488 235.42680669518523) rotate(0 12.915440697783282 7.286560973087461)"><path d="M0.62 0.91 C0.47 3.58, -0.45 12.16, -0.08 15 C0.29 17.85, -0.68 17.61, 2.83 17.98 C6.34 18.35, 17.38 17.7, 20.97 17.23 C24.56 16.77, 23.74 18.17, 24.38 15.18 C25.02 12.18, 25.15 2.32, 24.8 -0.74 C24.46 -3.8, 25.85 -2.81, 22.33 -3.16 C18.82 -3.51, 7.5 -3.31, 3.71 -2.84 C-0.08 -2.37, 0.18 -0.95, -0.41 -0.33 M-0.51 0.35 C-0.89 3.23, -1.38 13, -0.99 16.13 C-0.61 19.27, -1.84 18.89, 1.81 19.17 C5.46 19.45, 16.84 18.45, 20.92 17.81 C25 17.17, 25.4 18.08, 26.28 15.34 C27.16 12.59, 27.26 4.63, 26.19 1.33 C25.13 -1.96, 23.85 -3.71, 19.89 -4.42 C15.93 -5.13, 5.54 -3.97, 2.45 -2.93 C-0.64 -1.9, 1.6 1.14, 1.37 1.78" stroke="#1e1e1e" stroke-width="1" fill="none"></path></g></g><mask></mask><g stroke-linecap="round"><g transform="translate(64.19726868458906 249.66155966702377) rotate(0 11.842339361491554 -2.888189774248559)"><path d="M0.07 -0.77 C1.72 -2.12, 8.02 -6.73, 10.52 -7.18 C13.03 -7.63, 13.84 -3.64, 15.12 -3.46 C16.41 -3.29, 16.57 -6.37, 18.23 -6.13 C19.88 -5.9, 23.71 -2.93, 25.04 -2.05 M-1.35 1.44 C0.05 0.19, 6.76 -5.09, 9.32 -5.77 C11.89 -6.46, 12.58 -2.76, 14.06 -2.67 C15.54 -2.59, 16.6 -5.34, 18.18 -5.26 C19.76 -5.18, 22.49 -2.78, 23.54 -2.21" stroke="#1e1e1e" stroke-width="1" fill="none"></path></g></g><mask></mask><g stroke-linecap="round" transform="translate(79.81702464828231 235.96541896979534) rotate(0 1.692781434488893 1.6927814344889214)"><path d="M0.93 0.01 C1.25 0.13, 1.16 0.98, 1.57 1.09 C1.98 1.2, 3.01 0.52, 3.37 0.64 C3.73 0.77, 3.88 1.39, 3.71 1.83 C3.54 2.27, 2.6 3.16, 2.36 3.26 C2.11 3.37, 2.63 2.46, 2.23 2.49 C1.84 2.51, 0.27 3.56, -0.01 3.43 C-0.29 3.31, 0.61 2.34, 0.54 1.76 C0.46 1.17, -0.74 0.18, -0.45 -0.06 C-0.16 -0.31, 2.08 0.28, 2.29 0.29 C2.49 0.29, 1.04 0.07, 0.78 -0.03 M2.63 0.29 C2.85 0.35, 1.93 0.93, 1.9 0.93 C1.87 0.92, 2.17 0.13, 2.45 0.24 C2.72 0.34, 3.7 1.09, 3.58 1.56 C3.46 2.02, 2.11 2.96, 1.73 3.02 C1.34 3.09, 1.36 2.1, 1.26 1.93 C1.16 1.76, 1.41 1.91, 1.11 2 C0.8 2.08, -0.61 2.95, -0.58 2.45 C-0.56 1.94, 0.74 -0.55, 1.25 -1.04 C1.75 -1.52, 2.2 -0.79, 2.42 -0.46 C2.64 -0.14, 2.65 0.88, 2.55 0.9" stroke="#1e1e1e" stroke-width="1" fill="none"></path></g><g transform="translate(62.3269481677155 256.8522253941383) rotate(0 14.175682067871094 6.129680217723262)"><text x="14.175682067871094" y="0" font-family="Virgil, Segoe UI Emoji" font-size="9.807488348357227px" fill="#1e1e1e" text-anchor="middle" style="white-space: pre;" direction="ltr" dominant-baseline="text-before-edge">Image</text></g><g transform="translate(101.48388387864827 231.09644612131092) rotate(0 29.323951721191406 8.327084547687207)"><text x="0" y="0" font-family="Virgil, Segoe UI Emoji" font-size="13.323335276299533px" fill="#1e1e1e" text-anchor="start" style="white-space: pre;" direction="ltr" dominant-baseline="text-before-edge">Producto</text></g><g transform="translate(102.31659233341702 249.41603212622277) rotate(0 16.50322723388672 4.820231048801503)"><text x="0" y="0" font-family="Virgil, Segoe UI Emoji" font-size="7.712369678082389px" fill="#1e1e1e" text-anchor="start" style="white-space: pre;" direction="ltr" dominant-baseline="text-before-edge">$ 4.000</text></g><g stroke-linecap="round" transform="translate(178.43396649508054 231.7933868932369) rotate(0 16.31642516128818 8.335565028049388)"><path d="M4.17 0 M4.17 0 C14.9 1.8, 22.05 -0.95, 28.47 0 M4.17 0 C12.76 -0.89, 21.82 0.34, 28.47 0 M28.47 0 C30.36 -0.89, 33.97 0.07, 32.63 4.17 M28.47 0 C31.47 -1.5, 32.79 2.17, 32.63 4.17 M32.63 4.17 C31.97 5.96, 32.53 7.62, 32.63 12.5 M32.63 4.17 C32.43 6.83, 32.33 10.27, 32.63 12.5 M32.63 12.5 C33.75 17.09, 30.06 14.9, 28.47 16.67 M32.63 12.5 C32.1 14.95, 31.93 15.68, 28.47 16.67 M28.47 16.67 C21.52 17.6, 14.68 18.39, 4.17 16.67 M28.47 16.67 C19.99 16.86, 9.75 16.59, 4.17 16.67 M4.17 16.67 C-0.49 15.61, -0.06 13.52, 0 12.5 M4.17 16.67 C3.06 16.27, -0.71 16.37, 0 12.5 M0 12.5 C0.38 11.22, -0.59 8.59, 0 4.17 M0 12.5 C-0.45 9.73, -0.3 7, 0 4.17 M0 4.17 C0.06 2.51, 2.81 0.79, 4.17 0 M0 4.17 C1.08 2.07, 2.81 0.75, 4.17 0" stroke="#1e1e1e" stroke-width="1" fill="none"></path></g><g transform="translate(201.13507976295978 232.49135458947717) rotate(0 4.609375 9.222327265075904)"><text x="0" y="0" font-family="Virgil, Segoe UI Emoji" font-size="14.755723624121464px" fill="#1e1e1e" text-anchor="start" style="white-space: pre;" direction="ltr" dominant-baseline="text-before-edge">+</text></g><g transform="translate(180.91690075875488 233.55546927390895) rotate(0 2.6221771240234375 7.980860133238764)"><text x="0" y="0" font-family="Virgil, Segoe UI Emoji" font-size="12.769376213182033px" fill="#1e1e1e" text-anchor="start" style="white-space: pre;" direction="ltr" dominant-baseline="text-before-edge">-</text></g><g transform="translate(193.40464174009605 236.55901878641816) rotate(0 1.3455123901367188 6.207335659185702)"><text x="0" y="0" font-family="Virgil, Segoe UI Emoji" font-size="9.931737054697138px" fill="#1e1e1e" text-anchor="start" style="white-space: pre;" direction="ltr" dominant-baseline="text-before-edge">1</text></g><g transform="translate(233.22286054872507 234.84363416777018) rotate(0 17.102577209472656 4.996250728612324)"><text x="0" y="0" font-family="Virgil, Segoe UI Emoji" font-size="7.994001165779713px" fill="#1e1e1e" text-anchor="start" style="white-space: pre;" direction="ltr" dominant-baseline="text-before-edge">$ 4.000</text></g><g transform="translate(279.8545340157734 230.26373766654223) rotate(0 3.9826736450195312 8.327084547687207)"><text x="0" y="0" font-family="Virgil, Segoe UI Emoji" font-size="13.323335276299533px" fill="#e03131" text-anchor="start" style="white-space: pre;" direction="ltr" dominant-baseline="text-before-edge">X</text></g><g stroke-linecap="round"><g transform="translate(44.00315095500525 293.5915705818729) rotate(0 128.07570914924145 -0.04844990671466576)"><path d="M-1 -0.88 C41.74 -1.28, 214.37 -1.35, 257.15 -1.41 M0.67 1.27 C43.29 1.56, 214.46 0.13, 256.81 -0.08" stroke="#1e1e1e" stroke-width="1" fill="none"></path></g></g><mask></mask><g transform="translate(334.2538896545951 235) rotate(0 30.871978759765625 8.5)"><text x="0" y="0" font-family="Virgil, Segoe UI Emoji" font-size="13.599999999999994px" fill="#1e1e1e" text-anchor="start" style="white-space: pre;" direction="ltr" dominant-baseline="text-before-edge">Subtotal:</text></g><g transform="translate(429.2538896545951 240) rotate(0 23.738121032714844 6.9341255896979135)"><text x="0" y="0" font-family="Virgil, Segoe UI Emoji" font-size="11.094600943516655px" fill="#1e1e1e" text-anchor="start" style="white-space: pre;" direction="ltr" dominant-baseline="text-before-edge">$ 4.000</text></g><g stroke-linecap="round"><g transform="translate(322.7208681254971 332.79054727570156) rotate(0 86.74830986530048 -0.36476750225759247)"><path d="M0.93 -0.47 C30.05 -0.36, 144.63 -0.29, 173.54 0.01 M-0.05 -1.76 C28.98 -1.48, 143.37 0.27, 172.36 1.03" stroke="#1e1e1e" stroke-width="1" fill="none"></path></g></g><mask></mask><g transform="translate(342.38190936895046 354) rotate(0 24.759986877441406 10)"><text x="0" y="0" font-family="Virgil, Segoe UI Emoji" font-size="16px" fill="#1e1e1e" text-anchor="start" style="white-space: pre;" direction="ltr" dominant-baseline="text-before-edge">Total:</text></g><g transform="translate(416.0059114441459 354) rotate(0 34.24797821044922 10)"><text x="0" y="0" font-family="Virgil, Segoe UI Emoji" font-size="16px" fill="#1e1e1e" text-anchor="start" style="white-space: pre;" direction="ltr" dominant-baseline="text-before-edge">$ 4.000</text></g><g stroke-linecap="round" transform="translate(331.2538896545951 399) rotate(0 81.5 17)"><path d="M9.52 1.9 L159.78 -1.16 L164.29 6.22 L161.83 27.89 L160.16 32.88 L154.3 35.65 L6.47 31.94 L2.33 29.74 L-1.42 7 L3.66 1.43 L9.26 0.48" stroke="none" stroke-width="0" fill="#a5d8ff"></path><path d="M8.5 0 M8.5 0 C53.86 0.92, 100.55 -1.81, 154.5 0 M8.5 0 C64.87 0.26, 120.02 -1.32, 154.5 0 M154.5 0 C162.05 0.02, 162.5 3.85, 163 8.5 M154.5 0 C160.29 -1.24, 162.01 4.75, 163 8.5 M163 8.5 C162.61 13.26, 162.78 14.9, 163 25.5 M163 8.5 C162.73 13.99, 163.67 18.61, 163 25.5 M163 25.5 C163.64 31.81, 161.36 34.53, 154.5 34 M163 25.5 C162.97 29.11, 159.36 32.27, 154.5 34 M154.5 34 C108.3 34.04, 59.84 34.7, 8.5 34 M154.5 34 C102.9 33.85, 50.57 33.61, 8.5 34 M8.5 34 C2.22 33.39, -1.57 29.5, 0 25.5 M8.5 34 C5.03 31.96, 0.57 30.36, 0 25.5 M0 25.5 C-1.16 20.26, -1.82 14.6, 0 8.5 M0 25.5 C-0.57 19.98, -0.29 13.66, 0 8.5 M0 8.5 C-0.77 3.56, 2.15 1.63, 8.5 0 M0 8.5 C1.72 3.35, 0.88 -0.79, 8.5 0" stroke="#1e1e1e" stroke-width="1" fill="none"></path></g><g transform="translate(349.8979326233451 406) rotate(0 62.85595703125 10)"><text x="0" y="0" font-family="Virgil, Segoe UI Emoji" font-size="16px" fill="#1e1e1e" text-anchor="start" style="white-space: pre;" direction="ltr" dominant-baseline="text-before-edge">Finalizar compra</text></g><g stroke-linecap="round" transform="translate(333.21144459973584 35.27760769864824) rotate(0 82.15422160105675 15.699999999999989)"><path d="M2.09 1.82 C2.09 1.82, 2.09 1.82, 2.09 1.82 M2.09 1.82 C2.09 1.82, 2.09 1.82, 2.09 1.82 M1.17 8.97 C3.39 6.01, 6.94 3.77, 8.39 0.67 M1.17 8.97 C2.18 6.73, 4.18 5.94, 8.39 0.67 M1.57 14.61 C6.9 11.14, 9.64 5.22, 14.03 0.27 M1.57 14.61 C4.6 11.4, 7.65 7.41, 14.03 0.27 M1.31 21.01 C4.86 14.27, 12 8.55, 19.02 0.63 M1.31 21.01 C4.82 17.63, 9.12 13.16, 19.02 0.63 M1.04 27.41 C4.75 22.23, 11.58 15.15, 24.66 0.24 M1.04 27.41 C8.87 18.79, 15.59 10.69, 24.66 0.24 M4.06 30.03 C14.25 18.73, 20.98 10.27, 29.65 0.6 M4.06 30.03 C13.03 20.03, 22.02 9.68, 29.65 0.6 M7.08 32.66 C16.04 19.84, 25.56 11.12, 34.64 0.96 M7.08 32.66 C18.47 20.64, 28.34 6.78, 34.64 0.96 M12.07 33.02 C20.77 23.79, 25.46 17.56, 40.28 0.56 M12.07 33.02 C21.5 22.94, 29.07 13.4, 40.28 0.56 M17.06 33.38 C24.87 25.94, 31.05 17.11, 45.27 0.92 M17.06 33.38 C26.49 21.76, 37.52 8.62, 45.27 0.92 M22.7 32.98 C33.32 20.11, 44.01 9.55, 50.91 0.53 M22.7 32.98 C29.6 25.38, 36.11 16.37, 50.91 0.53 M27.69 33.34 C36.57 23.02, 49.48 9.32, 55.9 0.89 M27.69 33.34 C34.44 24.68, 42.18 14.88, 55.9 0.89 M33.33 32.95 C43.12 23.55, 54.37 9.25, 61.54 0.49 M33.33 32.95 C43.22 21.64, 52.43 10.58, 61.54 0.49 M38.32 33.31 C42.86 27.45, 50.86 20.11, 66.53 0.85 M38.32 33.31 C43.31 26.37, 49.93 19.39, 66.53 0.85 M43.96 32.91 C51.42 25.96, 58.9 18.87, 72.17 0.46 M43.96 32.91 C50.86 26.52, 55.47 19.42, 72.17 0.46 M48.95 33.27 C61.14 20.36, 71.07 9.57, 77.16 0.82 M48.95 33.27 C58.23 22.06, 67.64 10.94, 77.16 0.82 M54.59 32.88 C64.55 20.31, 73.24 8.88, 82.8 0.43 M54.59 32.88 C65.31 21.87, 74.96 9.75, 82.8 0.43 M59.58 33.24 C65.76 26.61, 71.69 18.08, 87.79 0.79 M59.58 33.24 C67.78 23.46, 76.18 14.64, 87.79 0.79 M65.22 32.84 C75.8 21.19, 81.47 12.68, 92.77 1.15 M65.22 32.84 C74.65 22.72, 82.91 12.67, 92.77 1.15 M70.21 33.2 C76.95 25.98, 80.64 19.63, 98.42 0.75 M70.21 33.2 C77.93 22.71, 86.09 12.94, 98.42 0.75 M75.19 33.56 C82.96 23.11, 92.49 12.85, 103.4 1.11 M75.19 33.56 C83.21 24.84, 90.73 15.98, 103.4 1.11 M80.84 33.17 C86.79 24.25, 95.32 19.28, 109.05 0.72 M80.84 33.17 C89.72 24.52, 97.13 14.21, 109.05 0.72 M85.82 33.53 C94.33 23.06, 101.45 15.92, 114.03 1.08 M85.82 33.53 C92.08 25.84, 99.16 17.6, 114.03 1.08 M91.47 33.13 C98.46 23.16, 108.48 17.19, 119.68 0.68 M91.47 33.13 C98.62 26.6, 104.89 18.21, 119.68 0.68 M96.45 33.49 C101.53 25.59, 111.84 18.2, 124.66 1.04 M96.45 33.49 C104.98 22.49, 115.75 12.08, 124.66 1.04 M102.1 33.1 C108.52 23.53, 120.82 14.22, 130.31 0.65 M102.1 33.1 C111.5 23.5, 119.43 13.41, 130.31 0.65 M107.08 33.46 C113.95 23.47, 123.33 14.08, 135.29 1.01 M107.08 33.46 C114.53 23.66, 122.93 15.59, 135.29 1.01 M112.73 33.07 C116.29 28.05, 122.42 18.75, 140.94 0.61 M112.73 33.07 C123.69 20.61, 135.38 6.49, 140.94 0.61 M117.71 33.43 C127.79 22.28, 136.98 8.37, 145.92 0.97 M117.71 33.43 C124.4 25.07, 130.81 18.63, 145.92 0.97 M123.36 33.03 C127.67 26.82, 135.66 19.36, 150.91 1.33 M123.36 33.03 C129.82 26.12, 134.29 19.97, 150.91 1.33 M128.34 33.39 C132.39 25.69, 139.94 20.09, 156.55 0.94 M128.34 33.39 C136.35 23.69, 143.41 15.77, 156.55 0.94 M133.33 33.75 C137.94 27.18, 144.18 19.76, 161.54 1.3 M133.33 33.75 C142 24.6, 149.77 14.5, 161.54 1.3 M138.97 33.36 C146.81 26.41, 153.31 18.02, 163.9 4.68 M138.97 33.36 C145.96 25.62, 153.44 18.6, 163.9 4.68 M143.96 33.72 C149.64 25.96, 153.85 21.21, 164.3 10.32 M143.96 33.72 C149.63 28, 154.84 20.41, 164.3 10.32 M149.6 33.32 C152.81 30.61, 157.41 27.4, 164.04 16.72 M149.6 33.32 C154.52 26.81, 159.04 21.95, 164.04 16.72 M156.56 31.42 C157.88 28.31, 161.38 26.23, 163.78 23.12 M156.56 31.42 C157.62 29.93, 159.46 27.78, 163.78 23.12" stroke="#b2f2bb" stroke-width="0.5" fill="none"></path><path d="M7.85 0 M7.85 0 C41.36 0.1, 75.9 2.36, 156.46 0 M7.85 0 C53.53 1.19, 99.83 1.78, 156.46 0 M156.46 0 C163.28 -0.65, 165.04 2.23, 164.31 7.85 M156.46 0 C161.56 -0.03, 164.29 4.81, 164.31 7.85 M164.31 7.85 C165 12.92, 163.83 18.27, 164.31 23.55 M164.31 7.85 C163.48 11.87, 164.67 15.32, 164.31 23.55 M164.31 23.55 C165.95 30.7, 161.08 31.55, 156.46 31.4 M164.31 23.55 C162.43 29.63, 161.8 33.19, 156.46 31.4 M156.46 31.4 C96.83 30.28, 39.18 29.85, 7.85 31.4 M156.46 31.4 C119.2 30.58, 79.77 31.5, 7.85 31.4 M7.85 31.4 C1.49 32.85, 1.71 29.12, 0 23.55 M7.85 31.4 C1.7 29.8, -0.66 29.48, 0 23.55 M0 23.55 C1.32 17.56, -0.01 12.44, 0 7.85 M0 23.55 C-0.34 18.04, 0.88 12.83, 0 7.85 M0 7.85 C1.03 2.55, 2.13 -0.94, 7.85 0 M0 7.85 C0.3 1.97, 2.51 2.11, 7.85 0" stroke="#2f9e44" stroke-width="1" fill="none"></path></g><g transform="translate(350.1144459973581 42.73330493880795) rotate(0 28.08808135986328 8.244302759840295)"><text x="0" y="0" font-family="Virgil, Segoe UI Emoji" font-size="13.19088441574446px" fill="#2f9e44" text-anchor="start" style="white-space: pre;" direction="ltr" dominant-baseline="text-before-edge">Buscar...</text></g><g stroke-linecap="round" transform="translate(44.751738165337315 28.477607698648228) rotate(0 94 22.5)"><path d="M2.99 2.6 C2.99 2.6, 2.99 2.6, 2.99 2.6 M2.99 2.6 C2.99 2.6, 2.99 2.6, 2.99 2.6 M0.76 11.27 C3.69 8.61, 7.42 5.04, 9.95 0.7 M0.76 11.27 C3.57 8.31, 4.88 5.33, 9.95 0.7 M0.5 17.66 C5.13 15.03, 6.45 8.51, 13.62 2.57 M0.5 17.66 C3.54 15.21, 6.67 10.58, 13.62 2.57 M0.9 23.31 C8.15 15.76, 11.48 8.02, 19.27 2.17 M0.9 23.31 C8.11 15.99, 14.4 8.39, 19.27 2.17 M0.64 29.7 C8.04 21.16, 16 15.38, 24.25 2.53 M0.64 29.7 C7.69 20.92, 13.97 14.43, 24.25 2.53 M1.03 35.35 C10.81 23.31, 20.06 11, 29.9 2.14 M1.03 35.35 C7.57 28.91, 14.19 20.29, 29.9 2.14 M2.08 40.24 C10.97 30.41, 19.2 18.16, 34.88 2.5 M2.08 40.24 C13.51 26.68, 26.76 12.1, 34.88 2.5 M5.1 42.86 C15.69 28.57, 25.76 19.74, 40.53 2.11 M5.1 42.86 C18.19 27.74, 31.99 12.02, 40.53 2.11 M8.12 45.48 C16.27 34.84, 25.43 26.26, 45.51 2.47 M8.12 45.48 C17.85 32.08, 30.21 20.21, 45.51 2.47 M13.11 45.84 C26.9 28.05, 41.79 12.49, 51.16 2.07 M13.11 45.84 C26.84 31.16, 39.88 15.17, 51.16 2.07 M18.75 45.45 C29.01 32.4, 37.15 23.65, 56.14 2.43 M18.75 45.45 C27.73 33.64, 39.06 22.26, 56.14 2.43 M23.74 45.81 C32.75 36.99, 38.61 28.67, 61.13 2.79 M23.74 45.81 C35.83 32.53, 49.3 17.09, 61.13 2.79 M29.38 45.41 C43.55 27.48, 57.46 13.51, 66.78 2.4 M29.38 45.41 C38.76 35.9, 48.58 25.38, 66.78 2.4 M34.37 45.77 C45.34 34.27, 54.94 21.36, 71.76 2.76 M34.37 45.77 C45.82 32.4, 58.94 17.87, 71.76 2.76 M39.35 46.13 C49 33.58, 58.25 24.73, 77.41 2.36 M39.35 46.13 C53.47 30.68, 66.8 14.98, 77.41 2.36 M45 45.74 C54.81 35.83, 62.06 23.22, 82.39 2.72 M45 45.74 C55.15 35.22, 63.85 23.94, 82.39 2.72 M49.98 46.1 C64.36 30.22, 80.45 11.87, 88.04 2.33 M49.98 46.1 C57.59 35.14, 65.54 26.38, 88.04 2.33 M55.63 45.71 C69.74 30.39, 86.57 11.65, 93.02 2.69 M55.63 45.71 C63.97 35.25, 72.49 26.48, 93.02 2.69 M60.61 46.07 C71.46 35.33, 80.7 20.84, 98.67 2.29 M60.61 46.07 C71.14 33.59, 83.75 20.31, 98.67 2.29 M66.26 45.67 C78.34 35.52, 86.38 20.93, 103.65 2.65 M66.26 45.67 C76.28 34.99, 85.55 25.4, 103.65 2.65 M71.24 46.03 C87.84 30.8, 99.01 12.52, 108.64 3.01 M71.24 46.03 C82.99 33.32, 94.31 19.73, 108.64 3.01 M76.89 45.64 C90 29.4, 104.08 13.04, 114.28 2.62 M76.89 45.64 C88.8 30.38, 102.33 15.85, 114.28 2.62 M81.87 46 C94.53 30.71, 107.31 16.28, 119.27 2.98 M81.87 46 C89.06 36.02, 97.37 28.27, 119.27 2.98 M86.86 46.36 C95.97 36.86, 105.07 25.6, 124.91 2.58 M86.86 46.36 C101.96 29.32, 116.45 11.14, 124.91 2.58 M92.5 45.96 C101.45 32.47, 114.55 21.67, 129.9 2.94 M92.5 45.96 C100.3 38.15, 106.77 28.34, 129.9 2.94 M97.49 46.32 C109.35 32.86, 119.58 22.07, 135.54 2.55 M97.49 46.32 C110.94 31.28, 123.39 16.91, 135.54 2.55 M103.13 45.93 C112.21 35.37, 125.66 22.08, 140.53 2.91 M103.13 45.93 C116.21 31.47, 129.52 15.86, 140.53 2.91 M108.12 46.29 C116.38 34.24, 127.16 27.23, 146.17 2.51 M108.12 46.29 C121.16 31.02, 135.07 14.32, 146.17 2.51 M113.76 45.89 C123.26 34.41, 129.07 25.36, 151.16 2.87 M113.76 45.89 C127.22 30.36, 140.46 14.42, 151.16 2.87 M118.75 46.25 C129.14 33.26, 138.05 22.45, 156.15 3.23 M118.75 46.25 C129.31 34.19, 140.96 21.18, 156.15 3.23 M124.39 45.86 C135.5 31.69, 146.76 19.4, 161.79 2.84 M124.39 45.86 C132.25 36.24, 140.26 27.91, 161.79 2.84 M129.38 46.22 C136.91 35.89, 146.73 25.17, 166.78 3.2 M129.38 46.22 C139.3 36.3, 147.91 25.56, 166.78 3.2 M134.37 46.58 C146.77 33.4, 156.97 19.34, 172.42 2.81 M134.37 46.58 C145.99 33.31, 156.4 21.42, 172.42 2.81 M140.01 46.18 C156.11 30.25, 167.48 12.41, 177.41 3.17 M140.01 46.18 C151.93 32.12, 164.77 19.42, 177.41 3.17 M145 46.54 C153.73 33.63, 165.48 25.63, 183.71 2.02 M145 46.54 C154.94 35.26, 163.69 24.26, 183.71 2.02 M150.64 46.15 C160.11 32.83, 170.78 21.98, 186.07 5.4 M150.64 46.15 C161.93 33.29, 172.87 19.11, 186.07 5.4 M155.63 46.51 C162.22 37.18, 172.1 25.01, 189.09 8.02 M155.63 46.51 C164.22 38.37, 171.24 28.32, 189.09 8.02 M161.27 46.12 C167.69 36.95, 176.49 28.38, 189.48 13.66 M161.27 46.12 C169.77 36.61, 176.59 27.43, 189.48 13.66 M166.26 46.48 C172.97 39.5, 182.49 28.1, 189.22 20.06 M166.26 46.48 C174.35 36.88, 184.86 25.94, 189.22 20.06 M171.9 46.08 C176.69 36.65, 184.47 31.59, 188.96 26.46 M171.9 46.08 C177.43 41.28, 180.53 36.44, 188.96 26.46 M177.54 45.69 C182.13 40.09, 185.46 34.09, 189.35 32.1 M177.54 45.69 C181.8 41.77, 185.3 37.23, 189.35 32.1" stroke="#b2f2bb" stroke-width="0.5" fill="none"></path><path d="M11.25 0 M11.25 0 C57.7 2.04, 106.71 1.32, 176.75 0 M11.25 0 C51.74 -0.37, 91.25 -0.56, 176.75 0 M176.75 0 C184.76 -0.79, 186.49 2.43, 188 11.25 M176.75 0 C186.51 -1.05, 188.29 3.19, 188 11.25 M188 11.25 C189.33 16.96, 187.42 26.65, 188 33.75 M188 11.25 C187.71 17.04, 188.1 23.17, 188 33.75 M188 33.75 C187.49 39.86, 185.32 43.51, 176.75 45 M188 33.75 C189.72 40.61, 182.7 46.09, 176.75 45 M176.75 45 C140.92 45.02, 110.26 43.72, 11.25 45 M176.75 45 C118.77 45.22, 61.58 44.38, 11.25 45 M11.25 45 C5.24 45.97, -1.48 41.82, 0 33.75 M11.25 45 C3.7 45.16, -2.03 43.14, 0 33.75 M0 33.75 C-1.23 27.49, 0.92 23.18, 0 11.25 M0 33.75 C-0.37 23.82, 0.86 14.86, 0 11.25 M0 11.25 C1.36 2.87, 5.54 -1.34, 11.25 0 M0 11.25 C-1.89 5.94, 3.81 -0.87, 11.25 0" stroke="#12b886" stroke-width="1" fill="none"></path></g><g transform="translate(103.75173816533731 32.179863510779285) rotate(0 40.66120910644531 15.648872093934472)"><text x="0" y="0" font-family="Virgil, Segoe UI Emoji" font-size="25.038195350295148px" fill="#1e1e1e" text-anchor="start" style="white-space: pre;" direction="ltr" dominant-baseline="text-before-edge">Shibumi</text></g><g transform="translate(103.47054405646486 51.47760769864823) rotate(0 49.655975341796875 10)"><text x="0" y="0" font-family="Virgil, Segoe UI Emoji" font-size="16px" fill="#000000" text-anchor="start" style="white-space: pre;" direction="ltr" dominant-baseline="text-before-edge">Manga store</text></g><g stroke-linecap="round" transform="translate(53.47054405646486 35.47760769864823) rotate(0 15.5 15.5)"><path d="M4.36 5.12 C4.36 5.12, 4.36 5.12, 4.36 5.12 M4.36 5.12 C4.36 5.12, 4.36 5.12, 4.36 5.12 M1.98 14.04 C5.44 10.47, 11.17 5.46, 14.69 -1.79 M0.22 15.75 C2.82 12.89, 5.52 8.68, 14.5 -0.28 M1.43 18.32 C8.61 15.01, 10.05 7.95, 18.67 -0.18 M3.27 19.96 C7.83 15.29, 10.67 10.04, 18.27 1.53 M2.57 24.68 C9.75 16.63, 12.59 13.7, 21.27 1.47 M3.44 24.02 C8.89 19.25, 11.63 13.55, 21.66 3.45 M5.47 25.04 C10.49 19.45, 17.96 16.02, 24.06 5.24 M6.15 27.68 C11.85 22.49, 15.97 16.96, 26.38 5.31 M11.2 30.18 C15.07 23.77, 16.55 18.35, 27.53 6.73 M10.06 30.31 C16.06 22.74, 22.19 15.06, 28.83 8.09 M12.5 31.07 C20.89 22.84, 26.45 17.32, 31.03 11.68 M13.07 31.47 C19.95 24.09, 26.41 15.84, 30.58 10.69 M17.11 32.31 C24.74 27.42, 28.82 19.84, 32.9 12.94 M18.07 30.33 C23.18 24.24, 28.83 18.04, 33.8 13.99 M3.59 24.83 C3.59 24.83, 3.59 24.83, 3.59 24.83 M3.59 24.83 C3.59 24.83, 3.59 24.83, 3.59 24.83 M14.45 26.73 C9.24 24.16, 4.79 19.85, 0.35 18.19 M12.79 27.7 C9.59 24.1, 6.32 20.91, 1.82 18.46 M20.24 27.29 C13.01 22.88, 11.23 20.66, 3.65 12.87 M18.4 26.37 C11.66 22.31, 6.73 16.44, 1.9 12.74 M24.19 28.73 C14.67 20.73, 8.49 14.38, 2.77 9.37 M25.05 26.35 C17.2 20.24, 11.58 14.84, 3.39 8.81 M28.63 26.25 C20.2 17.89, 15.18 13.75, 5.39 4.7 M26.76 24.29 C19.32 17.34, 12.74 12.52, 4.66 5.55 M30.09 20.36 C24.63 18.18, 19.71 12.45, 6.62 1.21 M31.69 21.39 C23.87 16.17, 15.4 9.01, 8.06 3.5 M29.23 16.32 C27.9 11.62, 21.11 9.97, 11.76 -0.29 M30.97 16.24 C25.55 13.38, 21.69 9.41, 11.66 0.21 M31.26 11.48 C27.63 6.19, 20.59 3.08, 15.18 -1.64 M31.54 12.35 C26.21 8.08, 19.83 3.33, 15.49 -1.85" stroke="#fd7e14" stroke-width="0.5" fill="none"></path><path d="M13.3 -0.69 C16.53 -1.13, 21.04 0.82, 23.93 2.98 C26.82 5.15, 29.54 9.03, 30.65 12.29 C31.76 15.55, 31.93 19.84, 30.6 22.54 C29.27 25.24, 25.94 27.17, 22.67 28.49 C19.41 29.81, 14.14 31.05, 11 30.48 C7.86 29.91, 5.53 27.62, 3.85 25.06 C2.17 22.5, 0.89 18.38, 0.94 15.11 C0.98 11.83, 1.79 7.87, 4.12 5.4 C6.46 2.92, 12.94 1.13, 14.95 0.25 C16.95 -0.62, 16.16 -0.21, 16.15 0.15 M16.35 -1.46 C19.69 -1.44, 25.05 1.09, 27.45 3.74 C29.85 6.4, 30.77 11.16, 30.74 14.47 C30.71 17.78, 29.05 21.11, 27.28 23.59 C25.52 26.08, 23.16 28.13, 20.16 29.39 C17.16 30.65, 12.41 32.3, 9.27 31.14 C6.12 29.99, 2.88 25.74, 1.29 22.45 C-0.29 19.15, -1.06 14.82, -0.24 11.38 C0.58 7.95, 3.62 3.81, 6.22 1.82 C8.83 -0.16, 13.83 -0.35, 15.39 -0.5 C16.95 -0.64, 15.24 0.36, 15.58 0.95" stroke="#e67700" stroke-width="1" fill="none"></path></g><g stroke-linecap="round"><g transform="translate(92.47054405646486 34.97760769864823) rotate(0 -0.762587934067767 16.367411957103755)"><path d="M0.15 -0.57 C-0.1 4.78, -0.09 26.58, -0.27 31.85 M-1.24 1.75 C-1.77 7.3, -1.82 28.29, -1.36 33.3" stroke="#000000" stroke-width="1" fill="none"></path></g></g><mask></mask></svg>