<svg version="1.1" xmlns="http://www.w3.org/2000/svg" viewBox="0 0 1170.8832614950516 373.7026321229814" width="2341.766522990103" height="747.4052642459628">
  <!-- svg-source:excalidraw -->
  
  <defs>
    <style class="style-fonts">
      @font-face {
        font-family: "Virgil";
        src: url("https://excalidraw.com/Virgil.woff2");
      }
      @font-face {
        font-family: "Cascadia";
        src: url("https://excalidraw.com/Cascadia.woff2");
      }
    </style>
    
  </defs>
  <rect x="0" y="0" width="1170.8832614950516" height="373.7026321229814" fill="#ffffff"></rect><g stroke-opacity="0" fill-opacity="0" stroke-linecap="round" transform="translate(473.3232244243454 10) rotate(0 61.87866158183567 61.87866158183567)"><path d="M24.32 13.19 C24.32 13.19, 24.32 13.19, 24.32 13.19 M24.32 13.19 C24.32 13.19, 24.32 13.19, 24.32 13.19 M6.58 36.96 C17.51 28.13, 23.55 19.92, 32.18 10.6 M9.04 38.47 C14.97 29.61, 20.8 22.73, 34.12 9.62 M4.11 45.06 C17.74 29.93, 34.08 14.99, 39.6 4.57 M5.52 45.79 C14.99 35.14, 26.51 24.53, 41.61 6.15 M6.48 53.86 C11.88 44.94, 22.63 33.32, 51.53 0.6 M5.21 54.03 C19.43 37, 36.27 19.33, 49.72 0.44 M0.46 63.65 C16.83 46.5, 35.95 27.43, 53.95 0.66 M2.37 62.79 C17.04 46.57, 31.94 28.75, 54.99 2.98 M3.95 67.89 C23.88 42.94, 47.14 20.83, 59.15 4.78 M2.49 67.95 C16.48 53.49, 28.96 37.68, 59.95 2.41 M5.63 72.01 C20.29 54.69, 35.3 37.51, 64.23 4.18 M4.21 72.67 C22.89 50.57, 41.69 29.57, 64.83 3.84 M3.7 79.05 C26.66 56.05, 43.39 31.29, 70.41 1.84 M5.33 78.27 C23.66 56.55, 41.38 35.15, 69.17 3.65 M6.6 81.31 C34.82 52.74, 58 22.54, 73.21 3.48 M7.9 82.09 C28.3 57.36, 49.67 32.84, 75.31 3.71 M9.98 85.36 C33.16 57.73, 58.19 30.03, 80.59 4.23 M8.34 85.72 C35.32 55.41, 61.44 25.59, 80.72 2.24 M10.71 90.16 C28.47 68.99, 47.19 45.06, 85.17 6.38 M9.8 91.32 C25.64 71.93, 42.3 53.92, 85.64 4.76 M12.46 95.28 C36.51 70.04, 59.34 39.3, 88.21 6.71 M11.05 95.13 C40.19 61.32, 71.43 25.53, 87.24 7.69 M13.06 97.6 C32.63 75.66, 50.27 58.49, 91.86 10.23 M14.07 98.26 C33.26 76.31, 50.97 53.15, 91.16 9.28 M18.83 99.22 C44.53 64.78, 78 30.02, 94.03 12.64 M17.66 99.95 C35.78 79.22, 53.26 58.89, 94.71 12.32 M19.87 104.17 C35.31 85.06, 53.34 66.61, 96.41 12.5 M19.08 104.44 C36.98 83.33, 54.91 63.51, 98.1 13.45 M22.35 107.6 C43.97 80.93, 68.96 57.32, 100.04 17.41 M21.51 107.35 C53.15 72.22, 82.35 38.08, 100.4 15.65 M23.86 108.91 C54.1 79.04, 80.4 43.8, 105.41 20.19 M25.78 109.08 C44.47 87.93, 63.19 64.91, 104.77 17.58 M28.34 110.52 C47.31 87.03, 71.33 64.75, 107.99 21.11 M28.52 112.8 C49.01 89.44, 68.01 65.97, 108.42 20.05 M29.48 115.01 C57.38 84.54, 83.11 58.41, 108.96 25.53 M31.9 115.76 C62.05 79.6, 92.1 45.51, 110.54 24.89 M33.56 115.32 C55.41 91.24, 75.13 68.59, 110.78 29.59 M35.7 116.72 C59.11 86.58, 84.05 58.33, 112.14 28.84 M38.93 116.42 C55.01 99.22, 72.65 78.18, 113.23 32.93 M39.07 117.92 C59.1 95.8, 77.49 74.96, 113.44 31.48 M42.86 117.53 C64.25 97.09, 80.45 73.62, 115.01 34.61 M44.69 118.39 C59 99.52, 74.72 82.39, 115.67 35.4 M46.95 119.56 C73.22 91.51, 98.45 62.11, 119.14 40.28 M46.45 121.69 C75.24 88.9, 104.11 55.37, 119.83 38.59 M49.96 120.96 C71.31 99.28, 90.5 77.12, 121.12 43.17 M51.58 121 C78.97 90.49, 104.78 60.47, 121.06 41.57 M56 123.3 C76.59 96.57, 99.74 71.06, 123.11 46.96 M55.07 122.83 C73.92 101.75, 92.14 78.55, 122.15 45.6 M58.62 123.34 C81.09 98.94, 103.62 75.17, 123.37 53.27 M59.09 124.37 C73.97 110.52, 86.52 94.47, 123.23 52.31 M66.97 124.24 C80.96 105.96, 91.34 94.11, 125.04 57.56 M65.41 122.95 C85.6 100.99, 107.05 77.31, 123.88 56.82 M73.34 121.58 C89.27 103.52, 104.89 87.67, 125.06 61.85 M72.23 123.18 C87.33 103.8, 103.79 85.53, 124.26 62.71 M79.22 121.45 C90.38 104.69, 106.2 89.64, 124.86 68.37 M78.54 121.35 C93.8 103.59, 111.53 85.57, 123.14 68.89 M86.15 118.65 C98.18 103.21, 111.84 89.27, 123.27 76.29 M86.18 118.81 C97.42 106.41, 107.81 94.33, 125.05 74.5 M101.77 107.38 C106.09 99.12, 111.4 97.56, 118.08 89.95 M102.25 106.88 C108.24 99.5, 114.27 93.89, 117.18 90.4" stroke="#b2f2bb" stroke-width="0.5" fill="none"></path><path d="M52.05 0.73 C60.87 -1.73, 72.03 -0.28, 80.97 2.8 C89.91 5.88, 98.89 12.25, 105.69 19.2 C112.48 26.14, 118.91 35.34, 121.74 44.48 C124.57 53.62, 124.71 64.75, 122.67 74.03 C120.63 83.32, 115.52 92.94, 109.49 100.2 C103.47 107.46, 95.2 113.74, 86.52 117.58 C77.85 121.43, 66.9 123.95, 57.43 123.28 C47.97 122.61, 37.98 118.62, 29.73 113.57 C21.49 108.52, 12.94 100.98, 7.98 92.98 C3.02 84.99, 0.24 74.98, -0.02 65.61 C-0.27 56.23, 2.41 45.48, 6.46 36.74 C10.51 28.01, 15.8 19.36, 24.3 13.22 C32.8 7.07, 51.09 1.73, 57.45 -0.12 C63.81 -1.97, 62.4 0.9, 62.47 2.11 M53.9 0.34 C62.37 -1.83, 73.17 -0.25, 82.29 3.19 C91.41 6.63, 101.84 13.88, 108.6 20.97 C115.36 28.05, 120.78 36.59, 122.86 45.72 C124.94 54.84, 123.46 66.18, 121.11 75.73 C118.76 85.28, 114.98 95.56, 108.77 102.99 C102.56 110.43, 93 116.85, 83.85 120.32 C74.69 123.79, 63.38 124.98, 53.86 123.81 C44.35 122.64, 34.74 118.83, 26.77 113.31 C18.8 107.79, 10.6 99.27, 6.06 90.69 C1.52 82.11, -0.45 71.36, -0.5 61.86 C-0.55 52.36, 1.14 41.99, 5.76 33.71 C10.38 25.43, 19.01 17.49, 27.21 12.16 C35.41 6.84, 50.53 3.48, 54.96 1.75 C59.39 0.02, 54.03 0.9, 53.79 1.76" stroke="#1e1e1e" stroke-width="1" fill="none"></path></g><g stroke-linecap="round"><g transform="translate(512.3972878536123 32.03822252581347) rotate(0 20.040343697100468 24.861243680486837)" fill-rule="evenodd"><path d="M0 0 C0 0, 0 0, 0 0 M0 0 C0 0, 0 0, 0 0 M0.34 6.47 C1.7 4.71, 2.41 3.53, 4.29 0.94 M-0.4 6.53 C1.24 4.16, 3.23 2.12, 4.95 0.63 M-1.23 11.16 C3 10.25, 4.52 7.02, 10.2 -0.37 M0.71 11.44 C3.49 8.03, 7.6 3.24, 11.24 0.26 M-1.64 19.62 C4.58 13.32, 9.14 6.77, 17.41 -0.93 M0.68 18.23 C4.65 14.44, 7.99 9.04, 15.76 -0.58 M0.71 23.51 C6.39 14.94, 12.94 6.98, 22.08 -0.67 M-0.64 24.32 C5.92 17.88, 9.52 13, 21.17 0.5 M0.66 32.39 C5.94 24.11, 10.87 17.46, 27.76 -0.07 M-0.9 30.73 C9.34 19.99, 20.29 7.25, 26.35 -0.22 M0.25 35.94 C6.81 27.95, 13.5 22.54, 29.02 1.49 M0.52 37.12 C11.39 23.76, 22.42 12.14, 30.03 2.15 M29.92 2.16 C29.92 2.16, 29.92 2.16, 29.92 2.16 M29.92 2.16 C29.92 2.16, 29.92 2.16, 29.92 2.16 M0.4 43.14 C11.13 29.82, 21.34 21.14, 29.53 9.22 M1.13 41.69 C7 32.87, 15.65 25.31, 28.74 9.49 M32.28 5.54 C32.28 5.54, 32.28 5.54, 32.28 5.54 M32.28 5.54 C32.28 5.54, 32.28 5.54, 32.28 5.54 M-1.82 47.52 C10.14 36.8, 20.94 22.82, 27.22 15.1 M-0.82 49.24 C9.12 38.76, 17.47 29.81, 29.13 15.28 M35.3 8.16 C35.3 8.16, 35.3 8.16, 35.3 8.16 M35.3 8.16 C35.3 8.16, 35.3 8.16, 35.3 8.16 M2.23 53.57 C10.45 41.38, 23.46 28.52, 32.44 15.56 M2.91 51.7 C15.05 39.25, 26.77 23.73, 34.87 16.31 M38.32 10.79 C38.32 10.79, 38.32 10.79, 38.32 10.79 M38.32 10.79 C38.32 10.79, 38.32 10.79, 38.32 10.79 M7.35 52.47 C18.31 40.24, 27.36 30.93, 40.19 12.83 M8.26 51.41 C15.46 43.3, 21.49 35.95, 40.33 14.33 M14.81 50.7 C21.41 41.25, 32.63 30.26, 39.52 19.23 M12.42 51.48 C23.26 39.43, 34.83 28.17, 41.35 20.09 M20.17 50.05 C25.22 46.11, 29.43 38.69, 40.34 25.03 M17.61 51.97 C26.97 44.12, 33.12 34.53, 39.84 27.16 M23.31 53.99 C27.14 47.82, 29.06 44.84, 38.75 31.72 M23.76 52.14 C28.76 47.84, 32.71 41.44, 40.37 31.75 M29.38 51.38 C32.73 47.97, 37.54 42.62, 41.46 37.88 M29 51.88 C32.32 48.66, 35.27 46.49, 40.62 37.44 M33.32 51.32 C35.72 50.2, 37.18 48.23, 40.12 43.9 M33.8 52.18 C36.5 49.49, 37.63 47.63, 40.35 44.41" stroke="#b2f2bb" stroke-width="0.5" fill="none"></path><path d="M0.26 -0.27 C1.54 13.05, 0.29 26.43, -0.75 51.03 M0.4 -0.72 C-0.11 17.77, -0.76 35.82, -0.33 50.14 M-0.2 50.96 C9.84 51.55, 16.87 50.75, 41.12 49.16 M0.81 49.51 C10.53 49.75, 19.04 49.59, 39.71 49.25 M39.05 48.56 C39.52 38.45, 40.85 25.75, 41.49 13.23 M39.88 49.69 C40.31 37.81, 39.82 26.42, 41.04 14.95 M40.67 12.93 C36.37 13.8, 30.97 14.47, 26.47 13.44 M40.88 14.05 C36.02 13.78, 31.07 14.28, 27.27 14.16 M28.02 14.51 C28.24 8.76, 26.34 5.16, 26.36 0 M27.07 13.85 C28.17 8.43, 27.08 3.71, 28.04 1.04 M26.59 2.17 C32.75 6.31, 36.79 10.03, 38.75 12.98 M27.15 -0.4 C30.02 3.37, 34.03 6.24, 40.08 13.67 M41.9 14.42 C38.64 9.35, 35.46 6.82, 29.01 -0.4 M41.05 14.76 C37.38 11.6, 34.12 8.93, 27.77 -0.23 M27.49 -1.43 C19.01 0.47, 15.99 -1.71, -1.82 0.72 M27.86 -0.41 C19.99 0.01, 15.45 0.49, 0.09 -0.14 M0 0 C0 0, 0 0, 0 0 M0 0 C0 0, 0 0, 0 0" stroke="#1e1e1e" stroke-width="1" fill="none"></path></g></g><mask></mask><g transform="translate(483.08512575227485 86.38326780356624) rotate(0 52.11676025390625 13.249417660743575)"><text x="52.11676025390625" y="0" font-family="Virgil, Segoe UI Emoji" font-size="21.19906825718974px" fill="#1e1e1e" text-anchor="middle" style="white-space: pre;" direction="ltr" dominant-baseline="text-before-edge">Index.html</text></g><g stroke-opacity="0" fill-opacity="0" stroke-linecap="round" transform="translate(516.9370144699641 44.0187562355826) rotate(0 15.211906233023626 15.211906233023655)"><path d="M3.03 6.61 C3.03 6.61, 3.03 6.61, 3.03 6.61 M3.03 6.61 C3.03 6.61, 3.03 6.61, 3.03 6.61 M-0.22 14.85 C2.76 11.05, 5.68 7.77, 11.79 2.66 M0.95 15.64 C2.69 13.74, 5.64 10.66, 12.69 0.78 M2.52 19.74 C7.82 12.3, 12.93 4.62, 18.02 2.75 M0.91 19.69 C5.93 15.86, 10.21 10.61, 17.82 2.58 M6.11 23.53 C9.63 17.84, 14.84 13.2, 20.34 1.93 M5.13 22.75 C10.72 16.17, 17.35 7.09, 21.27 3.81 M7.04 28.87 C11.1 20.34, 15.94 16.01, 27.11 4.21 M5.6 25.96 C11.68 21.17, 15.19 17.63, 26.5 4.62 M9.19 31.41 C12.97 25.06, 20.49 16.79, 30.44 9.29 M8.86 28.69 C14.67 23.46, 18.79 19.47, 27.91 7.76 M12.02 30.77 C21.87 23.93, 28.98 15.48, 31.05 10.68 M13.54 31.83 C17.32 26.32, 21.37 21.44, 31.93 9.87 M21.19 30.34 C25.19 23.8, 28.9 19.26, 31.77 17.64 M19.37 30.88 C23.41 26.9, 26.05 23.3, 31.78 15.94" stroke="#b2f2bb" stroke-width="0.5" fill="none"></path><path d="M12 0.5 C15.13 -0.14, 19.78 0.97, 22.68 2.39 C25.58 3.8, 28.3 6.04, 29.4 8.99 C30.5 11.93, 30.15 16.81, 29.27 20.05 C28.39 23.29, 26.93 26.59, 24.1 28.43 C21.27 30.26, 15.61 31.71, 12.29 31.05 C8.98 30.39, 6.3 26.98, 4.21 24.48 C2.11 21.98, -0.08 19.04, -0.28 16.07 C-0.48 13.1, 0.59 9.2, 2.99 6.65 C5.4 4.1, 11.63 1.77, 14.16 0.77 C16.69 -0.24, 17.91 0.63, 18.19 0.63 M9.8 1.64 C12.8 0.47, 19.38 0.61, 22.73 1.83 C26.09 3.05, 28.56 6.17, 29.93 8.96 C31.29 11.75, 31.77 15.53, 30.92 18.55 C30.06 21.57, 27.78 25.02, 24.79 27.07 C21.81 29.12, 16.28 31, 12.99 30.84 C9.71 30.67, 7.06 28.68, 5.09 26.08 C3.11 23.48, 1.53 18.39, 1.15 15.23 C0.76 12.08, 1.02 9.73, 2.77 7.13 C4.53 4.53, 10.14 0.48, 11.69 -0.37 C13.24 -1.21, 12.01 1.57, 12.08 2.07" stroke="#1e1e1e" stroke-width="1" fill="none"></path></g><g stroke-linecap="round"><g transform="translate(529.7069514232801 57.14206483603232) rotate(0 2.285566711824856 -1.4372983994433355)" fill-rule="evenodd"><path d="M-5.73 -1 C-5.73 -1, -5.73 -1, -5.73 -1 M-5.73 -1 C-5.73 -1, -5.73 -1, -5.73 -1 M-1.79 0.42 C0.44 -2.12, 1.39 -4.5, 3.68 -6.44 M-1.49 -0.13 C0.17 -2.33, 1.83 -3.61, 4.65 -6.96 M-2.9 7.6 C-0.56 4.88, 0.82 3.1, 2.49 2.25 M-2.37 7.2 C-1.12 6.12, 0.1 4.71, 2.59 2.02 M1.29 0.97 C4.21 -0.71, 5.17 -1.43, 9.01 -5.81 M2.6 2.36 C5.04 -1.22, 8.1 -4.8, 9.64 -5.82 M7.49 2.15 C7.97 1.9, 8.21 1.25, 9.37 0.12 M7.35 2.41 C7.83 1.8, 8.12 1.23, 9.11 0.17 M9.26 0.12 C9.79 -0.47, 10.02 -0.8, 10.57 -1.57 M9.22 0.18 C9.55 -0.14, 9.84 -0.53, 10.51 -1.4" stroke="#b2f2bb" stroke-width="0.5" fill="none"></path><path d="M-0.31 -0.34 C0.01 1.9, 0.24 3.96, 0.08 5.66 M0.1 -0.24 C0.25 1.63, -0.26 3, 0.11 5.9 M0.24 6.01 C-0.89 5.75, -2.61 6.15, -2.92 5.66 M0.13 5.99 C-1.08 5.92, -2.32 5.91, -3.34 6.01 M-3.88 6 C-2.97 3.87, -3.65 1.69, -2.66 -0.68 M-3 5.86 C-3.43 3.68, -3.43 1.52, -2.95 -0.99 M-3.4 -0.79 C-3.66 -1.12, -4.61 -1.01, -5.96 -1.18 M-3.17 -0.97 C-3.93 -0.97, -4.54 -1, -5.8 -1 M-6.64 0.02 C-3.3 -3.91, 0.94 -6.4, 3.4 -8.67 M-5.31 -0.75 C-4.29 -2.54, -2.76 -4.37, 1.89 -8.65 M2.24 -9.3 C3.54 -7.55, 5.51 -6.26, 6.68 -4.93 M2.37 -8.51 C3.88 -7.33, 5.29 -5.91, 6.61 -5.28 M6.62 -4.86 C6.46 -5.65, 6.77 -6.22, 6.57 -7.35 M6.66 -5.04 C6.76 -5.91, 6.67 -6.73, 6.8 -7.13 M6.54 -7.42 C7.05 -7, 7.66 -7.14, 9.06 -6.78 M6.64 -7.23 C7.37 -7.26, 7.92 -7.07, 8.86 -6.87 M9.2 -7.24 C8.56 -5.51, 8.67 -4.38, 9.19 -3.69 M8.86 -7.09 C8.85 -5.75, 8.95 -4.65, 8.87 -3.49 M9.18 -3.34 C9.67 -2.51, 10.15 -1.61, 10.89 -0.49 M8.79 -3.27 C9.44 -2.58, 9.86 -1.91, 10.95 -0.55 M11.21 -0.65 C10.33 -0.46, 9.37 -0.59, 8.64 -0.48 M11.11 -0.64 C10.54 -0.71, 9.9 -0.63, 8.45 -0.51 M8.4 -0.57 C8.4 1.52, 8.56 2.44, 9.08 5.85 M8.47 -0.53 C8.39 1.6, 8.38 3.54, 8.34 6.03 M8.49 6.28 C7.54 6.56, 7.18 6.41, 4.72 6.1 M8.39 6.14 C7.62 6.41, 6.8 6.4, 4.9 6.12 M4.97 6.14 C5.29 4.57, 4.68 3.7, 4.41 0.62 M5 6.16 C4.54 4.75, 5.11 3.8, 4.68 0.07 M4.64 0.01 C4 0.14, 2.64 0.58, -0.01 -0.26 M4.92 0.37 C3.61 0.5, 2.46 0.13, -0.07 -0.05 M0 0 C0 0, 0 0, 0 0 M0 0 C0 0, 0 0, 0 0" stroke="#1e1e1e" stroke-width="1" fill="none"></path></g></g><mask></mask><g transform="translate(526.1965052366792 64.68470673028025) rotate(0 5.952415466308594 3.2571631956008957)"><text x="5.952415466308594" y="0" font-family="Virgil, Segoe UI Emoji" font-size="5.211461112961453px" fill="#1e1e1e" text-anchor="middle" style="white-space: pre;" direction="ltr" dominant-baseline="text-before-edge">Home</text></g><g stroke-linecap="round"><g transform="translate(522.5939494291109 117.37866158183556) rotate(0 -204.62177394175328 65.02915061478583)"><path d="M0.55 -0.14 C-67.65 21.59, -340.34 108.52, -408.69 130.22 M-0.63 -1.26 C-69.04 20.61, -342.01 109.3, -409.79 131.32" stroke="#1e1e1e" stroke-width="1" fill="none"></path></g><g transform="translate(522.5939494291109 117.37866158183556) rotate(0 -204.62177394175328 65.02915061478583)"><path d="M-386.38 112.38 C-395.6 117.26, -403.9 126.51, -408.46 133.01 M-386.65 113.66 C-393.86 118.68, -399.29 124.13, -409.69 131.76" stroke="#1e1e1e" stroke-width="1" fill="none"></path></g><g transform="translate(522.5939494291109 117.37866158183556) rotate(0 -204.62177394175328 65.02915061478583)"><path d="M-380.04 131.9 C-391.39 130.18, -401.84 132.8, -408.46 133.01 M-380.31 133.18 C-389.53 132.44, -396.82 132.15, -409.69 131.76" stroke="#1e1e1e" stroke-width="1" fill="none"></path></g></g><mask></mask><g stroke-linecap="round"><g transform="translate(534.5064556233793 114.37866158183556) rotate(0 22.306279687210917 66.39675222419203)"><path d="M-0.42 0.69 C6.95 22.69, 37.55 109.48, 45.04 131.16 M1.55 0.01 C8.79 22.3, 37.56 110.79, 44.63 132.78" stroke="#1e1e1e" stroke-width="1" fill="none"></path></g><g transform="translate(534.5064556233793 114.37866158183556) rotate(0 22.306279687210917 66.39675222419203)"><path d="M27.35 110.85 C33.02 118.64, 39.06 128.12, 45 134.47 M26.86 110.08 C32.98 118.13, 38.58 125.7, 44.68 133.09" stroke="#1e1e1e" stroke-width="1" fill="none"></path></g><g transform="translate(534.5064556233793 114.37866158183556) rotate(0 22.306279687210917 66.39675222419203)"><path d="M46.87 104.53 C45.38 114.56, 44.29 126.35, 45 134.47 M46.38 103.76 C45.55 113.98, 44.18 123.8, 44.68 133.09" stroke="#1e1e1e" stroke-width="1" fill="none"></path></g></g><mask></mask><g stroke-linecap="round"><g transform="translate(535.3377883419496 115.37866158183556) rotate(0 107.56586478628515 68.2605159071424)"><path d="M0.44 -0.91 C36.24 22.14, 178.1 114.37, 213.7 137.44 M-0.79 1.22 C35.48 24, 180.3 113.23, 215.92 135.6" stroke="#1e1e1e" stroke-width="1" fill="none"></path></g><g transform="translate(535.3377883419496 115.37866158183556) rotate(0 107.56586478628515 68.2605159071424)"><path d="M185.04 127.9 C193.53 129.62, 199.67 132.39, 214.72 136.52 M186.94 129.83 C197.73 130.77, 208.81 133.9, 215.53 135.33" stroke="#1e1e1e" stroke-width="1" fill="none"></path></g><g transform="translate(535.3377883419496 115.37866158183556) rotate(0 107.56586478628515 68.2605159071424)"><path d="M195.87 110.46 C201.97 115.85, 205.86 122.25, 214.72 136.52 M197.77 112.4 C204.71 119.87, 211.79 129.43, 215.53 135.33" stroke="#1e1e1e" stroke-width="1" fill="none"></path></g></g><mask></mask><g stroke-linecap="round"><g transform="translate(545.1058533598907 115.37866158183556) rotate(0 190.8662214179131 67.68659219775179)"><path d="M-0.72 -0.99 C63.18 21.69, 318.47 113.76, 382.45 136.37 M1.11 1.1 C64.96 23.44, 318.01 112.35, 381.65 134.78" stroke="#1e1e1e" stroke-width="1" fill="none"></path></g><g transform="translate(545.1058533598907 115.37866158183556) rotate(0 190.8662214179131 67.68659219775179)"><path d="M349.99 135.57 C359.96 136.85, 363.77 135.55, 381.64 134.89 M351.97 135.25 C357.98 135.71, 364.85 134.23, 381.35 134.27" stroke="#1e1e1e" stroke-width="1" fill="none"></path></g><g transform="translate(545.1058533598907 115.37866158183556) rotate(0 190.8662214179131 67.68659219775179)"><path d="M356.8 116.21 C365.31 121.73, 367.61 124.7, 381.64 134.89 M358.78 115.89 C363.36 120.56, 368.73 123.35, 381.35 134.27" stroke="#1e1e1e" stroke-width="1" fill="none"></path></g></g><mask></mask><g stroke-linecap="round"><g transform="translate(531.5823550552171 115.37866158183556) rotate(0 -91.51815342070068 65.71855550562006)"><path d="M-1.1 -1.11 C-31.55 20.87, -152.83 110.35, -183.13 132.55 M0.52 0.92 C-29.96 22.48, -152.96 108.59, -183.56 130.67" stroke="#1e1e1e" stroke-width="1" fill="none"></path></g><g transform="translate(531.5823550552171 115.37866158183556) rotate(0 -91.51815342070068 65.71855550562006)"><path d="M-168.35 107.64 C-170.08 114.3, -175.36 119.75, -182.29 132.08 M-166.95 106.77 C-170.08 110.62, -172.83 115.9, -184.11 130.59" stroke="#1e1e1e" stroke-width="1" fill="none"></path></g><g transform="translate(531.5823550552171 115.37866158183556) rotate(0 -91.51815342070068 65.71855550562006)"><path d="M-156.48 124.38 C-161.42 126.53, -169.82 127.58, -182.29 132.08 M-155.08 123.51 C-160.67 123.93, -165.81 125.84, -184.11 130.59" stroke="#1e1e1e" stroke-width="1" fill="none"></path></g></g><mask></mask><g stroke-opacity="0" fill-opacity="0" stroke-linecap="round" transform="translate(55.33239222957843 228.00000000000006) rotate(0 58.64331577823404 58.64331577823404)"><path d="M22.99 12.03 C22.99 12.03, 22.99 12.03, 22.99 12.03 M22.99 12.03 C22.99 12.03, 22.99 12.03, 22.99 12.03 M6.78 36.22 C15.42 27.14, 22.36 17.86, 33.05 7.36 M9.1 34.83 C14.95 28.9, 20.17 21.33, 31.4 7.72 M6.51 43.12 C16.55 29.65, 27.37 16.77, 40.34 4.61 M5.16 43.94 C14.59 34.31, 21.05 26.13, 39.43 5.78 M4.49 54.27 C13.87 41.41, 22.83 30.12, 49.96 0.68 M2.93 52.61 C19.92 33.83, 37.81 13.11, 48.55 0.52 M1.45 60.84 C12.44 47.6, 23.74 36.9, 51.22 2.24 M1.73 62.02 C20.35 39.89, 38.91 19.6, 52.23 2.9 M1.14 66.23 C21.7 46.18, 43.37 22.72, 58.95 1.6 M1.68 66.48 C13.92 52.74, 24.8 39.8, 57.79 2.33 M3.97 71.41 C24.5 47.35, 44.23 27.71, 61.97 4.29 M4.69 69.96 C17.87 52.46, 34.02 36.28, 61.17 4.56 M5.67 75.74 C22.19 54.26, 38.98 32.48, 67.07 4.69 M5.37 75.16 C19.57 60.02, 32.85 42.66, 66.22 4.44 M4.77 78.43 C31.27 51.25, 56.24 20.97, 69.89 4.49 M5.77 80.14 C26.01 57.71, 45.02 36.5, 71.8 4.67 M6.18 84.72 C32.74 52.55, 59.87 22.86, 77.65 2.33 M7.27 84.81 C22.81 66.88, 36.37 51.57, 77.83 4.61 M8.56 90.87 C29.12 64.35, 54.81 36.9, 79.44 6.07 M9.24 89 C36.75 58.91, 63.47 26.13, 81.87 6.81 M12.5 93.01 C38.79 62.65, 63.99 34.82, 82.86 7.13 M11.45 91.68 C35.46 66.67, 58.43 40.82, 85.01 8.54 M14.07 95.42 C36.72 70.33, 57.06 48.04, 87.59 8.98 M14.98 94.35 C30.81 76.18, 45.86 58.46, 87.72 10.48 M18.91 96.66 C40.94 69.45, 67.68 40.62, 90.86 10.86 M16.51 97.44 C45.59 64.72, 75.43 32.45, 92.68 11.71 M21.64 99.03 C41.02 79.43, 59.19 55.96, 94.29 13.63 M19.08 100.95 C46.21 72.59, 69.9 42.83, 93.8 15.76 M22.82 105.24 C38.33 85.26, 52.46 68.24, 96.65 15.79 M23.27 103.38 C44.03 81.16, 63.8 56.55, 98.26 15.83 M26.29 105.6 C51.84 77.63, 78.53 47.15, 102.69 18.14 M25.86 106.15 C44.16 86.53, 61.69 67.72, 101.75 17.66 M27.41 106.98 C50.78 83.47, 72.6 57.78, 102.68 21.19 M28.37 108.7 C52.23 82.26, 72.4 57.93, 103.15 22.22 M32.5 110.23 C58.75 80.33, 81.78 54.58, 107.09 26.62 M33.7 111.21 C59.75 81.72, 86.73 51.11, 105.53 25.33 M38.3 111.87 C55.04 88.81, 75.86 67.7, 109.52 28.49 M37.98 112.47 C62.1 81.85, 89.59 52.63, 108.42 30.09 M42.85 114.26 C54.11 95.99, 70.68 78.58, 110.82 33.64 M40.65 113.28 C56.87 95.3, 72.01 78.16, 110.14 33.54 M47.56 112.34 C57.64 98.15, 72.85 82.35, 111.84 37.63 M44.83 113.4 C66.05 91.15, 84.23 69.07, 111.87 37.79 M50.76 117.25 C65.82 95.79, 84.33 76.43, 113.68 42.22 M50.17 116.42 C67.25 97.14, 83.73 77, 114.16 41.71 M55.09 117.56 C74.96 94.39, 94.58 72.49, 117.74 43.49 M54.51 117.14 C70.4 98.61, 87.65 80.11, 116.28 44.31 M60.35 115.7 C80.73 94.12, 96.91 74.23, 115.96 51.62 M60.01 115.27 C80.38 93.06, 100.84 69.32, 116.74 50.67 M65.09 115.89 C80.72 97.95, 92.72 81.02, 118.18 55.22 M67.02 113.63 C85.12 93.77, 103.94 70.65, 117.9 55.55 M73.92 113.11 C88.5 94.21, 103.5 74.66, 118.39 61.09 M72.67 114.18 C86.17 98.06, 100.06 82.52, 118.52 61.37 M79.07 112.46 C88.25 99.83, 101 89.03, 119.47 66.13 M78.73 113.8 C89.35 100.84, 100.45 86.57, 117.84 67.28 M81.89 113.45 C90.98 104.74, 100.21 93.27, 118.08 73.54 M82.36 113.62 C96 99.38, 108.9 83.1, 118.64 73.64" stroke="#a5d8ff" stroke-width="0.5" fill="none"></path><path d="M77.11 3.33 C85.66 5.29, 95.52 11.84, 101.85 18.39 C108.19 24.93, 112.69 33.8, 115.13 42.59 C117.58 51.37, 118.49 62.24, 116.52 71.1 C114.54 79.96, 109 88.89, 103.29 95.75 C97.58 102.61, 90.5 108.83, 82.23 112.27 C73.97 115.71, 62.72 117.01, 53.71 116.39 C44.7 115.77, 35.88 113.13, 28.19 108.55 C20.49 103.96, 12.35 96.88, 7.54 88.87 C2.73 80.86, -0.51 69.75, -0.68 60.49 C-0.84 51.23, 2.61 41.33, 6.52 33.29 C10.44 25.24, 15.64 17.66, 22.82 12.23 C30.01 6.8, 40.13 2.03, 49.63 0.71 C59.14 -0.6, 74.39 3.47, 79.84 4.35 C85.28 5.24, 82.67 5.09, 82.33 6 M76.25 3.26 C84.76 4.96, 93.68 10.78, 100.22 17.24 C106.76 23.69, 112.74 33.01, 115.49 41.98 C118.24 50.95, 118.6 62.19, 116.71 71.07 C114.82 79.95, 109.95 88.35, 104.16 95.25 C98.36 102.14, 90.29 108.62, 81.97 112.45 C73.64 116.29, 63.22 118.78, 54.22 118.26 C45.21 117.75, 35.58 114.42, 27.91 109.34 C20.25 104.27, 12.67 95.98, 8.22 87.79 C3.77 79.61, 1.49 69.06, 1.2 60.26 C0.92 51.46, 2.7 43.2, 6.51 34.97 C10.33 26.74, 17.16 16.49, 24.1 10.89 C31.05 5.29, 39.65 2.75, 48.18 1.36 C56.72 -0.03, 70.82 2.07, 75.33 2.55 C79.85 3.03, 75.38 3.08, 75.28 4.23" stroke="#1e1e1e" stroke-width="1" fill="none"></path></g><g stroke-linecap="round"><g transform="translate(92.36345563405712 248.88594694413467) rotate(0 20.024276846374136 23.421662692613296)" fill-rule="evenodd"><path d="M0 0 C0 0, 0 0, 0 0 M0 0 C0 0, 0 0, 0 0 M0.13 5.66 C1.79 4.85, 2.49 3.81, 5.35 0.38 M-0.52 6.4 C1.33 4.48, 2.47 3.36, 5.23 0.15 M-0.69 10.67 C4.48 9.26, 6.04 4.18, 9.27 -1.15 M0.17 11.43 C2.26 9.31, 5.62 5.85, 10.07 0.22 M0.38 19.22 C5.41 12.72, 13.53 4.9, 14.28 0.34 M0.04 18.41 C2.88 13.27, 6.65 10.8, 15.37 0.43 M1.99 24.32 C8.32 16.88, 15.06 7.76, 21.25 1.2 M-0.19 23.11 C5.02 19.24, 8.79 14.1, 21.93 -0.66 M-1.96 31.44 C11.33 20.21, 17.57 7.98, 27.16 1.08 M0.31 29.71 C9.11 19.3, 18.74 7.7, 26.12 -0.25 M0.74 38.08 C10.31 24.11, 18.92 11.81, 28.08 4.24 M-0.32 36.63 C9.4 24.33, 20.98 12.75, 28.99 3.18 M29.27 2.92 C29.27 2.92, 29.27 2.92, 29.27 2.92 M29.27 2.92 C29.27 2.92, 29.27 2.92, 29.27 2.92 M0.59 44.38 C7.41 32.49, 15.09 22.49, 30.66 7.5 M0.29 42.28 C8.96 32.03, 18.72 21.32, 28.1 9.41 M31.63 6.29 C31.63 6.29, 31.63 6.29, 31.63 6.29 M31.63 6.29 C31.63 6.29, 31.63 6.29, 31.63 6.29 M0.07 47.79 C8.88 37.07, 19.54 23.21, 29.01 15.21 M0.49 48.45 C7.88 38.55, 15.26 29.92, 28.59 15.76 M34.65 8.92 C34.65 8.92, 34.65 8.92, 34.65 8.92 M34.65 8.92 C34.65 8.92, 34.65 8.92, 34.65 8.92 M5.64 46.4 C16.07 36.74, 28.98 23.28, 33.51 15.71 M7.17 48.22 C16.81 36.78, 25.85 23.57, 34.72 16.69 M37.02 12.23 C37.14 12.03, 37.5 11.89, 37.73 11.55 M37.05 12.32 C37.15 12.13, 37.33 11.94, 37.71 11.58 M12.39 47.86 C18.43 39.28, 23.75 32.73, 41.5 16.36 M10.93 48.41 C17.12 40.6, 22.19 35.11, 39.3 15.38 M18.77 47.48 C22.41 39.21, 29.89 36.45, 41.62 19.72 M16.75 47.34 C23.02 40.69, 27.95 34.86, 38.89 20.79 M21.42 46.57 C30.24 39.88, 36.45 31.68, 41.54 28.41 M22.41 47.77 C27.01 42.36, 30.14 37.43, 40.95 27.58 M28.04 47.37 C32.41 43.44, 34.77 39.63, 41.2 33.97 M27.9 48.2 C31.62 41.87, 36.7 36.01, 40.65 33.57 M33.16 47.57 C34.68 45.44, 36.17 43.5, 40.5 38.96 M32.88 47.72 C35.86 44.94, 38.35 40.95, 40.3 38.71" stroke="#a5d8ff" stroke-width="0.5" fill="none"></path><path d="M0.63 0.19 C-0.36 10.28, 1.71 20.03, 0.3 47.6 M-0.01 0.64 C-0.02 15.96, -0.38 33.19, 0.36 46.85 M1.69 46.79 C13.9 48.31, 31.01 47.26, 37.52 47.56 M0.22 47.78 C9.25 47.6, 18.92 47.58, 38.27 46.9 M40.15 46.8 C38.38 35.29, 38.56 23.55, 39.99 13.66 M39.25 46.29 C39.2 35.8, 39.23 22.36, 38.16 13.81 M38.72 13.35 C36.73 12.99, 33.05 12.62, 25.05 12.79 M39.03 13.31 C34.63 13.68, 31.52 12.77, 26.55 13.01 M25.33 14.46 C26.56 10.29, 25.43 7.09, 25.12 1.25 M26.22 14.06 C25.64 9.69, 26.14 6.09, 26.63 0.35 M26.09 0.74 C29.15 6.06, 34.29 9.96, 38.9 12.96 M25.86 0.85 C28.74 3.08, 32.01 5.99, 37.68 13.69 M38.2 13.3 C34.74 6.76, 28.2 2.44, 26.27 1.78 M38.56 14.18 C34.41 10.05, 31.47 5.56, 24.82 0.23 M24.97 0.21 C17.74 -1.42, 13.33 -0.35, 0.5 -0.94 M26.07 -0.45 C16.74 0.69, 7.6 0.59, 0.78 0.24 M0 0 C0 0, 0 0, 0 0 M0 0 C0 0, 0 0, 0 0" stroke="#1e1e1e" stroke-width="1" fill="none"></path></g></g><mask></mask><g transform="translate(10 300.38954397961436) rotate(0 103.9757080078125 12.556667579648831)"><text x="103.9757080078125" y="0" font-family="Virgil, Segoe UI Emoji" font-size="20.090668127438107px" fill="#1e1e1e" text-anchor="middle" style="white-space: pre;" direction="ltr" dominant-baseline="text-before-edge">login-registration.html</text></g><g stroke-opacity="0" fill-opacity="0" stroke-linecap="round" transform="translate(95.09492342212468 261.64025232089756) rotate(0 16.745910614934644 16.745910614934672)"><path d="M0.43 9.65 C0.43 9.65, 0.43 9.65, 0.43 9.65 M0.43 9.65 C0.43 9.65, 0.43 9.65, 0.43 9.65 M1.75 14.23 C5.04 10.21, 6.84 7.68, 10.75 4.81 M0.5 14.97 C4.46 11.87, 7.5 7.23, 10.89 3.42 M-0.26 19.29 C6.89 14.08, 10.6 12.56, 16.77 0.48 M1.8 21.06 C7 15.1, 12.56 8.21, 16.96 2.01 M5.44 22.8 C11.33 17.49, 13.88 11.23, 21.81 -0.13 M3.92 23.4 C10.41 16.93, 14.52 10.24, 24.19 1.04 M8.21 25.5 C14.5 19.55, 22.44 11.05, 26.2 3.11 M6.87 25.98 C11.11 23.11, 15.45 18.26, 26.92 3.62 M8.08 32.05 C17.57 23.83, 23.78 14.81, 31.13 8.56 M9.12 31.27 C16.06 23.36, 21.85 15.3, 29.27 7.3 M12.84 30.88 C15.56 26.83, 23.66 20.56, 29.69 12.34 M12.63 32.55 C20.13 25.15, 25.45 17.16, 31.44 10.37 M16.32 34.2 C24.4 27.33, 29.75 21.35, 33.53 17.73 M18.36 33.07 C22.03 27.15, 27.44 22.59, 32.73 15.49 M20.48 36.13 C23.33 29.42, 28.94 28.77, 35.02 18.11 M20.62 34.47 C26.41 28.65, 30.36 23.73, 34.94 19.82" stroke="#a5d8ff" stroke-width="0.5" fill="none"></path><path d="M20.64 -0.58 C23.99 0.02, 27.27 3.34, 29.28 6.39 C31.29 9.43, 32.68 14.16, 32.72 17.68 C32.75 21.19, 31.82 24.95, 29.49 27.48 C27.17 30, 22.33 32.29, 18.78 32.84 C15.24 33.39, 11.12 32.71, 8.23 30.79 C5.35 28.87, 2.78 24.84, 1.47 21.33 C0.15 17.82, -0.93 12.89, 0.35 9.73 C1.63 6.57, 5.71 3.76, 9.14 2.37 C12.56 0.98, 18.43 1.47, 20.89 1.41 C23.34 1.35, 23.96 1.72, 23.86 2.02 M12.41 1.4 C15.64 0.42, 21.32 0.69, 24.81 2.23 C28.3 3.77, 32.16 7.37, 33.36 10.62 C34.56 13.88, 33.32 18.63, 32 21.77 C30.68 24.9, 28.43 27.63, 25.43 29.43 C22.43 31.22, 17.34 32.8, 13.98 32.52 C10.62 32.23, 7.69 30.28, 5.28 27.71 C2.86 25.14, -0.17 20.6, -0.5 17.1 C-0.82 13.6, 0.99 9.69, 3.32 6.73 C5.65 3.77, 11.79 0.51, 13.48 -0.67 C15.17 -1.85, 13.58 -0.74, 13.44 -0.36" stroke="#1e1e1e" stroke-width="1" fill="none"></path></g><g stroke-linecap="round"><g transform="translate(112.18399396798475 275.8766906917042) rotate(0 -1.211598416533775 -0.8763872973021023)" fill-rule="evenodd"><path d="M-3.23 -6.78 C-3.23 -6.78, -3.23 -6.78, -3.23 -6.78 M-3.23 -6.78 C-3.23 -6.78, -3.23 -6.78, -3.23 -6.78 M-7.78 4.72 C-6.66 -0.03, -2.24 -2.97, 3.58 -9.86 M-7.32 4.34 C-6.12 1.49, -3.39 -1.57, 4.17 -8.22 M1.46 -0.12 C2.13 -1.24, 4.7 -3.01, 8.41 -7.23 M1.14 0.99 C3.36 -2.31, 5.73 -5.02, 7.9 -7.46" stroke="#a5d8ff" stroke-width="0.5" fill="none"></path><path d="M0.46 -0.33 C1.13 -0.13, 1.86 2.19, 2.95 1.44 C4.04 0.69, 6.45 -2.94, 7 -4.85 C7.55 -6.76, 7.11 -9.07, 6.25 -10.01 C5.39 -10.95, 3.45 -10.89, 1.83 -10.48 C0.21 -10.07, -2.39 -8.98, -3.46 -7.55 C-4.53 -6.12, -3.44 -3.85, -4.58 -1.89 C-5.73 0.06, -9.24 2.77, -10.35 4.2 C-11.45 5.64, -11.48 5.99, -11.23 6.72 C-10.98 7.44, -9.55 9.11, -8.87 8.57 C-8.18 8.03, -7.94 3.81, -7.12 3.5 C-6.3 3.19, -4.35 7.05, -3.97 6.72 C-3.59 6.39, -5.35 2.17, -4.83 1.52 C-4.31 0.86, -1.43 2.8, -0.86 2.8 C-0.28 2.81, -1.5 1.9, -1.39 1.56 C-1.29 1.21, -0.56 0.91, -0.23 0.72 M-0.75 -1.56 C0.38 -1.7, 3.47 0.13, 5.15 -0.26 C6.83 -0.64, 9.09 -2.32, 9.33 -3.85 C9.58 -5.37, 8.03 -8.36, 6.6 -9.39 C5.17 -10.42, 2.22 -10.7, 0.75 -10.01 C-0.72 -9.33, -1.39 -6.43, -2.22 -5.28 C-3.05 -4.14, -2.67 -4.74, -4.23 -3.16 C-5.78 -1.57, -10.64 2.27, -11.56 4.22 C-12.49 6.16, -10.25 7.81, -9.77 8.51 C-9.3 9.21, -9.25 9.17, -8.73 8.42 C-8.2 7.68, -7.25 4.29, -6.62 4.02 C-5.99 3.74, -5.33 6.8, -4.95 6.77 C-4.57 6.74, -5.01 4.58, -4.35 3.83 C-3.7 3.09, -1.62 2.76, -1.02 2.3 C-0.41 1.84, -0.99 1.68, -0.7 1.08 C-0.42 0.48, 0.63 -1.37, 0.69 -1.31" stroke="#1e1e1e" stroke-width="1" fill="none"></path></g></g><mask></mask><g stroke-linecap="round" transform="translate(112.72634780001783 267.96736397455544) rotate(0 2.146817251797586 2.146817251797586)"><path d="M0.66 0.58 C0.66 0.58, 0.66 0.58, 0.66 0.58 M0.66 0.58 C0.66 0.58, 0.66 0.58, 0.66 0.58 M2.92 3.99 C3.33 3.73, 3.68 3.33, 4.39 2.36 M3.05 3.89 C3.39 3.49, 3.66 3.2, 4.4 2.37" stroke="#a5d8ff" stroke-width="0.5" fill="none"></path><path d="M0.45 0.83 C0.93 0.54, 2.32 -0.14, 2.8 -0.21 C3.29 -0.27, 3.06 0.08, 3.33 0.45 C3.6 0.82, 4.27 1.62, 4.42 2.01 C4.57 2.4, 4.72 2.59, 4.25 2.8 C3.77 3.02, 2.06 3.06, 1.59 3.29 C1.12 3.53, 1.8 4.18, 1.42 4.2 C1.05 4.22, -0.59 3.83, -0.67 3.41 C-0.75 2.98, 0.71 2.07, 0.94 1.66 C1.16 1.25, 0.62 1.14, 0.68 0.97 C0.74 0.8, 1.14 0.79, 1.3 0.64 M4.1 0.79 C4.26 0.87, 3.19 1.32, 3.1 1.39 C3.02 1.46, 3.68 0.97, 3.59 1.22 C3.5 1.46, 2.71 2.44, 2.58 2.84 C2.46 3.24, 3.2 3.58, 2.82 3.61 C2.45 3.65, 0.75 3.23, 0.31 3.04 C-0.13 2.84, 0.06 2.95, 0.18 2.44 C0.3 1.94, 0.73 0.57, 1.03 0 C1.33 -0.58, 1.76 -0.95, 1.98 -1.01 C2.2 -1.08, 2.36 -0.63, 2.34 -0.39 C2.32 -0.15, 1.9 0.1, 1.84 0.45" stroke="#1e1e1e" stroke-width="1" fill="none"></path></g><g transform="translate(106.46452177274034 284.7260064671344) rotate(0 4.667076110839844 3.585623188590091)"><text x="4.667076110839844" y="0" font-family="Virgil, Segoe UI Emoji" font-size="5.736997101744143px" fill="#1e1e1e" text-anchor="middle" style="white-space: pre;" direction="ltr" dominant-baseline="text-before-edge">Key</text></g><g stroke-opacity="0" fill-opacity="0" stroke-linecap="round" transform="translate(871.197695575904 228) rotate(0 64.43137548887091 64.43137548887091)"><path d="M19.13 17.95 C19.13 17.95, 19.13 17.95, 19.13 17.95 M19.13 17.95 C19.13 17.95, 19.13 17.95, 19.13 17.95 M6.82 37 C17.96 28.33, 25.18 15.71, 29.03 12.21 M8.85 36.09 C15.88 27.63, 22.44 19.97, 29.6 12 M3.11 47.66 C16.12 32.22, 25.88 20.96, 39.98 3.87 M4.08 45.78 C13 37.14, 19.65 29.65, 39.74 5.05 M2.55 53.87 C14.61 37.78, 26.29 27.39, 48.67 1.94 M4.22 54.59 C14.28 42.72, 24.58 30.23, 47.13 3.37 M2.17 61.26 C18.67 42.92, 31.28 29.22, 51.79 5.05 M2.87 60.59 C14.66 47.83, 25.75 35.67, 51.9 4.54 M2.22 68.66 C19.22 50.32, 32.51 33.87, 57.61 3.8 M3.32 67.07 C17.33 50.98, 30.96 34.28, 58.22 3.72 M2.29 74.59 C15.65 56.6, 30.28 39.86, 65.49 4.38 M1.97 73.34 C24.95 48.47, 47.45 22.05, 64.07 2.48 M2.25 79.92 C18.46 59.63, 36.84 41.9, 69.44 3.82 M3.42 78.63 C25.47 52.37, 47.16 27.17, 69.97 2.37 M3.75 81.33 C32.43 53.65, 57.46 21.31, 74.21 0.82 M5.22 81.92 C32.82 50.93, 59.79 19.32, 75.35 1.01 M8.4 87.97 C23.18 68.13, 39.36 51.8, 80.28 2.09 M8.28 85.74 C27.01 63.03, 47.19 39.51, 80.68 2.75 M9.98 88.46 C29.99 63.23, 54.39 37.59, 83.21 5.37 M10.28 89.59 C31.1 65.38, 52.74 39.24, 83.12 4.91 M9.89 93.96 C28.87 71.17, 50.69 50.15, 85.96 6.5 M11.35 94.22 C38.98 61.6, 66.95 28.49, 88.02 7.2 M12.76 98 C34.09 74.91, 56.22 49.24, 90.36 7.03 M12.87 97.74 C37.5 72.31, 61.36 42.88, 90.59 8.52 M14.6 103.29 C46.1 68.17, 77.75 30.98, 96.64 9.45 M13.87 103.75 C32.33 81.81, 51.6 60.31, 94.66 10.59 M16.92 105.98 C46.78 74.13, 77.26 39.85, 96.96 11.09 M16.37 105.85 C41.21 77.34, 67.37 48.86, 98.5 11.04 M19.06 107.58 C36.19 86.57, 58.12 65.36, 101.57 12.37 M19.92 108.84 C45 79.36, 68.57 50.51, 102.07 13.97 M23.62 111.44 C49.06 81.76, 73.02 54.23, 104.37 14.64 M24.21 111.49 C53.3 76.16, 83.02 41.31, 106.9 15.08 M27.98 114.82 C57.67 78.12, 86.89 44.52, 109.07 16.99 M26.9 113.91 C55.43 78.64, 85.5 45.2, 109.41 18.73 M30.5 117.25 C47.99 94.33, 67.19 69.78, 110.71 21.56 M28.96 116.13 C48.73 92.07, 67.73 70.3, 110.7 20.57 M32.06 118.26 C46.67 97.23, 65.78 79.7, 113.85 26.33 M32.43 119.2 C49.93 97.14, 68.82 78.33, 113.92 24.61 M34.89 121.54 C68.89 85.71, 101.56 48.31, 115.42 29.47 M36.52 121.56 C57.14 93.81, 80.94 66.8, 115.36 28.82 M38.74 121.66 C65.58 94.45, 93.61 61.29, 119.6 33.39 M37.98 123.09 C56.44 102.75, 76.65 81.59, 118.52 31.47 M45.09 122.7 C72.83 90.51, 104.37 53.3, 122.65 34.8 M44.5 123.95 C69.52 92.9, 98.05 62.41, 121.19 34.47 M46.75 124.54 C71.98 97.45, 97.52 67.79, 123.79 37.26 M48.53 124.26 C64.72 107.08, 79.08 89.32, 123.54 38.25 M54.55 125.92 C76.78 98.17, 96.63 72.15, 122.69 44.01 M53.26 125.33 C69.27 106.58, 86.2 89.15, 123.82 43.8 M59.01 126.76 C78.21 102.17, 101.44 77.08, 126.98 49.78 M56.4 127.33 C73.36 106.88, 90.07 87.81, 125.09 48.8 M61.1 127.7 C80.02 106.73, 99.26 83.2, 127.8 52.34 M62.25 127.09 C76.22 109.58, 91.11 92.56, 127.02 52.45 M66.44 127.18 C85.62 105.97, 103.06 85.59, 126.02 57.33 M66.07 128.48 C84.81 105.58, 105.73 83.76, 127.26 58.55 M68.91 129.28 C86.49 111.28, 104.14 93.12, 126.99 62.05 M70.93 130.48 C85.82 112.96, 102.11 95.54, 128.48 62.63 M75.98 127.94 C89.13 116.63, 99.58 102.65, 130.84 68.8 M77.23 128.75 C94.1 108.82, 111.49 89.71, 129.86 67.52 M84.48 124.4 C95.75 114.44, 106.02 101.16, 128 76.45 M83.75 125.31 C97.05 112.05, 108.78 95.79, 126.81 76.22 M91.94 125.18 C102 112.79, 114.11 98.14, 121.91 87.44 M91.12 123.79 C105.2 108.75, 117.02 93.99, 122.92 87.17 M100.82 121.16 C105.92 115.37, 113.72 106.57, 121.98 94.89 M99.35 120.82 C105.17 111.98, 111.59 105.74, 121.17 94.68" stroke="#a5d8ff" stroke-width="0.5" fill="none"></path><path d="M76.61 0.74 C86.17 1.51, 96.18 6.82, 103.84 12.9 C111.51 18.97, 118.56 27.98, 122.61 37.19 C126.67 46.41, 128.53 58.15, 128.18 68.17 C127.83 78.19, 125.48 88.78, 120.51 97.33 C115.55 105.88, 107.2 114.37, 98.4 119.47 C89.59 124.57, 77.75 127.44, 67.67 127.93 C57.59 128.42, 46.92 126.54, 37.92 122.44 C28.91 118.34, 19.88 111.07, 13.66 103.33 C7.44 95.59, 2.36 85.63, 0.58 75.99 C-1.2 66.36, -0.07 55.19, 3.01 45.53 C6.08 35.87, 11.97 25.18, 19.04 18.05 C26.12 10.92, 34.93 5.32, 45.45 2.75 C55.97 0.18, 75.08 2.04, 82.18 2.63 C89.28 3.22, 88.27 5.43, 88.06 6.31 M50.73 2.1 C59.87 -0.65, 74.27 0.16, 83.87 3.03 C93.48 5.91, 101.19 12.57, 108.36 19.35 C115.54 26.13, 123.73 34.2, 126.9 43.71 C130.08 53.23, 129.15 66.64, 127.4 76.44 C125.66 86.24, 122.6 94.52, 116.44 102.51 C110.27 110.49, 99.57 119.77, 90.42 124.36 C81.27 128.95, 71.51 130.87, 61.54 130.05 C51.56 129.23, 39.35 124.75, 30.57 119.43 C21.79 114.11, 13.99 106.5, 8.88 98.14 C3.77 89.78, 0.28 79.31, -0.08 69.29 C-0.45 59.27, 2.79 47.22, 6.69 38.03 C10.58 28.84, 15.6 20.29, 23.28 14.14 C30.96 8, 48.03 3.2, 52.77 1.17 C57.5 -0.86, 51.35 0.79, 51.67 1.97" stroke="#1e1e1e" stroke-width="1" fill="none"></path></g><g stroke-linecap="round"><g transform="translate(911.8837024856927 250.9473772439319) rotate(0 21.35711398124033 25.525664291718442)" fill-rule="evenodd"><path d="M0 0 C0 0, 0 0, 0 0 M0 0 C0 0, 0 0, 0 0 M0.26 6.35 C1.09 4.06, 2.92 2.1, 4.48 0.89 M-0.41 6.33 C1.41 4.93, 2.82 3.64, 4.95 0.38 M-0.7 12.34 C4.17 8.61, 8.26 2.35, 9.45 -1.14 M-0.31 11.56 C3.27 8.57, 6.95 4.16, 10.63 -0.68 M0.06 18.29 C2.27 11.89, 9.66 7.95, 16.43 2.2 M0.56 18.7 C4.49 12.27, 10.19 7.1, 16.31 -0.04 M-0.28 25.92 C4.87 18.05, 12.31 13.68, 21.94 -1.84 M-0.01 23.97 C5.76 18, 11.45 11.98, 22.25 -0.71 M1.16 29.87 C7.44 21.03, 16.03 11.03, 25.14 -0.11 M0.75 29.91 C5.24 25.19, 10.91 18.45, 26.6 0.14 M-0.37 38.71 C8.3 27.67, 15.27 18.69, 29.98 1.67 M-0.07 36.67 C7.28 27.1, 16.15 16.16, 30.08 1.41 M29.92 2.16 C29.92 2.16, 29.92 2.16, 29.92 2.16 M29.92 2.16 C29.92 2.16, 29.92 2.16, 29.92 2.16 M0.9 41.63 C9.93 34.37, 15.55 22.73, 30.46 7.77 M0.92 41.61 C8.48 32.14, 17.65 22.13, 29.91 7.65 M32.94 4.78 C32.94 4.78, 32.94 4.78, 32.94 4.78 M32.94 4.78 C32.94 4.78, 32.94 4.78, 32.94 4.78 M-0.83 48.14 C12.45 35.64, 24.55 21, 29.54 15.89 M0.19 48.04 C10.29 37.15, 21.41 25.03, 30.13 15.94 M35.96 7.41 C35.96 7.41, 35.96 7.41, 35.96 7.41 M35.96 7.41 C35.96 7.41, 35.96 7.41, 35.96 7.41 M1.03 53.56 C12.46 40.98, 22.13 32.35, 35.38 16.81 M1.11 52.65 C11.1 41.34, 21.42 31.54, 33.83 15.69 M38.32 10.79 C38.32 10.79, 38.32 10.79, 38.32 10.79 M38.32 10.79 C38.32 10.79, 38.32 10.79, 38.32 10.79 M8.43 53.49 C13.73 46.61, 19.83 35.54, 39.37 15.46 M6.58 53 C18.5 39.8, 30.05 27.47, 41 15.48 M41.34 13.41 C41.34 13.41, 41.34 13.41, 41.34 13.41 M41.34 13.41 C41.34 13.41, 41.34 13.41, 41.34 13.41 M14.14 52.84 C19.45 45.72, 28.77 34.8, 45.9 14.75 M11.49 53.53 C21.64 42.54, 30.41 32.26, 45.3 16.01 M18.24 52.5 C23.22 47.25, 28.1 42.07, 42.96 21.87 M16.92 53.61 C24.14 43.51, 31.55 36.61, 44.75 21.6 M22.58 53.4 C31.06 43.74, 40.08 33.4, 45.52 29.29 M22.57 52.14 C30.87 43.79, 37.33 35.39, 44.22 28.7 M27.71 52.22 C34.06 48.15, 37.77 41.85, 46.04 34.66 M28.69 54.12 C32.46 48.32, 36.14 44.08, 43.43 35.23 M31.97 52.4 C38 49.02, 41.2 45.77, 43.62 40.88 M33.18 53.48 C36.33 48.76, 39.75 45.85, 44.54 40.4 M38.5 53.79 C39.47 51.81, 41.02 50.75, 44.33 46.13 M38.85 53.12 C39.88 51.47, 41.96 49.72, 44.16 46.71" stroke="#a5d8ff" stroke-width="0.5" fill="none"></path><path d="M-1.51 -1.46 C1.07 12.79, -0.67 25.17, -1.22 50.06 M-0.51 0.71 C-0.27 12.06, -0.95 25.25, -0.71 51.81 M0.12 52.51 C9.67 50.27, 19.12 51.5, 42.55 52.16 M-0.74 51.43 C16.28 51.78, 30.5 52.16, 42.9 52.02 M41.07 51.12 C43.46 44.73, 40.55 33.9, 44.22 15.25 M41.79 51.68 C42.4 37.79, 43.42 22.99, 41.7 14.82 M41.86 15.98 C38.34 14.49, 32.91 15.59, 27.66 13.68 M42.66 14.33 C37.4 14.14, 32.82 14.4, 28.06 15.03 M29.35 13.88 C27.39 12.14, 28.1 7.01, 27.58 0.94 M28.32 14.45 C28.8 10.13, 28.61 4.66, 29.03 0.29 M29.47 -0.3 C33.9 5.7, 38.25 11.08, 40.6 15.86 M29.34 0.4 C31.66 4.02, 35.96 8.55, 41.56 14 M43.07 13.78 C36.22 9.51, 34.43 5.02, 26.83 0.12 M43.21 15.54 C38.08 10.46, 35.67 8.02, 28.51 0.84 M27.53 -0.15 C17.64 -0.33, 9.15 0.53, -1.48 1.11 M28.32 -0.53 C18.45 -0.7, 7.84 0.64, -0.78 0.44 M0 0 C0 0, 0 0, 0 0 M0 0 C0 0, 0 0, 0 0" stroke="#1e1e1e" stroke-width="1" fill="none"></path></g></g><mask></mask><g transform="translate(868.8563278396772 307.53434807910014) rotate(0 66.77274322509766 13.796003056388713)"><text x="66.77274322509766" y="0" font-family="Virgil, Segoe UI Emoji" font-size="22.073604890221926px" fill="#1e1e1e" text-anchor="middle" style="white-space: pre;" direction="ltr" dominant-baseline="text-before-edge">contact.html</text></g><g stroke-opacity="0" fill-opacity="0" stroke-linecap="round" transform="translate(913.8914365271049 259.1308527769173) rotate(0 18.846912494099 18.846912494098945)"><path d="M2.31 8.63 C2.31 8.63, 2.31 8.63, 2.31 8.63 M2.31 8.63 C2.31 8.63, 2.31 8.63, 2.31 8.63 M2.14 15.7 C6.48 10.27, 10.34 5.91, 13.89 3.11 M1.17 16.98 C3.87 12.47, 6.64 8.8, 13.36 2.46 M-0.68 24.06 C5.16 16.32, 13.07 6.52, 16.51 3.72 M0.05 23.57 C5.18 18.54, 9.85 11.68, 17.96 2.67 M1.25 27.59 C9.4 17.46, 19.74 8.2, 25.17 2.13 M1.66 26.76 C11.53 16.73, 19.84 6.94, 25.17 1.34 M4.48 32.32 C9.73 23.62, 17.8 14.27, 27.46 4.01 M3.56 30.11 C9.56 25.47, 14.17 18.78, 28.92 3.5 M6.12 34.2 C12.57 24.83, 24.14 16.78, 31.38 5.01 M6.74 34.41 C13.97 26.04, 20.68 16.97, 31.94 4.62 M10.17 38.22 C14.48 29.42, 19.58 24.69, 36.6 7.04 M10.18 37.09 C18.43 27.07, 27.16 17.2, 34.2 8.04 M13.68 37.37 C19.57 31.8, 24.53 26.17, 39.1 9.41 M14.22 38.45 C20.53 31.57, 25.11 23.72, 37.91 10.32 M17.59 39.05 C27.01 31.58, 31.57 21.97, 37.41 16.31 M17.75 38.29 C25.45 31.64, 30.09 24.56, 38.94 15.96 M24.16 40.27 C27.2 33.27, 32.84 28.29, 38.04 23.73 M22.89 40.28 C26.17 36.43, 28.95 31.37, 38.59 22.48" stroke="#a5d8ff" stroke-width="0.5" fill="none"></path><path d="M11.24 1.55 C14.66 -0.27, 20.97 -0.65, 25.06 0.48 C29.14 1.61, 33.55 4.67, 35.73 8.31 C37.9 11.95, 38.99 18.1, 38.12 22.3 C37.24 26.49, 33.55 30.83, 30.48 33.48 C27.41 36.13, 23.49 38.05, 19.69 38.21 C15.89 38.37, 11.05 36.89, 7.67 34.44 C4.29 31.99, 0.35 27.74, -0.59 23.49 C-1.53 19.25, -0.54 12.84, 2.03 8.95 C4.59 5.07, 12.09 1.53, 14.8 0.19 C17.52 -1.15, 18.22 0.61, 18.31 0.9 M23.46 0.63 C27.28 1.52, 31.91 5.83, 34.21 9.2 C36.51 12.58, 37.55 17.21, 37.24 20.86 C36.94 24.51, 35.14 28.38, 32.37 31.1 C29.6 33.83, 24.57 36.92, 20.61 37.24 C16.65 37.55, 11.84 35.15, 8.63 32.98 C5.41 30.81, 2.46 27.84, 1.32 24.22 C0.18 20.6, 0.19 15.11, 1.78 11.25 C3.37 7.4, 7.13 3.02, 10.88 1.09 C14.62 -0.84, 21.91 -0.53, 24.25 -0.32 C26.6 -0.12, 24.91 1.7, 24.96 2.32" stroke="#1e1e1e" stroke-width="1" fill="none"></path></g><g stroke-linecap="round"><g transform="translate(923.4752834623297 284.90643659141267) rotate(0 8.896172188113496 -6.841673931922372)" fill-rule="evenodd"><path d="M5.1 -14.11 C5.1 -14.11, 5.1 -14.11, 5.1 -14.11 M5.1 -14.11 C5.1 -14.11, 5.1 -14.11, 5.1 -14.11 M4.62 -7.25 C6.03 -9.31, 8.78 -11.77, 10.45 -13.92 M5.11 -7.39 C6.5 -9.06, 7.52 -11.07, 9.95 -13.72 M1.84 1.21 C5.44 -3.62, 9.77 -9.99, 14.96 -12.69 M1.8 2.36 C4.92 -0.68, 8.29 -4.82, 13.81 -11.18 M7.86 1.32 C10.91 -1.21, 11.76 -5.04, 15.81 -8.58 M7.18 0.91 C11.45 -2.71, 14.48 -6.02, 16.22 -9.43 M13.18 0.15 C14.28 -0.55, 16.37 -2.61, 19.24 -4.94 M13.35 0.71 C14.63 -0.82, 16.42 -2.32, 18.35 -5.31" stroke="#a5d8ff" stroke-width="0.5" fill="none"></path><path d="M-0.89 0.67 C-0.39 -1.25, 1.23 -8.62, 2.84 -11.31 C4.44 -14, 6.85 -15.6, 8.75 -15.47 C10.65 -15.35, 12.93 -13.11, 14.24 -10.58 C15.55 -8.05, 18.87 -1.91, 16.61 -0.3 C14.34 1.31, 3.35 -1.07, 0.67 -0.93 M0.85 -0.03 C1.27 -1.85, 1.13 -7.94, 2.34 -10.28 C3.56 -12.62, 6.19 -13.68, 8.16 -14.08 C10.13 -14.48, 12.47 -15.09, 14.16 -12.66 C15.85 -10.23, 20.87 -1.81, 18.3 0.5 C15.74 2.81, 1.58 1.36, -1.23 1.2" stroke="#1e1e1e" stroke-width="1" fill="none"></path></g></g><mask></mask><g stroke-linecap="round" transform="translate(927.9129530448205 261.1346170553953) rotate(0 4.491673941407498 3.930214698731561)"><path d="M0.05 2.69 C0.05 2.69, 0.05 2.69, 0.05 2.69 M0.05 2.69 C0.05 2.69, 0.05 2.69, 0.05 2.69 M2.54 6.08 C4.07 4.81, 4.49 2.9, 6.52 1.13 M2.2 5.87 C4.34 4.06, 5.85 2.41, 6.72 0.7 M4.07 9.54 C5.03 8.92, 6.86 7.12, 9.37 5.09 M4.21 10.03 C5.33 8.69, 6.9 7.37, 8.58 4.76" stroke="#a5d8ff" stroke-width="0.5" fill="none"></path><path d="M5.86 -0.74 C6.86 -0.5, 8.08 1.02, 8.47 1.85 C8.86 2.68, 8.2 3.39, 8.2 4.23 C8.21 5.06, 8.85 6.12, 8.5 6.86 C8.15 7.61, 7.25 8.43, 6.08 8.68 C4.9 8.94, 2.45 9.08, 1.44 8.4 C0.43 7.72, 0.22 5.59, 0.02 4.61 C-0.18 3.62, -0.22 3.05, 0.24 2.47 C0.7 1.88, 1.9 1.54, 2.78 1.08 C3.67 0.62, 4.97 -0.08, 5.54 -0.3 C6.11 -0.52, 6.19 -0.29, 6.2 -0.23 M3.99 0.04 C5.01 -0.4, 6.8 -0.91, 7.69 -0.47 C8.58 -0.03, 9.07 1.84, 9.34 2.7 C9.61 3.56, 9.72 3.72, 9.32 4.67 C8.92 5.62, 8 7.78, 6.94 8.39 C5.88 9, 4.07 8.83, 2.97 8.34 C1.88 7.86, 0.83 6.48, 0.38 5.48 C-0.08 4.47, -0.11 2.87, 0.25 2.33 C0.6 1.79, 1.65 2.48, 2.5 2.23 C3.36 1.98, 5.12 1.3, 5.38 0.82 C5.63 0.34, 4.28 -0.61, 4.02 -0.66" stroke="#1e1e1e" stroke-width="1" fill="none"></path></g><g transform="translate(925.1999913661103 286.74993687317067) rotate(0 7.2046356201171875 4.035488306733271)"><text x="7.2046356201171875" y="0" font-family="Virgil, Segoe UI Emoji" font-size="6.456781290773253px" fill="#1e1e1e" text-anchor="middle" style="white-space: pre;" direction="ltr" dominant-baseline="text-before-edge">User</text></g><g stroke-opacity="0" fill-opacity="0" stroke-linecap="round" transform="translate(693.115726765394 228.00000000000006) rotate(0 62.37866158183573 62.37866158183576)"><path d="M22.16 13.96 C22.16 13.96, 22.16 13.96, 22.16 13.96 M22.16 13.96 C22.16 13.96, 22.16 13.96, 22.16 13.96 M4.83 38.17 C11.02 34.41, 14.16 27.01, 30.07 11.49 M5.16 39.75 C11.13 32.32, 16.94 25.22, 31.21 10.74 M2.57 45.2 C17.53 33.18, 29.94 18.25, 39.87 6.08 M4.07 46.46 C14.39 35, 23.52 25.18, 40.09 4.83 M2.98 54.69 C16.34 41.36, 26.36 28.03, 48.29 1.02 M2.13 54.08 C17.08 39.29, 31.81 22.24, 49.53 1.41 M2.41 59.96 C22.85 37.95, 41.33 14.78, 49.99 5.42 M2.13 61.59 C18.12 41.97, 35.11 24.62, 52.73 4.56 M-1.07 69.24 C19.18 46.39, 39.3 23.46, 58.11 3.25 M0.32 69.7 C12.66 55.63, 23.22 42.09, 57.14 3.55 M2.39 73.48 C16.58 54.35, 32.99 38.03, 61.56 2.63 M1.74 74.85 C27.07 45.87, 51.3 18.55, 61.89 3.35 M2.89 79.21 C14.96 63.88, 29.06 44.46, 68.34 6.01 M2.86 77.47 C21.69 54.68, 41.68 33.04, 68.4 5.19 M6.08 82.31 C18.65 65.84, 33.62 48, 71.69 2.78 M4.11 81.93 C20.09 62.85, 37.95 43.05, 72.7 4.38 M5.38 87.33 C34.47 53.99, 58.93 25.11, 79.69 2.79 M6.35 87.21 C25.28 65.81, 41.75 44.12, 80.28 2.13 M8.21 92.32 C32.47 66.11, 54.69 40.5, 82.19 5.74 M8.27 89.94 C31.86 62.49, 55.68 35.54, 83.19 6.23 M8.17 95.6 C34.62 66.52, 62.11 35.13, 87.4 8.89 M10.83 94.54 C37.28 65.56, 63.39 35.3, 85.9 7.02 M11.86 99.88 C31.9 74.87, 52.63 50.79, 90.32 7.92 M13.26 97.54 C31.99 74.63, 53.27 50.95, 89.96 9.58 M13.76 100.52 C46.54 66.93, 76.38 33.55, 92.85 11.04 M16.21 101.19 C33.52 80.72, 51.45 58.58, 93.25 12.05 M18.43 102.4 C37.03 82.34, 55.73 62.73, 95.3 14.48 M19.14 104.53 C51.45 66.65, 82.77 30.25, 97.8 12.45 M21.38 105.91 C40.68 87.45, 57.32 66.06, 102.59 15.33 M21.36 106.76 C52.08 68.81, 83.49 32.77, 101.13 15.81 M25.15 109.58 C40.15 88.6, 58.25 69.38, 104.44 18.36 M23.43 110.07 C42.13 87.61, 60.11 68.54, 104.73 16.24 M27.64 113.34 C52.33 84.55, 75.74 55.52, 108.9 17.59 M27.64 112.22 C48.04 89.37, 67.45 65.99, 106.73 18.76 M30.87 116.38 C49.31 91.5, 64.93 71.16, 111.83 21.57 M30 114.66 C56.58 84.62, 81.49 52.69, 109.7 21.95 M31.89 117.43 C58.78 89.51, 85.48 55.67, 111.11 26.22 M31.37 118.12 C49.2 97, 68.21 76.72, 111.99 26.97 M36.86 119.06 C64.6 87.07, 93.33 52.73, 113.51 31.12 M36.77 119.17 C59.49 92.35, 83.25 65.13, 114.86 29.2 M41.44 119.55 C63.57 94.7, 89.99 65.98, 117.55 31.61 M39.96 121.38 C66.61 90.84, 91.5 62.1, 116.51 32.58 M43.44 122.14 C66.76 92.27, 89.73 68.54, 116.98 38.31 M45.37 120.83 C59.06 103.04, 75.55 85.7, 117.89 36.45 M49.12 124.14 C73.74 96.84, 93.73 68.08, 121.65 38.95 M50.55 122.54 C76.31 92.7, 101.78 61.97, 120.66 39.62 M55.33 125.7 C68.94 106.18, 86.04 87.97, 119.76 47.97 M53.56 123.48 C74.01 101.11, 93.79 79.67, 121.74 45.29 M57.73 124.66 C79.33 97.69, 102.34 71.49, 121.24 52.73 M57.4 124.75 C76.85 102.27, 96.61 79.82, 121.88 51.51 M60.97 125.34 C81.98 106.04, 100.38 82.61, 124.77 54.96 M63.42 126.58 C80.25 105.67, 97.91 85.42, 122.89 55.91 M68.8 123.08 C83.9 106.77, 99.44 90.32, 122.48 59.94 M69.67 124.25 C88.19 104.01, 106.6 83.77, 123.6 61.2 M77.09 123.14 C94.3 103.45, 110.71 79.65, 122.94 65.42 M75.05 123.15 C93.19 103.69, 109.29 85.28, 125.03 67.34 M81.88 122.92 C91.98 109.44, 103.7 97.26, 127.25 71.6 M83.72 120.39 C98.44 102.64, 114.63 85.07, 125.68 71.81 M89.62 120.81 C96.63 109.51, 108.59 97.48, 120.05 83.06 M90.4 119.87 C96.53 109.69, 103.68 101.35, 120.84 82.8 M109.15 101.99 C112.64 100.96, 113.09 97.1, 116.84 93.24 M108.89 102.84 C111.9 99.24, 115.05 96.24, 116.96 93.7" stroke="#a5d8ff" stroke-width="0.5" fill="none"></path><path d="M49.22 1.49 C57.89 -1.53, 68.65 -0.53, 78.03 2.12 C87.42 4.77, 98.4 10.99, 105.52 17.39 C112.65 23.8, 117.53 31.69, 120.76 40.55 C123.98 49.41, 126.04 60.96, 124.89 70.54 C123.73 80.12, 119.78 90, 113.83 98.03 C107.87 106.05, 97.91 114.13, 89.17 118.69 C80.44 123.25, 71.02 125.69, 61.4 125.38 C51.78 125.08, 39.85 121.62, 31.44 116.87 C23.03 112.12, 16.26 104.79, 10.95 96.88 C5.64 88.97, 0.81 79.17, -0.42 69.43 C-1.65 59.69, -0.18 47.68, 3.56 38.46 C7.31 29.24, 14 20.3, 22.05 14.1 C30.09 7.89, 46.32 3.19, 51.81 1.25 C57.3 -0.7, 54.88 1.52, 54.99 2.43 M87.97 4 C97.14 6.32, 105.94 14.08, 111.76 21.57 C117.58 29.07, 121.26 39.38, 122.88 48.99 C124.5 58.6, 123.9 69.73, 121.49 79.24 C119.08 88.75, 115.05 98.9, 108.42 106.07 C101.8 113.23, 91.15 119.07, 81.74 122.23 C72.33 125.39, 61.36 126.94, 51.98 125.03 C42.59 123.12, 32.98 116.93, 25.42 110.79 C17.86 104.65, 10.93 96.77, 6.61 88.19 C2.29 79.6, -0.65 68.73, -0.5 59.27 C-0.35 49.81, 2.46 39.72, 7.52 31.43 C12.58 23.15, 21.62 14.52, 29.87 9.56 C38.11 4.6, 47.59 2.35, 57 1.67 C66.41 0.99, 81.59 4.56, 86.33 5.48 C91.08 6.41, 85.72 6.21, 85.48 7.23" stroke="#1e1e1e" stroke-width="1" fill="none"></path></g><g stroke-linecap="round"><g transform="translate(732.5055215181122 250.21629863446276) rotate(0 20.63659183252787 25.229520658559352)" fill-rule="evenodd"><path d="M0 0 C0 0, 0 0, 0 0 M0 0 C0 0, 0 0, 0 0 M0.34 5.85 C1.13 3.41, 3.75 2.44, 4.83 0.69 M-0.62 6.55 C1.06 5.24, 1.96 4.32, 4.82 0 M0.43 13.37 C3.72 8.12, 3.5 7.85, 11.51 -0.19 M-0.22 11.7 C1.75 8.87, 5.75 6.7, 9.93 -0.49 M-1.63 18.74 C2.48 15.86, 7.28 11.39, 14.31 1.02 M-0.2 18.53 C5.9 11.15, 11.5 5.53, 15.28 0.9 M-1.6 25.62 C5.95 16.04, 14.81 7.4, 21.08 1.47 M0.81 23.91 C8.45 14.78, 17.23 4.49, 21.14 -0.9 M0.06 31.79 C9.29 22.53, 15.28 15.07, 24.32 0.99 M-0.7 31.08 C7.71 22.47, 13.49 13.46, 26.98 -0.07 M-0.6 36.28 C10.19 23.03, 22.75 12.08, 29.32 3.76 M-0.16 37.1 C6.85 27.6, 15.87 18.69, 30.72 1.42 M29.92 2.16 C29.92 2.16, 29.92 2.16, 29.92 2.16 M29.92 2.16 C29.92 2.16, 29.92 2.16, 29.92 2.16 M-1.81 41.92 C8.99 33.3, 14.35 27.87, 29.59 7.42 M0.99 41.56 C10.25 32.56, 17.98 21.26, 30.3 9.55 M32.22 5.6 C32.48 5.18, 32.73 5.03, 32.97 4.73 M32.3 5.58 C32.54 5.3, 32.82 5.01, 32.97 4.78 M-0.95 49.38 C11.46 36.57, 20.7 27.58, 30.01 15.75 M0.19 48.85 C8.61 39.15, 14.74 31.6, 28.3 16.24 M35.3 8.16 C35.3 8.16, 35.3 8.16, 35.3 8.16 M35.3 8.16 C35.3 8.16, 35.3 8.16, 35.3 8.16 M1.83 50.57 C12.05 38.17, 25.55 27.56, 35.34 16.91 M2.15 53.23 C13.55 39.51, 26.01 26.71, 34.47 15.19 M38.32 10.79 C38.32 10.79, 38.32 10.79, 38.32 10.79 M38.32 10.79 C38.32 10.79, 38.32 10.79, 38.32 10.79 M8.48 51.25 C17.97 43.77, 25.33 32.1, 39.62 15.46 M7.8 51.32 C17.08 42.26, 24.71 32.5, 39.53 15.57 M40.69 14.17 C40.69 14.17, 40.69 14.17, 40.69 14.17 M40.69 14.17 C40.69 14.17, 40.69 14.17, 40.69 14.17 M11.07 51.19 C23.91 39.48, 35.68 28.03, 41.87 17.42 M13.41 51.37 C20.46 44.05, 26.9 38.01, 43.8 16.11 M17.57 50.13 C22.74 46.21, 28.98 41.66, 42.95 24.7 M17.6 52.13 C27.03 41.95, 37.83 31.24, 44.38 23.1 M24.6 51.31 C29.82 41.82, 39.64 33.87, 45.23 30.79 M24.35 51.35 C29.28 46.5, 33.48 40.04, 43.46 28.58 M30.66 52.28 C32.89 47, 39.4 39.96, 43.04 35.04 M28.75 51.17 C33.17 48.51, 35.56 45.57, 42.71 35.13 M34.71 51.16 C37.21 49.87, 38.89 47.38, 42.75 40.4 M33.99 52.87 C36.85 48.22, 41.05 44.12, 44.59 41.33" stroke="#a5d8ff" stroke-width="0.5" fill="none"></path><path d="M-0.12 1.38 C0.51 15.26, -1.56 30.49, 1.53 51.73 M-0.72 0.9 C-1.41 11.97, -0.04 26.27, 0.64 49.42 M-1.45 51.94 C9.92 49.03, 23.79 48.69, 41.43 50.76 M-0.34 50.97 C13.36 51.09, 29 49.52, 41.58 49.17 M40.07 51.73 C41.67 40.65, 42.04 31.46, 42.42 15.2 M40.58 49.87 C40.17 42.9, 41.24 35.12, 40.59 15.32 M41.84 14.67 C38.25 15.11, 34.8 13.55, 26.8 13.07 M40.95 13.91 C35.87 14.13, 31.65 14.6, 27.29 14.51 M27.51 15.23 C27.46 8.4, 28.73 6.18, 27.76 -0.74 M27.83 13.98 C28.27 9.21, 27.81 4.57, 27.98 0.35 M26.87 0.75 C33.54 5.85, 37.7 7.74, 39.65 12.48 M27.9 0.44 C32.78 5.19, 36.47 11.02, 41.08 13.68 M42.73 14.5 C35.01 8.86, 33.7 5.45, 27.27 0.39 M41.7 14.01 C35.39 8.8, 29.75 2.63, 26.43 -0.21 M26.46 1.2 C19.33 2.11, 11.42 -0.64, 0.32 -1.49 M26.56 -0.98 C18.41 0.24, 7.91 0.32, 0.04 0.15 M0 0 C0 0, 0 0, 0 0 M0 0 C0 0, 0 0, 0 0" stroke="#1e1e1e" stroke-width="1" fill="none"></path></g></g><mask></mask><g transform="translate(708.5552022510382 305.00046980705963) rotate(0 46.939186096191406 13.356477326564118)"><text x="46.939186096191406" y="0" font-family="Virgil, Segoe UI Emoji" font-size="21.370363722502578px" fill="#1e1e1e" text-anchor="middle" style="white-space: pre;" direction="ltr" dominant-baseline="text-before-edge">cart.html</text></g><g stroke-linecap="round"><g transform="translate(738.6471754682601 268.35013951708595) rotate(0 10.853561172664968 7.816946179229092)"><path d="M0 0 C0.46 0, 1.69 -2.56, 2.79 0 C3.89 2.56, 3.43 12.65, 6.59 15.35 C9.74 18.05, 19.19 16.05, 21.71 16.19 M0 0 C0.46 0, 1.69 -2.56, 2.79 0 C3.89 2.56, 3.43 12.65, 6.59 15.35 C9.74 18.05, 19.19 16.05, 21.71 16.19" stroke="#1e1e1e" stroke-width="2" fill="none"></path></g></g><mask></mask><g stroke-linecap="round"><g transform="translate(748.5237349199048 272.77892209690106) rotate(0 7.963839302165411 5.732973904272228)"><path d="M0 0 C2.44 0.2, 12.11 -0.74, 14.65 1.18 C17.19 3.1, 15.14 9.8, 15.24 11.52 M0 0 C2.44 0.2, 12.11 -0.74, 14.65 1.18 C17.19 3.1, 15.14 9.8, 15.24 11.52" stroke="#1e1e1e" stroke-width="2" fill="none"></path></g></g><mask></mask><g stroke-linecap="round" transform="translate(749.6711079140488 281.82683371246424) rotate(0 4.88987373043318 4.88987373043318)"><path d="M0.86 2.07 C0.86 2.07, 0.86 2.07, 0.86 2.07 M0.86 2.07 C0.86 2.07, 0.86 2.07, 0.86 2.07 M4.27 10.34 C6.11 8.23, 7.95 6.11, 9.52 4.3 M4.27 10.34 C5.61 8.8, 6.95 7.26, 9.52 4.3" stroke="#a5d8ff" stroke-width="1" fill="none"></path><path d="M9.78 4.89 C9.78 5.17, 9.75 5.46, 9.71 5.74 C9.66 6.02, 9.58 6.3, 9.48 6.56 C9.39 6.83, 9.27 7.09, 9.12 7.33 C8.98 7.58, 8.82 7.82, 8.64 8.03 C8.45 8.25, 8.25 8.45, 8.03 8.64 C7.82 8.82, 7.58 8.98, 7.33 9.12 C7.09 9.27, 6.83 9.39, 6.56 9.48 C6.3 9.58, 6.02 9.66, 5.74 9.71 C5.46 9.75, 5.17 9.78, 4.89 9.78 C4.61 9.78, 4.32 9.75, 4.04 9.71 C3.76 9.66, 3.48 9.58, 3.22 9.48 C2.95 9.39, 2.69 9.27, 2.44 9.12 C2.2 8.98, 1.96 8.82, 1.75 8.64 C1.53 8.45, 1.33 8.25, 1.14 8.03 C0.96 7.82, 0.8 7.58, 0.66 7.33 C0.51 7.09, 0.39 6.83, 0.29 6.56 C0.2 6.3, 0.12 6.02, 0.07 5.74 C0.03 5.46, 0 5.17, 0 4.89 C0 4.61, 0.03 4.32, 0.07 4.04 C0.12 3.76, 0.2 3.48, 0.29 3.22 C0.39 2.95, 0.51 2.69, 0.66 2.44 C0.8 2.2, 0.96 1.96, 1.14 1.75 C1.33 1.53, 1.53 1.33, 1.75 1.14 C1.96 0.96, 2.2 0.8, 2.44 0.66 C2.69 0.51, 2.95 0.39, 3.22 0.29 C3.48 0.2, 3.76 0.12, 4.04 0.07 C4.32 0.03, 4.61 0, 4.89 0 C5.17 0, 5.46 0.03, 5.74 0.07 C6.02 0.12, 6.3 0.2, 6.56 0.29 C6.83 0.39, 7.09 0.51, 7.33 0.66 C7.58 0.8, 7.82 0.96, 8.03 1.14 C8.25 1.33, 8.45 1.53, 8.64 1.75 C8.82 1.96, 8.98 2.2, 9.12 2.44 C9.27 2.69, 9.39 2.95, 9.48 3.22 C9.58 3.48, 9.66 3.76, 9.71 4.04 C9.75 4.32, 9.77 4.75, 9.78 4.89 C9.79 5.03, 9.79 4.75, 9.78 4.89" stroke="#1e1e1e" stroke-width="2" fill="none"></path></g><g stroke-opacity="0" fill-opacity="0" stroke-linecap="round" transform="translate(527.7329089776985 228.00000000000006) rotate(0 58.61657698549806 58.616576985498085)"><path d="M7.27 31.5 C7.27 31.5, 7.27 31.5, 7.27 31.5 M7.27 31.5 C7.27 31.5, 7.27 31.5, 7.27 31.5 M4.33 41.58 C13.63 29.81, 23.47 20.59, 28.23 12.39 M5.09 40.62 C10.64 34.29, 15.44 28.16, 28.2 12.18 M1.59 48.79 C14.75 35.2, 26.93 19.79, 38.79 9.41 M3.12 49.69 C14.12 35.76, 26.49 23.03, 35.99 10.29 M-2.33 59.6 C12.93 43.61, 24.79 31.99, 43.11 6.4 M-0.51 59.01 C16.5 39.56, 32.12 20.47, 44.69 7.91 M0.88 62.56 C19.74 40.19, 36.36 20.24, 53.98 1.31 M2.39 62.25 C22.06 39.96, 42.52 17.71, 53.63 2.28 M4.45 65.53 C24.57 41.35, 44.04 19.22, 57.07 3.75 M3.35 65.68 C17.94 47.96, 33.23 31.31, 57.92 3.59 M5.64 69.89 C20.75 51.6, 41.01 27.41, 62.61 4.81 M3.56 71.64 C25.55 47.48, 47.81 22.13, 62.44 3.01 M6.73 76.34 C25.28 55.62, 41.99 34.34, 67.96 2.59 M5.16 76.56 C29.69 49.12, 51.7 22.51, 67.65 5.48 M8.44 80.05 C28.6 53.31, 54.14 26.16, 72.18 3.09 M8 81.31 C21.61 64.5, 35.78 48.09, 72.47 4.77 M6.82 87.38 C26.99 63.63, 48.23 39.21, 77.66 4.45 M6.74 86.17 C24.1 66.44, 39.56 46.96, 77.2 6.96 M10.59 89.99 C27.1 68.2, 45.27 48.71, 79.45 7.84 M9.46 90.12 C33.16 64.37, 57.25 37.08, 81.12 7.52 M12.11 92.91 C30.72 71.45, 54.17 47.16, 84.89 7.41 M13.01 93.13 C36.84 61.79, 61.92 32.29, 85.36 8.56 M14.11 95.62 C37.25 67.09, 61.96 40.66, 88.29 12.23 M14.94 94.5 C42.01 64.13, 69.57 33.26, 87.96 10.89 M17.21 97.76 C39.73 71.4, 63.87 45.66, 90.48 11.73 M17.27 98.77 C44.25 67.29, 73.49 35.18, 92.59 12.73 M20.63 103.1 C37.01 81.78, 53.17 63.17, 96.3 15.63 M20.6 100.87 C44.12 75.77, 64.91 50.45, 96.39 15.86 M23.13 104.19 C49.58 75.29, 71.82 49.47, 100.02 17.14 M23.24 105.03 C43.16 81.28, 62.32 60.96, 98.68 18.02 M27.78 106.31 C55.98 73.83, 85.32 41.08, 100.91 18.64 M25.25 107.96 C43.25 90.11, 59.4 69.92, 102.72 20.82 M30.01 107.9 C53.57 83.05, 74.32 56.02, 104.59 22.85 M30.85 109.47 C55.3 80.43, 80.7 51.53, 106.47 22.15 M35.95 108.55 C58.16 84.08, 81.27 58.83, 106.01 27.83 M33.98 109.67 C50.17 92.03, 66.26 74.42, 107.76 25.32 M35.74 111.35 C58.22 85.62, 82.58 59.69, 109.39 30.57 M37.9 111.58 C54.21 91.44, 71.89 71.8, 109.54 29.98 M43.07 112.9 C61.49 91.34, 82.18 65.28, 111.91 33.75 M42.02 114.3 C68.6 82.89, 95.65 51.82, 111.85 33.03 M46.02 113.7 C70.6 85.12, 95.26 55.69, 112.35 37.16 M45.04 115.71 C71.06 84.82, 98.31 53.98, 113.75 37.26 M49.82 115.88 C69.97 95.2, 89.56 71.45, 113.36 40.89 M48.93 117.3 C62.41 101.24, 77.78 85.15, 115.85 40.76 M55.67 117.58 C73.84 98.01, 91.22 75.17, 116.21 47.5 M54.11 118.87 C72.26 95.57, 91.08 75.13, 116.36 46.36 M59.58 119.21 C76.18 98.67, 97.92 75.79, 114.93 52.74 M59.53 117.95 C78.73 95.99, 98.84 73.56, 115.51 52.47 M63.21 117.82 C80.04 101.77, 94.21 83.11, 114.5 60.44 M65.78 118.42 C77.95 101.68, 93.1 85.19, 117 59.32 M72.59 116.85 C89.94 95.46, 108.24 77.24, 116.28 65.98 M71.11 115.47 C82.32 103.54, 93.09 90.44, 115.74 64.51 M75.05 114.76 C89.54 100.27, 101.6 87.04, 116.17 71.25 M76.64 116.43 C87.84 102.72, 97.8 91.69, 117.27 71.28 M81.25 115.5 C94.53 101.84, 106.83 86.55, 116.78 77.51 M81.67 116.49 C95.2 102.36, 106.44 88.41, 118.25 75.59" stroke="#a5d8ff" stroke-width="0.5" fill="none"></path><path d="M52.03 0.19 C60.32 -1.35, 70.06 1.63, 78.64 4.86 C87.23 8.1, 97.35 12.79, 103.55 19.6 C109.75 26.41, 113.85 36.79, 115.84 45.73 C117.82 54.68, 117.82 64.57, 115.45 73.28 C113.09 81.99, 107.61 91.27, 101.65 97.99 C95.68 104.72, 87.97 110.46, 79.65 113.64 C71.32 116.82, 60.88 118.37, 51.71 117.07 C42.53 115.77, 32.24 110.99, 24.61 105.84 C16.98 100.68, 10.13 93.93, 5.91 86.15 C1.7 78.36, -0.93 68.23, -0.7 59.11 C-0.46 49.99, 2.92 39.49, 7.34 31.42 C11.76 23.35, 17.22 16.02, 25.82 10.7 C34.41 5.37, 52.25 0.83, 58.9 -0.54 C65.55 -1.92, 65.61 1.47, 65.72 2.47 M62.86 -0.75 C71.25 -1.5, 80.04 2.5, 87.84 7.52 C95.65 12.54, 104.92 21.67, 109.68 29.35 C114.43 37.04, 115.98 44.63, 116.38 53.64 C116.78 62.66, 115.71 75.06, 112.06 83.44 C108.42 91.81, 101.59 98.67, 94.53 103.91 C87.48 109.16, 78.32 113.28, 69.73 114.91 C61.13 116.53, 51.71 116.23, 42.97 113.66 C34.24 111.1, 24.11 105.73, 17.32 99.52 C10.54 93.31, 5.13 85.14, 2.27 76.42 C-0.59 67.7, -1.56 55.95, 0.14 47.22 C1.84 38.49, 6.9 30.76, 12.49 24.03 C18.09 17.3, 25.5 10.89, 33.7 6.82 C41.9 2.76, 56.83 0.64, 61.7 -0.35 C66.58 -1.35, 62.83 -0.25, 62.93 0.85" stroke="#1e1e1e" stroke-width="1" fill="none"></path></g><g stroke-linecap="round"><g transform="translate(564.7470878333411 248.87642386381378) rotate(0 19.05269295779999 23.3700711139507)" fill-rule="evenodd"><path d="M0 0 C0 0, 0 0, 0 0 M0 0 C0 0, 0 0, 0 0 M-0.1 5.6 C0.96 4.42, 2.94 2.51, 5.5 0.39 M-0.16 6.44 C1.25 4.48, 3.49 1.82, 4.88 0.47 M-0.75 11.85 C5.69 8.27, 8.88 3.34, 11.66 -0.33 M-0.23 11.81 C1.85 8.55, 4.5 5.67, 11.31 0.68 M0.86 17.88 C3.35 13.88, 8.62 10.94, 15.55 0.89 M-0.53 18.72 C4.06 11.94, 10.07 7.01, 15.47 -0.32 M-1.44 24.31 C9.57 14.63, 13.99 8.93, 22.6 -0.27 M-0.39 23.1 C7.27 16.73, 12.47 8.43, 21.47 -0.14 M-0.68 29.89 C8.47 20.74, 15.58 10.85, 26.09 0.39 M0.22 30.38 C4.49 24.47, 11.66 18.46, 26.99 0.61 M-1.92 37.42 C6.56 28.9, 13.65 19.43, 27.44 3.85 M-1.09 36.97 C6.45 30.54, 11.73 22.72, 28.26 2.73 M29.27 2.92 C29.27 2.92, 29.27 2.92, 29.27 2.92 M29.27 2.92 C29.27 2.92, 29.27 2.92, 29.27 2.92 M-0.87 44.14 C4.5 34.03, 12.29 29.5, 28.97 10.97 M0.67 42.94 C8.14 33.63, 16.05 23.85, 28.94 8.74 M31.63 6.29 C31.63 6.29, 31.63 6.29, 31.63 6.29 M31.63 6.29 C31.63 6.29, 31.63 6.29, 31.63 6.29 M2.5 47.25 C10.9 39.78, 17.94 28.2, 30.47 14.57 M1.36 47.54 C8.74 37.03, 17.78 26.95, 27.94 16.23 M34.65 8.92 C34.65 8.92, 34.65 8.92, 34.65 8.92 M34.65 8.92 C34.65 8.92, 34.65 8.92, 34.65 8.92 M6.93 49.06 C13.1 40.66, 17.86 32.29, 35.63 14.19 M6.47 47.01 C16.74 35.85, 25.27 24.84, 33.66 15.31 M37.09 12.32 C37.14 12.1, 37.45 11.79, 37.57 11.5 M36.97 12.28 C37.2 12.09, 37.34 11.97, 37.68 11.51 M9.82 47.42 C20.54 38.94, 26.73 30.24, 41.04 14.41 M10.21 48.28 C18.77 40.28, 26.87 29.95, 39.99 15.81 M17.05 48.23 C22.98 41.07, 31.48 33.69, 40.05 19.74 M15.92 47.26 C24 40.3, 32.43 30.22, 39.07 21.75 M20.52 48.98 C25.88 42.89, 32.44 37.05, 40.57 25.69 M21.83 47.27 C27.85 39.66, 35.42 32.89, 39.68 27.11 M28.47 49.29 C28.51 44.39, 33.56 40.28, 41.73 32.71 M27.49 47.77 C32.39 42.48, 36.55 37.29, 40.25 33.93 M33.51 48.41 C34.14 46.21, 35.69 43.39, 40.41 39.8 M32.48 47.6 C34.07 46.45, 35.37 44.45, 40.38 39.05" stroke="#a5d8ff" stroke-width="0.5" fill="none"></path><path d="M0.12 -1.89 C0.52 15.22, -1.93 33.18, 1.78 46.45 M0.39 -0.68 C0.74 15.78, 0.55 31.01, 0.3 46.64 M-1.39 48.63 C9.19 47.47, 16.93 47.87, 38.6 46.04 M-0.42 47.24 C12.13 47.73, 23.81 46.3, 38.01 46.67 M37.18 46.88 C39.73 33.69, 37.4 21.94, 36.77 15.27 M38.13 47.08 C38.02 38.54, 38.72 32.46, 38.18 14.44 M38.14 14.25 C34.98 13.55, 30.23 14.5, 26.54 13.04 M37.92 13.88 C34.68 13.22, 30.72 14.07, 26.36 12.93 M25.27 13.91 C26.7 11.87, 26.98 7.99, 26.06 0.91 M26.72 13.33 C25.9 9.39, 26.36 5.71, 26.55 0.29 M27.88 -0.34 C28.82 6.13, 34.17 10.84, 37.97 12.77 M26 1.32 C29.66 4.65, 33.37 7.94, 39.35 13.57 M39.51 11.73 C35.76 8.68, 30.54 3.21, 24.17 0.56 M38.71 12.8 C33.5 9.07, 28.22 3.26, 25.85 0.02 M24.89 0.3 C19.29 0.57, 7.9 -2.11, -1.41 0.94 M24.85 -0.07 C18.07 0.62, 10.97 -0.87, 0.1 0.64 M0 0 C0 0, 0 0, 0 0 M0 0 C0 0, 0 0, 0 0" stroke="#1e1e1e" stroke-width="1" fill="none"></path></g></g><mask></mask><g transform="translate(521.5614152844855 300.35653750671906) rotate(0 64.78807067871094 12.5509422872193)"><text x="64.78807067871094" y="0" font-family="Virgil, Segoe UI Emoji" font-size="20.081507659550887px" fill="#1e1e1e" text-anchor="middle" style="white-space: pre;" direction="ltr" dominant-baseline="text-before-edge">products.html</text></g><g stroke-linecap="round" transform="translate(570.7603200677404 262.0385678750989) rotate(0 12.59288482380839 12.59288482380839)"><path d="M5.18 1.86 C5.18 1.86, 5.18 1.86, 5.18 1.86 M5.18 1.86 C5.18 1.86, 5.18 1.86, 5.18 1.86 M3.08 10.68 C5.58 7.54, 8.54 3.29, 13.43 -0.64 M4.17 9.58 C5.16 7.57, 7.46 5.24, 12.07 0.56 M1.08 20.36 C5.95 13.72, 9.54 9.79, 17.59 -0.8 M0.43 17.63 C7.35 12.75, 11.73 6.15, 16.72 0.35 M4.22 21.48 C8.47 16.92, 11.79 10.23, 18.72 3.99 M3.43 20.34 C10.84 14.01, 15.51 6.63, 18.69 3.62 M5.34 24.63 C12.25 19.61, 16.32 16.35, 24.68 4.59 M6.92 24.98 C11.51 18.33, 17.05 11.26, 23.96 4.87 M12.32 24.81 C14.49 18.13, 18.77 13.25, 24.87 8.63 M12.63 25.42 C15.56 18.83, 21.66 14.65, 23.97 9.28 M16.73 24.49 C20.51 21.36, 25.78 18.1, 27.57 11.38 M16.02 26.45 C18.95 23.22, 21.99 19.2, 27.44 13.16" stroke="#a5d8ff" stroke-width="0.5" fill="none"></path><path d="M14.34 -0.43 C16.86 -0.18, 19.98 2.96, 21.9 4.98 C23.83 6.99, 25.78 9.02, 25.9 11.67 C26.03 14.33, 24.29 18.58, 22.66 20.91 C21.04 23.24, 18.9 25.28, 16.15 25.67 C13.41 26.07, 8.79 24.53, 6.18 23.27 C3.57 22.02, 1.25 20.63, 0.48 18.13 C-0.29 15.63, 0.78 11, 1.57 8.29 C2.36 5.57, 2.46 3.11, 5.22 1.82 C7.97 0.53, 15.73 0.38, 18.12 0.53 C20.51 0.68, 19.91 2.32, 19.56 2.73 M7.74 0.69 C10 -0.41, 13.47 -1.66, 16.14 -0.53 C18.82 0.6, 22.39 4.69, 23.79 7.48 C25.19 10.27, 25.07 13.84, 24.56 16.22 C24.05 18.61, 22.49 20.37, 20.71 21.79 C18.94 23.22, 16.46 24.66, 13.91 24.78 C11.37 24.9, 7.75 24.35, 5.46 22.53 C3.17 20.7, 0.61 16.43, 0.17 13.82 C-0.28 11.21, 1.53 9.05, 2.79 6.85 C4.06 4.66, 7.04 1.61, 7.75 0.64 C8.46 -0.33, 7.13 0.65, 7.06 1.03" stroke="#1e1e1e" stroke-width="1" fill="none"></path></g><g stroke-linecap="round" transform="translate(576.2232257829432 267.7950136886253) rotate(0 7.129979108605596 6.57851534392961)"><path d="M0 0 C0 0, 0 0, 0 0 M0 0 C0 0, 0 0, 0 0 M-0.18 5.63 C0.14 5.41, 2.5 3.18, 5.5 0.56 M-0.55 6.36 C1.04 4.99, 2.26 3.45, 4.71 0.21 M-0.68 10.5 C2.19 8.95, 6.34 2.96, 9.64 -1.31 M-0.04 11.47 C3.33 8.93, 6.39 5.27, 11.4 0.57 M3.61 15.71 C6.65 10.78, 9.1 7.47, 13.68 2.6 M2.17 15.69 C5.34 11.35, 7.41 8, 14.22 1.08 M9.06 15.99 C10.57 12.15, 11.02 11.78, 15.89 5.73 M8.44 15.23 C9.49 12.97, 11.89 11.2, 15.9 6.83" stroke="#a5d8ff" stroke-width="0.5" fill="none"></path><path d="M0.41 0.66 C5.43 -0.82, 10.68 1.19, 15.3 -0.59 M0.55 -0.4 C4.09 -0.46, 9.4 0.57, 13.92 -0.46 M13.77 0.08 C13.24 4.96, 13.44 7.4, 13.5 12.7 M14.39 0.53 C14 4.52, 14.2 7.57, 14.83 12.98 M13.33 14.22 C9.6 12.66, 3.79 11.93, 0.03 11.87 M13.65 13.85 C9.34 12.49, 3.23 12.62, 0.32 12.71 M0.81 13.41 C-0.09 9.2, -0.21 4.4, -0.03 1.27 M0.28 12.89 C0.51 9.3, 0.27 5.97, -0.57 0.65" stroke="#1e1e1e" stroke-width="1" fill="none"></path></g><g stroke-linecap="round"><g transform="translate(577.8487035808073 270.8616303054745) rotate(0 6.247060715130033 0.29643999540599)"><path d="M0.56 0.07 C2.29 0.02, 8.76 -0.14, 10.73 -0.01 M-0.61 -0.93 C1.5 -0.82, 10.97 1.54, 13.1 1.53" stroke="#1e1e1e" stroke-width="1" fill="none"></path></g></g><mask></mask><g stroke-linecap="round"><g transform="translate(577.7360529905436 273.4133608879778) rotate(0 5.880493142905095 -0.1502522591607658)"><path d="M-0.65 -0.01 C1.32 0.13, 10.49 0.85, 12.41 0.87 M1.2 -1.06 C3.06 -1.26, 10.56 -1.22, 12.01 -0.79" stroke="#1e1e1e" stroke-width="1" fill="none"></path></g></g><mask></mask><g stroke-linecap="round"><g transform="translate(577.6793628915793 275.9650914704815) rotate(0 5.498707668271322 0.9347350946887332)"><path d="M1.03 0.87 C2.95 0.9, 9.04 0.1, 10.89 0.13 M0.11 0.29 C1.89 0.53, 7.74 1.9, 9.68 1.73" stroke="#1e1e1e" stroke-width="1" fill="none"></path></g></g><mask></mask><g stroke-linecap="round"><g transform="translate(577.6563484357298 278.51682205298505) rotate(0 5.811585476698724 0.0447547916306803)"><path d="M-0.5 0.13 C1.35 0.16, 9.99 1.19, 12.12 1.06 M1.44 -0.85 C3.11 -1.21, 9.79 -0.7, 11.56 -0.51" stroke="#1e1e1e" stroke-width="1" fill="none"></path></g></g><mask></mask><g stroke-opacity="0" fill-opacity="0" stroke-linecap="round" transform="translate(287.42795477921493 228) rotate(0 67.8513160614907 67.8513160614907)"><path d="M24.95 15.06 C24.95 15.06, 24.95 15.06, 24.95 15.06 M24.95 15.06 C24.95 15.06, 24.95 15.06, 24.95 15.06 M7.16 42.25 C17.68 29.38, 23.83 19.7, 33 11.71 M8.52 41.32 C14.78 33.53, 21.44 25.52, 33.91 9.65 M4.74 49.26 C19.17 33.75, 29.98 18.9, 44.97 6.66 M6.9 48.1 C14.92 37.13, 26.18 25.58, 44.71 4.79 M2.06 57.18 C21.69 35.03, 42.04 12.63, 53.41 3.32 M3.63 57.62 C20.15 38.43, 37.56 19.05, 51.89 1.95 M2.33 67.62 C23.16 42.83, 45.22 15.35, 56.32 2.73 M0.65 65.86 C19.47 45.64, 38.29 23.99, 57.96 2.69 M2.48 73.52 C23.09 43.82, 48.05 16.8, 63.78 2.08 M2.82 72 C15.57 59.08, 27.01 44.35, 61.67 3.14 M2.81 77.52 C27.61 47.71, 52.04 20.71, 66.87 1.07 M3.71 76.13 C24.56 50.47, 46.14 27.42, 68.11 2.6 M4.44 80.98 C24.32 56.83, 42.6 38.63, 71.21 3.68 M4.35 80.46 C19.77 63.27, 34.37 46.38, 72.48 2.67 M5.45 86.33 C32.04 54.89, 57.07 28.73, 80.39 1.03 M5.54 85.01 C32.55 53.83, 59.63 23.96, 78.77 2.3 M9.13 88.6 C34.78 59.28, 61.01 29.62, 82.94 4.14 M7.32 89.4 C22.41 70.68, 38.93 52.98, 82.88 1.91 M9.46 92.22 C35.13 63.51, 61.06 35.77, 85.78 5.04 M8.71 94.95 C27.47 70.38, 46.6 49.08, 87.35 4.72 M12.03 97.9 C29.14 77.4, 47.52 53.5, 91.69 6.03 M9.79 99.8 C30.45 76.39, 50.14 52.17, 91.05 5.34 M12.11 102.61 C41.82 72.97, 67.8 37.12, 94.27 8.28 M12.05 102.21 C28.8 82.45, 46.73 64.58, 95.3 8.63 M14.31 103.94 C43.58 73.18, 69.81 43.84, 99.41 9.15 M15.2 105.23 C34.73 82.15, 55.33 61.05, 97.61 10.28 M17.36 109.68 C50.84 72.58, 79.35 34.16, 103.48 10.97 M18.22 109.44 C36.73 87.03, 55.73 66.33, 101.08 11.91 M18.94 112.09 C48.58 78.75, 74.77 46.68, 105.52 11.87 M19.42 111.65 C46.39 81.21, 74.93 49.86, 104.79 13.16 M24.59 113.95 C45.45 87.44, 65.14 63.33, 110.09 13.85 M23.51 116.15 C49.57 82.05, 79.46 50.73, 109.9 14.04 M23.22 120.45 C50.11 90.24, 75.56 62.02, 111.5 18.09 M24.36 118.87 C46.26 95, 66.86 70.58, 112.07 17.55 M26.6 122.18 C57.87 91.69, 86.06 56.79, 115.9 20.74 M26.75 121.7 C48.98 96.09, 72.26 71.39, 114.78 21.67 M29.52 125.69 C65.19 84.37, 98.6 45.63, 119.53 22.49 M31.66 123.3 C53.48 98.14, 74.66 72.86, 117.81 24.34 M36.11 127.64 C49.91 106.48, 68.08 88.08, 118.3 26.16 M34.9 126.54 C53.06 104.81, 72.6 83.5, 120 27.23 M36.56 127.51 C68.49 92.22, 100.62 57.64, 123.85 31.01 M38.98 127.47 C68.31 92.58, 99.98 57.36, 121.57 31.32 M42.71 127.7 C59.94 111.47, 76.34 88.76, 123.82 31.73 M42.96 128.77 C68.34 97.39, 96.19 67.75, 125.61 34.29 M46.85 129.61 C72.28 102.19, 96.15 74.02, 128.05 35.63 M46.45 132.02 C68.53 106.99, 92.01 79.38, 128.47 36.84 M49.97 132.45 C78.11 102.8, 103.32 72.33, 131.35 38.07 M50.07 133.83 C77.66 102.45, 104.6 69.47, 131.75 40.53 M52.56 133.26 C82.56 100.24, 114.91 66.21, 131.16 44.89 M53.51 134.19 C76.77 108.21, 98.1 83.82, 132.21 45.41 M55.53 137.55 C77.69 112.09, 96.48 91.11, 134.23 47.37 M56.61 136.28 C83.71 106.93, 112.29 75.16, 133.64 49.28 M62.28 139 C90.28 105.09, 116.29 74.46, 134.92 51.84 M62.71 136.59 C88.92 105.51, 116.01 74.86, 135.39 52.62 M69.02 137.64 C94.73 107.78, 118.72 77.79, 136.73 57.27 M67.13 136.25 C90.03 111.33, 110.36 86.8, 135.11 58.4 M72.24 134.61 C94.85 111.38, 116.24 87.43, 137.07 60.79 M73.91 136.16 C92.91 114.19, 111.83 92.66, 137.78 62.92 M76.21 135.71 C101.34 112.81, 124.34 83.72, 139.58 69.27 M77.5 137.78 C94.95 115.96, 113.14 96.17, 137.15 67.67 M86.49 136.46 C100.98 114.77, 119.14 95.94, 134.19 77.64 M85.48 134.48 C100.24 116.66, 115.87 98.61, 136.15 76.91 M93.47 130.18 C109.39 111.92, 123.86 97.42, 134.65 85.91 M94.34 128.94 C110.45 112.38, 124.2 95.54, 133.53 85 M107.31 124.61 C114.25 116.85, 118.96 105.24, 130.16 95.79 M105.64 123.95 C111.33 116.53, 118.46 110.44, 129.75 96.26" stroke="#ffc9c9" stroke-width="0.5" fill="none"></path><path d="M82.29 1.89 C91.79 3.01, 102.25 8.97, 109.87 14.9 C117.49 20.82, 123.58 28.72, 128.01 37.42 C132.43 46.13, 136.24 57.34, 136.4 67.1 C136.56 76.87, 133.22 87.27, 128.98 96.01 C124.73 104.75, 118.38 113.16, 110.95 119.54 C103.51 125.92, 93.83 131.76, 84.36 134.28 C74.89 136.8, 63.73 136.67, 54.13 134.67 C44.54 132.66, 34.47 128.46, 26.8 122.24 C19.12 116.02, 12.6 106.16, 8.07 97.36 C3.53 88.56, -0.22 79.04, -0.42 69.44 C-0.61 59.84, 2.66 48.83, 6.9 39.75 C11.14 30.67, 17.61 21.3, 25.03 14.97 C32.45 8.64, 40.67 3.84, 51.44 1.75 C62.21 -0.33, 82.28 1.45, 89.66 2.46 C97.03 3.46, 96.24 6.59, 95.69 7.76 M74.23 1.56 C83.69 1.79, 94.79 5.62, 103.33 10.69 C111.87 15.75, 120.32 23.72, 125.49 31.94 C130.67 40.17, 133.42 50.74, 134.35 60.04 C135.29 69.34, 134.25 78.48, 131.12 87.77 C127.99 97.06, 121.91 108.59, 115.56 115.78 C109.22 122.97, 102.06 127.9, 93.02 130.93 C83.98 133.97, 71.51 134.74, 61.33 133.98 C51.15 133.23, 40.44 131.37, 31.93 126.41 C23.42 121.46, 15.3 112.5, 10.27 104.25 C5.24 95.99, 2.72 86.27, 1.75 76.88 C0.79 67.49, 1.63 57.19, 4.48 47.9 C7.33 38.62, 12.22 28.28, 18.87 21.19 C25.53 14.1, 35.01 9.07, 44.4 5.37 C53.8 1.67, 70.14 -0.54, 75.24 -1.01 C80.35 -1.48, 75.54 1.38, 75.02 2.55" stroke="#1e1e1e" stroke-width="1" fill="none"></path></g><g stroke-linecap="round"><g transform="translate(330.2735264152402 252.1653966618985) rotate(0 22.61854582990526 27.681341833245824)" fill-rule="evenodd"><path d="M0 0 C0 0, 0 0, 0 0 M0 0 C0 0, 0 0, 0 0 M-0.23 6 C0.64 4.25, 3.55 2.75, 5.37 0.2 M-0.26 6.35 C0.42 4.96, 2.24 3.58, 5.23 0.04 M-0.69 11.51 C2.81 7.9, 6.01 5.17, 10.92 0.73 M0.62 12.45 C3.48 8.06, 8.41 3.96, 10.2 0.54 M-0.33 18.15 C5.33 11.98, 13.26 5.32, 16.03 1.25 M-0.83 19.07 C4.87 12.74, 10.54 5.68, 16.46 -0.63 M-0.93 23.55 C5.75 17.04, 13.52 5.86, 20.16 0.4 M-0.69 24.61 C6.86 16.59, 14.77 6.62, 21.62 -0.6 M1.63 29.48 C7.23 18.56, 18.33 9.18, 27.03 -0.79 M-0.56 30.39 C10.78 17.73, 20.41 7.25, 26.16 -0.2 M1.29 37.42 C10.92 24.6, 19.37 13.49, 28.87 2.19 M-0.15 37.84 C12.12 24.19, 21.35 11.16, 30.69 0.44 M30.58 1.41 C30.58 1.41, 30.58 1.41, 30.58 1.41 M30.58 1.41 C30.58 1.41, 30.58 1.41, 30.58 1.41 M-0.97 41.43 C4.85 36.15, 13.93 26, 31.66 8.57 M0.4 43.41 C9.84 30.65, 18.59 21.07, 30.56 6.28 M33.6 4.03 C33.6 4.03, 33.6 4.03, 33.6 4.03 M33.6 4.03 C33.6 4.03, 33.6 4.03, 33.6 4.03 M-1.9 47.61 C7.24 41.11, 15.07 28.07, 29.69 12.51 M-0.73 49.16 C7.58 37.53, 17.05 28.39, 30.24 13.68 M36.62 6.65 C36.62 6.65, 36.62 6.65, 36.62 6.65 M36.62 6.65 C36.62 6.65, 36.62 6.65, 36.62 6.65 M0.92 56.37 C13.69 41.16, 25.98 25.53, 31.18 18.17 M0.02 55.37 C9.48 45.71, 16.78 36.55, 32.01 17.15 M38.98 10.03 C38.98 10.03, 38.98 10.03, 38.98 10.03 M38.98 10.03 C38.98 10.03, 38.98 10.03, 38.98 10.03 M4.28 56.86 C15.21 43.12, 25.45 29.86, 38.41 15.23 M6.25 54.17 C17.63 40.54, 30.42 26.05, 37.37 16.33 M42 12.66 C42 12.66, 42 12.66, 42 12.66 M42 12.66 C42 12.66, 42 12.66, 42 12.66 M10.78 53.08 C19.43 46.03, 26.99 32.71, 45.15 14.22 M10.05 54.59 C21.21 43.32, 29.15 32.28, 43.45 16.24 M14.63 53.62 C22.41 46.02, 32.98 35.66, 46.23 21.64 M15.06 55.52 C21.67 47.8, 27.98 40.26, 44.11 21.41 M23.03 53.4 C28.45 49.77, 29.69 44.37, 44.32 28.59 M21.19 55.12 C26.43 48.91, 31.23 43.66, 43.75 28.44 M27.91 56.32 C33.69 49.07, 36.19 44.01, 46.85 35.28 M26.02 54.02 C30.25 51.32, 33.9 46.1, 45.11 33.57 M32.04 54.49 C33.23 49.44, 38.45 48.48, 46.46 39.49 M32.48 54.62 C35.01 50, 39.6 47.18, 43.69 40.68 M36.5 53.88 C39.96 53.08, 41.5 51.27, 44.31 47.32 M37.63 55.06 C38.77 52.61, 40.77 50.66, 43.92 46.92 M42.6 54.24 C43.03 53.68, 43.66 53.57, 44.51 52.42 M42.85 54.54 C43.62 53.47, 44.4 52.74, 44.68 52.19" stroke="#ffc9c9" stroke-width="0.5" fill="none"></path><path d="M-1.2 -0.62 C0.33 22.11, 0.73 43.97, -1.18 54.16 M-0.49 0.11 C-0.74 20.77, 0.55 40.95, 0.47 55.12 M-0.85 55.98 C18.02 55.97, 34.14 54.11, 43.63 54.26 M0.42 53.89 C15.17 54.62, 31.24 53.51, 44.71 55.41 M46.45 53.57 C45.93 39.55, 42.8 26.14, 45.88 17.42 M43.82 54.79 C44.02 43.43, 45.4 33.54, 45.3 16.3 M45.55 16.79 C38.98 16.73, 36.76 14.41, 29.23 14.18 M44.7 15.06 C40.29 15.35, 34.56 15.33, 29.84 15.71 M31.37 17.02 C29.55 12.21, 29.22 7.87, 29.68 1 M30.93 15.9 C29.83 10.07, 29.93 5.25, 30.79 0.22 M32.18 0.43 C36.52 5.58, 40.98 9.84, 43.56 16.42 M30.34 0.71 C35.1 4.82, 40.03 11.33, 45.26 15.2 M42.76 13.93 C38.76 11.08, 33.21 5.71, 28.84 1.94 M44.3 15.22 C38.62 9.89, 32.76 4.57, 30.07 0.56 M29.63 -0.57 C18.22 0.07, 7.36 0.29, -1.21 1.79 M30.35 -0.25 C22.9 0.02, 14.29 -0.41, 0.28 0.21 M0 0 C0 0, 0 0, 0 0 M0 0 C0 0, 0 0, 0 0" stroke="#1e1e1e" stroke-width="1" fill="none"></path></g></g><mask></mask><g transform="translate(248.9447142611158 311.75593642559704) rotate(0 106.33455657958984 14.52827844605008)"><text x="106.33455657958984" y="0" font-family="Virgil, Segoe UI Emoji" font-size="23.24524551368012px" fill="#1e1e1e" text-anchor="middle" style="white-space: pre;" direction="ltr" dominant-baseline="text-before-edge">product-detail.html</text></g><g stroke-opacity="0" fill-opacity="0" stroke-linecap="round" transform="translate(322.46435799938786 259.8022736921571) rotate(0 28.77225093129772 28.77225093129772)"><path d="M10.88 5.48 C10.88 5.48, 10.88 5.48, 10.88 5.48 M10.88 5.48 C10.88 5.48, 10.88 5.48, 10.88 5.48 M-0.34 23.64 C3.22 17.56, 9.72 13.91, 16.15 3.67 M0.93 22.63 C6.87 17.48, 11.52 10.75, 17.79 4.85 M4.25 26.27 C9.07 22.59, 13.44 13.21, 23.93 2.14 M2.63 27.54 C8.99 20.56, 13.87 14, 23.43 3.06 M2.21 34.66 C7.58 26.18, 17.72 17.05, 28.58 1.5 M2.15 32.43 C8.76 26.85, 15.28 19.79, 28.82 2.56 M1.76 39.33 C9.82 30.59, 20.42 19.34, 35.74 2.14 M3.34 39.01 C9.28 32.24, 16.13 24.98, 33.54 3.06 M5.71 42.59 C16.41 29.5, 28.82 13.96, 39.99 4.81 M5.07 41.9 C16.78 30.55, 26.84 16.68, 38.54 5.23 M6.98 46.35 C19.36 30.43, 35.44 13.16, 42.39 4.42 M8 46.7 C15.4 36.27, 23.41 26.95, 41.85 5.85 M11.46 47.97 C18.05 36.45, 29.46 28.28, 45.33 6.16 M9.66 49.1 C18.73 39.68, 26.38 30.51, 46.7 8.14 M14.87 50.55 C24.1 37.67, 38.22 25.87, 50.68 9.97 M12.47 51.48 C23.79 39.48, 34.56 26.85, 49.89 9.57 M16.26 52.21 C26.57 42.37, 35.13 31.29, 50.7 11.19 M15.53 53.49 C24.38 44.03, 34.17 34.97, 51.87 12.74 M18.86 56.45 C26.93 49.91, 35 42.17, 56.15 14.81 M18.67 56.64 C28.19 45.32, 39.14 33.14, 55.14 16.96 M23.55 56.92 C32.66 47.57, 42.66 33.1, 57.2 21.81 M24.12 56.37 C35.45 43.89, 45.37 31.75, 56.3 20.82 M31.23 55.79 C39.95 44.46, 51.46 31.39, 56.3 23.73 M30.12 56.72 C37.26 48.17, 43.85 40.63, 59.21 24.09 M36.83 55.27 C41.47 49.13, 50.53 41.01, 59.64 29.46 M35.11 57.13 C40.56 50.18, 47.37 42.52, 61.61 26.77 M38.22 55.93 C43.88 49.33, 51.03 44.69, 60.14 34.59 M39.92 56.99 C46.37 50.01, 51.87 42.95, 58.38 35.71" stroke="#ffc9c9" stroke-width="0.5" fill="none"></path><path d="M29.13 0.91 C34.87 0.61, 42.72 2.64, 47.47 6.72 C52.22 10.8, 56.71 19.07, 57.62 25.38 C58.54 31.68, 56.28 39.55, 52.95 44.56 C49.61 49.57, 43.52 53.6, 37.62 55.46 C31.71 57.33, 23.19 58.01, 17.52 55.75 C11.85 53.49, 6.29 47.56, 3.6 41.92 C0.91 36.28, 0.23 27.91, 1.4 21.89 C2.56 15.88, 5.21 9.33, 10.56 5.84 C15.91 2.35, 29.32 1.57, 33.49 0.96 C37.67 0.36, 35.68 1.7, 35.64 2.21 M43.65 2.31 C48.67 4.72, 53 12.14, 54.95 18.25 C56.9 24.36, 57.26 33.35, 55.35 38.95 C53.45 44.55, 48.79 48.99, 43.5 51.86 C38.21 54.73, 29.46 56.84, 23.62 56.19 C17.79 55.53, 12.22 52.14, 8.48 47.93 C4.75 43.72, 1.61 37.01, 1.2 30.93 C0.8 24.86, 2.59 16.39, 6.06 11.49 C9.53 6.59, 15.75 3.07, 21.99 1.51 C28.24 -0.05, 40 1.81, 43.54 2.12 C47.08 2.42, 43.46 2.74, 43.23 3.31" stroke="#1e1e1e" stroke-width="1" fill="none"></path></g><g stroke-linecap="round"><g transform="translate(339.100986584215 273.67759479992765) rotate(0 12.481364601251983 8.029989477657068)" fill-rule="evenodd"><path d="M0 0 C0 0, 0 0, 0 0 M0 0 C0 0, 0 0, 0 0 M0.76 5.03 C3.13 3.71, 4 1.11, 5.9 -0.51 M0.37 5.39 C1.77 3.95, 3.65 2.01, 6.31 -1.13 M1.33 12.24 C3.84 8.53, 4.2 6.63, 11.03 -0.79 M0.96 11.29 C3.96 7.73, 6.26 5.4, 10.95 -1.23 M1.35 16.69 C5.26 13.72, 10.59 8.31, 15.92 0.04 M1.31 18.57 C5.87 11.69, 12.91 4.61, 16.01 -1.28 M5.19 20.6 C9.25 15.18, 14.88 6.75, 23.54 -2.23 M3.39 19.98 C11.17 11.57, 17.48 5.58, 21.73 -1.42 M7.35 19.22 C12.64 15.24, 19.66 10.79, 27.15 -2.38 M8.76 19.91 C15.47 12.51, 22.17 6.4, 26.4 0.35 M14 20.41 C18.38 15.51, 22.62 12.8, 29.06 4.06 M14.27 20.64 C17.82 15.5, 22.07 11.27, 26.83 5.95 M18.39 20.76 C20.93 17.75, 25.99 12.55, 27.98 10.21 M18.49 20.51 C22.78 15.76, 26.36 12.31, 27.94 9.94" stroke="#ffc9c9" stroke-width="0.5" fill="none"></path><path d="M0.08 0.22 C0.15 2.75, -0.67 12.21, 0.05 15.13 C0.77 18.04, 0.93 17.1, 4.4 17.71 C7.87 18.31, 17.31 19.15, 20.88 18.77 C24.46 18.38, 25.04 18.49, 25.84 15.4 C26.64 12.3, 26.56 3.43, 25.68 0.2 C24.79 -3.02, 24.08 -3.4, 20.55 -3.95 C17.03 -4.5, 8.02 -3.89, 4.52 -3.07 C1.01 -2.26, 0.46 0.51, -0.48 0.93 M-1.34 -0.71 C-1.38 1.97, -1.71 13.05, -0.79 16.28 C0.14 19.52, 0.62 18.06, 4.2 18.7 C7.79 19.33, 17.3 20.61, 20.73 20.1 C24.16 19.59, 24.27 19.13, 24.78 15.63 C25.3 12.13, 24.46 2.04, 23.79 -0.89 C23.13 -3.82, 24.14 -1.57, 20.78 -1.96 C17.43 -2.36, 6.92 -3.61, 3.67 -3.28 C0.41 -2.95, 2.03 -0.3, 1.26 0.04" stroke="#1e1e1e" stroke-width="1" fill="none"></path></g></g><mask></mask><g stroke-linecap="round"><g transform="translate(338.8689847805143 287.98437269480064) rotate(0 12.382477824117245 -3.0398334860260547)"><path d="M0.21 -0.73 C2.22 -2.03, 9.67 -7.36, 12.14 -7.58 C14.6 -7.8, 13.75 -2.3, 15.01 -2.04 C16.26 -1.78, 17.84 -6.18, 19.66 -6.02 C21.47 -5.87, 25.11 -1.84, 25.91 -1.11 M-1.14 1.51 C0.8 0.34, 8.65 -5.43, 11.75 -6.37 C14.86 -7.31, 16.07 -4.36, 17.5 -4.15 C18.92 -3.93, 19.1 -5.64, 20.32 -5.08 C21.53 -4.51, 23.95 -1.73, 24.8 -0.78" stroke="#1e1e1e" stroke-width="1" fill="none"></path></g></g><mask></mask><g stroke-linecap="round" transform="translate(354.56777349759125 274.2189323418959) rotate(0 1.7013465604713929 1.7013465604713929)"><path d="M0.85 0.74 C0.85 0.74, 0.85 0.74, 0.85 0.74 M0.85 0.74 C0.85 0.74, 0.85 0.74, 0.85 0.74" stroke="#ffc9c9" stroke-width="0.5" fill="none"></path><path d="M0.92 0.67 C1.16 0.32, 1.95 -0.62, 2.24 -0.54 C2.53 -0.45, 2.46 0.81, 2.68 1.18 C2.9 1.54, 3.44 1.49, 3.58 1.64 C3.72 1.8, 3.93 1.85, 3.53 2.09 C3.14 2.34, 1.63 2.86, 1.2 3.11 C0.76 3.37, 1.24 3.7, 0.92 3.6 C0.61 3.51, -0.66 2.87, -0.68 2.55 C-0.7 2.23, 0.28 1.96, 0.78 1.68 C1.29 1.4, 2.17 1.01, 2.34 0.87 C2.5 0.73, 2.06 1, 1.77 0.83 M1.4 -1.43 C1.71 -1.8, 1.36 -1.12, 1.89 -0.63 C2.43 -0.14, 4.21 0.74, 4.62 1.51 C5.03 2.27, 4.78 3.55, 4.35 3.96 C3.93 4.36, 2.79 3.87, 2.08 3.92 C1.37 3.96, 0.21 4.68, 0.08 4.22 C-0.05 3.76, 1.11 1.75, 1.27 1.17 C1.44 0.59, 0.99 0.92, 1.06 0.71 C1.13 0.51, 1.65 0.06, 1.7 -0.06 C1.74 -0.18, 1.34 0.13, 1.34 0 C1.33 -0.12, 1.72 -0.92, 1.65 -0.81" stroke="#1e1e1e" stroke-width="1" fill="none"></path></g><g transform="translate(337.2988800488498 295.21142171192287) rotate(0 13.937728881835938 6.160695139217239)"><text x="13.937728881835938" y="0" font-family="Virgil, Segoe UI Emoji" font-size="9.857112222747539px" fill="#1e1e1e" text-anchor="middle" style="white-space: pre;" direction="ltr" dominant-baseline="text-before-edge">detail</text></g><g stroke-linecap="round"><g transform="translate(558.8250966958639 270.71830899110097) rotate(0 -86.97444321049284 0.6936370811808956)"><path d="M-0.43 0.15 C-29.61 0.64, -145.65 2.12, -175.17 2.2 M1.55 -0.82 C-27.68 -0.59, -146.03 0.15, -175.5 0.56" stroke="#1e1e1e" stroke-width="1" fill="none"></path></g><g transform="translate(558.8250966958639 270.71830899110097) rotate(0 -86.97444321049284 0.6936370811808956)"><path d="M-147.15 -8 C-154.19 -8.92, -165.03 -4.47, -177.41 1.7 M-146.49 -10.42 C-156.86 -5.62, -167.94 -1.44, -174.73 0.84" stroke="#1e1e1e" stroke-width="1" fill="none"></path></g><g transform="translate(558.8250966958639 270.71830899110097) rotate(0 -86.97444321049284 0.6936370811808956)"><path d="M-146.96 12.52 C-153.93 5.58, -164.82 4, -177.41 1.7 M-146.29 10.1 C-156.85 7.43, -168.01 4.15, -174.73 0.84" stroke="#1e1e1e" stroke-width="1" fill="none"></path></g></g><mask></mask><g stroke-opacity="0" fill-opacity="0" stroke-linecap="round" transform="translate(1032.02051051731 227.99999999999994) rotate(0 64.43137548887091 64.43137548887088)"><path d="M21.65 16.17 C21.65 16.17, 21.65 16.17, 21.65 16.17 M21.65 16.17 C21.65 16.17, 21.65 16.17, 21.65 16.17 M6.5 40.4 C10.48 34.11, 17.69 26.15, 31.01 12.39 M5.53 41.42 C12.28 31.97, 20.06 24.98, 31.97 10.63 M5.45 46.67 C18.4 31.59, 34.17 16.83, 42.91 7.43 M3.57 49.47 C15.31 35.61, 26.91 22.42, 41.65 4.72 M4.65 53.85 C16.87 41.18, 29.66 26.85, 52.52 1.31 M2.28 56.08 C22.54 35.9, 38.69 15.49, 50.7 1.09 M1.91 61.87 C13.02 49.17, 25.96 39.53, 54.77 3.98 M2.08 62.44 C20.75 40.38, 40.2 18.64, 54.48 3.71 M0.77 69.26 C16.2 51.12, 33.24 32.92, 59.89 4.12 M0.9 70.16 C21 48.12, 42.2 23.73, 59.73 2.88 M2.9 75.88 C25.79 49.5, 42.89 27.82, 63.03 3.39 M2.84 73.75 C26.72 47.15, 51.05 19.52, 64.36 3.19 M4.2 77 C26.08 52.61, 51.28 24.93, 67.17 3.52 M4.5 78.52 C29.98 49.63, 56.06 21.08, 68.67 4.4 M7.69 84.23 C25.44 62.78, 40.32 42.98, 75.71 6.09 M6.17 83.16 C22.87 63.97, 39.39 43.5, 74.17 4.97 M7.48 86.54 C25.19 67.23, 43.57 47.47, 78.92 6.05 M7.99 86.56 C35.15 56.49, 61.09 26.07, 78.27 5.3 M10.53 91.99 C41.25 57.97, 69.98 21.45, 85.12 4.47 M10.01 91.32 C29.27 68.55, 48.25 46.75, 83.72 4.24 M11.22 93.78 C26.99 76.25, 41.77 55.41, 87.24 6.52 M10.98 95.47 C35.17 66.63, 59.86 37.92, 87.44 6.85 M11.83 101.45 C29.9 80.58, 48.97 60.19, 92.55 10.73 M11.09 101.49 C36.79 72.61, 60.66 45.24, 90.45 9.36 M15.65 103.39 C45.76 69.57, 75.32 35.69, 93.19 10.99 M13.34 104.55 C42.84 71.59, 69.36 39.66, 94.69 10.94 M16.24 106.38 C43.05 76.15, 69.21 43.7, 98.74 12.28 M17 105.78 C45.3 73.5, 74.4 41.57, 97.84 13.23 M18.55 110.03 C49.24 74.58, 77.43 44.74, 101.32 13.21 M21.07 108.5 C44.62 82.19, 66.46 56.62, 102.63 14.56 M22.07 111.59 C55.92 76.18, 87.5 39.81, 105.43 16.27 M23.61 112.73 C48.24 83.29, 71.29 55.82, 107 15.95 M26.68 116.14 C51.09 91.51, 69.9 63.34, 110.49 17.26 M25.85 115.16 C48.99 88.87, 71.3 62.75, 108.8 18.36 M30.51 118.88 C53.42 88.67, 79.83 60.08, 111.96 20.38 M28.3 117.21 C57.48 86.25, 84.95 53.02, 111.27 21.46 M31.03 119.62 C55.35 91.43, 79.85 63.12, 115.84 27.17 M32.14 121.22 C62.07 85.16, 93.64 50.27, 113.67 24.35 M35.65 124.79 C65.64 87.41, 95.03 50.63, 117.21 30.53 M33.98 122.24 C65.46 88.45, 95.54 51.65, 116.17 29.34 M40.13 124.4 C68.84 90.38, 95.68 61.99, 120.03 30.73 M38.6 124.75 C67.97 91.13, 95.66 59.07, 119.83 31.66 M42.49 126.84 C68.38 95.74, 89.7 71.42, 119.65 36.89 M43.08 125.18 C64.33 103.57, 84.37 79.38, 121.41 34.77 M49.45 127.87 C75.58 95.28, 102.3 64.38, 124.66 41.24 M47.48 126.68 C69.92 98.66, 93.15 74.42, 123.44 40.3 M53.65 125.6 C73.35 101.86, 97.13 76.32, 126 41.61 M52.3 127.82 C74.35 102.4, 96.72 74.8, 125.6 42.34 M56.09 129.98 C71.22 110.78, 89.4 92.29, 126.25 48.98 M57.22 127.86 C69.73 111.69, 85.91 95.11, 126.22 48.66 M60.67 128.35 C78.84 109.84, 94.78 89.44, 127.96 54.14 M59.85 130.03 C86.22 101.31, 111.22 71.39, 126.93 53.24 M64.69 130.9 C81.34 109.94, 98.49 93.15, 125.6 60.27 M64.48 130.73 C87.97 102.92, 111.69 76.72, 126.79 58.5 M71.29 129.89 C84.57 114.8, 94.07 104.19, 128.03 64.38 M70.78 130.56 C84.39 114.29, 99.33 97.24, 129.03 64.55 M78.73 127.25 C93.56 107.89, 110.83 88.53, 127.03 69.12 M79.36 127.58 C89.92 114.13, 103.03 100.46, 129.88 68.7 M86.16 128.24 C101.44 105.31, 119.11 87.82, 128.37 74.99 M83.72 126.8 C101.76 106.79, 117.56 88.96, 129.82 75.44 M92.08 122.47 C103.72 111.31, 112.5 97.63, 123.22 86.63 M92.99 122.89 C102.74 112.3, 112.69 100.17, 125.26 86.55 M113.98 104.47 C115.32 102.53, 117.4 101.12, 119.6 99.86 M114.65 104.49 C115.97 102.59, 117.3 100.8, 119.14 99.11" stroke="#a5d8ff" stroke-width="0.5" fill="none"></path><path d="M81.86 2.67 C91.5 4.37, 101.82 11.43, 109.04 17.97 C116.25 24.52, 121.84 32.56, 125.13 41.92 C128.43 51.28, 130.3 63.97, 128.82 74.12 C127.34 84.27, 122.23 94.7, 116.27 102.82 C110.31 110.94, 101.89 118.44, 93.07 122.84 C84.26 127.24, 73.49 129.6, 63.38 129.23 C53.27 128.87, 41.21 125.54, 32.44 120.66 C23.66 115.77, 16.11 108.06, 10.74 99.94 C5.37 91.83, 1.21 81.82, 0.22 71.95 C-0.76 62.08, 1.25 50.01, 4.82 40.71 C8.4 31.4, 13.97 22.8, 21.69 16.13 C29.41 9.46, 39.81 2.51, 51.14 0.69 C62.48 -1.14, 82.2 3.44, 89.71 5.17 C97.22 6.9, 96.55 10.23, 96.2 11.07 M92.09 5.82 C101.45 8.79, 109.84 16.9, 116.03 24.79 C122.23 32.68, 127.57 43.18, 129.24 53.14 C130.91 63.1, 129.22 75.27, 126.04 84.56 C122.86 93.84, 117.33 102.08, 110.17 108.85 C103 115.62, 92.69 121.97, 83.05 125.17 C73.42 128.37, 62.04 129.43, 52.35 128.03 C42.67 126.64, 32.73 122.74, 24.95 116.78 C17.18 110.83, 9.98 101.44, 5.72 92.32 C1.47 83.21, -1.31 72.08, -0.59 62.09 C0.13 52.09, 4.61 41.15, 10.02 32.37 C15.43 23.6, 23.63 14.74, 31.88 9.41 C40.13 4.09, 49.47 0.97, 59.51 0.42 C69.56 -0.14, 87.1 4.82, 92.13 6.06 C97.16 7.31, 90.13 6.76, 89.69 7.89" stroke="#1e1e1e" stroke-width="1" fill="none"></path></g><g stroke-linecap="round"><g transform="translate(1072.7065174270988 250.94737724393184) rotate(0 21.522894914814174 25.397138477676975)" fill-rule="evenodd"><path d="M0 0 C0 0, 0 0, 0 0 M0 0 C0 0, 0 0, 0 0 M0.52 6.65 C0.15 5.66, 2 3.14, 4.78 -0.16 M-0.35 6.03 C0.65 5.5, 1.55 4.04, 4.9 0.44 M1.65 11.48 C2.66 8.46, 3.94 5.67, 11.63 1.39 M0.41 12.72 C4.28 7.53, 8.11 3.83, 10.42 0.54 M-1.91 18.75 C6.02 10.84, 11.16 3.44, 15.61 -0.47 M0.6 18.4 C4.62 14.33, 8.18 8.01, 16.12 -0.45 M1.31 22.62 C7.95 17.83, 13.03 7.22, 22.59 0.45 M-0.68 24.32 C8.13 14.36, 16.24 4.83, 22.08 -0.22 M-0.59 28.65 C8.64 18.17, 20.45 11.16, 26.56 -1.53 M-0.63 29.94 C8.11 21.49, 16.75 11.79, 26.33 0.15 M-0.53 35.13 C8.32 26.5, 13.87 19, 29.8 3.12 M0.12 37.48 C8.44 27.58, 14.9 18.56, 29.06 3.16 M29.92 2.16 C29.92 2.16, 29.92 2.16, 29.92 2.16 M29.92 2.16 C29.92 2.16, 29.92 2.16, 29.92 2.16 M1.98 41.89 C11.22 30.05, 23.84 15.36, 29.22 7.69 M-0.54 42.55 C7.76 34.07, 16.38 24.62, 29.99 7.09 M32.94 4.78 C32.94 4.78, 32.94 4.78, 32.94 4.78 M32.94 4.78 C32.94 4.78, 32.94 4.78, 32.94 4.78 M1.41 49.45 C10.51 37.84, 21.12 24.35, 28.09 14.8 M-0.34 48.62 C10.25 36.37, 20.89 24.13, 29.64 15.94 M35.96 7.41 C35.96 7.41, 35.96 7.41, 35.96 7.41 M35.96 7.41 C35.96 7.41, 35.96 7.41, 35.96 7.41 M0.77 51.23 C14.24 38.06, 27.73 21.26, 36.14 16.45 M2.11 53 C8.93 44.12, 16.92 35.43, 33.94 14.78 M38.32 10.79 C38.32 10.79, 38.32 10.79, 38.32 10.79 M38.32 10.79 C38.32 10.79, 38.32 10.79, 38.32 10.79 M8.03 51.89 C14.33 43.38, 27.39 30.05, 40.89 16.72 M5.79 53.62 C18.7 41.49, 29.4 28.03, 39.22 14.17 M41.34 13.41 C41.34 13.41, 41.34 13.41, 41.34 13.41 M41.34 13.41 C41.34 13.41, 41.34 13.41, 41.34 13.41 M13.45 54.35 C24.23 38.14, 36.27 24.66, 43.39 17.65 M12.58 52.08 C24.17 40.29, 33.37 27.68, 43.99 15.99 M15.94 53.14 C24.29 44.62, 33.63 31.77, 45.77 23.97 M17.35 54.09 C26.44 43.82, 34.95 35.06, 43.79 22.78 M24.51 53.4 C31.64 44.63, 38.39 35.32, 45.38 26.98 M22.21 53.19 C28.46 45.76, 36.16 38.54, 44.02 29.2 M25.83 53.36 C32.26 45.11, 39.79 40.11, 43.88 35.89 M27.65 53.15 C32.84 47.14, 37.08 43.25, 45 33.77 M33.59 52.27 C37.04 49.83, 39.36 48.15, 43.89 39.81 M33.87 53.32 C37.32 49.48, 41.33 44.52, 43.23 41.15 M38.17 53.21 C40.48 50.37, 42.49 48.36, 44.18 46.56 M38.61 52.9 C40.35 51.86, 41.62 49.64, 44.08 46.49" stroke="#a5d8ff" stroke-width="0.5" fill="none"></path><path d="M-0.82 -0.21 C1.68 20.63, 1.98 41.17, 0.06 50.17 M0.78 -0.2 C1.15 18.78, 0.74 36.22, -0.24 51.84 M0.37 52.36 C10.51 52.86, 26.69 49.59, 42.98 52.12 M-0.74 52.65 C10.58 51.78, 23.29 51.66, 42.98 52 M43.87 51.82 C40.86 36.04, 41.22 21.4, 42.54 14.9 M41.83 52.68 C42.87 37.75, 42.96 22.26, 41.76 14.99 M43.32 16.13 C38.12 13.62, 30.17 14.7, 28.67 15.62 M42.07 14.14 C37.46 14.9, 32.41 14.66, 28.21 15.43 M29.26 15.12 C28.22 10.44, 29.06 6.86, 29.76 -0.21 M28.8 14.73 C29.06 11.22, 28.64 8.74, 29.07 0.51 M29.14 1.98 C31.61 6.55, 36.13 10.79, 43.66 12.91 M29.37 1.24 C33.53 4.63, 36.52 9.06, 41.8 15.67 M42.69 15.17 C36.58 10.21, 34.72 6.09, 29.69 -1.89 M43.18 15.54 C38.01 10.77, 32.34 4.49, 27.32 0.34 M30.07 -0.7 C18.05 -2.03, 6.01 -0.23, -0.33 -1.02 M29.19 0.35 C20.47 0.86, 11.45 0.4, -0.15 -0.45 M0 0 C0 0, 0 0, 0 0 M0 0 C0 0, 0 0, 0 0" stroke="#1e1e1e" stroke-width="1" fill="none"></path></g></g><mask></mask><g transform="translate(1040.272740193193 307.5343480791) rotate(0 56.17914581298828 13.796003056388713)"><text x="56.17914581298828" y="0" font-family="Virgil, Segoe UI Emoji" font-size="22.073604890221926px" fill="#1e1e1e" text-anchor="middle" style="white-space: pre;" direction="ltr" dominant-baseline="text-before-edge">about.html</text></g><g stroke-linecap="round" transform="translate(1081.8964765442665 268.6787694396583) rotate(0 10.564787749057018 10.252606049212574)"><path d="M5.13 0 M5.13 0 C7.32 0, 9.51 0, 16 0 M5.13 0 C8.36 0, 11.59 0, 16 0 M16 0 C19.42 0, 21.13 1.71, 21.13 5.13 M16 0 C19.42 0, 21.13 1.71, 21.13 5.13 M21.13 5.13 C21.13 8.45, 21.13 11.76, 21.13 15.38 M21.13 5.13 C21.13 8.94, 21.13 12.75, 21.13 15.38 M21.13 15.38 C21.13 18.8, 19.42 20.51, 16 20.51 M21.13 15.38 C21.13 18.8, 19.42 20.51, 16 20.51 M16 20.51 C12.34 20.51, 8.67 20.51, 5.13 20.51 M16 20.51 C11.78 20.51, 7.56 20.51, 5.13 20.51 M5.13 20.51 C1.71 20.51, 0 18.8, 0 15.38 M5.13 20.51 C1.71 20.51, 0 18.8, 0 15.38 M0 15.38 C0 11.76, 0 8.14, 0 5.13 M0 15.38 C0 12.75, 0 10.13, 0 5.13 M0 5.13 C0 1.71, 1.71 0, 5.13 0 M0 5.13 C0 1.71, 1.71 0, 5.13 0" stroke="#1e1e1e" stroke-width="2" fill="none"></path></g><g stroke-linecap="round"><g transform="translate(1081.8777199699812 274.431402131931) rotate(0 10.180739689080724 0.07730409638782021)"><path d="M0 0 C2.15 0.03, 9.48 0.15, 12.88 0.15 C16.27 0.15, 19.11 0.03, 20.36 0 M0 0 C2.15 0.03, 9.48 0.15, 12.88 0.15 C16.27 0.15, 19.11 0.03, 20.36 0" stroke="#1e1e1e" stroke-width="2" fill="none"></path></g></g><mask></mask><g stroke-linecap="round"><g transform="translate(1093.1811968376737 283.6214199944436) rotate(0 -0.11564105651279988 1.3388436919569244)"><path d="M0 0 C-0.04 0.3, -0.23 1.37, -0.23 1.81 C-0.23 2.26, -0.04 2.53, 0 2.68 M0 0 C-0.04 0.3, -0.23 1.37, -0.23 1.81 C-0.23 2.26, -0.04 2.53, 0 2.68" stroke="#1e1e1e" stroke-width="2" fill="none"></path></g></g><mask></mask><g stroke-linecap="round"><g transform="translate(1095.1667607114682 283.6022718664258) rotate(0 0.026246546261518233 1.3388436919569244)"><path d="M0 0 C0.01 0.17, 0.05 0.6, 0.05 1.05 C0.05 1.5, 0.01 2.41, 0 2.68 M0 0 C0.01 0.17, 0.05 0.6, 0.05 1.05 C0.05 1.5, 0.01 2.41, 0 2.68" stroke="#1e1e1e" stroke-width="2" fill="none"></path></g></g><mask></mask><g stroke-linecap="round"><g transform="translate(1097.6381108470478 283.5739997621092) rotate(0 0.01489420317193435 1.3388436919569244)"><path d="M0 0 C0 0.26, 0.03 1.14, 0.03 1.58 C0.03 2.03, 0 2.5, 0 2.68 M0 0 C0 0.26, 0.03 1.14, 0.03 1.58 C0.03 2.03, 0 2.5, 0 2.68" stroke="#1e1e1e" stroke-width="2" fill="none"></path></g></g><mask></mask><g stroke-linecap="round"><g transform="translate(1099.8854666854822 283.61415456998293) rotate(0 -0.06497034071401231 1.3388436919569244)"><path d="M0 0 C-0.02 0.07, -0.13 -0.01, -0.13 0.44 C-0.13 0.89, -0.02 2.3, 0 2.68 M0 0 C-0.02 0.07, -0.13 -0.01, -0.13 0.44 C-0.13 0.89, -0.02 2.3, 0 2.68" stroke="#1e1e1e" stroke-width="2" fill="none"></path></g></g><mask></mask><g stroke-linecap="round"><g transform="translate(1090.330383024395 274.96514174462664) rotate(0 2.3766927316462443 3.050749943387757)"><path d="M0 0 C0.78 0.02, 3.89 -0.91, 4.69 0.13 C5.48 1.18, 5.12 5.63, 4.76 6.27 C4.4 6.91, 3.37 3.93, 2.54 3.95 C1.7 3.97, 0.16 7.03, -0.26 6.37 C-0.69 5.71, -0.04 1.06, 0 0 M0 0 C0.78 0.02, 3.89 -0.91, 4.69 0.13 C5.48 1.18, 5.12 5.63, 4.76 6.27 C4.4 6.91, 3.37 3.93, 2.54 3.95 C1.7 3.97, 0.16 7.03, -0.26 6.37 C-0.69 5.71, -0.04 1.06, 0 0" stroke="#1e1e1e" stroke-width="2" fill="none"></path></g></g><mask></mask><g stroke-linecap="round"><g transform="translate(537.0233145776097 112.90488749006215) rotate(0 275.4626881518533 67.44919007209327)"><path d="M-1.15 -0.55 C90.91 22.03, 460.08 111.9, 552.07 134.53 M0.45 1.78 C92.43 24.54, 459.92 113.03, 551.46 135.45" stroke="#1e1e1e" stroke-width="1" fill="none"></path></g><g transform="translate(537.0233145776097 112.90488749006215) rotate(0 275.4626881518533 67.44919007209327)"><path d="M520.73 139.84 C528 137.04, 537.47 135.36, 550.13 136.44 M522.32 138.67 C532.74 137.99, 542.53 136.28, 552.06 135.38" stroke="#1e1e1e" stroke-width="1" fill="none"></path></g><g transform="translate(537.0233145776097 112.90488749006215) rotate(0 275.4626881518533 67.44919007209327)"><path d="M525.57 119.9 C531.33 122.61, 539.46 126.48, 550.13 136.44 M527.16 118.73 C535.92 125.17, 543.99 130.57, 552.06 135.38" stroke="#1e1e1e" stroke-width="1" fill="none"></path></g></g><mask></mask></svg>